<?xml version="1.0" encoding="utf-8" standalone="no"?>
<!DOCTYPE svg PUBLIC "-//W3C//DTD SVG 1.1//EN"
  "http://www.w3.org/Graphics/SVG/1.1/DTD/svg11.dtd">
<svg height="280.311067pt" version="1.1" viewBox="0 0 453.543307 280.311067" width="453.543307pt" xmlns="http://www.w3.org/2000/svg" xmlns:xlink="http://www.w3.org/1999/xlink">
 <metadata>
  <rdf:RDF xmlns:cc="http://creativecommons.org/ns#" xmlns:dc="http://purl.org/dc/elements/1.1/" xmlns:rdf="http://www.w3.org/1999/02/22-rdf-syntax-ns#">
   <cc:Work>
    <dc:type rdf:resource="http://purl.org/dc/dcmitype/StillImage"/>
    <dc:date>2021-11-01T15:28:50.811092</dc:date>
    <dc:format>image/svg+xml</dc:format>
    <dc:creator>
     <cc:Agent>
      <dc:title>Matplotlib v3.4.3, https://matplotlib.org/</dc:title>
     </cc:Agent>
    </dc:creator>
   </cc:Work>
  </rdf:RDF>
 </metadata>
 <defs>
  <style type="text/css">*{stroke-linecap:butt;stroke-linejoin:round;}</style>
 </defs>
 <g id="figure_1">
  <g id="patch_1">
   <path d="M 0 280.311067
L 453.543307 280.311067
L 453.543307 0
L 0 0
z
" style="fill:none;"/>
  </g>
  <g id="axes_1">
   <g id="patch_2">
    <path d="M 3.00024 256.698818
L 219.063987 256.698818
L 219.063987 3.00024
L 3.00024 3.00024
z
" style="fill:#ffffff;"/>
   </g>
   <g id="patch_3">
    <path clip-path="url(#pa9b241526d)" d="M 219.063987 256.698818
L 219.063987 256.698818
L 219.063987 244.013889
L 219.063987 244.013889
L 219.063987 231.328961
L 219.063987 231.328961
L 219.063987 218.644032
L 219.063987 218.644032
L 219.063987 205.959103
L 219.063987 205.959103
L 219.063987 193.274174
L 219.063987 193.274174
L 219.063987 180.589245
L 219.063987 180.589245
L 219.063987 167.904316
L 214.387283 167.904316
L 214.387283 155.219387
L 191.00376 155.219387
L 191.00376 142.534458
L 181.650351 142.534458
L 181.650351 129.849529
L 125.529897 129.849529
L 125.529897 117.1646
L 102.146375 117.1646
L 102.146375 104.479671
L 13.28899 104.479671
L 13.28899 91.794742
L 17.965694 91.794742
L 17.965694 79.109814
L 74.086148 79.109814
L 74.086148 66.424885
L 116.176488 66.424885
L 116.176488 53.739956
L 186.327056 53.739956
L 186.327056 41.055027
L 191.00376 41.055027
L 191.00376 28.370098
L 219.063987 28.370098
L 219.063987 15.685169
L 219.063987 15.685169
L 219.063987 3.00024
L 219.063987 3.00024
L 219.063987 15.685169
L 219.063987 15.685169
L 219.063987 28.370098
L 219.063987 28.370098
L 219.063987 41.055027
L 219.063987 41.055027
L 219.063987 53.739956
L 219.063987 53.739956
L 219.063987 66.424885
L 219.063987 66.424885
L 219.063987 79.109814
L 219.063987 79.109814
L 219.063987 91.794742
L 219.063987 91.794742
L 219.063987 104.479671
L 219.063987 104.479671
L 219.063987 117.1646
L 219.063987 117.1646
L 219.063987 129.849529
L 219.063987 129.849529
L 219.063987 142.534458
L 219.063987 142.534458
L 219.063987 155.219387
L 219.063987 155.219387
L 219.063987 167.904316
L 219.063987 167.904316
L 219.063987 180.589245
L 219.063987 180.589245
L 219.063987 193.274174
L 219.063987 193.274174
L 219.063987 205.959103
L 219.063987 205.959103
L 219.063987 218.644032
L 219.063987 218.644032
L 219.063987 231.328961
L 219.063987 231.328961
L 219.063987 244.013889
L 219.063987 244.013889
z
" style="fill:#005ea8;"/>
   </g>
   <g id="matplotlib.axis_1">
    <g id="xtick_1">
     <g id="line2d_1">
      <path clip-path="url(#pa9b241526d)" d="M 219.063987 256.698818
L 219.063987 3.00024
" style="fill:none;stroke:#000000;stroke-linecap:square;stroke-opacity:0.1;stroke-width:0.5;"/>
     </g>
     <g id="line2d_2">
      <defs>
       <path d="M 0 0
L 0 -3
" id="mfe31a4959c" style="stroke:#000000;stroke-width:0.5;"/>
      </defs>
      <g>
       <use style="stroke:#000000;stroke-width:0.5;" x="219.063987" xlink:href="#mfe31a4959c" y="256.698818"/>
      </g>
     </g>
     <g id="text_1">
      <!-- 0 -->
      <g transform="translate(217.481016 262.447074)scale(0.06246 -0.06246)">
       <defs>
        <path d="M 3022 2031
Q 3022 1566 2948 1181
Q 2875 797 2704 520
Q 2534 244 2259 92
Q 1984 -59 1581 -59
Q 1200 -59 939 77
Q 678 213 518 477
Q 359 741 292 1127
Q 225 1513 225 2013
Q 225 2475 300 2861
Q 375 3247 544 3523
Q 713 3800 988 3951
Q 1263 4103 1663 4103
Q 2047 4103 2308 3967
Q 2569 3831 2728 3567
Q 2888 3303 2955 2917
Q 3022 2531 3022 2031
z
M 2472 1994
Q 2472 2297 2450 2537
Q 2428 2778 2386 2962
Q 2344 3147 2276 3280
Q 2209 3413 2115 3498
Q 2022 3584 1901 3623
Q 1781 3663 1631 3663
Q 1366 3663 1200 3538
Q 1034 3413 939 3194
Q 844 2975 809 2681
Q 775 2388 775 2050
Q 775 1597 822 1280
Q 869 963 970 763
Q 1072 563 1230 472
Q 1388 381 1613 381
Q 1788 381 1920 437
Q 2053 494 2148 598
Q 2244 703 2306 850
Q 2369 997 2406 1175
Q 2444 1353 2458 1561
Q 2472 1769 2472 1994
z
" id="Calibri-30" transform="scale(0.015625)"/>
       </defs>
       <use xlink:href="#Calibri-30"/>
      </g>
     </g>
    </g>
    <g id="xtick_2">
     <g id="line2d_3">
      <path clip-path="url(#pa9b241526d)" d="M 172.296942 256.698818
L 172.296942 3.00024
" style="fill:none;stroke:#000000;stroke-linecap:square;stroke-opacity:0.1;stroke-width:0.5;"/>
     </g>
     <g id="line2d_4">
      <g>
       <use style="stroke:#000000;stroke-width:0.5;" x="172.296942" xlink:href="#mfe31a4959c" y="256.698818"/>
      </g>
     </g>
     <g id="text_2">
      <!-- 10 -->
      <g transform="translate(169.131001 262.447074)scale(0.06246 -0.06246)">
       <defs>
        <path d="M 2897 213
Q 2897 153 2887 112
Q 2878 72 2862 47
Q 2847 22 2826 11
Q 2806 0 2784 0
L 672 0
Q 650 0 631 11
Q 613 22 595 47
Q 578 72 568 112
Q 559 153 559 213
Q 559 269 568 309
Q 578 350 592 376
Q 606 403 626 417
Q 647 431 672 431
L 1516 431
L 1516 3506
L 734 3041
Q 675 3009 639 3003
Q 603 2997 581 3017
Q 559 3038 551 3084
Q 544 3131 544 3203
Q 544 3256 548 3293
Q 553 3331 562 3356
Q 572 3381 589 3400
Q 606 3419 634 3438
L 1566 4034
Q 1578 4044 1597 4050
Q 1616 4056 1644 4062
Q 1672 4069 1709 4070
Q 1747 4072 1803 4072
Q 1878 4072 1928 4065
Q 1978 4059 2006 4048
Q 2034 4038 2043 4020
Q 2053 4003 2053 3984
L 2053 431
L 2784 431
Q 2809 431 2831 417
Q 2853 403 2867 376
Q 2881 350 2889 309
Q 2897 269 2897 213
z
" id="Calibri-31" transform="scale(0.015625)"/>
       </defs>
       <use xlink:href="#Calibri-31"/>
       <use x="50.683594" xlink:href="#Calibri-30"/>
      </g>
     </g>
    </g>
    <g id="xtick_3">
     <g id="line2d_5">
      <path clip-path="url(#pa9b241526d)" d="M 125.529897 256.698818
L 125.529897 3.00024
" style="fill:none;stroke:#000000;stroke-linecap:square;stroke-opacity:0.1;stroke-width:0.5;"/>
     </g>
     <g id="line2d_6">
      <g>
       <use style="stroke:#000000;stroke-width:0.5;" x="125.529897" xlink:href="#mfe31a4959c" y="256.698818"/>
      </g>
     </g>
     <g id="text_3">
      <!-- 20 -->
      <g transform="translate(122.363956 262.447074)scale(0.06246 -0.06246)">
       <defs>
        <path d="M 2888 231
Q 2888 175 2880 131
Q 2872 88 2858 58
Q 2844 28 2820 14
Q 2797 0 2769 0
L 534 0
Q 491 0 458 11
Q 425 22 401 47
Q 378 72 367 119
Q 356 166 356 234
Q 356 297 361 344
Q 366 391 381 427
Q 397 463 420 498
Q 444 534 481 575
L 1266 1406
Q 1538 1694 1702 1922
Q 1866 2150 1955 2337
Q 2044 2525 2072 2678
Q 2100 2831 2100 2966
Q 2100 3100 2056 3220
Q 2013 3341 1930 3431
Q 1847 3522 1722 3575
Q 1597 3628 1434 3628
Q 1244 3628 1092 3575
Q 941 3522 827 3459
Q 713 3397 636 3344
Q 559 3291 522 3291
Q 500 3291 483 3303
Q 466 3316 455 3344
Q 444 3372 437 3419
Q 431 3466 431 3531
Q 431 3578 434 3612
Q 438 3647 445 3672
Q 453 3697 465 3719
Q 478 3741 515 3773
Q 553 3806 645 3862
Q 738 3919 877 3973
Q 1016 4028 1183 4065
Q 1350 4103 1534 4103
Q 1828 4103 2048 4020
Q 2269 3938 2414 3794
Q 2559 3650 2631 3459
Q 2703 3269 2703 3053
Q 2703 2859 2668 2667
Q 2634 2475 2523 2251
Q 2413 2028 2203 1754
Q 1994 1481 1647 1125
L 1006 456
L 2766 456
Q 2791 456 2814 442
Q 2838 428 2855 400
Q 2872 372 2880 330
Q 2888 288 2888 231
z
" id="Calibri-32" transform="scale(0.015625)"/>
       </defs>
       <use xlink:href="#Calibri-32"/>
       <use x="50.683594" xlink:href="#Calibri-30"/>
      </g>
     </g>
    </g>
    <g id="xtick_4">
     <g id="line2d_7">
      <path clip-path="url(#pa9b241526d)" d="M 78.762853 256.698818
L 78.762853 3.00024
" style="fill:none;stroke:#000000;stroke-linecap:square;stroke-opacity:0.1;stroke-width:0.5;"/>
     </g>
     <g id="line2d_8">
      <g>
       <use style="stroke:#000000;stroke-width:0.5;" x="78.762853" xlink:href="#mfe31a4959c" y="256.698818"/>
      </g>
     </g>
     <g id="text_4">
      <!-- 30 -->
      <g transform="translate(75.596911 262.447074)scale(0.06246 -0.06246)">
       <defs>
        <path d="M 2856 1156
Q 2856 878 2759 654
Q 2663 431 2481 272
Q 2300 113 2034 27
Q 1769 -59 1434 -59
Q 1231 -59 1054 -26
Q 878 6 740 51
Q 603 97 512 145
Q 422 194 398 216
Q 375 238 362 259
Q 350 281 340 312
Q 331 344 326 389
Q 322 434 322 500
Q 322 613 344 656
Q 366 700 406 700
Q 434 700 517 650
Q 600 600 729 542
Q 859 484 1032 434
Q 1206 384 1419 384
Q 1625 384 1781 437
Q 1938 491 2044 587
Q 2150 684 2203 817
Q 2256 950 2256 1106
Q 2256 1278 2189 1415
Q 2122 1553 1992 1653
Q 1863 1753 1673 1806
Q 1484 1859 1244 1859
L 859 1859
Q 834 1859 811 1870
Q 788 1881 770 1906
Q 753 1931 742 1972
Q 731 2013 731 2078
Q 731 2138 740 2177
Q 750 2216 767 2239
Q 784 2263 806 2273
Q 828 2284 856 2284
L 1209 2284
Q 1416 2284 1580 2337
Q 1744 2391 1858 2491
Q 1972 2591 2033 2730
Q 2094 2869 2094 3041
Q 2094 3166 2053 3280
Q 2013 3394 1931 3478
Q 1850 3563 1723 3611
Q 1597 3659 1431 3659
Q 1250 3659 1098 3604
Q 947 3550 828 3487
Q 709 3425 631 3370
Q 553 3316 522 3316
Q 500 3316 483 3323
Q 466 3331 455 3354
Q 444 3378 439 3420
Q 434 3463 434 3531
Q 434 3578 437 3614
Q 441 3650 450 3676
Q 459 3703 471 3725
Q 484 3747 514 3776
Q 544 3806 634 3862
Q 725 3919 858 3973
Q 991 4028 1164 4065
Q 1338 4103 1538 4103
Q 1819 4103 2031 4031
Q 2244 3959 2386 3828
Q 2528 3697 2598 3514
Q 2669 3331 2669 3109
Q 2669 2919 2619 2755
Q 2569 2591 2472 2464
Q 2375 2338 2234 2248
Q 2094 2159 1909 2125
L 1909 2119
Q 2119 2097 2292 2014
Q 2466 1931 2591 1806
Q 2716 1681 2786 1514
Q 2856 1347 2856 1156
z
" id="Calibri-33" transform="scale(0.015625)"/>
       </defs>
       <use xlink:href="#Calibri-33"/>
       <use x="50.683594" xlink:href="#Calibri-30"/>
      </g>
     </g>
    </g>
    <g id="xtick_5">
     <g id="line2d_9">
      <path clip-path="url(#pa9b241526d)" d="M 31.995808 256.698818
L 31.995808 3.00024
" style="fill:none;stroke:#000000;stroke-linecap:square;stroke-opacity:0.1;stroke-width:0.5;"/>
     </g>
     <g id="line2d_10">
      <g>
       <use style="stroke:#000000;stroke-width:0.5;" x="31.995808" xlink:href="#mfe31a4959c" y="256.698818"/>
      </g>
     </g>
     <g id="text_5">
      <!-- 40 -->
      <g transform="translate(28.829867 262.447074)scale(0.06246 -0.06246)">
       <defs>
        <path d="M 3059 1150
Q 3059 1047 3028 987
Q 2997 928 2941 928
L 2484 928
L 2484 78
Q 2484 53 2471 36
Q 2459 19 2428 6
Q 2397 -6 2347 -12
Q 2297 -19 2219 -19
Q 2144 -19 2094 -12
Q 2044 -6 2014 6
Q 1984 19 1973 36
Q 1963 53 1963 78
L 1963 928
L 294 928
Q 256 928 231 937
Q 206 947 186 972
Q 166 997 158 1044
Q 150 1091 150 1166
Q 150 1225 153 1272
Q 156 1319 165 1358
Q 175 1397 190 1433
Q 206 1469 228 1509
L 1684 3966
Q 1700 3991 1729 4009
Q 1759 4028 1806 4040
Q 1853 4053 1922 4058
Q 1991 4063 2084 4063
Q 2188 4063 2264 4055
Q 2341 4047 2387 4034
Q 2434 4022 2459 4001
Q 2484 3981 2484 3953
L 2484 1372
L 2941 1372
Q 2994 1372 3026 1317
Q 3059 1263 3059 1150
z
M 1963 3591
L 1956 3591
L 641 1372
L 1963 1372
L 1963 3591
z
" id="Calibri-34" transform="scale(0.015625)"/>
       </defs>
       <use xlink:href="#Calibri-34"/>
       <use x="50.683594" xlink:href="#Calibri-30"/>
      </g>
     </g>
    </g>
   </g>
   <g id="matplotlib.axis_2">
    <g id="ytick_1">
     <g id="line2d_11">
      <defs>
       <path d="M 0 0
L -3 0
" id="m9ac0eb8b71" style="stroke:#000000;stroke-width:0.5;"/>
      </defs>
      <g>
       <use style="stroke:#000000;stroke-width:0.5;" x="219.063987" xlink:href="#m9ac0eb8b71" y="231.328961"/>
      </g>
     </g>
     <g id="text_6">
      <!-- 10 -->
      <g transform="translate(220.563987 233.453088)scale(0.06246 -0.06246)">
       <use xlink:href="#Calibri-31"/>
       <use x="50.683594" xlink:href="#Calibri-30"/>
      </g>
     </g>
    </g>
    <g id="ytick_2">
     <g id="line2d_12">
      <g>
       <use style="stroke:#000000;stroke-width:0.5;" x="219.063987" xlink:href="#m9ac0eb8b71" y="180.589245"/>
      </g>
     </g>
     <g id="text_7">
      <!-- 30 -->
      <g transform="translate(220.563987 182.713373)scale(0.06246 -0.06246)">
       <use xlink:href="#Calibri-33"/>
       <use x="50.683594" xlink:href="#Calibri-30"/>
      </g>
     </g>
    </g>
    <g id="ytick_3">
     <g id="line2d_13">
      <g>
       <use style="stroke:#000000;stroke-width:0.5;" x="219.063987" xlink:href="#m9ac0eb8b71" y="129.849529"/>
      </g>
     </g>
     <g id="text_8">
      <!-- 50 -->
      <g transform="translate(220.563987 131.973657)scale(0.06246 -0.06246)">
       <defs>
        <path d="M 2869 1300
Q 2869 975 2759 722
Q 2650 469 2450 295
Q 2250 122 1973 31
Q 1697 -59 1359 -59
Q 1172 -59 1003 -32
Q 834 -6 703 33
Q 572 72 487 109
Q 403 147 379 169
Q 356 191 347 209
Q 338 228 330 254
Q 322 281 319 322
Q 316 363 316 419
Q 316 472 320 514
Q 325 556 337 582
Q 350 609 367 621
Q 384 634 406 634
Q 438 634 503 595
Q 569 556 680 511
Q 791 466 955 425
Q 1119 384 1344 384
Q 1553 384 1728 434
Q 1903 484 2029 590
Q 2156 697 2228 858
Q 2300 1019 2300 1250
Q 2300 1444 2239 1592
Q 2178 1741 2051 1839
Q 1925 1938 1731 1986
Q 1538 2034 1269 2034
Q 1078 2034 940 2015
Q 803 1997 684 1997
Q 597 1997 559 2037
Q 522 2078 522 2194
L 522 3841
Q 522 3944 570 3994
Q 619 4044 709 4044
L 2500 4044
Q 2525 4044 2548 4030
Q 2572 4016 2587 3987
Q 2603 3959 2611 3915
Q 2619 3872 2619 3813
Q 2619 3700 2587 3637
Q 2556 3575 2500 3575
L 991 3575
L 991 2441
Q 1100 2456 1214 2459
Q 1328 2463 1478 2463
Q 1825 2463 2084 2380
Q 2344 2297 2517 2145
Q 2691 1994 2780 1778
Q 2869 1563 2869 1300
z
" id="Calibri-35" transform="scale(0.015625)"/>
       </defs>
       <use xlink:href="#Calibri-35"/>
       <use x="50.683594" xlink:href="#Calibri-30"/>
      </g>
     </g>
    </g>
    <g id="ytick_4">
     <g id="line2d_14">
      <g>
       <use style="stroke:#000000;stroke-width:0.5;" x="219.063987" xlink:href="#m9ac0eb8b71" y="79.109814"/>
      </g>
     </g>
     <g id="text_9">
      <!-- 70 -->
      <g transform="translate(220.563987 81.233941)scale(0.06246 -0.06246)">
       <defs>
        <path d="M 2947 3813
Q 2947 3756 2942 3711
Q 2938 3666 2930 3623
Q 2922 3581 2908 3542
Q 2894 3503 2875 3459
L 1419 103
Q 1403 66 1379 42
Q 1356 19 1320 5
Q 1284 -9 1228 -14
Q 1172 -19 1091 -19
Q 984 -19 925 -9
Q 866 0 839 20
Q 813 41 816 70
Q 819 100 838 141
L 2369 3572
L 428 3572
Q 369 3572 339 3634
Q 309 3697 309 3809
Q 309 3869 317 3912
Q 325 3956 340 3986
Q 356 4016 378 4030
Q 400 4044 428 4044
L 2784 4044
Q 2828 4044 2861 4034
Q 2894 4025 2911 3997
Q 2928 3969 2937 3925
Q 2947 3881 2947 3813
z
" id="Calibri-37" transform="scale(0.015625)"/>
       </defs>
       <use xlink:href="#Calibri-37"/>
       <use x="50.683594" xlink:href="#Calibri-30"/>
      </g>
     </g>
    </g>
    <g id="ytick_5">
     <g id="line2d_15">
      <g>
       <use style="stroke:#000000;stroke-width:0.5;" x="219.063987" xlink:href="#m9ac0eb8b71" y="28.370098"/>
      </g>
     </g>
     <g id="text_10">
      <!-- 90 -->
      <g transform="translate(220.563987 30.494226)scale(0.06246 -0.06246)">
       <defs>
        <path d="M 2919 2181
Q 2919 1919 2887 1650
Q 2856 1381 2781 1132
Q 2706 884 2579 667
Q 2453 450 2261 287
Q 2069 125 1805 33
Q 1541 -59 1191 -59
Q 1056 -59 929 -42
Q 803 -25 701 0
Q 600 25 531 53
Q 463 81 431 109
Q 400 138 386 186
Q 372 234 372 316
Q 372 384 376 425
Q 381 466 390 487
Q 400 509 417 517
Q 434 525 459 525
Q 494 525 556 501
Q 619 478 714 450
Q 809 422 937 398
Q 1066 375 1225 375
Q 1528 375 1745 492
Q 1963 609 2100 806
Q 2238 1003 2306 1262
Q 2375 1522 2381 1809
Q 2216 1713 1984 1638
Q 1753 1563 1453 1563
Q 1116 1563 886 1655
Q 656 1747 517 1906
Q 378 2066 317 2284
Q 256 2503 256 2763
Q 256 3031 334 3273
Q 413 3516 578 3700
Q 744 3884 1000 3993
Q 1256 4103 1613 4103
Q 1866 4103 2061 4039
Q 2256 3975 2400 3854
Q 2544 3734 2644 3564
Q 2744 3394 2805 3178
Q 2866 2963 2892 2711
Q 2919 2459 2919 2181
z
M 2372 2241
Q 2372 2641 2319 2914
Q 2266 3188 2162 3356
Q 2059 3525 1909 3600
Q 1759 3675 1563 3675
Q 1359 3675 1215 3601
Q 1072 3528 980 3404
Q 888 3281 844 3125
Q 800 2969 800 2803
Q 800 2619 839 2466
Q 878 2313 965 2206
Q 1053 2100 1193 2042
Q 1334 1984 1541 1984
Q 1775 1984 1994 2054
Q 2213 2125 2372 2241
z
" id="Calibri-39" transform="scale(0.015625)"/>
       </defs>
       <use xlink:href="#Calibri-39"/>
       <use x="50.683594" xlink:href="#Calibri-30"/>
      </g>
     </g>
    </g>
    <g id="ytick_6">
     <g id="line2d_16">
      <defs>
       <path d="M 0 0
L -2 0
" id="mb70820b131" style="stroke:#000000;stroke-width:0.6;"/>
      </defs>
      <g>
       <use style="stroke:#000000;stroke-width:0.6;" x="219.063987" xlink:href="#mb70820b131" y="205.959103"/>
      </g>
     </g>
    </g>
    <g id="ytick_7">
     <g id="line2d_17">
      <g>
       <use style="stroke:#000000;stroke-width:0.6;" x="219.063987" xlink:href="#mb70820b131" y="155.219387"/>
      </g>
     </g>
    </g>
    <g id="ytick_8">
     <g id="line2d_18">
      <g>
       <use style="stroke:#000000;stroke-width:0.6;" x="219.063987" xlink:href="#mb70820b131" y="104.479671"/>
      </g>
     </g>
    </g>
    <g id="ytick_9">
     <g id="line2d_19">
      <g>
       <use style="stroke:#000000;stroke-width:0.6;" x="219.063987" xlink:href="#mb70820b131" y="53.739956"/>
      </g>
     </g>
    </g>
    <g id="ytick_10">
     <g id="line2d_20">
      <g>
       <use style="stroke:#000000;stroke-width:0.6;" x="219.063987" xlink:href="#mb70820b131" y="3.00024"/>
      </g>
     </g>
    </g>
   </g>
   <g id="patch_4">
    <path clip-path="url(#pa9b241526d)" d="M 219.063987 256.698818
L 219.063987 256.698818
L 219.063987 244.013889
L 219.063987 244.013889
L 219.063987 231.328961
L 219.063987 231.328961
L 219.063987 218.644032
L 219.063987 218.644032
L 219.063987 205.959103
L 219.063987 205.959103
L 219.063987 193.274174
L 219.063987 193.274174
L 219.063987 180.589245
L 219.063987 180.589245
L 219.063987 167.904316
L 214.387283 167.904316
L 214.387283 155.219387
L 195.680465 155.219387
L 195.680465 142.534458
L 191.00376 142.534458
L 191.00376 129.849529
L 139.560011 129.849529
L 139.560011 117.1646
L 134.883306 117.1646
L 134.883306 104.479671
L 83.439557 104.479671
L 83.439557 91.794742
L 74.086148 91.794742
L 74.086148 79.109814
L 92.792966 79.109814
L 92.792966 66.424885
L 134.883306 66.424885
L 134.883306 53.739956
L 195.680465 53.739956
L 195.680465 41.055027
L 200.357169 41.055027
L 200.357169 28.370098
L 219.063987 28.370098
L 219.063987 15.685169
L 219.063987 15.685169
L 219.063987 3.00024
L 219.063987 3.00024
" style="fill:url(#hef92b74ac1);stroke:#000000;stroke-linejoin:miter;"/>
   </g>
   <g id="patch_5">
    <path d="M 3.00024 256.698818
L 3.00024 3.00024
" style="fill:none;stroke:#000000;stroke-linecap:square;stroke-linejoin:miter;stroke-width:0.5;"/>
   </g>
   <g id="patch_6">
    <path d="M 219.063987 256.698818
L 219.063987 3.00024
" style="fill:none;stroke:#000000;stroke-linecap:square;stroke-linejoin:miter;stroke-width:0.5;"/>
   </g>
   <g id="patch_7">
    <path d="M 3.00024 256.698818
L 219.063987 256.698818
" style="fill:none;stroke:#000000;stroke-linecap:square;stroke-linejoin:miter;stroke-width:0.5;"/>
   </g>
   <g id="patch_8">
    <path d="M 3.00024 3.00024
L 219.063987 3.00024
" style="fill:none;stroke:#000000;stroke-linecap:square;stroke-linejoin:miter;stroke-width:0.5;"/>
   </g>
   <g id="legend_1">
    <g id="patch_9">
     <path d="M 8.60024 252.698818
L 84.83774 252.698818
Q 86.43774 252.698818 86.43774 251.098818
L 86.43774 236.253818
Q 86.43774 234.653818 84.83774 234.653818
L 8.60024 234.653818
Q 7.00024 234.653818 7.00024 236.253818
L 7.00024 251.098818
Q 7.00024 252.698818 8.60024 252.698818
z
" style="fill:#ffffff;opacity:0.8;stroke:#cccccc;stroke-linejoin:miter;"/>
    </g>
    <g id="patch_10">
     <path d="M 8.60024 241.853818
L 24.60024 241.853818
L 24.60024 236.253818
L 8.60024 236.253818
z
" style="fill:#005ea8;"/>
    </g>
    <g id="text_11">
     <!-- male (74.2%) -->
     <g transform="translate(31.00024 241.853818)scale(0.08 -0.08)">
      <defs>
       <path d="M 4650 78
Q 4650 53 4637 36
Q 4625 19 4597 6
Q 4569 -6 4519 -12
Q 4469 -19 4394 -19
Q 4316 -19 4266 -12
Q 4216 -6 4186 6
Q 4156 19 4143 36
Q 4131 53 4131 78
L 4131 1788
Q 4131 1966 4100 2112
Q 4069 2259 4000 2365
Q 3931 2472 3825 2528
Q 3719 2584 3575 2584
Q 3397 2584 3217 2446
Q 3038 2309 2822 2044
L 2822 78
Q 2822 53 2809 36
Q 2797 19 2767 6
Q 2738 -6 2688 -12
Q 2638 -19 2563 -19
Q 2491 -19 2439 -12
Q 2388 -6 2358 6
Q 2328 19 2317 36
Q 2306 53 2306 78
L 2306 1788
Q 2306 1966 2272 2112
Q 2238 2259 2169 2365
Q 2100 2472 1995 2528
Q 1891 2584 1747 2584
Q 1569 2584 1387 2446
Q 1206 2309 994 2044
L 994 78
Q 994 53 981 36
Q 969 19 941 6
Q 913 -6 863 -12
Q 813 -19 734 -19
Q 659 -19 609 -12
Q 559 -6 529 6
Q 500 19 489 36
Q 478 53 478 78
L 478 2891
Q 478 2916 487 2933
Q 497 2950 525 2964
Q 553 2978 597 2983
Q 641 2988 713 2988
Q 781 2988 826 2983
Q 872 2978 897 2964
Q 922 2950 933 2933
Q 944 2916 944 2891
L 944 2519
Q 1181 2784 1404 2907
Q 1628 3031 1856 3031
Q 2031 3031 2170 2990
Q 2309 2950 2415 2876
Q 2522 2803 2597 2701
Q 2672 2600 2722 2475
Q 2863 2628 2989 2734
Q 3116 2841 3233 2906
Q 3350 2972 3461 3001
Q 3572 3031 3684 3031
Q 3956 3031 4140 2936
Q 4325 2841 4439 2681
Q 4553 2522 4601 2308
Q 4650 2094 4650 1856
L 4650 78
z
" id="Calibri-6d" transform="scale(0.015625)"/>
       <path d="M 2597 75
Q 2597 38 2572 19
Q 2547 0 2503 -9
Q 2459 -19 2375 -19
Q 2294 -19 2245 -9
Q 2197 0 2175 19
Q 2153 38 2153 75
L 2153 356
Q 1969 159 1742 50
Q 1516 -59 1263 -59
Q 1041 -59 861 -1
Q 681 56 554 165
Q 428 275 358 434
Q 288 594 288 797
Q 288 1034 384 1209
Q 481 1384 662 1500
Q 844 1616 1106 1673
Q 1369 1731 1697 1731
L 2084 1731
L 2084 1950
Q 2084 2113 2050 2238
Q 2016 2363 1939 2445
Q 1863 2528 1741 2570
Q 1619 2613 1441 2613
Q 1250 2613 1098 2567
Q 947 2522 833 2467
Q 719 2413 642 2367
Q 566 2322 528 2322
Q 503 2322 484 2334
Q 466 2347 452 2372
Q 438 2397 431 2436
Q 425 2475 425 2522
Q 425 2600 436 2645
Q 447 2691 489 2731
Q 531 2772 634 2826
Q 738 2881 872 2926
Q 1006 2972 1165 3001
Q 1325 3031 1488 3031
Q 1791 3031 2003 2962
Q 2216 2894 2347 2761
Q 2478 2628 2537 2431
Q 2597 2234 2597 1972
L 2597 75
z
M 2084 1359
L 1644 1359
Q 1431 1359 1275 1323
Q 1119 1288 1016 1217
Q 913 1147 864 1048
Q 816 950 816 822
Q 816 603 955 473
Q 1094 344 1344 344
Q 1547 344 1720 447
Q 1894 550 2084 763
L 2084 1359
z
" id="Calibri-61" transform="scale(0.015625)"/>
       <path d="M 994 78
Q 994 53 981 36
Q 969 19 941 6
Q 913 -6 863 -12
Q 813 -19 734 -19
Q 659 -19 609 -12
Q 559 -6 529 6
Q 500 19 489 36
Q 478 53 478 78
L 478 4253
Q 478 4278 489 4297
Q 500 4316 529 4328
Q 559 4341 609 4347
Q 659 4353 734 4353
Q 813 4353 863 4347
Q 913 4341 941 4328
Q 969 4316 981 4297
Q 994 4278 994 4253
L 994 78
z
" id="Calibri-6c" transform="scale(0.015625)"/>
       <path d="M 2878 1606
Q 2878 1484 2817 1432
Q 2756 1381 2678 1381
L 834 1381
Q 834 1147 881 959
Q 928 772 1037 637
Q 1147 503 1322 431
Q 1497 359 1750 359
Q 1950 359 2106 392
Q 2263 425 2377 465
Q 2491 506 2564 539
Q 2638 572 2675 572
Q 2697 572 2714 561
Q 2731 550 2740 528
Q 2750 506 2754 467
Q 2759 428 2759 372
Q 2759 331 2756 301
Q 2753 272 2748 248
Q 2744 225 2733 206
Q 2722 188 2705 170
Q 2688 153 2603 114
Q 2519 75 2384 37
Q 2250 0 2073 -29
Q 1897 -59 1697 -59
Q 1350 -59 1089 37
Q 828 134 650 325
Q 472 516 381 803
Q 291 1091 291 1472
Q 291 1834 384 2123
Q 478 2413 654 2614
Q 831 2816 1081 2923
Q 1331 3031 1641 3031
Q 1972 3031 2205 2925
Q 2438 2819 2588 2639
Q 2738 2459 2808 2217
Q 2878 1975 2878 1700
L 2878 1606
z
M 2359 1759
Q 2369 2166 2180 2397
Q 1991 2628 1619 2628
Q 1428 2628 1284 2556
Q 1141 2484 1044 2365
Q 947 2247 894 2089
Q 841 1931 834 1759
L 2359 1759
z
" id="Calibri-65" transform="scale(0.015625)"/>
       <path id="Calibri-20" transform="scale(0.015625)"/>
       <path d="M 1547 4306
Q 1250 3678 1104 3017
Q 959 2356 959 1688
Q 959 1016 1107 356
Q 1256 -303 1541 -938
Q 1556 -975 1557 -1001
Q 1559 -1028 1537 -1045
Q 1516 -1063 1470 -1070
Q 1425 -1078 1347 -1078
Q 1291 -1078 1250 -1075
Q 1209 -1072 1179 -1062
Q 1150 -1053 1131 -1040
Q 1113 -1028 1103 -1013
Q 934 -694 806 -367
Q 678 -41 590 296
Q 503 634 459 979
Q 416 1325 416 1678
Q 416 2031 464 2375
Q 513 2719 602 3058
Q 691 3397 819 3725
Q 947 4053 1106 4375
Q 1109 4388 1123 4397
Q 1138 4406 1163 4415
Q 1188 4425 1231 4429
Q 1275 4434 1344 4434
Q 1416 4434 1459 4425
Q 1503 4416 1528 4400
Q 1553 4384 1556 4359
Q 1559 4334 1547 4306
z
" id="Calibri-28" transform="scale(0.015625)"/>
       <path d="M 1144 341
Q 1144 119 1070 45
Q 997 -28 803 -28
Q 616 -28 544 44
Q 472 116 472 331
Q 472 553 545 626
Q 619 700 813 700
Q 1000 700 1072 628
Q 1144 556 1144 341
z
" id="Calibri-2e" transform="scale(0.015625)"/>
       <path d="M 1964 3070
Q 1964 2829 1910 2632
Q 1857 2436 1748 2296
Q 1639 2157 1471 2079
Q 1304 2001 1079 2001
Q 851 2001 688 2073
Q 526 2145 423 2281
Q 320 2417 271 2612
Q 223 2807 223 3057
Q 223 3286 274 3479
Q 326 3673 432 3813
Q 539 3954 706 4035
Q 873 4117 1101 4117
Q 1348 4117 1515 4032
Q 1682 3948 1782 3806
Q 1882 3664 1923 3473
Q 1964 3282 1964 3070
z
M 1526 3054
Q 1526 3229 1501 3365
Q 1476 3501 1424 3591
Q 1373 3682 1288 3727
Q 1204 3773 1089 3773
Q 979 3773 898 3729
Q 817 3686 765 3598
Q 714 3511 689 3381
Q 664 3251 664 3076
Q 664 2864 693 2721
Q 723 2579 777 2496
Q 832 2414 915 2381
Q 998 2348 1104 2348
Q 1229 2348 1309 2395
Q 1389 2442 1437 2534
Q 1486 2626 1506 2756
Q 1526 2886 1526 3054
z
M 4348 1022
Q 4348 781 4294 584
Q 4241 388 4132 248
Q 4023 109 3855 31
Q 3688 -47 3463 -47
Q 3235 -47 3072 25
Q 2910 97 2807 233
Q 2704 369 2655 564
Q 2607 759 2607 1009
Q 2607 1238 2658 1431
Q 2710 1625 2816 1765
Q 2923 1906 3090 1987
Q 3257 2069 3485 2069
Q 3732 2069 3899 1984
Q 4066 1900 4166 1758
Q 4266 1616 4307 1425
Q 4348 1234 4348 1022
z
M 3910 1006
Q 3910 1181 3885 1317
Q 3860 1453 3808 1543
Q 3757 1634 3672 1679
Q 3588 1725 3473 1725
Q 3363 1725 3282 1681
Q 3201 1638 3149 1550
Q 3098 1463 3073 1333
Q 3048 1203 3048 1028
Q 3048 816 3077 673
Q 3107 531 3161 448
Q 3216 366 3299 333
Q 3382 300 3488 300
Q 3613 300 3693 347
Q 3773 394 3821 486
Q 3870 578 3890 708
Q 3910 838 3910 1006
z
M 1078 -25
Q 1062 -53 1040 -67
Q 1018 -81 987 -92
Q 956 -103 912 -108
Q 868 -113 806 -113
Q 737 -113 695 -100
Q 653 -88 635 -67
Q 618 -47 623 -17
Q 628 13 653 50
L 3465 4078
Q 3481 4103 3503 4120
Q 3525 4138 3557 4147
Q 3590 4156 3632 4161
Q 3675 4166 3740 4166
Q 3806 4166 3848 4155
Q 3890 4144 3909 4122
Q 3928 4100 3923 4069
Q 3918 4038 3893 4003
L 1078 -25
z
" id="Calibri-25" transform="scale(0.015625)"/>
       <path d="M 1522 1678
Q 1522 1325 1478 979
Q 1434 634 1346 296
Q 1259 -41 1132 -367
Q 1006 -694 838 -1013
Q 828 -1028 809 -1040
Q 791 -1053 761 -1062
Q 731 -1072 690 -1075
Q 650 -1078 594 -1078
Q 513 -1078 467 -1070
Q 422 -1063 401 -1045
Q 381 -1028 382 -1001
Q 384 -975 400 -938
Q 688 -306 834 355
Q 981 1016 981 1688
Q 981 2356 834 3017
Q 688 3678 394 4306
Q 381 4334 384 4359
Q 388 4384 413 4400
Q 438 4416 481 4425
Q 525 4434 597 4434
Q 663 4434 706 4429
Q 750 4425 776 4415
Q 803 4406 815 4397
Q 828 4388 834 4375
Q 1156 3734 1339 3057
Q 1522 2381 1522 1678
z
" id="Calibri-29" transform="scale(0.015625)"/>
      </defs>
      <use xlink:href="#Calibri-6d"/>
      <use x="79.882812" xlink:href="#Calibri-61"/>
      <use x="127.783203" xlink:href="#Calibri-6c"/>
      <use x="150.732422" xlink:href="#Calibri-65"/>
      <use x="200.488281" xlink:href="#Calibri-20"/>
      <use x="223.095703" xlink:href="#Calibri-28"/>
      <use x="253.417969" xlink:href="#Calibri-37"/>
      <use x="304.101562" xlink:href="#Calibri-34"/>
      <use x="354.785156" xlink:href="#Calibri-2e"/>
      <use x="380.029297" xlink:href="#Calibri-32"/>
      <use x="430.712891" xlink:href="#Calibri-25"/>
      <use x="502.197266" xlink:href="#Calibri-29"/>
     </g>
    </g>
    <g id="patch_11">
     <path d="M 8.60024 249.676318
L 24.60024 249.676318
L 24.60024 244.076318
L 8.60024 244.076318
z
" style="fill:url(#hef92b74ac1);stroke:#000000;stroke-linejoin:miter;"/>
    </g>
    <g id="text_12">
     <!-- smokers (56.1%) -->
     <g transform="translate(31.00024 249.676318)scale(0.08 -0.08)">
      <defs>
       <path d="M 2244 844
Q 2244 628 2164 459
Q 2084 291 1937 175
Q 1791 59 1587 0
Q 1384 -59 1141 -59
Q 991 -59 855 -36
Q 719 -13 611 23
Q 503 59 428 98
Q 353 138 318 169
Q 284 200 268 256
Q 253 313 253 409
Q 253 469 259 509
Q 266 550 275 575
Q 284 600 301 611
Q 319 622 341 622
Q 375 622 442 580
Q 509 538 607 488
Q 706 438 840 395
Q 975 353 1150 353
Q 1281 353 1387 381
Q 1494 409 1572 464
Q 1650 519 1692 603
Q 1734 688 1734 803
Q 1734 922 1673 1003
Q 1613 1084 1513 1146
Q 1413 1209 1288 1257
Q 1163 1306 1030 1359
Q 897 1413 770 1480
Q 644 1547 544 1644
Q 444 1741 383 1875
Q 322 2009 322 2197
Q 322 2363 386 2514
Q 450 2666 578 2780
Q 706 2894 898 2962
Q 1091 3031 1347 3031
Q 1459 3031 1571 3012
Q 1684 2994 1775 2966
Q 1866 2938 1930 2905
Q 1994 2872 2026 2847
Q 2059 2822 2070 2803
Q 2081 2784 2086 2761
Q 2091 2738 2095 2703
Q 2100 2669 2100 2619
Q 2100 2566 2095 2527
Q 2091 2488 2080 2463
Q 2069 2438 2053 2427
Q 2038 2416 2019 2416
Q 1991 2416 1937 2450
Q 1884 2484 1800 2523
Q 1716 2563 1602 2597
Q 1488 2631 1341 2631
Q 1209 2631 1109 2601
Q 1009 2572 945 2517
Q 881 2463 848 2388
Q 816 2313 816 2225
Q 816 2103 878 2020
Q 941 1938 1041 1875
Q 1141 1813 1269 1763
Q 1397 1713 1530 1659
Q 1663 1606 1792 1540
Q 1922 1475 2022 1381
Q 2122 1288 2183 1156
Q 2244 1025 2244 844
z
" id="Calibri-73" transform="scale(0.015625)"/>
       <path d="M 3094 1516
Q 3094 1172 3003 883
Q 2913 594 2733 384
Q 2553 175 2283 58
Q 2013 -59 1656 -59
Q 1309 -59 1051 44
Q 794 147 622 344
Q 450 541 365 822
Q 281 1103 281 1459
Q 281 1803 370 2092
Q 459 2381 639 2590
Q 819 2800 1087 2915
Q 1356 3031 1716 3031
Q 2063 3031 2320 2928
Q 2578 2825 2750 2628
Q 2922 2431 3008 2150
Q 3094 1869 3094 1516
z
M 2550 1481
Q 2550 1709 2508 1912
Q 2466 2116 2369 2269
Q 2272 2422 2106 2511
Q 1941 2600 1694 2600
Q 1466 2600 1302 2519
Q 1138 2438 1031 2289
Q 925 2141 873 1937
Q 822 1734 822 1494
Q 822 1263 864 1059
Q 906 856 1004 704
Q 1103 553 1268 464
Q 1434 375 1681 375
Q 1906 375 2072 456
Q 2238 538 2344 684
Q 2450 831 2500 1034
Q 2550 1238 2550 1481
z
" id="Calibri-6f" transform="scale(0.015625)"/>
       <path d="M 2788 81
Q 2788 56 2775 37
Q 2763 19 2733 6
Q 2703 -6 2650 -12
Q 2597 -19 2516 -19
Q 2431 -19 2376 -14
Q 2322 -9 2284 2
Q 2247 13 2223 33
Q 2200 53 2181 81
L 994 1638
L 994 78
Q 994 53 981 36
Q 969 19 941 6
Q 913 -6 863 -12
Q 813 -19 734 -19
Q 659 -19 609 -12
Q 559 -6 529 6
Q 500 19 489 36
Q 478 53 478 78
L 478 4253
Q 478 4278 489 4297
Q 500 4316 529 4328
Q 559 4341 609 4347
Q 659 4353 734 4353
Q 813 4353 863 4347
Q 913 4341 941 4328
Q 969 4316 981 4297
Q 994 4278 994 4253
L 994 1709
L 2056 2878
Q 2081 2909 2109 2929
Q 2138 2950 2177 2964
Q 2216 2978 2269 2983
Q 2322 2988 2397 2988
Q 2475 2988 2528 2983
Q 2581 2978 2614 2967
Q 2647 2956 2661 2939
Q 2675 2922 2675 2894
Q 2675 2856 2654 2818
Q 2634 2781 2588 2731
L 1569 1713
L 2713 228
Q 2753 175 2770 142
Q 2788 109 2788 81
z
" id="Calibri-6b" transform="scale(0.015625)"/>
       <path d="M 2122 2706
Q 2122 2638 2119 2591
Q 2116 2544 2106 2517
Q 2097 2491 2083 2477
Q 2069 2463 2044 2463
Q 2019 2463 1983 2477
Q 1947 2491 1901 2505
Q 1856 2519 1800 2531
Q 1744 2544 1678 2544
Q 1600 2544 1525 2512
Q 1450 2481 1367 2409
Q 1284 2338 1193 2219
Q 1103 2100 994 1928
L 994 78
Q 994 53 981 36
Q 969 19 941 6
Q 913 -6 863 -12
Q 813 -19 734 -19
Q 659 -19 609 -12
Q 559 -6 529 6
Q 500 19 489 36
Q 478 53 478 78
L 478 2891
Q 478 2916 487 2933
Q 497 2950 525 2964
Q 553 2978 597 2983
Q 641 2988 713 2988
Q 781 2988 826 2983
Q 872 2978 897 2964
Q 922 2950 933 2933
Q 944 2916 944 2891
L 944 2481
Q 1059 2650 1161 2756
Q 1263 2863 1353 2923
Q 1444 2984 1533 3007
Q 1622 3031 1713 3031
Q 1753 3031 1804 3026
Q 1856 3022 1912 3009
Q 1969 2997 2014 2981
Q 2059 2966 2078 2950
Q 2097 2934 2103 2920
Q 2109 2906 2114 2884
Q 2119 2863 2120 2820
Q 2122 2778 2122 2706
z
" id="Calibri-72" transform="scale(0.015625)"/>
       <path d="M 2991 1309
Q 2991 1044 2909 795
Q 2828 547 2659 358
Q 2491 169 2231 55
Q 1972 -59 1619 -59
Q 1366 -59 1172 3
Q 978 66 834 181
Q 691 297 595 465
Q 500 634 442 850
Q 384 1066 359 1322
Q 334 1578 334 1872
Q 334 2131 362 2397
Q 391 2663 462 2909
Q 534 3156 657 3373
Q 781 3591 967 3752
Q 1153 3913 1412 4006
Q 1672 4100 2016 4100
Q 2131 4100 2250 4086
Q 2369 4072 2469 4048
Q 2569 4025 2637 3997
Q 2706 3969 2728 3951
Q 2750 3934 2761 3914
Q 2772 3894 2778 3870
Q 2784 3847 2787 3817
Q 2791 3788 2791 3744
Q 2791 3688 2789 3647
Q 2788 3606 2777 3581
Q 2766 3556 2748 3543
Q 2731 3531 2703 3531
Q 2669 3531 2609 3553
Q 2550 3575 2465 3601
Q 2381 3628 2261 3650
Q 2141 3672 1981 3672
Q 1691 3672 1481 3553
Q 1272 3434 1139 3234
Q 1006 3034 942 2770
Q 878 2506 869 2219
Q 950 2266 1051 2312
Q 1153 2359 1273 2396
Q 1394 2434 1528 2457
Q 1663 2481 1816 2481
Q 2144 2481 2369 2392
Q 2594 2303 2733 2145
Q 2872 1988 2931 1773
Q 2991 1559 2991 1309
z
M 2447 1259
Q 2447 1441 2411 1589
Q 2375 1738 2290 1841
Q 2206 1944 2065 2000
Q 1925 2056 1719 2056
Q 1603 2056 1487 2036
Q 1372 2016 1264 1980
Q 1156 1944 1057 1895
Q 959 1847 878 1791
Q 878 1388 929 1116
Q 981 844 1079 680
Q 1178 516 1325 445
Q 1472 375 1669 375
Q 1869 375 2016 450
Q 2163 525 2259 651
Q 2356 778 2401 936
Q 2447 1094 2447 1259
z
" id="Calibri-36" transform="scale(0.015625)"/>
      </defs>
      <use xlink:href="#Calibri-73"/>
      <use x="39.111328" xlink:href="#Calibri-6d"/>
      <use x="118.994141" xlink:href="#Calibri-6f"/>
      <use x="171.728516" xlink:href="#Calibri-6b"/>
      <use x="217.1875" xlink:href="#Calibri-65"/>
      <use x="266.943359" xlink:href="#Calibri-72"/>
      <use x="301.806641" xlink:href="#Calibri-73"/>
      <use x="340.917969" xlink:href="#Calibri-20"/>
      <use x="363.525391" xlink:href="#Calibri-28"/>
      <use x="393.847656" xlink:href="#Calibri-35"/>
      <use x="444.53125" xlink:href="#Calibri-36"/>
      <use x="495.214844" xlink:href="#Calibri-2e"/>
      <use x="520.458984" xlink:href="#Calibri-31"/>
      <use x="571.142578" xlink:href="#Calibri-25"/>
      <use x="642.626953" xlink:href="#Calibri-29"/>
     </g>
    </g>
   </g>
  </g>
  <g id="axes_2">
   <g id="patch_12">
    <path d="M 234.47932 256.698818
L 450.543067 256.698818
L 450.543067 3.00024
L 234.47932 3.00024
z
" style="fill:#ffffff;"/>
   </g>
   <g id="patch_13">
    <path clip-path="url(#p0708486d93)" d="M 234.47932 256.698818
L 234.47932 256.698818
L 234.47932 244.013889
L 234.47932 244.013889
L 234.47932 231.328961
L 234.47932 231.328961
L 234.47932 218.644032
L 234.47932 218.644032
L 234.47932 205.959103
L 234.47932 205.959103
L 234.47932 193.274174
L 234.47932 193.274174
L 234.47932 180.589245
L 234.47932 180.589245
L 234.47932 167.904316
L 239.156025 167.904316
L 239.156025 155.219387
L 234.47932 155.219387
L 234.47932 142.534458
L 248.509434 142.534458
L 248.509434 129.849529
L 253.186138 129.849529
L 253.186138 117.1646
L 281.246365 117.1646
L 281.246365 104.479671
L 271.892956 104.479671
L 271.892956 91.794742
L 309.306592 91.794742
L 309.306592 79.109814
L 276.56966 79.109814
L 276.56966 66.424885
L 281.246365 66.424885
L 281.246365 53.739956
L 271.892956 53.739956
L 271.892956 41.055027
L 248.509434 41.055027
L 248.509434 28.370098
L 243.832729 28.370098
L 243.832729 15.685169
L 234.47932 15.685169
L 234.47932 3.00024
L 234.47932 3.00024
L 234.47932 15.685169
L 234.47932 15.685169
L 234.47932 28.370098
L 234.47932 28.370098
L 234.47932 41.055027
L 234.47932 41.055027
L 234.47932 53.739956
L 234.47932 53.739956
L 234.47932 66.424885
L 234.47932 66.424885
L 234.47932 79.109814
L 234.47932 79.109814
L 234.47932 91.794742
L 234.47932 91.794742
L 234.47932 104.479671
L 234.47932 104.479671
L 234.47932 117.1646
L 234.47932 117.1646
L 234.47932 129.849529
L 234.47932 129.849529
L 234.47932 142.534458
L 234.47932 142.534458
L 234.47932 155.219387
L 234.47932 155.219387
L 234.47932 167.904316
L 234.47932 167.904316
L 234.47932 180.589245
L 234.47932 180.589245
L 234.47932 193.274174
L 234.47932 193.274174
L 234.47932 205.959103
L 234.47932 205.959103
L 234.47932 218.644032
L 234.47932 218.644032
L 234.47932 231.328961
L 234.47932 231.328961
L 234.47932 244.013889
L 234.47932 244.013889
z
" style="fill:#ae0060;"/>
   </g>
   <g id="matplotlib.axis_3">
    <g id="xtick_6">
     <g id="line2d_21">
      <path clip-path="url(#p0708486d93)" d="M 234.47932 256.698818
L 234.47932 3.00024
" style="fill:none;stroke:#000000;stroke-linecap:square;stroke-opacity:0.1;stroke-width:0.5;"/>
     </g>
     <g id="line2d_22">
      <g>
       <use style="stroke:#000000;stroke-width:0.5;" x="234.47932" xlink:href="#mfe31a4959c" y="256.698818"/>
      </g>
     </g>
     <g id="text_13">
      <!-- 0 -->
      <g transform="translate(232.896349 262.447074)scale(0.06246 -0.06246)">
       <use xlink:href="#Calibri-30"/>
      </g>
     </g>
    </g>
    <g id="xtick_7">
     <g id="line2d_23">
      <path clip-path="url(#p0708486d93)" d="M 281.246365 256.698818
L 281.246365 3.00024
" style="fill:none;stroke:#000000;stroke-linecap:square;stroke-opacity:0.1;stroke-width:0.5;"/>
     </g>
     <g id="line2d_24">
      <g>
       <use style="stroke:#000000;stroke-width:0.5;" x="281.246365" xlink:href="#mfe31a4959c" y="256.698818"/>
      </g>
     </g>
     <g id="text_14">
      <!-- 10 -->
      <g transform="translate(278.080424 262.447074)scale(0.06246 -0.06246)">
       <use xlink:href="#Calibri-31"/>
       <use x="50.683594" xlink:href="#Calibri-30"/>
      </g>
     </g>
    </g>
    <g id="xtick_8">
     <g id="line2d_25">
      <path clip-path="url(#p0708486d93)" d="M 328.01341 256.698818
L 328.01341 3.00024
" style="fill:none;stroke:#000000;stroke-linecap:square;stroke-opacity:0.1;stroke-width:0.5;"/>
     </g>
     <g id="line2d_26">
      <g>
       <use style="stroke:#000000;stroke-width:0.5;" x="328.01341" xlink:href="#mfe31a4959c" y="256.698818"/>
      </g>
     </g>
     <g id="text_15">
      <!-- 20 -->
      <g transform="translate(324.847468 262.447074)scale(0.06246 -0.06246)">
       <use xlink:href="#Calibri-32"/>
       <use x="50.683594" xlink:href="#Calibri-30"/>
      </g>
     </g>
    </g>
    <g id="xtick_9">
     <g id="line2d_27">
      <path clip-path="url(#p0708486d93)" d="M 374.780455 256.698818
L 374.780455 3.00024
" style="fill:none;stroke:#000000;stroke-linecap:square;stroke-opacity:0.1;stroke-width:0.5;"/>
     </g>
     <g id="line2d_28">
      <g>
       <use style="stroke:#000000;stroke-width:0.5;" x="374.780455" xlink:href="#mfe31a4959c" y="256.698818"/>
      </g>
     </g>
     <g id="text_16">
      <!-- 30 -->
      <g transform="translate(371.614513 262.447074)scale(0.06246 -0.06246)">
       <use xlink:href="#Calibri-33"/>
       <use x="50.683594" xlink:href="#Calibri-30"/>
      </g>
     </g>
    </g>
    <g id="xtick_10">
     <g id="line2d_29">
      <path clip-path="url(#p0708486d93)" d="M 421.547499 256.698818
L 421.547499 3.00024
" style="fill:none;stroke:#000000;stroke-linecap:square;stroke-opacity:0.1;stroke-width:0.5;"/>
     </g>
     <g id="line2d_30">
      <g>
       <use style="stroke:#000000;stroke-width:0.5;" x="421.547499" xlink:href="#mfe31a4959c" y="256.698818"/>
      </g>
     </g>
     <g id="text_17">
      <!-- 40 -->
      <g transform="translate(418.381558 262.447074)scale(0.06246 -0.06246)">
       <use xlink:href="#Calibri-34"/>
       <use x="50.683594" xlink:href="#Calibri-30"/>
      </g>
     </g>
    </g>
   </g>
   <g id="matplotlib.axis_4">
    <g id="ytick_11">
     <g id="line2d_31">
      <defs>
       <path d="M 0 0
L 3 0
" id="ma4eacfa1d7" style="stroke:#000000;stroke-width:0.5;"/>
      </defs>
      <g>
       <use style="stroke:#000000;stroke-width:0.5;" x="234.47932" xlink:href="#ma4eacfa1d7" y="231.328961"/>
      </g>
     </g>
    </g>
    <g id="ytick_12">
     <g id="line2d_32">
      <g>
       <use style="stroke:#000000;stroke-width:0.5;" x="234.47932" xlink:href="#ma4eacfa1d7" y="180.589245"/>
      </g>
     </g>
    </g>
    <g id="ytick_13">
     <g id="line2d_33">
      <g>
       <use style="stroke:#000000;stroke-width:0.5;" x="234.47932" xlink:href="#ma4eacfa1d7" y="129.849529"/>
      </g>
     </g>
    </g>
    <g id="ytick_14">
     <g id="line2d_34">
      <g>
       <use style="stroke:#000000;stroke-width:0.5;" x="234.47932" xlink:href="#ma4eacfa1d7" y="79.109814"/>
      </g>
     </g>
    </g>
    <g id="ytick_15">
     <g id="line2d_35">
      <g>
       <use style="stroke:#000000;stroke-width:0.5;" x="234.47932" xlink:href="#ma4eacfa1d7" y="28.370098"/>
      </g>
     </g>
    </g>
    <g id="ytick_16">
     <g id="line2d_36">
      <defs>
       <path d="M 0 0
L 2 0
" id="m74163f9ce0" style="stroke:#000000;stroke-width:0.6;"/>
      </defs>
      <g>
       <use style="stroke:#000000;stroke-width:0.6;" x="234.47932" xlink:href="#m74163f9ce0" y="205.959103"/>
      </g>
     </g>
    </g>
    <g id="ytick_17">
     <g id="line2d_37">
      <g>
       <use style="stroke:#000000;stroke-width:0.6;" x="234.47932" xlink:href="#m74163f9ce0" y="155.219387"/>
      </g>
     </g>
    </g>
    <g id="ytick_18">
     <g id="line2d_38">
      <g>
       <use style="stroke:#000000;stroke-width:0.6;" x="234.47932" xlink:href="#m74163f9ce0" y="104.479671"/>
      </g>
     </g>
    </g>
    <g id="ytick_19">
     <g id="line2d_39">
      <g>
       <use style="stroke:#000000;stroke-width:0.6;" x="234.47932" xlink:href="#m74163f9ce0" y="53.739956"/>
      </g>
     </g>
    </g>
    <g id="ytick_20">
     <g id="line2d_40">
      <g>
       <use style="stroke:#000000;stroke-width:0.6;" x="234.47932" xlink:href="#m74163f9ce0" y="3.00024"/>
      </g>
     </g>
    </g>
   </g>
   <g id="patch_14">
    <path clip-path="url(#p0708486d93)" d="M 234.47932 256.698818
L 234.47932 256.698818
L 234.47932 244.013889
L 234.47932 244.013889
L 234.47932 231.328961
L 234.47932 231.328961
L 234.47932 218.644032
L 234.47932 218.644032
L 234.47932 205.959103
L 234.47932 205.959103
L 234.47932 193.274174
L 234.47932 193.274174
L 234.47932 180.589245
L 234.47932 180.589245
L 234.47932 167.904316
L 239.156025 167.904316
L 239.156025 155.219387
L 234.47932 155.219387
L 234.47932 142.534458
L 243.832729 142.534458
L 243.832729 129.849529
L 248.509434 129.849529
L 248.509434 117.1646
L 262.539547 117.1646
L 262.539547 104.479671
L 271.892956 104.479671
L 271.892956 91.794742
L 304.629887 91.794742
L 304.629887 79.109814
L 267.216251 79.109814
L 267.216251 66.424885
L 257.862843 66.424885
L 257.862843 53.739956
L 253.186138 53.739956
L 253.186138 41.055027
L 239.156025 41.055027
L 239.156025 28.370098
L 239.156025 28.370098
L 239.156025 15.685169
L 234.47932 15.685169
L 234.47932 3.00024
L 234.47932 3.00024
" style="fill:url(#hef92b74ac1);stroke:#000000;stroke-linejoin:miter;"/>
   </g>
   <g id="patch_15">
    <path d="M 234.47932 256.698818
L 234.47932 3.00024
" style="fill:none;stroke:#000000;stroke-linecap:square;stroke-linejoin:miter;stroke-width:0.5;"/>
   </g>
   <g id="patch_16">
    <path d="M 450.543067 256.698818
L 450.543067 3.00024
" style="fill:none;stroke:#000000;stroke-linecap:square;stroke-linejoin:miter;stroke-width:0.5;"/>
   </g>
   <g id="patch_17">
    <path d="M 234.47932 256.698818
L 450.543067 256.698818
" style="fill:none;stroke:#000000;stroke-linecap:square;stroke-linejoin:miter;stroke-width:0.5;"/>
   </g>
   <g id="patch_18">
    <path d="M 234.47932 3.00024
L 450.543067 3.00024
" style="fill:none;stroke:#000000;stroke-linecap:square;stroke-linejoin:miter;stroke-width:0.5;"/>
   </g>
   <g id="legend_2">
    <g id="patch_19">
     <path d="M 368.705567 252.698818
L 444.943067 252.698818
Q 446.543067 252.698818 446.543067 251.098818
L 446.543067 236.253818
Q 446.543067 234.653818 444.943067 234.653818
L 368.705567 234.653818
Q 367.105567 234.653818 367.105567 236.253818
L 367.105567 251.098818
Q 367.105567 252.698818 368.705567 252.698818
z
" style="fill:#ffffff;opacity:0.8;stroke:#cccccc;stroke-linejoin:miter;"/>
    </g>
    <g id="patch_20">
     <path d="M 368.705567 241.853818
L 384.705567 241.853818
L 384.705567 236.253818
L 368.705567 236.253818
z
" style="fill:#ae0060;"/>
    </g>
    <g id="text_18">
     <!-- female (25.8%) -->
     <g transform="translate(391.105567 241.853818)scale(0.08 -0.08)">
      <defs>
       <path d="M 2019 4047
Q 2019 3988 2012 3952
Q 2006 3916 1998 3894
Q 1991 3872 1978 3864
Q 1966 3856 1947 3856
Q 1925 3856 1892 3870
Q 1859 3884 1812 3901
Q 1766 3919 1702 3933
Q 1638 3947 1553 3947
Q 1438 3947 1356 3909
Q 1275 3872 1225 3792
Q 1175 3713 1153 3586
Q 1131 3459 1131 3278
L 1131 2972
L 1759 2972
Q 1784 2972 1801 2961
Q 1819 2950 1833 2923
Q 1847 2897 1855 2856
Q 1863 2816 1863 2756
Q 1863 2644 1834 2594
Q 1806 2544 1759 2544
L 1131 2544
L 1131 78
Q 1131 53 1118 36
Q 1106 19 1076 6
Q 1047 -6 997 -12
Q 947 -19 872 -19
Q 797 -19 747 -12
Q 697 -6 667 6
Q 638 19 625 36
Q 613 53 613 78
L 613 2544
L 216 2544
Q 166 2544 141 2594
Q 116 2644 116 2756
Q 116 2816 122 2856
Q 128 2897 140 2923
Q 153 2950 172 2961
Q 191 2972 216 2972
L 613 2972
L 613 3263
Q 613 3556 667 3767
Q 722 3978 834 4112
Q 947 4247 1117 4311
Q 1288 4375 1519 4375
Q 1628 4375 1731 4354
Q 1834 4334 1890 4311
Q 1947 4288 1965 4269
Q 1984 4250 1996 4220
Q 2009 4191 2014 4148
Q 2019 4106 2019 4047
z
" id="Calibri-66" transform="scale(0.015625)"/>
       <path d="M 2981 1038
Q 2981 775 2887 570
Q 2794 366 2617 225
Q 2441 84 2181 12
Q 1922 -59 1588 -59
Q 1275 -59 1028 6
Q 781 72 609 200
Q 438 328 347 515
Q 256 703 256 944
Q 256 1134 318 1293
Q 381 1453 498 1587
Q 616 1722 787 1839
Q 959 1956 1175 2063
Q 988 2159 844 2267
Q 700 2375 600 2501
Q 500 2628 448 2772
Q 397 2916 397 3084
Q 397 3297 473 3483
Q 550 3669 704 3806
Q 859 3944 1098 4023
Q 1338 4103 1656 4103
Q 1963 4103 2186 4029
Q 2409 3956 2554 3829
Q 2700 3703 2769 3531
Q 2838 3359 2838 3163
Q 2838 3003 2786 2856
Q 2734 2709 2634 2578
Q 2534 2447 2389 2333
Q 2244 2219 2056 2119
Q 2278 2009 2451 1893
Q 2625 1778 2742 1645
Q 2859 1513 2920 1364
Q 2981 1216 2981 1038
z
M 2306 3113
Q 2306 3244 2261 3350
Q 2216 3456 2128 3531
Q 2041 3606 1911 3645
Q 1781 3684 1616 3684
Q 1278 3684 1104 3531
Q 931 3378 931 3113
Q 931 2991 973 2886
Q 1016 2781 1105 2687
Q 1194 2594 1330 2505
Q 1466 2416 1653 2319
Q 1969 2481 2137 2678
Q 2306 2875 2306 3113
z
M 2438 981
Q 2438 1125 2384 1242
Q 2331 1359 2223 1461
Q 2116 1563 1955 1658
Q 1794 1753 1581 1856
Q 1384 1759 1236 1662
Q 1088 1566 992 1462
Q 897 1359 848 1245
Q 800 1131 800 994
Q 800 691 1008 525
Q 1216 359 1628 359
Q 2028 359 2233 526
Q 2438 694 2438 981
z
" id="Calibri-38" transform="scale(0.015625)"/>
      </defs>
      <use xlink:href="#Calibri-66"/>
      <use x="30.517578" xlink:href="#Calibri-65"/>
      <use x="80.273438" xlink:href="#Calibri-6d"/>
      <use x="160.15625" xlink:href="#Calibri-61"/>
      <use x="208.056641" xlink:href="#Calibri-6c"/>
      <use x="231.005859" xlink:href="#Calibri-65"/>
      <use x="280.761719" xlink:href="#Calibri-20"/>
      <use x="303.369141" xlink:href="#Calibri-28"/>
      <use x="333.691406" xlink:href="#Calibri-32"/>
      <use x="384.375" xlink:href="#Calibri-35"/>
      <use x="435.058594" xlink:href="#Calibri-2e"/>
      <use x="460.302734" xlink:href="#Calibri-38"/>
      <use x="510.986328" xlink:href="#Calibri-25"/>
      <use x="582.470703" xlink:href="#Calibri-29"/>
     </g>
    </g>
    <g id="patch_21">
     <path d="M 368.705567 249.676318
L 384.705567 249.676318
L 384.705567 244.076318
L 368.705567 244.076318
z
" style="fill:url(#hef92b74ac1);stroke:#000000;stroke-linejoin:miter;"/>
    </g>
    <g id="text_19">
     <!-- smokers (18.5%) -->
     <g transform="translate(391.105567 249.676318)scale(0.08 -0.08)">
      <use xlink:href="#Calibri-73"/>
      <use x="39.111328" xlink:href="#Calibri-6d"/>
      <use x="118.994141" xlink:href="#Calibri-6f"/>
      <use x="171.728516" xlink:href="#Calibri-6b"/>
      <use x="217.1875" xlink:href="#Calibri-65"/>
      <use x="266.943359" xlink:href="#Calibri-72"/>
      <use x="301.806641" xlink:href="#Calibri-73"/>
      <use x="340.917969" xlink:href="#Calibri-20"/>
      <use x="363.525391" xlink:href="#Calibri-28"/>
      <use x="393.847656" xlink:href="#Calibri-31"/>
      <use x="444.53125" xlink:href="#Calibri-38"/>
      <use x="495.214844" xlink:href="#Calibri-2e"/>
      <use x="520.458984" xlink:href="#Calibri-35"/>
      <use x="571.142578" xlink:href="#Calibri-25"/>
      <use x="642.626953" xlink:href="#Calibri-29"/>
     </g>
    </g>
   </g>
  </g>
  <g id="text_20">
   <!-- number of patients -->
   <g transform="translate(191.562669 275.710515)scale(0.09 -0.09)">
    <defs>
     <path d="M 2900 78
Q 2900 53 2887 36
Q 2875 19 2847 6
Q 2819 -6 2769 -12
Q 2719 -19 2644 -19
Q 2566 -19 2516 -12
Q 2466 -6 2437 6
Q 2409 19 2396 36
Q 2384 53 2384 78
L 2384 1725
Q 2384 1966 2346 2112
Q 2309 2259 2237 2365
Q 2166 2472 2052 2528
Q 1938 2584 1788 2584
Q 1594 2584 1400 2446
Q 1206 2309 994 2044
L 994 78
Q 994 53 981 36
Q 969 19 941 6
Q 913 -6 863 -12
Q 813 -19 734 -19
Q 659 -19 609 -12
Q 559 -6 529 6
Q 500 19 489 36
Q 478 53 478 78
L 478 2891
Q 478 2916 487 2933
Q 497 2950 525 2964
Q 553 2978 597 2983
Q 641 2988 713 2988
Q 781 2988 826 2983
Q 872 2978 897 2964
Q 922 2950 933 2933
Q 944 2916 944 2891
L 944 2519
Q 1181 2784 1417 2907
Q 1653 3031 1894 3031
Q 2175 3031 2367 2936
Q 2559 2841 2678 2681
Q 2797 2522 2848 2308
Q 2900 2094 2900 1794
L 2900 78
z
" id="Calibri-6e" transform="scale(0.015625)"/>
     <path d="M 2888 78
Q 2888 53 2877 36
Q 2866 19 2837 6
Q 2809 -6 2764 -12
Q 2719 -19 2653 -19
Q 2581 -19 2536 -12
Q 2491 -6 2464 6
Q 2438 19 2428 36
Q 2419 53 2419 78
L 2419 450
Q 2178 184 1943 62
Q 1709 -59 1469 -59
Q 1188 -59 995 34
Q 803 128 684 289
Q 566 450 514 664
Q 463 878 463 1184
L 463 2891
Q 463 2916 473 2933
Q 484 2950 515 2964
Q 547 2978 597 2983
Q 647 2988 722 2988
Q 797 2988 847 2983
Q 897 2978 926 2964
Q 956 2950 968 2933
Q 981 2916 981 2891
L 981 1253
Q 981 1006 1017 857
Q 1053 709 1126 604
Q 1200 500 1312 442
Q 1425 384 1575 384
Q 1769 384 1961 521
Q 2153 659 2369 925
L 2369 2891
Q 2369 2916 2380 2933
Q 2391 2950 2422 2964
Q 2453 2978 2501 2983
Q 2550 2988 2628 2988
Q 2703 2988 2753 2983
Q 2803 2978 2831 2964
Q 2859 2950 2873 2933
Q 2888 2916 2888 2891
L 2888 78
z
" id="Calibri-75" transform="scale(0.015625)"/>
     <path d="M 3066 1522
Q 3066 1156 2986 864
Q 2906 572 2751 365
Q 2597 159 2372 50
Q 2147 -59 1856 -59
Q 1722 -59 1608 -32
Q 1494 -6 1384 53
Q 1275 113 1165 203
Q 1056 294 934 422
L 934 78
Q 934 53 921 34
Q 909 16 881 5
Q 853 -6 811 -12
Q 769 -19 703 -19
Q 641 -19 597 -12
Q 553 -6 525 5
Q 497 16 487 34
Q 478 53 478 78
L 478 4253
Q 478 4278 489 4297
Q 500 4316 529 4328
Q 559 4341 609 4347
Q 659 4353 734 4353
Q 813 4353 863 4347
Q 913 4341 941 4328
Q 969 4316 981 4297
Q 994 4278 994 4253
L 994 2569
Q 1119 2697 1236 2784
Q 1353 2872 1465 2926
Q 1578 2981 1690 3006
Q 1803 3031 1928 3031
Q 2234 3031 2451 2909
Q 2669 2788 2805 2583
Q 2941 2378 3003 2103
Q 3066 1828 3066 1522
z
M 2522 1463
Q 2522 1678 2489 1881
Q 2456 2084 2375 2240
Q 2294 2397 2159 2492
Q 2025 2588 1825 2588
Q 1725 2588 1628 2559
Q 1531 2531 1431 2465
Q 1331 2400 1223 2297
Q 1116 2194 994 2038
L 994 916
Q 1206 656 1400 520
Q 1594 384 1803 384
Q 1997 384 2134 478
Q 2272 572 2358 726
Q 2444 881 2483 1073
Q 2522 1266 2522 1463
z
" id="Calibri-62" transform="scale(0.015625)"/>
     <path d="M 3066 1528
Q 3066 1159 2986 865
Q 2906 572 2751 367
Q 2597 163 2369 52
Q 2141 -59 1847 -59
Q 1722 -59 1615 -34
Q 1509 -9 1407 44
Q 1306 97 1206 178
Q 1106 259 994 369
L 994 -1038
Q 994 -1063 981 -1081
Q 969 -1100 941 -1112
Q 913 -1125 863 -1131
Q 813 -1138 734 -1138
Q 659 -1138 609 -1131
Q 559 -1125 529 -1112
Q 500 -1100 489 -1081
Q 478 -1063 478 -1038
L 478 2891
Q 478 2919 487 2936
Q 497 2953 525 2965
Q 553 2978 597 2983
Q 641 2988 703 2988
Q 769 2988 811 2983
Q 853 2978 881 2965
Q 909 2953 920 2936
Q 931 2919 931 2891
L 931 2513
Q 1059 2644 1178 2741
Q 1297 2838 1417 2902
Q 1538 2966 1664 2998
Q 1791 3031 1931 3031
Q 2238 3031 2453 2912
Q 2669 2794 2805 2587
Q 2941 2381 3003 2107
Q 3066 1834 3066 1528
z
M 2522 1469
Q 2522 1684 2489 1886
Q 2456 2088 2376 2244
Q 2297 2400 2162 2494
Q 2028 2588 1828 2588
Q 1728 2588 1631 2558
Q 1534 2528 1434 2464
Q 1334 2400 1225 2295
Q 1116 2191 994 2038
L 994 919
Q 1206 659 1397 521
Q 1588 384 1797 384
Q 1991 384 2130 478
Q 2269 572 2355 728
Q 2441 884 2481 1078
Q 2522 1272 2522 1469
z
" id="Calibri-70" transform="scale(0.015625)"/>
     <path d="M 1941 284
Q 1941 194 1928 141
Q 1916 88 1891 63
Q 1866 38 1816 16
Q 1766 -6 1702 -20
Q 1638 -34 1566 -43
Q 1494 -53 1422 -53
Q 1203 -53 1047 5
Q 891 63 791 180
Q 691 297 645 476
Q 600 656 600 900
L 600 2544
L 206 2544
Q 159 2544 131 2594
Q 103 2644 103 2756
Q 103 2816 111 2856
Q 119 2897 131 2923
Q 144 2950 164 2961
Q 184 2972 209 2972
L 600 2972
L 600 3641
Q 600 3663 611 3681
Q 622 3700 651 3714
Q 681 3728 731 3734
Q 781 3741 856 3741
Q 934 3741 984 3734
Q 1034 3728 1062 3714
Q 1091 3700 1103 3681
Q 1116 3663 1116 3641
L 1116 2972
L 1838 2972
Q 1863 2972 1881 2961
Q 1900 2950 1914 2923
Q 1928 2897 1934 2856
Q 1941 2816 1941 2756
Q 1941 2644 1912 2594
Q 1884 2544 1838 2544
L 1116 2544
L 1116 975
Q 1116 684 1202 536
Q 1288 388 1509 388
Q 1581 388 1637 402
Q 1694 416 1737 431
Q 1781 447 1812 461
Q 1844 475 1869 475
Q 1884 475 1898 467
Q 1913 459 1920 437
Q 1928 416 1934 378
Q 1941 341 1941 284
z
" id="Calibri-74" transform="scale(0.015625)"/>
     <path d="M 994 78
Q 994 53 981 36
Q 969 19 941 6
Q 913 -6 863 -12
Q 813 -19 734 -19
Q 659 -19 609 -12
Q 559 -6 529 6
Q 500 19 489 36
Q 478 53 478 78
L 478 2891
Q 478 2913 489 2931
Q 500 2950 529 2962
Q 559 2975 609 2981
Q 659 2988 734 2988
Q 813 2988 863 2981
Q 913 2975 941 2962
Q 969 2950 981 2931
Q 994 2913 994 2891
L 994 78
z
M 1053 3841
Q 1053 3659 984 3593
Q 916 3528 731 3528
Q 550 3528 483 3592
Q 416 3656 416 3834
Q 416 4016 484 4081
Q 553 4147 738 4147
Q 919 4147 986 4083
Q 1053 4019 1053 3841
z
" id="Calibri-69" transform="scale(0.015625)"/>
    </defs>
    <use xlink:href="#Calibri-6e"/>
    <use x="52.539062" xlink:href="#Calibri-75"/>
    <use x="105.078125" xlink:href="#Calibri-6d"/>
    <use x="184.960938" xlink:href="#Calibri-62"/>
    <use x="237.5" xlink:href="#Calibri-65"/>
    <use x="287.255859" xlink:href="#Calibri-72"/>
    <use x="322.119141" xlink:href="#Calibri-20"/>
    <use x="344.726562" xlink:href="#Calibri-6f"/>
    <use x="397.460938" xlink:href="#Calibri-66"/>
    <use x="427.978516" xlink:href="#Calibri-20"/>
    <use x="450.585938" xlink:href="#Calibri-70"/>
    <use x="503.125" xlink:href="#Calibri-61"/>
    <use x="551.025391" xlink:href="#Calibri-74"/>
    <use x="584.521484" xlink:href="#Calibri-69"/>
    <use x="607.470703" xlink:href="#Calibri-65"/>
    <use x="657.226562" xlink:href="#Calibri-6e"/>
    <use x="709.765625" xlink:href="#Calibri-74"/>
    <use x="743.261719" xlink:href="#Calibri-73"/>
   </g>
  </g>
 </g>
 <defs>
  <clipPath id="pa9b241526d">
   <rect height="253.698578" width="216.063747" x="3.00024" y="3.00024"/>
  </clipPath>
  <clipPath id="p0708486d93">
   <rect height="253.698578" width="216.063747" x="234.47932" y="3.00024"/>
  </clipPath>
 </defs>
 <defs>
  <pattern height="72" id="hef92b74ac1" patternUnits="userSpaceOnUse" width="72" x="0" y="0">
   <rect fill="none" height="73" width="73" x="0" y="0"/>
   <path d="M -36 36
L 36 -36
M -33 39
L 39 -33
M -30 42
L 42 -30
M -27 45
L 45 -27
M -24 48
L 48 -24
M -21 51
L 51 -21
M -18 54
L 54 -18
M -15 57
L 57 -15
M -12 60
L 60 -12
M -9 63
L 63 -9
M -6 66
L 66 -6
M -3 69
L 69 -3
M 0 72
L 72 0
M 3 75
L 75 3
M 6 78
L 78 6
M 9 81
L 81 9
M 12 84
L 84 12
M 15 87
L 87 15
M 18 90
L 90 18
M 21 93
L 93 21
M 24 96
L 96 24
M 27 99
L 99 27
M 30 102
L 102 30
M 33 105
L 105 33
M 36 108
L 108 36
" style="fill:#000000;stroke:#000000;stroke-linecap:butt;stroke-linejoin:miter;stroke-width:1.0;"/>
  </pattern>
 </defs>
</svg>
