<?xml version="1.0" encoding="utf-8" standalone="no"?>
<!DOCTYPE svg PUBLIC "-//W3C//DTD SVG 1.1//EN"
  "http://www.w3.org/Graphics/SVG/1.1/DTD/svg11.dtd">
<svg height="280.311067pt" version="1.1" viewBox="0 0 453.543307 280.311067" width="453.543307pt" xmlns="http://www.w3.org/2000/svg" xmlns:xlink="http://www.w3.org/1999/xlink">
 <metadata>
  <rdf:RDF xmlns:cc="http://creativecommons.org/ns#" xmlns:dc="http://purl.org/dc/elements/1.1/" xmlns:rdf="http://www.w3.org/1999/02/22-rdf-syntax-ns#">
   <cc:Work>
    <dc:type rdf:resource="http://purl.org/dc/dcmitype/StillImage"/>
    <dc:date>2021-11-22T11:15:40.127130</dc:date>
    <dc:format>image/svg+xml</dc:format>
    <dc:creator>
     <cc:Agent>
      <dc:title>Matplotlib v3.4.3, https://matplotlib.org/</dc:title>
     </cc:Agent>
    </dc:creator>
   </cc:Work>
  </rdf:RDF>
 </metadata>
 <defs>
  <style type="text/css">*{stroke-linecap:butt;stroke-linejoin:round;}</style>
 </defs>
 <g id="figure_1">
  <g id="patch_1">
   <path d="M 0 280.311067
L 453.543307 280.311067
L 453.543307 0
L 0 0
z
" style="fill:none;"/>
  </g>
  <g id="axes_1">
   <g id="patch_2">
    <path d="M 56.692913 245.272184
L 408.188976 245.272184
L 408.188976 33.637328
L 56.692913 33.637328
z
" style="fill:#ffffff;"/>
   </g>
   <g id="patch_3">
    <path clip-path="url(#pd603a9fb76)" d="M 81.306274 245.272184
L 115.851342 245.272184
L 115.851342 217.661635
L 81.306274 217.661635
z
" style="fill:#ae0060;"/>
   </g>
   <g id="patch_4">
    <path clip-path="url(#pd603a9fb76)" d="M 136.362476 245.272184
L 153.635009 245.272184
L 153.635009 43.715178
L 136.362476 43.715178
z
" style="fill:#ae0060;"/>
   </g>
   <g id="patch_5">
    <path clip-path="url(#pd603a9fb76)" d="M 164.430343 245.272184
L 181.702877 245.272184
L 181.702877 143.113154
L 164.430343 143.113154
z
" style="fill:#ae0060;"/>
   </g>
   <g id="patch_6">
    <path clip-path="url(#pd603a9fb76)" d="M 202.214011 245.272184
L 236.759078 245.272184
L 236.759078 143.113154
L 202.214011 143.113154
z
" style="fill:#ae0060;"/>
   </g>
   <g id="patch_7">
    <path clip-path="url(#pd603a9fb76)" d="M 254.031612 245.272184
L 288.57668 245.272184
L 288.57668 220.42269
L 254.031612 220.42269
z
" style="fill:#ae0060;"/>
   </g>
   <g id="patch_8">
    <path clip-path="url(#pd603a9fb76)" d="M 305.849214 245.272184
L 340.394281 245.272184
L 340.394281 239.750074
L 305.849214 239.750074
z
" style="fill:#ae0060;"/>
   </g>
   <g id="patch_9">
    <path clip-path="url(#pd603a9fb76)" d="M 357.666815 245.272184
L 392.211883 245.272184
L 392.211883 231.46691
L 357.666815 231.46691
z
" style="fill:#ae0060;"/>
   </g>
   <g id="patch_10">
    <path clip-path="url(#pd603a9fb76)" d="M 72.670007 245.272184
L 107.215075 245.272184
L 107.215075 221.967009
L 72.670007 221.967009
z
" style="fill:#00afa5;"/>
   </g>
   <g id="patch_11">
    <path clip-path="url(#pd603a9fb76)" d="M 127.726209 245.272184
L 144.998742 245.272184
L 144.998742 58.830784
L 127.726209 58.830784
z
" style="fill:#00afa5;"/>
   </g>
   <g id="patch_12">
    <path clip-path="url(#pd603a9fb76)" d="M 155.794076 245.272184
L 173.06661 245.272184
L 173.06661 148.167288
L 155.794076 148.167288
z
" style="fill:#00afa5;"/>
   </g>
   <g id="patch_13">
    <path clip-path="url(#pd603a9fb76)" d="M 193.577744 245.272184
L 228.122811 245.272184
L 228.122811 159.819876
L 193.577744 159.819876
z
" style="fill:#00afa5;"/>
   </g>
   <g id="patch_14">
    <path clip-path="url(#pd603a9fb76)" d="M 245.395345 245.272184
L 279.940413 245.272184
L 279.940413 216.140715
L 245.395345 216.140715
z
" style="fill:#00afa5;"/>
   </g>
   <g id="patch_15">
    <path clip-path="url(#pd603a9fb76)" d="M 297.212947 245.272184
L 331.758014 245.272184
L 331.758014 225.851205
L 297.212947 225.851205
z
" style="fill:#00afa5;"/>
   </g>
   <g id="patch_16">
    <path clip-path="url(#pd603a9fb76)" d="M 349.030548 245.272184
L 383.575616 245.272184
L 383.575616 212.256519
L 349.030548 212.256519
z
" style="fill:#00afa5;"/>
   </g>
   <g id="matplotlib.axis_1">
    <g id="xtick_1">
     <g id="line2d_1">
      <defs>
       <path d="M 0 0
L 0 -3
" id="m70dd07e021" style="stroke:#000000;stroke-width:0.5;"/>
      </defs>
      <g>
       <use style="stroke:#000000;stroke-width:0.5;" x="89.942541" xlink:href="#m70dd07e021" y="245.272184"/>
      </g>
     </g>
     <g id="text_1">
      <!-- I -->
      <g transform="translate(89.155447 251.02044)scale(0.06246 -0.06246)">
       <defs>
        <path d="M 1075 81
Q 1075 56 1062 37
Q 1050 19 1019 8
Q 988 -3 936 -11
Q 884 -19 806 -19
Q 731 -19 678 -11
Q 625 -3 594 8
Q 563 19 550 37
Q 538 56 538 81
L 538 3963
Q 538 3988 552 4006
Q 566 4025 598 4036
Q 631 4047 682 4055
Q 734 4063 806 4063
Q 884 4063 936 4055
Q 988 4047 1019 4036
Q 1050 4025 1062 4006
Q 1075 3988 1075 3963
L 1075 81
z
" id="Calibri-49" transform="scale(0.015625)"/>
       </defs>
       <use xlink:href="#Calibri-49"/>
      </g>
     </g>
    </g>
    <g id="xtick_2">
     <g id="line2d_2">
      <g>
       <use style="stroke:#000000;stroke-width:0.5;" x="136.362476" xlink:href="#m70dd07e021" y="245.272184"/>
      </g>
     </g>
     <g id="text_2">
      <!-- IIa -->
      <g transform="translate(133.292176 251.02044)scale(0.06246 -0.06246)">
       <defs>
        <path d="M 2597 75
Q 2597 38 2572 19
Q 2547 0 2503 -9
Q 2459 -19 2375 -19
Q 2294 -19 2245 -9
Q 2197 0 2175 19
Q 2153 38 2153 75
L 2153 356
Q 1969 159 1742 50
Q 1516 -59 1263 -59
Q 1041 -59 861 -1
Q 681 56 554 165
Q 428 275 358 434
Q 288 594 288 797
Q 288 1034 384 1209
Q 481 1384 662 1500
Q 844 1616 1106 1673
Q 1369 1731 1697 1731
L 2084 1731
L 2084 1950
Q 2084 2113 2050 2238
Q 2016 2363 1939 2445
Q 1863 2528 1741 2570
Q 1619 2613 1441 2613
Q 1250 2613 1098 2567
Q 947 2522 833 2467
Q 719 2413 642 2367
Q 566 2322 528 2322
Q 503 2322 484 2334
Q 466 2347 452 2372
Q 438 2397 431 2436
Q 425 2475 425 2522
Q 425 2600 436 2645
Q 447 2691 489 2731
Q 531 2772 634 2826
Q 738 2881 872 2926
Q 1006 2972 1165 3001
Q 1325 3031 1488 3031
Q 1791 3031 2003 2962
Q 2216 2894 2347 2761
Q 2478 2628 2537 2431
Q 2597 2234 2597 1972
L 2597 75
z
M 2084 1359
L 1644 1359
Q 1431 1359 1275 1323
Q 1119 1288 1016 1217
Q 913 1147 864 1048
Q 816 950 816 822
Q 816 603 955 473
Q 1094 344 1344 344
Q 1547 344 1720 447
Q 1894 550 2084 763
L 2084 1359
z
" id="Calibri-61" transform="scale(0.015625)"/>
       </defs>
       <use xlink:href="#Calibri-49"/>
       <use x="25.195312" xlink:href="#Calibri-49"/>
       <use x="50.390625" xlink:href="#Calibri-61"/>
      </g>
     </g>
    </g>
    <g id="xtick_3">
     <g id="line2d_3">
      <g>
       <use style="stroke:#000000;stroke-width:0.5;" x="164.430343" xlink:href="#m70dd07e021" y="245.272184"/>
      </g>
     </g>
     <g id="text_3">
      <!-- IIb -->
      <g transform="translate(161.215117 251.02044)scale(0.06246 -0.06246)">
       <defs>
        <path d="M 3066 1522
Q 3066 1156 2986 864
Q 2906 572 2751 365
Q 2597 159 2372 50
Q 2147 -59 1856 -59
Q 1722 -59 1608 -32
Q 1494 -6 1384 53
Q 1275 113 1165 203
Q 1056 294 934 422
L 934 78
Q 934 53 921 34
Q 909 16 881 5
Q 853 -6 811 -12
Q 769 -19 703 -19
Q 641 -19 597 -12
Q 553 -6 525 5
Q 497 16 487 34
Q 478 53 478 78
L 478 4253
Q 478 4278 489 4297
Q 500 4316 529 4328
Q 559 4341 609 4347
Q 659 4353 734 4353
Q 813 4353 863 4347
Q 913 4341 941 4328
Q 969 4316 981 4297
Q 994 4278 994 4253
L 994 2569
Q 1119 2697 1236 2784
Q 1353 2872 1465 2926
Q 1578 2981 1690 3006
Q 1803 3031 1928 3031
Q 2234 3031 2451 2909
Q 2669 2788 2805 2583
Q 2941 2378 3003 2103
Q 3066 1828 3066 1522
z
M 2522 1463
Q 2522 1678 2489 1881
Q 2456 2084 2375 2240
Q 2294 2397 2159 2492
Q 2025 2588 1825 2588
Q 1725 2588 1628 2559
Q 1531 2531 1431 2465
Q 1331 2400 1223 2297
Q 1116 2194 994 2038
L 994 916
Q 1206 656 1400 520
Q 1594 384 1803 384
Q 1997 384 2134 478
Q 2272 572 2358 726
Q 2444 881 2483 1073
Q 2522 1266 2522 1463
z
" id="Calibri-62" transform="scale(0.015625)"/>
       </defs>
       <use xlink:href="#Calibri-49"/>
       <use x="25.195312" xlink:href="#Calibri-49"/>
       <use x="50.390625" xlink:href="#Calibri-62"/>
      </g>
     </g>
    </g>
    <g id="xtick_4">
     <g id="line2d_4">
      <g>
       <use style="stroke:#000000;stroke-width:0.5;" x="210.850278" xlink:href="#m70dd07e021" y="245.272184"/>
      </g>
     </g>
     <g id="text_4">
      <!-- III -->
      <g transform="translate(208.488997 251.02044)scale(0.06246 -0.06246)">
       <use xlink:href="#Calibri-49"/>
       <use x="25.195312" xlink:href="#Calibri-49"/>
       <use x="50.390625" xlink:href="#Calibri-49"/>
      </g>
     </g>
    </g>
    <g id="xtick_5">
     <g id="line2d_5">
      <g>
       <use style="stroke:#000000;stroke-width:0.5;" x="262.667879" xlink:href="#m70dd07e021" y="245.272184"/>
      </g>
     </g>
     <g id="text_5">
      <!-- IV -->
      <g transform="translate(260.108971 251.02044)scale(0.06246 -0.06246)">
       <defs>
        <path d="M 2172 94
Q 2159 59 2137 37
Q 2116 16 2077 3
Q 2038 -9 1977 -14
Q 1916 -19 1825 -19
Q 1756 -19 1704 -17
Q 1653 -16 1615 -9
Q 1578 -3 1551 5
Q 1525 13 1506 25
Q 1488 38 1477 55
Q 1466 72 1456 97
L 134 3853
Q 109 3922 107 3964
Q 106 4006 134 4028
Q 163 4050 225 4056
Q 288 4063 394 4063
Q 481 4063 532 4058
Q 584 4053 612 4040
Q 641 4028 655 4008
Q 669 3988 681 3956
L 1841 553
L 1844 553
L 2972 3950
Q 2981 3984 2993 4006
Q 3006 4028 3037 4040
Q 3069 4053 3125 4058
Q 3181 4063 3275 4063
Q 3372 4063 3428 4055
Q 3484 4047 3504 4025
Q 3525 4003 3520 3961
Q 3516 3919 3491 3850
L 2172 94
z
" id="Calibri-56" transform="scale(0.015625)"/>
       </defs>
       <use xlink:href="#Calibri-49"/>
       <use x="25.195312" xlink:href="#Calibri-56"/>
      </g>
     </g>
    </g>
    <g id="xtick_6">
     <g id="line2d_6">
      <g>
       <use style="stroke:#000000;stroke-width:0.5;" x="314.48548" xlink:href="#m70dd07e021" y="245.272184"/>
      </g>
     </g>
     <g id="text_6">
      <!-- V -->
      <g transform="translate(312.713666 251.02044)scale(0.06246 -0.06246)">
       <use xlink:href="#Calibri-56"/>
      </g>
     </g>
    </g>
    <g id="xtick_7">
     <g id="line2d_7">
      <g>
       <use style="stroke:#000000;stroke-width:0.5;" x="366.303082" xlink:href="#m70dd07e021" y="245.272184"/>
      </g>
     </g>
     <g id="text_7">
      <!-- VII -->
      <g transform="translate(362.95708 251.02044)scale(0.06246 -0.06246)">
       <use xlink:href="#Calibri-56"/>
       <use x="56.738281" xlink:href="#Calibri-49"/>
       <use x="81.933594" xlink:href="#Calibri-49"/>
      </g>
     </g>
    </g>
    <g id="text_8">
     <!-- LNLs -->
     <g transform="translate(223.992195 260.252463)scale(0.09 -0.09)">
      <defs>
       <path d="M 2634 234
Q 2634 172 2628 130
Q 2622 88 2608 58
Q 2594 28 2573 14
Q 2553 0 2525 0
L 738 0
Q 666 0 602 48
Q 538 97 538 219
L 538 3963
Q 538 3988 550 4006
Q 563 4025 594 4036
Q 625 4047 678 4055
Q 731 4063 806 4063
Q 884 4063 936 4055
Q 988 4047 1019 4036
Q 1050 4025 1062 4006
Q 1075 3988 1075 3963
L 1075 466
L 2525 466
Q 2553 466 2573 452
Q 2594 438 2608 411
Q 2622 384 2628 340
Q 2634 297 2634 234
z
" id="Calibri-4c" transform="scale(0.015625)"/>
       <path d="M 3594 222
Q 3594 159 3573 115
Q 3553 72 3520 44
Q 3488 16 3447 3
Q 3406 -9 3366 -9
L 3194 -9
Q 3113 -9 3052 8
Q 2991 25 2936 70
Q 2881 116 2826 194
Q 2772 272 2706 394
L 1431 2694
Q 1331 2872 1229 3067
Q 1128 3263 1041 3447
L 1034 3447
Q 1041 3222 1044 2987
Q 1047 2753 1047 2522
L 1047 81
Q 1047 59 1034 39
Q 1022 19 992 8
Q 963 -3 914 -11
Q 866 -19 791 -19
Q 716 -19 667 -11
Q 619 -3 591 8
Q 563 19 550 39
Q 538 59 538 81
L 538 3813
Q 538 3938 606 3991
Q 675 4044 756 4044
L 1013 4044
Q 1103 4044 1164 4028
Q 1225 4013 1273 3977
Q 1322 3941 1367 3877
Q 1413 3813 1466 3716
L 2447 1941
Q 2538 1778 2622 1623
Q 2706 1469 2784 1319
Q 2863 1169 2939 1023
Q 3016 878 3091 731
L 3094 731
Q 3088 978 3086 1245
Q 3084 1513 3084 1759
L 3084 3953
Q 3084 3975 3096 3994
Q 3109 4013 3139 4027
Q 3169 4041 3217 4047
Q 3266 4053 3344 4053
Q 3413 4053 3463 4047
Q 3513 4041 3541 4027
Q 3569 4013 3581 3994
Q 3594 3975 3594 3953
L 3594 222
z
" id="Calibri-4e" transform="scale(0.015625)"/>
       <path d="M 2244 844
Q 2244 628 2164 459
Q 2084 291 1937 175
Q 1791 59 1587 0
Q 1384 -59 1141 -59
Q 991 -59 855 -36
Q 719 -13 611 23
Q 503 59 428 98
Q 353 138 318 169
Q 284 200 268 256
Q 253 313 253 409
Q 253 469 259 509
Q 266 550 275 575
Q 284 600 301 611
Q 319 622 341 622
Q 375 622 442 580
Q 509 538 607 488
Q 706 438 840 395
Q 975 353 1150 353
Q 1281 353 1387 381
Q 1494 409 1572 464
Q 1650 519 1692 603
Q 1734 688 1734 803
Q 1734 922 1673 1003
Q 1613 1084 1513 1146
Q 1413 1209 1288 1257
Q 1163 1306 1030 1359
Q 897 1413 770 1480
Q 644 1547 544 1644
Q 444 1741 383 1875
Q 322 2009 322 2197
Q 322 2363 386 2514
Q 450 2666 578 2780
Q 706 2894 898 2962
Q 1091 3031 1347 3031
Q 1459 3031 1571 3012
Q 1684 2994 1775 2966
Q 1866 2938 1930 2905
Q 1994 2872 2026 2847
Q 2059 2822 2070 2803
Q 2081 2784 2086 2761
Q 2091 2738 2095 2703
Q 2100 2669 2100 2619
Q 2100 2566 2095 2527
Q 2091 2488 2080 2463
Q 2069 2438 2053 2427
Q 2038 2416 2019 2416
Q 1991 2416 1937 2450
Q 1884 2484 1800 2523
Q 1716 2563 1602 2597
Q 1488 2631 1341 2631
Q 1209 2631 1109 2601
Q 1009 2572 945 2517
Q 881 2463 848 2388
Q 816 2313 816 2225
Q 816 2103 878 2020
Q 941 1938 1041 1875
Q 1141 1813 1269 1763
Q 1397 1713 1530 1659
Q 1663 1606 1792 1540
Q 1922 1475 2022 1381
Q 2122 1288 2183 1156
Q 2244 1025 2244 844
z
" id="Calibri-73" transform="scale(0.015625)"/>
      </defs>
      <use xlink:href="#Calibri-4c"/>
      <use x="42.041016" xlink:href="#Calibri-4e"/>
      <use x="106.591797" xlink:href="#Calibri-4c"/>
      <use x="148.632812" xlink:href="#Calibri-73"/>
     </g>
    </g>
   </g>
   <g id="matplotlib.axis_2">
    <g id="ytick_1">
     <g id="line2d_8">
      <path clip-path="url(#pd603a9fb76)" d="M 56.692913 245.272184
L 408.188976 245.272184
" style="fill:none;stroke:#000000;stroke-linecap:square;stroke-opacity:0.1;stroke-width:0.5;"/>
     </g>
     <g id="line2d_9">
      <defs>
       <path d="M 0 0
L 3 0
" id="m0cbd034787" style="stroke:#000000;stroke-width:0.5;"/>
      </defs>
      <g>
       <use style="stroke:#000000;stroke-width:0.5;" x="56.692913" xlink:href="#m0cbd034787" y="245.272184"/>
      </g>
     </g>
     <g id="text_9">
      <!-- 0% -->
      <g transform="translate(47.562058 247.396312)scale(0.06246 -0.06246)">
       <defs>
        <path d="M 3022 2031
Q 3022 1566 2948 1181
Q 2875 797 2704 520
Q 2534 244 2259 92
Q 1984 -59 1581 -59
Q 1200 -59 939 77
Q 678 213 518 477
Q 359 741 292 1127
Q 225 1513 225 2013
Q 225 2475 300 2861
Q 375 3247 544 3523
Q 713 3800 988 3951
Q 1263 4103 1663 4103
Q 2047 4103 2308 3967
Q 2569 3831 2728 3567
Q 2888 3303 2955 2917
Q 3022 2531 3022 2031
z
M 2472 1994
Q 2472 2297 2450 2537
Q 2428 2778 2386 2962
Q 2344 3147 2276 3280
Q 2209 3413 2115 3498
Q 2022 3584 1901 3623
Q 1781 3663 1631 3663
Q 1366 3663 1200 3538
Q 1034 3413 939 3194
Q 844 2975 809 2681
Q 775 2388 775 2050
Q 775 1597 822 1280
Q 869 963 970 763
Q 1072 563 1230 472
Q 1388 381 1613 381
Q 1788 381 1920 437
Q 2053 494 2148 598
Q 2244 703 2306 850
Q 2369 997 2406 1175
Q 2444 1353 2458 1561
Q 2472 1769 2472 1994
z
" id="Calibri-30" transform="scale(0.015625)"/>
        <path d="M 1964 3070
Q 1964 2829 1910 2632
Q 1857 2436 1748 2296
Q 1639 2157 1471 2079
Q 1304 2001 1079 2001
Q 851 2001 688 2073
Q 526 2145 423 2281
Q 320 2417 271 2612
Q 223 2807 223 3057
Q 223 3286 274 3479
Q 326 3673 432 3813
Q 539 3954 706 4035
Q 873 4117 1101 4117
Q 1348 4117 1515 4032
Q 1682 3948 1782 3806
Q 1882 3664 1923 3473
Q 1964 3282 1964 3070
z
M 1526 3054
Q 1526 3229 1501 3365
Q 1476 3501 1424 3591
Q 1373 3682 1288 3727
Q 1204 3773 1089 3773
Q 979 3773 898 3729
Q 817 3686 765 3598
Q 714 3511 689 3381
Q 664 3251 664 3076
Q 664 2864 693 2721
Q 723 2579 777 2496
Q 832 2414 915 2381
Q 998 2348 1104 2348
Q 1229 2348 1309 2395
Q 1389 2442 1437 2534
Q 1486 2626 1506 2756
Q 1526 2886 1526 3054
z
M 4348 1022
Q 4348 781 4294 584
Q 4241 388 4132 248
Q 4023 109 3855 31
Q 3688 -47 3463 -47
Q 3235 -47 3072 25
Q 2910 97 2807 233
Q 2704 369 2655 564
Q 2607 759 2607 1009
Q 2607 1238 2658 1431
Q 2710 1625 2816 1765
Q 2923 1906 3090 1987
Q 3257 2069 3485 2069
Q 3732 2069 3899 1984
Q 4066 1900 4166 1758
Q 4266 1616 4307 1425
Q 4348 1234 4348 1022
z
M 3910 1006
Q 3910 1181 3885 1317
Q 3860 1453 3808 1543
Q 3757 1634 3672 1679
Q 3588 1725 3473 1725
Q 3363 1725 3282 1681
Q 3201 1638 3149 1550
Q 3098 1463 3073 1333
Q 3048 1203 3048 1028
Q 3048 816 3077 673
Q 3107 531 3161 448
Q 3216 366 3299 333
Q 3382 300 3488 300
Q 3613 300 3693 347
Q 3773 394 3821 486
Q 3870 578 3890 708
Q 3910 838 3910 1006
z
M 1078 -25
Q 1062 -53 1040 -67
Q 1018 -81 987 -92
Q 956 -103 912 -108
Q 868 -113 806 -113
Q 737 -113 695 -100
Q 653 -88 635 -67
Q 618 -47 623 -17
Q 628 13 653 50
L 3465 4078
Q 3481 4103 3503 4120
Q 3525 4138 3557 4147
Q 3590 4156 3632 4161
Q 3675 4166 3740 4166
Q 3806 4166 3848 4155
Q 3890 4144 3909 4122
Q 3928 4100 3923 4069
Q 3918 4038 3893 4003
L 1078 -25
z
" id="Calibri-25" transform="scale(0.015625)"/>
       </defs>
       <use xlink:href="#Calibri-30"/>
       <use x="50.683594" xlink:href="#Calibri-25"/>
      </g>
     </g>
    </g>
    <g id="ytick_2">
     <g id="line2d_10">
      <path clip-path="url(#pd603a9fb76)" d="M 56.692913 222.355429
L 408.188976 222.355429
" style="fill:none;stroke:#000000;stroke-linecap:square;stroke-opacity:0.1;stroke-width:0.5;"/>
     </g>
     <g id="line2d_11">
      <g>
       <use style="stroke:#000000;stroke-width:0.5;" x="56.692913" xlink:href="#m0cbd034787" y="222.355429"/>
      </g>
     </g>
     <g id="text_10">
      <!-- 10% -->
      <g transform="translate(44.396117 224.479557)scale(0.06246 -0.06246)">
       <defs>
        <path d="M 2897 213
Q 2897 153 2887 112
Q 2878 72 2862 47
Q 2847 22 2826 11
Q 2806 0 2784 0
L 672 0
Q 650 0 631 11
Q 613 22 595 47
Q 578 72 568 112
Q 559 153 559 213
Q 559 269 568 309
Q 578 350 592 376
Q 606 403 626 417
Q 647 431 672 431
L 1516 431
L 1516 3506
L 734 3041
Q 675 3009 639 3003
Q 603 2997 581 3017
Q 559 3038 551 3084
Q 544 3131 544 3203
Q 544 3256 548 3293
Q 553 3331 562 3356
Q 572 3381 589 3400
Q 606 3419 634 3438
L 1566 4034
Q 1578 4044 1597 4050
Q 1616 4056 1644 4062
Q 1672 4069 1709 4070
Q 1747 4072 1803 4072
Q 1878 4072 1928 4065
Q 1978 4059 2006 4048
Q 2034 4038 2043 4020
Q 2053 4003 2053 3984
L 2053 431
L 2784 431
Q 2809 431 2831 417
Q 2853 403 2867 376
Q 2881 350 2889 309
Q 2897 269 2897 213
z
" id="Calibri-31" transform="scale(0.015625)"/>
       </defs>
       <use xlink:href="#Calibri-31"/>
       <use x="50.683594" xlink:href="#Calibri-30"/>
       <use x="101.367188" xlink:href="#Calibri-25"/>
      </g>
     </g>
    </g>
    <g id="ytick_3">
     <g id="line2d_12">
      <path clip-path="url(#pd603a9fb76)" d="M 56.692913 199.438673
L 408.188976 199.438673
" style="fill:none;stroke:#000000;stroke-linecap:square;stroke-opacity:0.1;stroke-width:0.5;"/>
     </g>
     <g id="line2d_13">
      <g>
       <use style="stroke:#000000;stroke-width:0.5;" x="56.692913" xlink:href="#m0cbd034787" y="199.438673"/>
      </g>
     </g>
     <g id="text_11">
      <!-- 20% -->
      <g transform="translate(44.396117 201.562801)scale(0.06246 -0.06246)">
       <defs>
        <path d="M 2888 231
Q 2888 175 2880 131
Q 2872 88 2858 58
Q 2844 28 2820 14
Q 2797 0 2769 0
L 534 0
Q 491 0 458 11
Q 425 22 401 47
Q 378 72 367 119
Q 356 166 356 234
Q 356 297 361 344
Q 366 391 381 427
Q 397 463 420 498
Q 444 534 481 575
L 1266 1406
Q 1538 1694 1702 1922
Q 1866 2150 1955 2337
Q 2044 2525 2072 2678
Q 2100 2831 2100 2966
Q 2100 3100 2056 3220
Q 2013 3341 1930 3431
Q 1847 3522 1722 3575
Q 1597 3628 1434 3628
Q 1244 3628 1092 3575
Q 941 3522 827 3459
Q 713 3397 636 3344
Q 559 3291 522 3291
Q 500 3291 483 3303
Q 466 3316 455 3344
Q 444 3372 437 3419
Q 431 3466 431 3531
Q 431 3578 434 3612
Q 438 3647 445 3672
Q 453 3697 465 3719
Q 478 3741 515 3773
Q 553 3806 645 3862
Q 738 3919 877 3973
Q 1016 4028 1183 4065
Q 1350 4103 1534 4103
Q 1828 4103 2048 4020
Q 2269 3938 2414 3794
Q 2559 3650 2631 3459
Q 2703 3269 2703 3053
Q 2703 2859 2668 2667
Q 2634 2475 2523 2251
Q 2413 2028 2203 1754
Q 1994 1481 1647 1125
L 1006 456
L 2766 456
Q 2791 456 2814 442
Q 2838 428 2855 400
Q 2872 372 2880 330
Q 2888 288 2888 231
z
" id="Calibri-32" transform="scale(0.015625)"/>
       </defs>
       <use xlink:href="#Calibri-32"/>
       <use x="50.683594" xlink:href="#Calibri-30"/>
       <use x="101.367188" xlink:href="#Calibri-25"/>
      </g>
     </g>
    </g>
    <g id="ytick_4">
     <g id="line2d_14">
      <path clip-path="url(#pd603a9fb76)" d="M 56.692913 176.521918
L 408.188976 176.521918
" style="fill:none;stroke:#000000;stroke-linecap:square;stroke-opacity:0.1;stroke-width:0.5;"/>
     </g>
     <g id="line2d_15">
      <g>
       <use style="stroke:#000000;stroke-width:0.5;" x="56.692913" xlink:href="#m0cbd034787" y="176.521918"/>
      </g>
     </g>
     <g id="text_12">
      <!-- 30% -->
      <g transform="translate(44.396117 178.646046)scale(0.06246 -0.06246)">
       <defs>
        <path d="M 2856 1156
Q 2856 878 2759 654
Q 2663 431 2481 272
Q 2300 113 2034 27
Q 1769 -59 1434 -59
Q 1231 -59 1054 -26
Q 878 6 740 51
Q 603 97 512 145
Q 422 194 398 216
Q 375 238 362 259
Q 350 281 340 312
Q 331 344 326 389
Q 322 434 322 500
Q 322 613 344 656
Q 366 700 406 700
Q 434 700 517 650
Q 600 600 729 542
Q 859 484 1032 434
Q 1206 384 1419 384
Q 1625 384 1781 437
Q 1938 491 2044 587
Q 2150 684 2203 817
Q 2256 950 2256 1106
Q 2256 1278 2189 1415
Q 2122 1553 1992 1653
Q 1863 1753 1673 1806
Q 1484 1859 1244 1859
L 859 1859
Q 834 1859 811 1870
Q 788 1881 770 1906
Q 753 1931 742 1972
Q 731 2013 731 2078
Q 731 2138 740 2177
Q 750 2216 767 2239
Q 784 2263 806 2273
Q 828 2284 856 2284
L 1209 2284
Q 1416 2284 1580 2337
Q 1744 2391 1858 2491
Q 1972 2591 2033 2730
Q 2094 2869 2094 3041
Q 2094 3166 2053 3280
Q 2013 3394 1931 3478
Q 1850 3563 1723 3611
Q 1597 3659 1431 3659
Q 1250 3659 1098 3604
Q 947 3550 828 3487
Q 709 3425 631 3370
Q 553 3316 522 3316
Q 500 3316 483 3323
Q 466 3331 455 3354
Q 444 3378 439 3420
Q 434 3463 434 3531
Q 434 3578 437 3614
Q 441 3650 450 3676
Q 459 3703 471 3725
Q 484 3747 514 3776
Q 544 3806 634 3862
Q 725 3919 858 3973
Q 991 4028 1164 4065
Q 1338 4103 1538 4103
Q 1819 4103 2031 4031
Q 2244 3959 2386 3828
Q 2528 3697 2598 3514
Q 2669 3331 2669 3109
Q 2669 2919 2619 2755
Q 2569 2591 2472 2464
Q 2375 2338 2234 2248
Q 2094 2159 1909 2125
L 1909 2119
Q 2119 2097 2292 2014
Q 2466 1931 2591 1806
Q 2716 1681 2786 1514
Q 2856 1347 2856 1156
z
" id="Calibri-33" transform="scale(0.015625)"/>
       </defs>
       <use xlink:href="#Calibri-33"/>
       <use x="50.683594" xlink:href="#Calibri-30"/>
       <use x="101.367188" xlink:href="#Calibri-25"/>
      </g>
     </g>
    </g>
    <g id="ytick_5">
     <g id="line2d_16">
      <path clip-path="url(#pd603a9fb76)" d="M 56.692913 153.605162
L 408.188976 153.605162
" style="fill:none;stroke:#000000;stroke-linecap:square;stroke-opacity:0.1;stroke-width:0.5;"/>
     </g>
     <g id="line2d_17">
      <g>
       <use style="stroke:#000000;stroke-width:0.5;" x="56.692913" xlink:href="#m0cbd034787" y="153.605162"/>
      </g>
     </g>
     <g id="text_13">
      <!-- 40% -->
      <g transform="translate(44.396117 155.72929)scale(0.06246 -0.06246)">
       <defs>
        <path d="M 3059 1150
Q 3059 1047 3028 987
Q 2997 928 2941 928
L 2484 928
L 2484 78
Q 2484 53 2471 36
Q 2459 19 2428 6
Q 2397 -6 2347 -12
Q 2297 -19 2219 -19
Q 2144 -19 2094 -12
Q 2044 -6 2014 6
Q 1984 19 1973 36
Q 1963 53 1963 78
L 1963 928
L 294 928
Q 256 928 231 937
Q 206 947 186 972
Q 166 997 158 1044
Q 150 1091 150 1166
Q 150 1225 153 1272
Q 156 1319 165 1358
Q 175 1397 190 1433
Q 206 1469 228 1509
L 1684 3966
Q 1700 3991 1729 4009
Q 1759 4028 1806 4040
Q 1853 4053 1922 4058
Q 1991 4063 2084 4063
Q 2188 4063 2264 4055
Q 2341 4047 2387 4034
Q 2434 4022 2459 4001
Q 2484 3981 2484 3953
L 2484 1372
L 2941 1372
Q 2994 1372 3026 1317
Q 3059 1263 3059 1150
z
M 1963 3591
L 1956 3591
L 641 1372
L 1963 1372
L 1963 3591
z
" id="Calibri-34" transform="scale(0.015625)"/>
       </defs>
       <use xlink:href="#Calibri-34"/>
       <use x="50.683594" xlink:href="#Calibri-30"/>
       <use x="101.367188" xlink:href="#Calibri-25"/>
      </g>
     </g>
    </g>
    <g id="ytick_6">
     <g id="line2d_18">
      <path clip-path="url(#pd603a9fb76)" d="M 56.692913 130.688407
L 408.188976 130.688407
" style="fill:none;stroke:#000000;stroke-linecap:square;stroke-opacity:0.1;stroke-width:0.5;"/>
     </g>
     <g id="line2d_19">
      <g>
       <use style="stroke:#000000;stroke-width:0.5;" x="56.692913" xlink:href="#m0cbd034787" y="130.688407"/>
      </g>
     </g>
     <g id="text_14">
      <!-- 50% -->
      <g transform="translate(44.396117 132.812535)scale(0.06246 -0.06246)">
       <defs>
        <path d="M 2869 1300
Q 2869 975 2759 722
Q 2650 469 2450 295
Q 2250 122 1973 31
Q 1697 -59 1359 -59
Q 1172 -59 1003 -32
Q 834 -6 703 33
Q 572 72 487 109
Q 403 147 379 169
Q 356 191 347 209
Q 338 228 330 254
Q 322 281 319 322
Q 316 363 316 419
Q 316 472 320 514
Q 325 556 337 582
Q 350 609 367 621
Q 384 634 406 634
Q 438 634 503 595
Q 569 556 680 511
Q 791 466 955 425
Q 1119 384 1344 384
Q 1553 384 1728 434
Q 1903 484 2029 590
Q 2156 697 2228 858
Q 2300 1019 2300 1250
Q 2300 1444 2239 1592
Q 2178 1741 2051 1839
Q 1925 1938 1731 1986
Q 1538 2034 1269 2034
Q 1078 2034 940 2015
Q 803 1997 684 1997
Q 597 1997 559 2037
Q 522 2078 522 2194
L 522 3841
Q 522 3944 570 3994
Q 619 4044 709 4044
L 2500 4044
Q 2525 4044 2548 4030
Q 2572 4016 2587 3987
Q 2603 3959 2611 3915
Q 2619 3872 2619 3813
Q 2619 3700 2587 3637
Q 2556 3575 2500 3575
L 991 3575
L 991 2441
Q 1100 2456 1214 2459
Q 1328 2463 1478 2463
Q 1825 2463 2084 2380
Q 2344 2297 2517 2145
Q 2691 1994 2780 1778
Q 2869 1563 2869 1300
z
" id="Calibri-35" transform="scale(0.015625)"/>
       </defs>
       <use xlink:href="#Calibri-35"/>
       <use x="50.683594" xlink:href="#Calibri-30"/>
       <use x="101.367188" xlink:href="#Calibri-25"/>
      </g>
     </g>
    </g>
    <g id="ytick_7">
     <g id="line2d_20">
      <path clip-path="url(#pd603a9fb76)" d="M 56.692913 107.771651
L 408.188976 107.771651
" style="fill:none;stroke:#000000;stroke-linecap:square;stroke-opacity:0.1;stroke-width:0.5;"/>
     </g>
     <g id="line2d_21">
      <g>
       <use style="stroke:#000000;stroke-width:0.5;" x="56.692913" xlink:href="#m0cbd034787" y="107.771651"/>
      </g>
     </g>
     <g id="text_15">
      <!-- 60% -->
      <g transform="translate(44.396117 109.895779)scale(0.06246 -0.06246)">
       <defs>
        <path d="M 2991 1309
Q 2991 1044 2909 795
Q 2828 547 2659 358
Q 2491 169 2231 55
Q 1972 -59 1619 -59
Q 1366 -59 1172 3
Q 978 66 834 181
Q 691 297 595 465
Q 500 634 442 850
Q 384 1066 359 1322
Q 334 1578 334 1872
Q 334 2131 362 2397
Q 391 2663 462 2909
Q 534 3156 657 3373
Q 781 3591 967 3752
Q 1153 3913 1412 4006
Q 1672 4100 2016 4100
Q 2131 4100 2250 4086
Q 2369 4072 2469 4048
Q 2569 4025 2637 3997
Q 2706 3969 2728 3951
Q 2750 3934 2761 3914
Q 2772 3894 2778 3870
Q 2784 3847 2787 3817
Q 2791 3788 2791 3744
Q 2791 3688 2789 3647
Q 2788 3606 2777 3581
Q 2766 3556 2748 3543
Q 2731 3531 2703 3531
Q 2669 3531 2609 3553
Q 2550 3575 2465 3601
Q 2381 3628 2261 3650
Q 2141 3672 1981 3672
Q 1691 3672 1481 3553
Q 1272 3434 1139 3234
Q 1006 3034 942 2770
Q 878 2506 869 2219
Q 950 2266 1051 2312
Q 1153 2359 1273 2396
Q 1394 2434 1528 2457
Q 1663 2481 1816 2481
Q 2144 2481 2369 2392
Q 2594 2303 2733 2145
Q 2872 1988 2931 1773
Q 2991 1559 2991 1309
z
M 2447 1259
Q 2447 1441 2411 1589
Q 2375 1738 2290 1841
Q 2206 1944 2065 2000
Q 1925 2056 1719 2056
Q 1603 2056 1487 2036
Q 1372 2016 1264 1980
Q 1156 1944 1057 1895
Q 959 1847 878 1791
Q 878 1388 929 1116
Q 981 844 1079 680
Q 1178 516 1325 445
Q 1472 375 1669 375
Q 1869 375 2016 450
Q 2163 525 2259 651
Q 2356 778 2401 936
Q 2447 1094 2447 1259
z
" id="Calibri-36" transform="scale(0.015625)"/>
       </defs>
       <use xlink:href="#Calibri-36"/>
       <use x="50.683594" xlink:href="#Calibri-30"/>
       <use x="101.367188" xlink:href="#Calibri-25"/>
      </g>
     </g>
    </g>
    <g id="ytick_8">
     <g id="line2d_22">
      <path clip-path="url(#pd603a9fb76)" d="M 56.692913 84.854896
L 408.188976 84.854896
" style="fill:none;stroke:#000000;stroke-linecap:square;stroke-opacity:0.1;stroke-width:0.5;"/>
     </g>
     <g id="line2d_23">
      <g>
       <use style="stroke:#000000;stroke-width:0.5;" x="56.692913" xlink:href="#m0cbd034787" y="84.854896"/>
      </g>
     </g>
     <g id="text_16">
      <!-- 70% -->
      <g transform="translate(44.396117 86.979024)scale(0.06246 -0.06246)">
       <defs>
        <path d="M 2947 3813
Q 2947 3756 2942 3711
Q 2938 3666 2930 3623
Q 2922 3581 2908 3542
Q 2894 3503 2875 3459
L 1419 103
Q 1403 66 1379 42
Q 1356 19 1320 5
Q 1284 -9 1228 -14
Q 1172 -19 1091 -19
Q 984 -19 925 -9
Q 866 0 839 20
Q 813 41 816 70
Q 819 100 838 141
L 2369 3572
L 428 3572
Q 369 3572 339 3634
Q 309 3697 309 3809
Q 309 3869 317 3912
Q 325 3956 340 3986
Q 356 4016 378 4030
Q 400 4044 428 4044
L 2784 4044
Q 2828 4044 2861 4034
Q 2894 4025 2911 3997
Q 2928 3969 2937 3925
Q 2947 3881 2947 3813
z
" id="Calibri-37" transform="scale(0.015625)"/>
       </defs>
       <use xlink:href="#Calibri-37"/>
       <use x="50.683594" xlink:href="#Calibri-30"/>
       <use x="101.367188" xlink:href="#Calibri-25"/>
      </g>
     </g>
    </g>
    <g id="ytick_9">
     <g id="line2d_24">
      <path clip-path="url(#pd603a9fb76)" d="M 56.692913 61.938141
L 408.188976 61.938141
" style="fill:none;stroke:#000000;stroke-linecap:square;stroke-opacity:0.1;stroke-width:0.5;"/>
     </g>
     <g id="line2d_25">
      <g>
       <use style="stroke:#000000;stroke-width:0.5;" x="56.692913" xlink:href="#m0cbd034787" y="61.938141"/>
      </g>
     </g>
     <g id="text_17">
      <!-- 80% -->
      <g transform="translate(44.396117 64.062268)scale(0.06246 -0.06246)">
       <defs>
        <path d="M 2981 1038
Q 2981 775 2887 570
Q 2794 366 2617 225
Q 2441 84 2181 12
Q 1922 -59 1588 -59
Q 1275 -59 1028 6
Q 781 72 609 200
Q 438 328 347 515
Q 256 703 256 944
Q 256 1134 318 1293
Q 381 1453 498 1587
Q 616 1722 787 1839
Q 959 1956 1175 2063
Q 988 2159 844 2267
Q 700 2375 600 2501
Q 500 2628 448 2772
Q 397 2916 397 3084
Q 397 3297 473 3483
Q 550 3669 704 3806
Q 859 3944 1098 4023
Q 1338 4103 1656 4103
Q 1963 4103 2186 4029
Q 2409 3956 2554 3829
Q 2700 3703 2769 3531
Q 2838 3359 2838 3163
Q 2838 3003 2786 2856
Q 2734 2709 2634 2578
Q 2534 2447 2389 2333
Q 2244 2219 2056 2119
Q 2278 2009 2451 1893
Q 2625 1778 2742 1645
Q 2859 1513 2920 1364
Q 2981 1216 2981 1038
z
M 2306 3113
Q 2306 3244 2261 3350
Q 2216 3456 2128 3531
Q 2041 3606 1911 3645
Q 1781 3684 1616 3684
Q 1278 3684 1104 3531
Q 931 3378 931 3113
Q 931 2991 973 2886
Q 1016 2781 1105 2687
Q 1194 2594 1330 2505
Q 1466 2416 1653 2319
Q 1969 2481 2137 2678
Q 2306 2875 2306 3113
z
M 2438 981
Q 2438 1125 2384 1242
Q 2331 1359 2223 1461
Q 2116 1563 1955 1658
Q 1794 1753 1581 1856
Q 1384 1759 1236 1662
Q 1088 1566 992 1462
Q 897 1359 848 1245
Q 800 1131 800 994
Q 800 691 1008 525
Q 1216 359 1628 359
Q 2028 359 2233 526
Q 2438 694 2438 981
z
" id="Calibri-38" transform="scale(0.015625)"/>
       </defs>
       <use xlink:href="#Calibri-38"/>
       <use x="50.683594" xlink:href="#Calibri-30"/>
       <use x="101.367188" xlink:href="#Calibri-25"/>
      </g>
     </g>
    </g>
    <g id="ytick_10">
     <g id="line2d_26">
      <path clip-path="url(#pd603a9fb76)" d="M 56.692913 39.021385
L 408.188976 39.021385
" style="fill:none;stroke:#000000;stroke-linecap:square;stroke-opacity:0.1;stroke-width:0.5;"/>
     </g>
     <g id="line2d_27">
      <g>
       <use style="stroke:#000000;stroke-width:0.5;" x="56.692913" xlink:href="#m0cbd034787" y="39.021385"/>
      </g>
     </g>
     <g id="text_18">
      <!-- 90% -->
      <g transform="translate(44.396117 41.145513)scale(0.06246 -0.06246)">
       <defs>
        <path d="M 2919 2181
Q 2919 1919 2887 1650
Q 2856 1381 2781 1132
Q 2706 884 2579 667
Q 2453 450 2261 287
Q 2069 125 1805 33
Q 1541 -59 1191 -59
Q 1056 -59 929 -42
Q 803 -25 701 0
Q 600 25 531 53
Q 463 81 431 109
Q 400 138 386 186
Q 372 234 372 316
Q 372 384 376 425
Q 381 466 390 487
Q 400 509 417 517
Q 434 525 459 525
Q 494 525 556 501
Q 619 478 714 450
Q 809 422 937 398
Q 1066 375 1225 375
Q 1528 375 1745 492
Q 1963 609 2100 806
Q 2238 1003 2306 1262
Q 2375 1522 2381 1809
Q 2216 1713 1984 1638
Q 1753 1563 1453 1563
Q 1116 1563 886 1655
Q 656 1747 517 1906
Q 378 2066 317 2284
Q 256 2503 256 2763
Q 256 3031 334 3273
Q 413 3516 578 3700
Q 744 3884 1000 3993
Q 1256 4103 1613 4103
Q 1866 4103 2061 4039
Q 2256 3975 2400 3854
Q 2544 3734 2644 3564
Q 2744 3394 2805 3178
Q 2866 2963 2892 2711
Q 2919 2459 2919 2181
z
M 2372 2241
Q 2372 2641 2319 2914
Q 2266 3188 2162 3356
Q 2059 3525 1909 3600
Q 1759 3675 1563 3675
Q 1359 3675 1215 3601
Q 1072 3528 980 3404
Q 888 3281 844 3125
Q 800 2969 800 2803
Q 800 2619 839 2466
Q 878 2313 965 2206
Q 1053 2100 1193 2042
Q 1334 1984 1541 1984
Q 1775 1984 1994 2054
Q 2213 2125 2372 2241
z
" id="Calibri-39" transform="scale(0.015625)"/>
       </defs>
       <use xlink:href="#Calibri-39"/>
       <use x="50.683594" xlink:href="#Calibri-30"/>
       <use x="101.367188" xlink:href="#Calibri-25"/>
      </g>
     </g>
    </g>
    <g id="text_19">
     <!-- ipsilateral involvement -->
     <g transform="translate(40.795804 181.16835)rotate(-90)scale(0.09 -0.09)">
      <defs>
       <path d="M 994 78
Q 994 53 981 36
Q 969 19 941 6
Q 913 -6 863 -12
Q 813 -19 734 -19
Q 659 -19 609 -12
Q 559 -6 529 6
Q 500 19 489 36
Q 478 53 478 78
L 478 2891
Q 478 2913 489 2931
Q 500 2950 529 2962
Q 559 2975 609 2981
Q 659 2988 734 2988
Q 813 2988 863 2981
Q 913 2975 941 2962
Q 969 2950 981 2931
Q 994 2913 994 2891
L 994 78
z
M 1053 3841
Q 1053 3659 984 3593
Q 916 3528 731 3528
Q 550 3528 483 3592
Q 416 3656 416 3834
Q 416 4016 484 4081
Q 553 4147 738 4147
Q 919 4147 986 4083
Q 1053 4019 1053 3841
z
" id="Calibri-69" transform="scale(0.015625)"/>
       <path d="M 3066 1528
Q 3066 1159 2986 865
Q 2906 572 2751 367
Q 2597 163 2369 52
Q 2141 -59 1847 -59
Q 1722 -59 1615 -34
Q 1509 -9 1407 44
Q 1306 97 1206 178
Q 1106 259 994 369
L 994 -1038
Q 994 -1063 981 -1081
Q 969 -1100 941 -1112
Q 913 -1125 863 -1131
Q 813 -1138 734 -1138
Q 659 -1138 609 -1131
Q 559 -1125 529 -1112
Q 500 -1100 489 -1081
Q 478 -1063 478 -1038
L 478 2891
Q 478 2919 487 2936
Q 497 2953 525 2965
Q 553 2978 597 2983
Q 641 2988 703 2988
Q 769 2988 811 2983
Q 853 2978 881 2965
Q 909 2953 920 2936
Q 931 2919 931 2891
L 931 2513
Q 1059 2644 1178 2741
Q 1297 2838 1417 2902
Q 1538 2966 1664 2998
Q 1791 3031 1931 3031
Q 2238 3031 2453 2912
Q 2669 2794 2805 2587
Q 2941 2381 3003 2107
Q 3066 1834 3066 1528
z
M 2522 1469
Q 2522 1684 2489 1886
Q 2456 2088 2376 2244
Q 2297 2400 2162 2494
Q 2028 2588 1828 2588
Q 1728 2588 1631 2558
Q 1534 2528 1434 2464
Q 1334 2400 1225 2295
Q 1116 2191 994 2038
L 994 919
Q 1206 659 1397 521
Q 1588 384 1797 384
Q 1991 384 2130 478
Q 2269 572 2355 728
Q 2441 884 2481 1078
Q 2522 1272 2522 1469
z
" id="Calibri-70" transform="scale(0.015625)"/>
       <path d="M 994 78
Q 994 53 981 36
Q 969 19 941 6
Q 913 -6 863 -12
Q 813 -19 734 -19
Q 659 -19 609 -12
Q 559 -6 529 6
Q 500 19 489 36
Q 478 53 478 78
L 478 4253
Q 478 4278 489 4297
Q 500 4316 529 4328
Q 559 4341 609 4347
Q 659 4353 734 4353
Q 813 4353 863 4347
Q 913 4341 941 4328
Q 969 4316 981 4297
Q 994 4278 994 4253
L 994 78
z
" id="Calibri-6c" transform="scale(0.015625)"/>
       <path d="M 1941 284
Q 1941 194 1928 141
Q 1916 88 1891 63
Q 1866 38 1816 16
Q 1766 -6 1702 -20
Q 1638 -34 1566 -43
Q 1494 -53 1422 -53
Q 1203 -53 1047 5
Q 891 63 791 180
Q 691 297 645 476
Q 600 656 600 900
L 600 2544
L 206 2544
Q 159 2544 131 2594
Q 103 2644 103 2756
Q 103 2816 111 2856
Q 119 2897 131 2923
Q 144 2950 164 2961
Q 184 2972 209 2972
L 600 2972
L 600 3641
Q 600 3663 611 3681
Q 622 3700 651 3714
Q 681 3728 731 3734
Q 781 3741 856 3741
Q 934 3741 984 3734
Q 1034 3728 1062 3714
Q 1091 3700 1103 3681
Q 1116 3663 1116 3641
L 1116 2972
L 1838 2972
Q 1863 2972 1881 2961
Q 1900 2950 1914 2923
Q 1928 2897 1934 2856
Q 1941 2816 1941 2756
Q 1941 2644 1912 2594
Q 1884 2544 1838 2544
L 1116 2544
L 1116 975
Q 1116 684 1202 536
Q 1288 388 1509 388
Q 1581 388 1637 402
Q 1694 416 1737 431
Q 1781 447 1812 461
Q 1844 475 1869 475
Q 1884 475 1898 467
Q 1913 459 1920 437
Q 1928 416 1934 378
Q 1941 341 1941 284
z
" id="Calibri-74" transform="scale(0.015625)"/>
       <path d="M 2878 1606
Q 2878 1484 2817 1432
Q 2756 1381 2678 1381
L 834 1381
Q 834 1147 881 959
Q 928 772 1037 637
Q 1147 503 1322 431
Q 1497 359 1750 359
Q 1950 359 2106 392
Q 2263 425 2377 465
Q 2491 506 2564 539
Q 2638 572 2675 572
Q 2697 572 2714 561
Q 2731 550 2740 528
Q 2750 506 2754 467
Q 2759 428 2759 372
Q 2759 331 2756 301
Q 2753 272 2748 248
Q 2744 225 2733 206
Q 2722 188 2705 170
Q 2688 153 2603 114
Q 2519 75 2384 37
Q 2250 0 2073 -29
Q 1897 -59 1697 -59
Q 1350 -59 1089 37
Q 828 134 650 325
Q 472 516 381 803
Q 291 1091 291 1472
Q 291 1834 384 2123
Q 478 2413 654 2614
Q 831 2816 1081 2923
Q 1331 3031 1641 3031
Q 1972 3031 2205 2925
Q 2438 2819 2588 2639
Q 2738 2459 2808 2217
Q 2878 1975 2878 1700
L 2878 1606
z
M 2359 1759
Q 2369 2166 2180 2397
Q 1991 2628 1619 2628
Q 1428 2628 1284 2556
Q 1141 2484 1044 2365
Q 947 2247 894 2089
Q 841 1931 834 1759
L 2359 1759
z
" id="Calibri-65" transform="scale(0.015625)"/>
       <path d="M 2122 2706
Q 2122 2638 2119 2591
Q 2116 2544 2106 2517
Q 2097 2491 2083 2477
Q 2069 2463 2044 2463
Q 2019 2463 1983 2477
Q 1947 2491 1901 2505
Q 1856 2519 1800 2531
Q 1744 2544 1678 2544
Q 1600 2544 1525 2512
Q 1450 2481 1367 2409
Q 1284 2338 1193 2219
Q 1103 2100 994 1928
L 994 78
Q 994 53 981 36
Q 969 19 941 6
Q 913 -6 863 -12
Q 813 -19 734 -19
Q 659 -19 609 -12
Q 559 -6 529 6
Q 500 19 489 36
Q 478 53 478 78
L 478 2891
Q 478 2916 487 2933
Q 497 2950 525 2964
Q 553 2978 597 2983
Q 641 2988 713 2988
Q 781 2988 826 2983
Q 872 2978 897 2964
Q 922 2950 933 2933
Q 944 2916 944 2891
L 944 2481
Q 1059 2650 1161 2756
Q 1263 2863 1353 2923
Q 1444 2984 1533 3007
Q 1622 3031 1713 3031
Q 1753 3031 1804 3026
Q 1856 3022 1912 3009
Q 1969 2997 2014 2981
Q 2059 2966 2078 2950
Q 2097 2934 2103 2920
Q 2109 2906 2114 2884
Q 2119 2863 2120 2820
Q 2122 2778 2122 2706
z
" id="Calibri-72" transform="scale(0.015625)"/>
       <path id="Calibri-20" transform="scale(0.015625)"/>
       <path d="M 2900 78
Q 2900 53 2887 36
Q 2875 19 2847 6
Q 2819 -6 2769 -12
Q 2719 -19 2644 -19
Q 2566 -19 2516 -12
Q 2466 -6 2437 6
Q 2409 19 2396 36
Q 2384 53 2384 78
L 2384 1725
Q 2384 1966 2346 2112
Q 2309 2259 2237 2365
Q 2166 2472 2052 2528
Q 1938 2584 1788 2584
Q 1594 2584 1400 2446
Q 1206 2309 994 2044
L 994 78
Q 994 53 981 36
Q 969 19 941 6
Q 913 -6 863 -12
Q 813 -19 734 -19
Q 659 -19 609 -12
Q 559 -6 529 6
Q 500 19 489 36
Q 478 53 478 78
L 478 2891
Q 478 2916 487 2933
Q 497 2950 525 2964
Q 553 2978 597 2983
Q 641 2988 713 2988
Q 781 2988 826 2983
Q 872 2978 897 2964
Q 922 2950 933 2933
Q 944 2916 944 2891
L 944 2519
Q 1181 2784 1417 2907
Q 1653 3031 1894 3031
Q 2175 3031 2367 2936
Q 2559 2841 2678 2681
Q 2797 2522 2848 2308
Q 2900 2094 2900 1794
L 2900 78
z
" id="Calibri-6e" transform="scale(0.015625)"/>
       <path d="M 2784 2897
Q 2784 2884 2782 2870
Q 2781 2856 2778 2840
Q 2775 2825 2770 2806
Q 2766 2788 2759 2766
L 1800 94
Q 1788 59 1767 37
Q 1747 16 1706 3
Q 1666 -9 1603 -14
Q 1541 -19 1447 -19
Q 1353 -19 1290 -12
Q 1228 -6 1189 6
Q 1150 19 1128 41
Q 1106 63 1094 94
L 138 2766
Q 125 2803 117 2831
Q 109 2859 107 2873
Q 106 2888 106 2897
Q 106 2922 118 2940
Q 131 2959 161 2970
Q 191 2981 239 2984
Q 288 2988 359 2988
Q 450 2988 504 2983
Q 559 2978 589 2965
Q 619 2953 633 2934
Q 647 2916 659 2888
L 1453 569
L 1466 531
L 1475 569
L 2259 2888
Q 2266 2916 2281 2934
Q 2297 2953 2326 2965
Q 2356 2978 2407 2983
Q 2459 2988 2544 2988
Q 2616 2988 2662 2984
Q 2709 2981 2736 2968
Q 2763 2956 2773 2939
Q 2784 2922 2784 2897
z
" id="Calibri-76" transform="scale(0.015625)"/>
       <path d="M 3094 1516
Q 3094 1172 3003 883
Q 2913 594 2733 384
Q 2553 175 2283 58
Q 2013 -59 1656 -59
Q 1309 -59 1051 44
Q 794 147 622 344
Q 450 541 365 822
Q 281 1103 281 1459
Q 281 1803 370 2092
Q 459 2381 639 2590
Q 819 2800 1087 2915
Q 1356 3031 1716 3031
Q 2063 3031 2320 2928
Q 2578 2825 2750 2628
Q 2922 2431 3008 2150
Q 3094 1869 3094 1516
z
M 2550 1481
Q 2550 1709 2508 1912
Q 2466 2116 2369 2269
Q 2272 2422 2106 2511
Q 1941 2600 1694 2600
Q 1466 2600 1302 2519
Q 1138 2438 1031 2289
Q 925 2141 873 1937
Q 822 1734 822 1494
Q 822 1263 864 1059
Q 906 856 1004 704
Q 1103 553 1268 464
Q 1434 375 1681 375
Q 1906 375 2072 456
Q 2238 538 2344 684
Q 2450 831 2500 1034
Q 2550 1238 2550 1481
z
" id="Calibri-6f" transform="scale(0.015625)"/>
       <path d="M 4650 78
Q 4650 53 4637 36
Q 4625 19 4597 6
Q 4569 -6 4519 -12
Q 4469 -19 4394 -19
Q 4316 -19 4266 -12
Q 4216 -6 4186 6
Q 4156 19 4143 36
Q 4131 53 4131 78
L 4131 1788
Q 4131 1966 4100 2112
Q 4069 2259 4000 2365
Q 3931 2472 3825 2528
Q 3719 2584 3575 2584
Q 3397 2584 3217 2446
Q 3038 2309 2822 2044
L 2822 78
Q 2822 53 2809 36
Q 2797 19 2767 6
Q 2738 -6 2688 -12
Q 2638 -19 2563 -19
Q 2491 -19 2439 -12
Q 2388 -6 2358 6
Q 2328 19 2317 36
Q 2306 53 2306 78
L 2306 1788
Q 2306 1966 2272 2112
Q 2238 2259 2169 2365
Q 2100 2472 1995 2528
Q 1891 2584 1747 2584
Q 1569 2584 1387 2446
Q 1206 2309 994 2044
L 994 78
Q 994 53 981 36
Q 969 19 941 6
Q 913 -6 863 -12
Q 813 -19 734 -19
Q 659 -19 609 -12
Q 559 -6 529 6
Q 500 19 489 36
Q 478 53 478 78
L 478 2891
Q 478 2916 487 2933
Q 497 2950 525 2964
Q 553 2978 597 2983
Q 641 2988 713 2988
Q 781 2988 826 2983
Q 872 2978 897 2964
Q 922 2950 933 2933
Q 944 2916 944 2891
L 944 2519
Q 1181 2784 1404 2907
Q 1628 3031 1856 3031
Q 2031 3031 2170 2990
Q 2309 2950 2415 2876
Q 2522 2803 2597 2701
Q 2672 2600 2722 2475
Q 2863 2628 2989 2734
Q 3116 2841 3233 2906
Q 3350 2972 3461 3001
Q 3572 3031 3684 3031
Q 3956 3031 4140 2936
Q 4325 2841 4439 2681
Q 4553 2522 4601 2308
Q 4650 2094 4650 1856
L 4650 78
z
" id="Calibri-6d" transform="scale(0.015625)"/>
      </defs>
      <use xlink:href="#Calibri-69"/>
      <use x="22.949219" xlink:href="#Calibri-70"/>
      <use x="75.488281" xlink:href="#Calibri-73"/>
      <use x="114.599609" xlink:href="#Calibri-69"/>
      <use x="137.548828" xlink:href="#Calibri-6c"/>
      <use x="160.498047" xlink:href="#Calibri-61"/>
      <use x="208.398438" xlink:href="#Calibri-74"/>
      <use x="241.894531" xlink:href="#Calibri-65"/>
      <use x="291.650391" xlink:href="#Calibri-72"/>
      <use x="326.513672" xlink:href="#Calibri-61"/>
      <use x="374.414062" xlink:href="#Calibri-6c"/>
      <use x="397.363281" xlink:href="#Calibri-20"/>
      <use x="419.970703" xlink:href="#Calibri-69"/>
      <use x="442.919922" xlink:href="#Calibri-6e"/>
      <use x="495.458984" xlink:href="#Calibri-76"/>
      <use x="540.625" xlink:href="#Calibri-6f"/>
      <use x="593.359375" xlink:href="#Calibri-6c"/>
      <use x="616.308594" xlink:href="#Calibri-76"/>
      <use x="661.474609" xlink:href="#Calibri-65"/>
      <use x="711.230469" xlink:href="#Calibri-6d"/>
      <use x="791.113281" xlink:href="#Calibri-65"/>
      <use x="840.869141" xlink:href="#Calibri-6e"/>
      <use x="893.408203" xlink:href="#Calibri-74"/>
     </g>
    </g>
   </g>
   <g id="patch_17">
    <path d="M 56.692913 245.272184
L 56.692913 33.637328
" style="fill:none;stroke:#000000;stroke-linecap:square;stroke-linejoin:miter;stroke-width:0.5;"/>
   </g>
   <g id="patch_18">
    <path d="M 408.188976 245.272184
L 408.188976 33.637328
" style="fill:none;stroke:#000000;stroke-linecap:square;stroke-linejoin:miter;stroke-width:0.5;"/>
   </g>
   <g id="patch_19">
    <path d="M 56.692913 245.272184
L 408.188976 245.272184
" style="fill:none;stroke:#000000;stroke-linecap:square;stroke-linejoin:miter;stroke-width:0.5;"/>
   </g>
   <g id="patch_20">
    <path d="M 56.692913 33.637328
L 408.188976 33.637328
" style="fill:none;stroke:#000000;stroke-linecap:square;stroke-linejoin:miter;stroke-width:0.5;"/>
   </g>
   <g id="text_20">
    <!-- base of tongue vs tonsil -->
    <g transform="translate(179.472007 25.637328)scale(0.108 -0.108)">
     <defs>
      <path d="M 3200 1538
Q 3200 1166 3119 869
Q 3038 572 2884 362
Q 2731 153 2507 40
Q 2284 -72 2000 -72
Q 1859 -72 1737 -45
Q 1616 -19 1505 40
Q 1394 100 1286 190
Q 1178 281 1066 409
L 1066 106
Q 1066 72 1048 48
Q 1031 25 992 9
Q 953 -6 887 -12
Q 822 -19 728 -19
Q 631 -19 567 -12
Q 503 -6 464 9
Q 425 25 409 48
Q 394 72 394 106
L 394 4216
Q 394 4247 412 4272
Q 431 4297 476 4314
Q 522 4331 597 4340
Q 672 4350 788 4350
Q 903 4350 978 4340
Q 1053 4331 1098 4314
Q 1144 4297 1162 4272
Q 1181 4247 1181 4216
L 1181 2675
Q 1288 2781 1394 2856
Q 1500 2931 1606 2979
Q 1713 3028 1825 3050
Q 1938 3072 2063 3072
Q 2372 3072 2587 2948
Q 2803 2825 2939 2615
Q 3075 2406 3137 2126
Q 3200 1847 3200 1538
z
M 2384 1481
Q 2384 1659 2357 1825
Q 2331 1991 2265 2119
Q 2200 2247 2095 2323
Q 1991 2400 1831 2400
Q 1753 2400 1678 2378
Q 1603 2356 1523 2303
Q 1444 2250 1359 2165
Q 1275 2081 1181 1956
L 1181 1031
Q 1347 819 1498 708
Q 1650 597 1816 597
Q 1969 597 2075 675
Q 2181 753 2251 878
Q 2322 1003 2353 1162
Q 2384 1322 2384 1481
z
" id="Calibri-Bold-62" transform="scale(0.015625)"/>
      <path d="M 2769 97
Q 2769 53 2737 28
Q 2706 3 2639 -8
Q 2572 -19 2441 -19
Q 2300 -19 2236 -8
Q 2172 3 2145 28
Q 2119 53 2119 97
L 2119 319
Q 1947 134 1726 31
Q 1506 -72 1238 -72
Q 1016 -72 830 -14
Q 644 44 508 158
Q 372 272 297 440
Q 222 609 222 834
Q 222 1078 317 1258
Q 413 1438 602 1555
Q 791 1672 1072 1728
Q 1353 1784 1725 1784
L 1997 1784
L 1997 1953
Q 1997 2084 1970 2182
Q 1944 2281 1883 2347
Q 1822 2413 1720 2444
Q 1619 2475 1469 2475
Q 1272 2475 1117 2431
Q 963 2388 844 2334
Q 725 2281 645 2237
Q 566 2194 516 2194
Q 481 2194 454 2216
Q 428 2238 411 2278
Q 394 2319 384 2378
Q 375 2438 375 2509
Q 375 2606 390 2662
Q 406 2719 450 2764
Q 494 2809 603 2864
Q 713 2919 859 2966
Q 1006 3013 1179 3042
Q 1353 3072 1538 3072
Q 1866 3072 2098 3008
Q 2331 2944 2481 2811
Q 2631 2678 2700 2468
Q 2769 2259 2769 1972
L 2769 97
z
M 1997 1291
L 1697 1291
Q 1506 1291 1372 1262
Q 1238 1234 1153 1178
Q 1069 1122 1030 1042
Q 991 963 991 859
Q 991 684 1102 584
Q 1213 484 1409 484
Q 1575 484 1714 568
Q 1853 653 1997 816
L 1997 1291
z
" id="Calibri-Bold-61" transform="scale(0.015625)"/>
      <path d="M 2356 894
Q 2356 656 2267 475
Q 2178 294 2015 172
Q 1853 50 1631 -11
Q 1409 -72 1150 -72
Q 994 -72 851 -48
Q 709 -25 596 11
Q 484 47 409 84
Q 334 122 300 155
Q 266 188 247 258
Q 228 328 228 466
Q 228 556 234 611
Q 241 666 253 698
Q 266 731 284 742
Q 303 753 331 753
Q 366 753 433 714
Q 500 675 600 628
Q 700 581 833 540
Q 966 500 1134 500
Q 1241 500 1323 522
Q 1406 544 1467 584
Q 1528 625 1559 687
Q 1591 750 1591 831
Q 1591 925 1533 992
Q 1475 1059 1379 1109
Q 1284 1159 1164 1203
Q 1044 1247 917 1300
Q 791 1353 670 1422
Q 550 1491 454 1591
Q 359 1691 301 1831
Q 244 1972 244 2169
Q 244 2369 322 2536
Q 400 2703 547 2822
Q 694 2941 905 3006
Q 1116 3072 1378 3072
Q 1509 3072 1632 3053
Q 1756 3034 1856 3006
Q 1956 2978 2025 2945
Q 2094 2913 2123 2889
Q 2153 2866 2165 2842
Q 2178 2819 2184 2786
Q 2191 2753 2195 2704
Q 2200 2656 2200 2584
Q 2200 2500 2195 2447
Q 2191 2394 2180 2362
Q 2169 2331 2150 2320
Q 2131 2309 2106 2309
Q 2078 2309 2018 2342
Q 1959 2375 1870 2412
Q 1781 2450 1664 2483
Q 1547 2516 1397 2516
Q 1291 2516 1212 2494
Q 1134 2472 1084 2431
Q 1034 2391 1009 2336
Q 984 2281 984 2219
Q 984 2122 1043 2056
Q 1103 1991 1200 1941
Q 1297 1891 1420 1847
Q 1544 1803 1670 1751
Q 1797 1700 1920 1631
Q 2044 1563 2141 1463
Q 2238 1363 2297 1223
Q 2356 1084 2356 894
z
" id="Calibri-Bold-73" transform="scale(0.015625)"/>
      <path d="M 2969 1581
Q 2969 1438 2905 1369
Q 2841 1300 2728 1300
L 1031 1300
Q 1031 1122 1073 976
Q 1116 831 1208 729
Q 1300 628 1445 575
Q 1591 522 1794 522
Q 2000 522 2156 551
Q 2313 581 2427 617
Q 2541 653 2616 683
Q 2691 713 2738 713
Q 2766 713 2784 702
Q 2803 691 2815 662
Q 2828 634 2833 582
Q 2838 531 2838 453
Q 2838 384 2834 336
Q 2831 288 2825 253
Q 2819 219 2806 195
Q 2794 172 2773 150
Q 2753 128 2662 90
Q 2572 53 2431 17
Q 2291 -19 2109 -45
Q 1928 -72 1722 -72
Q 1350 -72 1070 22
Q 791 116 603 306
Q 416 497 323 787
Q 231 1078 231 1469
Q 231 1841 328 2139
Q 425 2438 609 2645
Q 794 2853 1058 2962
Q 1322 3072 1653 3072
Q 2003 3072 2251 2969
Q 2500 2866 2659 2683
Q 2819 2500 2894 2250
Q 2969 2000 2969 1706
L 2969 1581
z
M 2206 1806
Q 2216 2138 2073 2327
Q 1931 2516 1634 2516
Q 1484 2516 1373 2459
Q 1263 2403 1189 2308
Q 1116 2213 1077 2083
Q 1038 1953 1031 1806
L 2206 1806
z
" id="Calibri-Bold-65" transform="scale(0.015625)"/>
      <path id="Calibri-Bold-20" transform="scale(0.015625)"/>
      <path d="M 3213 1528
Q 3213 1172 3119 878
Q 3025 584 2834 371
Q 2644 159 2356 43
Q 2069 -72 1684 -72
Q 1313 -72 1038 31
Q 763 134 581 331
Q 400 528 312 815
Q 225 1103 225 1472
Q 225 1828 320 2123
Q 416 2419 606 2630
Q 797 2841 1083 2956
Q 1369 3072 1753 3072
Q 2128 3072 2403 2970
Q 2678 2869 2858 2672
Q 3038 2475 3125 2187
Q 3213 1900 3213 1528
z
M 2403 1497
Q 2403 1703 2370 1876
Q 2338 2050 2259 2178
Q 2181 2306 2051 2378
Q 1922 2450 1725 2450
Q 1550 2450 1419 2386
Q 1288 2322 1203 2198
Q 1119 2075 1076 1901
Q 1034 1728 1034 1506
Q 1034 1300 1068 1126
Q 1103 953 1179 825
Q 1256 697 1387 626
Q 1519 556 1713 556
Q 1891 556 2022 620
Q 2153 684 2237 806
Q 2322 928 2362 1101
Q 2403 1275 2403 1497
z
" id="Calibri-Bold-6f" transform="scale(0.015625)"/>
      <path d="M 2075 3956
Q 2075 3866 2069 3811
Q 2063 3756 2050 3726
Q 2038 3697 2022 3686
Q 2006 3675 1988 3675
Q 1966 3675 1939 3686
Q 1913 3697 1873 3709
Q 1834 3722 1781 3733
Q 1728 3744 1656 3744
Q 1572 3744 1511 3717
Q 1450 3691 1409 3633
Q 1369 3575 1350 3483
Q 1331 3391 1331 3256
L 1331 3000
L 1841 3000
Q 1869 3000 1892 2984
Q 1916 2969 1931 2933
Q 1947 2897 1955 2834
Q 1963 2772 1963 2681
Q 1963 2509 1931 2436
Q 1900 2363 1841 2363
L 1331 2363
L 1331 106
Q 1331 75 1312 51
Q 1294 28 1250 12
Q 1206 -3 1128 -11
Q 1050 -19 938 -19
Q 825 -19 748 -11
Q 672 -3 626 12
Q 581 28 564 51
Q 547 75 547 106
L 547 2363
L 197 2363
Q 138 2363 108 2436
Q 78 2509 78 2681
Q 78 2772 86 2834
Q 94 2897 108 2933
Q 122 2969 145 2984
Q 169 3000 200 3000
L 547 3000
L 547 3234
Q 547 3519 603 3733
Q 659 3947 779 4089
Q 900 4231 1086 4303
Q 1272 4375 1525 4375
Q 1647 4375 1756 4354
Q 1866 4334 1928 4311
Q 1991 4288 2012 4267
Q 2034 4247 2048 4208
Q 2063 4169 2069 4108
Q 2075 4047 2075 3956
z
" id="Calibri-Bold-66" transform="scale(0.015625)"/>
      <path d="M 2044 381
Q 2044 244 2026 170
Q 2009 97 1981 67
Q 1953 38 1898 14
Q 1844 -9 1770 -26
Q 1697 -44 1611 -53
Q 1525 -63 1438 -63
Q 1203 -63 1031 -3
Q 859 56 746 179
Q 634 303 581 490
Q 528 678 528 934
L 528 2363
L 194 2363
Q 134 2363 103 2436
Q 72 2509 72 2681
Q 72 2772 80 2834
Q 88 2897 103 2933
Q 119 2969 142 2984
Q 166 3000 197 3000
L 528 3000
L 528 3622
Q 528 3653 545 3678
Q 563 3703 608 3720
Q 653 3738 729 3745
Q 806 3753 919 3753
Q 1034 3753 1111 3745
Q 1188 3738 1231 3720
Q 1275 3703 1294 3678
Q 1313 3653 1313 3622
L 1313 3000
L 1919 3000
Q 1950 3000 1973 2984
Q 1997 2969 2012 2933
Q 2028 2897 2036 2834
Q 2044 2772 2044 2681
Q 2044 2509 2012 2436
Q 1981 2363 1922 2363
L 1313 2363
L 1313 1053
Q 1313 825 1384 711
Q 1456 597 1641 597
Q 1703 597 1753 608
Q 1803 619 1842 633
Q 1881 647 1907 658
Q 1934 669 1956 669
Q 1975 669 1992 658
Q 2009 647 2018 614
Q 2028 581 2036 525
Q 2044 469 2044 381
z
" id="Calibri-Bold-74" transform="scale(0.015625)"/>
      <path d="M 3056 106
Q 3056 75 3037 51
Q 3019 28 2975 12
Q 2931 -3 2854 -11
Q 2778 -19 2666 -19
Q 2550 -19 2473 -11
Q 2397 -3 2353 12
Q 2309 28 2290 51
Q 2272 75 2272 106
L 2272 1697
Q 2272 1900 2242 2015
Q 2213 2131 2156 2214
Q 2100 2297 2011 2342
Q 1922 2388 1803 2388
Q 1653 2388 1500 2278
Q 1347 2169 1181 1959
L 1181 106
Q 1181 75 1162 51
Q 1144 28 1098 12
Q 1053 -3 978 -11
Q 903 -19 788 -19
Q 672 -19 597 -11
Q 522 -3 476 12
Q 431 28 412 51
Q 394 75 394 106
L 394 2894
Q 394 2925 409 2948
Q 425 2972 465 2987
Q 506 3003 570 3011
Q 634 3019 731 3019
Q 831 3019 897 3011
Q 963 3003 998 2987
Q 1034 2972 1050 2948
Q 1066 2925 1066 2894
L 1066 2572
Q 1297 2822 1536 2947
Q 1775 3072 2034 3072
Q 2319 3072 2514 2978
Q 2709 2884 2829 2723
Q 2950 2563 3003 2347
Q 3056 2131 3056 1828
L 3056 106
z
" id="Calibri-Bold-6e" transform="scale(0.015625)"/>
      <path d="M 2906 2700
Q 2906 2550 2872 2478
Q 2838 2406 2788 2406
L 2459 2406
Q 2528 2331 2558 2236
Q 2588 2141 2588 2038
Q 2588 1794 2506 1605
Q 2425 1416 2273 1286
Q 2122 1156 1908 1089
Q 1694 1022 1431 1022
Q 1297 1022 1175 1055
Q 1053 1088 988 1131
Q 950 1091 920 1034
Q 891 978 891 909
Q 891 819 970 761
Q 1050 703 1194 697
L 1872 672
Q 2109 663 2295 605
Q 2481 547 2607 442
Q 2734 338 2801 191
Q 2869 44 2869 -144
Q 2869 -350 2778 -533
Q 2688 -716 2506 -850
Q 2325 -984 2051 -1062
Q 1778 -1141 1413 -1141
Q 1056 -1141 804 -1084
Q 553 -1028 392 -928
Q 231 -828 157 -689
Q 84 -550 84 -384
Q 84 -281 111 -187
Q 138 -94 189 -8
Q 241 78 316 156
Q 391 234 488 306
Q 353 378 279 501
Q 206 625 206 772
Q 206 956 290 1107
Q 375 1259 509 1381
Q 400 1491 334 1644
Q 269 1797 269 2025
Q 269 2269 355 2461
Q 441 2653 594 2786
Q 747 2919 959 2989
Q 1172 3059 1428 3059
Q 1559 3059 1679 3043
Q 1800 3028 1903 3000
L 2788 3000
Q 2841 3000 2873 2931
Q 2906 2863 2906 2700
z
M 1897 2041
Q 1897 2266 1772 2391
Q 1647 2516 1419 2516
Q 1303 2516 1215 2477
Q 1128 2438 1070 2370
Q 1013 2303 984 2214
Q 956 2125 956 2028
Q 956 1816 1081 1692
Q 1206 1569 1428 1569
Q 1547 1569 1634 1606
Q 1722 1644 1780 1709
Q 1838 1775 1867 1861
Q 1897 1947 1897 2041
z
M 2081 -184
Q 2081 -44 1968 31
Q 1856 106 1659 113
L 1100 128
Q 1019 69 970 14
Q 922 -41 892 -91
Q 863 -141 853 -187
Q 844 -234 844 -284
Q 844 -441 1001 -522
Q 1159 -603 1447 -603
Q 1625 -603 1747 -567
Q 1869 -531 1944 -472
Q 2019 -413 2050 -339
Q 2081 -266 2081 -184
z
" id="Calibri-Bold-67" transform="scale(0.015625)"/>
      <path d="M 3038 106
Q 3038 75 3022 51
Q 3006 28 2967 12
Q 2928 -3 2864 -11
Q 2800 -19 2703 -19
Q 2600 -19 2536 -11
Q 2472 -3 2434 12
Q 2397 28 2381 51
Q 2366 75 2366 106
L 2366 428
Q 2134 178 1895 53
Q 1656 -72 1400 -72
Q 1113 -72 917 22
Q 722 116 601 278
Q 481 441 429 655
Q 378 869 378 1188
L 378 2894
Q 378 2925 395 2948
Q 413 2972 458 2987
Q 503 3003 579 3011
Q 656 3019 769 3019
Q 884 3019 959 3011
Q 1034 3003 1079 2987
Q 1125 2972 1144 2948
Q 1163 2925 1163 2894
L 1163 1319
Q 1163 1100 1191 984
Q 1219 869 1276 786
Q 1334 703 1423 658
Q 1513 613 1631 613
Q 1781 613 1932 722
Q 2084 831 2256 1041
L 2256 2894
Q 2256 2925 2273 2948
Q 2291 2972 2336 2987
Q 2381 3003 2456 3011
Q 2531 3019 2647 3019
Q 2763 3019 2838 3011
Q 2913 3003 2956 2987
Q 3000 2972 3019 2948
Q 3038 2925 3038 2894
L 3038 106
z
" id="Calibri-Bold-75" transform="scale(0.015625)"/>
      <path d="M 2959 2897
Q 2959 2881 2957 2859
Q 2956 2838 2951 2811
Q 2947 2784 2939 2750
Q 2931 2716 2919 2672
L 2081 150
Q 2066 97 2039 64
Q 2013 31 1952 12
Q 1891 -6 1786 -12
Q 1681 -19 1513 -19
Q 1347 -19 1242 -11
Q 1138 -3 1078 15
Q 1019 34 992 67
Q 966 100 950 150
L 113 2672
Q 94 2734 83 2784
Q 72 2834 70 2856
Q 69 2878 69 2897
Q 69 2928 86 2951
Q 103 2975 147 2990
Q 191 3006 267 3012
Q 344 3019 459 3019
Q 588 3019 666 3011
Q 744 3003 789 2989
Q 834 2975 853 2948
Q 872 2922 884 2884
L 1519 838
L 1538 759
L 1556 838
L 2181 2884
Q 2191 2922 2211 2948
Q 2231 2975 2275 2989
Q 2319 3003 2392 3011
Q 2466 3019 2584 3019
Q 2700 3019 2773 3012
Q 2847 3006 2887 2990
Q 2928 2975 2943 2951
Q 2959 2928 2959 2897
z
" id="Calibri-Bold-76" transform="scale(0.015625)"/>
      <path d="M 1181 106
Q 1181 75 1162 51
Q 1144 28 1098 12
Q 1053 -3 978 -11
Q 903 -19 788 -19
Q 672 -19 597 -11
Q 522 -3 476 12
Q 431 28 412 51
Q 394 75 394 106
L 394 2888
Q 394 2919 412 2942
Q 431 2966 476 2983
Q 522 3000 597 3009
Q 672 3019 788 3019
Q 903 3019 978 3009
Q 1053 3000 1098 2983
Q 1144 2966 1162 2942
Q 1181 2919 1181 2888
L 1181 106
z
M 1241 3838
Q 1241 3600 1144 3509
Q 1047 3419 784 3419
Q 519 3419 426 3506
Q 334 3594 334 3822
Q 334 4059 429 4151
Q 525 4244 791 4244
Q 1053 4244 1147 4155
Q 1241 4066 1241 3838
z
" id="Calibri-Bold-69" transform="scale(0.015625)"/>
      <path d="M 1181 106
Q 1181 75 1162 51
Q 1144 28 1098 12
Q 1053 -3 978 -11
Q 903 -19 788 -19
Q 672 -19 597 -11
Q 522 -3 476 12
Q 431 28 412 51
Q 394 75 394 106
L 394 4216
Q 394 4247 412 4272
Q 431 4297 476 4314
Q 522 4331 597 4340
Q 672 4350 788 4350
Q 903 4350 978 4340
Q 1053 4331 1098 4314
Q 1144 4297 1162 4272
Q 1181 4247 1181 4216
L 1181 106
z
" id="Calibri-Bold-6c" transform="scale(0.015625)"/>
     </defs>
     <use xlink:href="#Calibri-Bold-62"/>
     <use x="53.662109" xlink:href="#Calibri-Bold-61"/>
     <use x="103.027344" xlink:href="#Calibri-Bold-73"/>
     <use x="142.919922" xlink:href="#Calibri-Bold-65"/>
     <use x="193.261719" xlink:href="#Calibri-Bold-20"/>
     <use x="215.869141" xlink:href="#Calibri-Bold-6f"/>
     <use x="269.628906" xlink:href="#Calibri-Bold-66"/>
     <use x="301.269531" xlink:href="#Calibri-Bold-20"/>
     <use x="323.876953" xlink:href="#Calibri-Bold-74"/>
     <use x="358.544922" xlink:href="#Calibri-Bold-6f"/>
     <use x="412.304688" xlink:href="#Calibri-Bold-6e"/>
     <use x="465.966797" xlink:href="#Calibri-Bold-67"/>
     <use x="513.378906" xlink:href="#Calibri-Bold-75"/>
     <use x="567.041016" xlink:href="#Calibri-Bold-65"/>
     <use x="617.382812" xlink:href="#Calibri-Bold-20"/>
     <use x="639.990234" xlink:href="#Calibri-Bold-76"/>
     <use x="687.304688" xlink:href="#Calibri-Bold-73"/>
     <use x="727.197266" xlink:href="#Calibri-Bold-20"/>
     <use x="749.804688" xlink:href="#Calibri-Bold-74"/>
     <use x="784.472656" xlink:href="#Calibri-Bold-6f"/>
     <use x="838.232422" xlink:href="#Calibri-Bold-6e"/>
     <use x="891.894531" xlink:href="#Calibri-Bold-73"/>
     <use x="931.787109" xlink:href="#Calibri-Bold-69"/>
     <use x="956.347656" xlink:href="#Calibri-Bold-6c"/>
    </g>
   </g>
   <g id="legend_1">
    <g id="patch_21">
     <path d="M 336.948467 50.85189
L 403.816776 50.85189
Q 405.065976 50.85189 405.065976 49.60269
L 405.065976 38.009528
Q 405.065976 36.760328 403.816776 36.760328
L 336.948467 36.760328
Q 335.699267 36.760328 335.699267 38.009528
L 335.699267 49.60269
Q 335.699267 50.85189 336.948467 50.85189
z
" style="fill:#ffffff;opacity:0.8;stroke:#cccccc;stroke-linejoin:miter;"/>
    </g>
    <g id="patch_22">
     <path d="M 336.948467 42.381728
L 349.440467 42.381728
L 349.440467 38.009528
L 336.948467 38.009528
z
" style="fill:#ae0060;"/>
    </g>
    <g id="text_21">
     <!-- base of tongue (83) -->
     <g transform="translate(354.437267 42.381728)scale(0.06246 -0.06246)">
      <defs>
       <path d="M 2019 4047
Q 2019 3988 2012 3952
Q 2006 3916 1998 3894
Q 1991 3872 1978 3864
Q 1966 3856 1947 3856
Q 1925 3856 1892 3870
Q 1859 3884 1812 3901
Q 1766 3919 1702 3933
Q 1638 3947 1553 3947
Q 1438 3947 1356 3909
Q 1275 3872 1225 3792
Q 1175 3713 1153 3586
Q 1131 3459 1131 3278
L 1131 2972
L 1759 2972
Q 1784 2972 1801 2961
Q 1819 2950 1833 2923
Q 1847 2897 1855 2856
Q 1863 2816 1863 2756
Q 1863 2644 1834 2594
Q 1806 2544 1759 2544
L 1131 2544
L 1131 78
Q 1131 53 1118 36
Q 1106 19 1076 6
Q 1047 -6 997 -12
Q 947 -19 872 -19
Q 797 -19 747 -12
Q 697 -6 667 6
Q 638 19 625 36
Q 613 53 613 78
L 613 2544
L 216 2544
Q 166 2544 141 2594
Q 116 2644 116 2756
Q 116 2816 122 2856
Q 128 2897 140 2923
Q 153 2950 172 2961
Q 191 2972 216 2972
L 613 2972
L 613 3263
Q 613 3556 667 3767
Q 722 3978 834 4112
Q 947 4247 1117 4311
Q 1288 4375 1519 4375
Q 1628 4375 1731 4354
Q 1834 4334 1890 4311
Q 1947 4288 1965 4269
Q 1984 4250 1996 4220
Q 2009 4191 2014 4148
Q 2019 4106 2019 4047
z
" id="Calibri-66" transform="scale(0.015625)"/>
       <path d="M 2828 2763
Q 2828 2653 2798 2604
Q 2769 2556 2722 2556
L 2319 2556
Q 2428 2444 2472 2308
Q 2516 2172 2516 2025
Q 2516 1781 2437 1593
Q 2359 1406 2214 1276
Q 2069 1147 1869 1078
Q 1669 1009 1425 1009
Q 1253 1009 1098 1054
Q 944 1100 859 1169
Q 803 1113 767 1041
Q 731 969 731 875
Q 731 766 832 694
Q 934 622 1103 616
L 1838 584
Q 2047 578 2222 526
Q 2397 475 2525 379
Q 2653 284 2725 145
Q 2797 6 2797 -178
Q 2797 -372 2715 -547
Q 2634 -722 2467 -855
Q 2300 -988 2040 -1064
Q 1781 -1141 1428 -1141
Q 1088 -1141 848 -1083
Q 609 -1025 456 -925
Q 303 -825 234 -686
Q 166 -547 166 -384
Q 166 -281 191 -184
Q 216 -88 267 0
Q 319 88 395 167
Q 472 247 572 325
Q 419 403 345 522
Q 272 641 272 778
Q 272 969 350 1119
Q 428 1269 544 1388
Q 447 1503 390 1648
Q 334 1794 334 2000
Q 334 2241 415 2431
Q 497 2622 640 2753
Q 784 2884 986 2954
Q 1188 3025 1425 3025
Q 1553 3025 1664 3011
Q 1775 2997 1872 2972
L 2722 2972
Q 2775 2972 2801 2920
Q 2828 2869 2828 2763
z
M 2022 2022
Q 2022 2309 1864 2470
Q 1706 2631 1416 2631
Q 1266 2631 1155 2581
Q 1044 2531 970 2443
Q 897 2356 861 2242
Q 825 2128 825 2003
Q 825 1725 983 1565
Q 1141 1406 1425 1406
Q 1578 1406 1690 1454
Q 1803 1503 1876 1589
Q 1950 1675 1986 1787
Q 2022 1900 2022 2022
z
M 2281 -206
Q 2281 -25 2132 73
Q 1984 172 1731 178
L 1003 203
Q 903 125 839 54
Q 775 -16 737 -80
Q 700 -144 686 -206
Q 672 -269 672 -334
Q 672 -538 878 -642
Q 1084 -747 1453 -747
Q 1688 -747 1845 -701
Q 2003 -656 2100 -581
Q 2197 -506 2239 -409
Q 2281 -313 2281 -206
z
" id="Calibri-67" transform="scale(0.015625)"/>
       <path d="M 2888 78
Q 2888 53 2877 36
Q 2866 19 2837 6
Q 2809 -6 2764 -12
Q 2719 -19 2653 -19
Q 2581 -19 2536 -12
Q 2491 -6 2464 6
Q 2438 19 2428 36
Q 2419 53 2419 78
L 2419 450
Q 2178 184 1943 62
Q 1709 -59 1469 -59
Q 1188 -59 995 34
Q 803 128 684 289
Q 566 450 514 664
Q 463 878 463 1184
L 463 2891
Q 463 2916 473 2933
Q 484 2950 515 2964
Q 547 2978 597 2983
Q 647 2988 722 2988
Q 797 2988 847 2983
Q 897 2978 926 2964
Q 956 2950 968 2933
Q 981 2916 981 2891
L 981 1253
Q 981 1006 1017 857
Q 1053 709 1126 604
Q 1200 500 1312 442
Q 1425 384 1575 384
Q 1769 384 1961 521
Q 2153 659 2369 925
L 2369 2891
Q 2369 2916 2380 2933
Q 2391 2950 2422 2964
Q 2453 2978 2501 2983
Q 2550 2988 2628 2988
Q 2703 2988 2753 2983
Q 2803 2978 2831 2964
Q 2859 2950 2873 2933
Q 2888 2916 2888 2891
L 2888 78
z
" id="Calibri-75" transform="scale(0.015625)"/>
       <path d="M 1547 4306
Q 1250 3678 1104 3017
Q 959 2356 959 1688
Q 959 1016 1107 356
Q 1256 -303 1541 -938
Q 1556 -975 1557 -1001
Q 1559 -1028 1537 -1045
Q 1516 -1063 1470 -1070
Q 1425 -1078 1347 -1078
Q 1291 -1078 1250 -1075
Q 1209 -1072 1179 -1062
Q 1150 -1053 1131 -1040
Q 1113 -1028 1103 -1013
Q 934 -694 806 -367
Q 678 -41 590 296
Q 503 634 459 979
Q 416 1325 416 1678
Q 416 2031 464 2375
Q 513 2719 602 3058
Q 691 3397 819 3725
Q 947 4053 1106 4375
Q 1109 4388 1123 4397
Q 1138 4406 1163 4415
Q 1188 4425 1231 4429
Q 1275 4434 1344 4434
Q 1416 4434 1459 4425
Q 1503 4416 1528 4400
Q 1553 4384 1556 4359
Q 1559 4334 1547 4306
z
" id="Calibri-28" transform="scale(0.015625)"/>
       <path d="M 1522 1678
Q 1522 1325 1478 979
Q 1434 634 1346 296
Q 1259 -41 1132 -367
Q 1006 -694 838 -1013
Q 828 -1028 809 -1040
Q 791 -1053 761 -1062
Q 731 -1072 690 -1075
Q 650 -1078 594 -1078
Q 513 -1078 467 -1070
Q 422 -1063 401 -1045
Q 381 -1028 382 -1001
Q 384 -975 400 -938
Q 688 -306 834 355
Q 981 1016 981 1688
Q 981 2356 834 3017
Q 688 3678 394 4306
Q 381 4334 384 4359
Q 388 4384 413 4400
Q 438 4416 481 4425
Q 525 4434 597 4434
Q 663 4434 706 4429
Q 750 4425 776 4415
Q 803 4406 815 4397
Q 828 4388 834 4375
Q 1156 3734 1339 3057
Q 1522 2381 1522 1678
z
" id="Calibri-29" transform="scale(0.015625)"/>
      </defs>
      <use xlink:href="#Calibri-62"/>
      <use x="52.539062" xlink:href="#Calibri-61"/>
      <use x="100.439453" xlink:href="#Calibri-73"/>
      <use x="139.550781" xlink:href="#Calibri-65"/>
      <use x="189.306641" xlink:href="#Calibri-20"/>
      <use x="211.914062" xlink:href="#Calibri-6f"/>
      <use x="264.648438" xlink:href="#Calibri-66"/>
      <use x="295.166016" xlink:href="#Calibri-20"/>
      <use x="317.773438" xlink:href="#Calibri-74"/>
      <use x="351.269531" xlink:href="#Calibri-6f"/>
      <use x="404.003906" xlink:href="#Calibri-6e"/>
      <use x="456.542969" xlink:href="#Calibri-67"/>
      <use x="503.613281" xlink:href="#Calibri-75"/>
      <use x="556.152344" xlink:href="#Calibri-65"/>
      <use x="605.908203" xlink:href="#Calibri-20"/>
      <use x="628.515625" xlink:href="#Calibri-28"/>
      <use x="658.837891" xlink:href="#Calibri-38"/>
      <use x="709.521484" xlink:href="#Calibri-33"/>
      <use x="760.205078" xlink:href="#Calibri-29"/>
     </g>
    </g>
    <g id="patch_23">
     <path d="M 336.948467 48.492073
L 349.440467 48.492073
L 349.440467 44.119873
L 336.948467 44.119873
z
" style="fill:#00afa5;"/>
    </g>
    <g id="text_22">
     <!-- tonsil (118) -->
     <g transform="translate(354.437267 48.492073)scale(0.06246 -0.06246)">
      <use xlink:href="#Calibri-74"/>
      <use x="33.496094" xlink:href="#Calibri-6f"/>
      <use x="86.230469" xlink:href="#Calibri-6e"/>
      <use x="138.769531" xlink:href="#Calibri-73"/>
      <use x="177.880859" xlink:href="#Calibri-69"/>
      <use x="200.830078" xlink:href="#Calibri-6c"/>
      <use x="223.779297" xlink:href="#Calibri-20"/>
      <use x="246.386719" xlink:href="#Calibri-28"/>
      <use x="276.708984" xlink:href="#Calibri-31"/>
      <use x="327.392578" xlink:href="#Calibri-31"/>
      <use x="378.076172" xlink:href="#Calibri-38"/>
      <use x="428.759766" xlink:href="#Calibri-29"/>
     </g>
    </g>
   </g>
  </g>
 </g>
 <defs>
  <clipPath id="pd603a9fb76">
   <rect height="211.634856" width="351.496063" x="56.692913" y="33.637328"/>
  </clipPath>
 </defs>
</svg>
