<?xml version="1.0" encoding="utf-8" standalone="no"?>
<!DOCTYPE svg PUBLIC "-//W3C//DTD SVG 1.1//EN"
  "http://www.w3.org/Graphics/SVG/1.1/DTD/svg11.dtd">
<svg height="280.311067pt" version="1.1" viewBox="0 0 453.543307 280.311067" width="453.543307pt" xmlns="http://www.w3.org/2000/svg" xmlns:xlink="http://www.w3.org/1999/xlink">
 <metadata>
  <rdf:RDF xmlns:cc="http://creativecommons.org/ns#" xmlns:dc="http://purl.org/dc/elements/1.1/" xmlns:rdf="http://www.w3.org/1999/02/22-rdf-syntax-ns#">
   <cc:Work>
    <dc:type rdf:resource="http://purl.org/dc/dcmitype/StillImage"/>
    <dc:date>2021-11-22T11:15:02.538825</dc:date>
    <dc:format>image/svg+xml</dc:format>
    <dc:creator>
     <cc:Agent>
      <dc:title>Matplotlib v3.4.3, https://matplotlib.org/</dc:title>
     </cc:Agent>
    </dc:creator>
   </cc:Work>
  </rdf:RDF>
 </metadata>
 <defs>
  <style type="text/css">*{stroke-linecap:butt;stroke-linejoin:round;}</style>
 </defs>
 <g id="figure_1">
  <g id="patch_1">
   <path d="M 0 280.311067
L 453.543307 280.311067
L 453.543307 0
L 0 0
z
" style="fill:none;"/>
  </g>
  <g id="axes_1">
   <g id="patch_2">
    <path d="M 25.018755 260.730236
L 234.780671 260.730236
L 234.780671 18.509615
L 25.018755 18.509615
z
" style="fill:#ffffff;"/>
   </g>
   <g id="patch_3">
    <path clip-path="url(#p276e6b163e)" d="M 39.707243 260.730236
L 60.322665 260.730236
L 60.322665 240.324655
L 39.707243 240.324655
z
" style="fill:#ae0060;"/>
   </g>
   <g id="patch_4">
    <path clip-path="url(#p276e6b163e)" d="M 72.563072 260.730236
L 82.870782 260.730236
L 82.870782 43.92094
L 72.563072 43.92094
z
" style="fill:#ae0060;"/>
   </g>
   <g id="patch_5">
    <path clip-path="url(#p276e6b163e)" d="M 89.313102 260.730236
L 99.620813 260.730236
L 99.620813 153.600937
L 89.313102 153.600937
z
" style="fill:#ae0060;"/>
   </g>
   <g id="patch_6">
    <path clip-path="url(#p276e6b163e)" d="M 111.861219 260.730236
L 132.476641 260.730236
L 132.476641 166.354425
L 111.861219 166.354425
z
" style="fill:#ae0060;"/>
   </g>
   <g id="patch_7">
    <path clip-path="url(#p276e6b163e)" d="M 142.784352 260.730236
L 163.399774 260.730236
L 163.399774 240.324655
L 142.784352 240.324655
z
" style="fill:#ae0060;"/>
   </g>
   <g id="patch_8">
    <path clip-path="url(#p276e6b163e)" d="M 173.707484 260.730236
L 194.322906 260.730236
L 194.322906 253.078143
L 173.707484 253.078143
z
" style="fill:#ae0060;"/>
   </g>
   <g id="patch_9">
    <path clip-path="url(#p276e6b163e)" d="M 204.630617 260.730236
L 225.246039 260.730236
L 225.246039 235.22326
L 204.630617 235.22326
z
" style="fill:#ae0060;"/>
   </g>
   <g id="patch_10">
    <path clip-path="url(#p276e6b163e)" d="M 34.553388 260.730236
L 55.16881 260.730236
L 55.16881 248.036066
L 34.553388 248.036066
z
" style="fill:#00afa5;"/>
   </g>
   <g id="patch_11">
    <path clip-path="url(#p276e6b163e)" d="M 67.409216 260.730236
L 77.716927 260.730236
L 77.716927 89.358948
L 67.409216 89.358948
z
" style="fill:#00afa5;"/>
   </g>
   <g id="patch_12">
    <path clip-path="url(#p276e6b163e)" d="M 84.159246 260.730236
L 94.466957 260.730236
L 94.466957 178.218134
L 84.159246 178.218134
z
" style="fill:#00afa5;"/>
   </g>
   <g id="patch_13">
    <path clip-path="url(#p276e6b163e)" d="M 106.707364 260.730236
L 127.322786 260.730236
L 127.322786 190.912304
L 106.707364 190.912304
z
" style="fill:#00afa5;"/>
   </g>
   <g id="patch_14">
    <path clip-path="url(#p276e6b163e)" d="M 137.630496 260.730236
L 158.245918 260.730236
L 158.245918 248.036066
L 137.630496 248.036066
z
" style="fill:#00afa5;"/>
   </g>
   <g id="patch_15">
    <path clip-path="url(#p276e6b163e)" d="M 168.553629 260.730236
L 189.169051 260.730236
L 189.169051 254.383151
L 168.553629 254.383151
z
" style="fill:#00afa5;"/>
   </g>
   <g id="patch_16">
    <path clip-path="url(#p276e6b163e)" d="M 199.476762 260.730236
L 220.092183 260.730236
L 220.092183 248.036066
L 199.476762 248.036066
z
" style="fill:#00afa5;"/>
   </g>
   <g id="matplotlib.axis_1">
    <g id="xtick_1">
     <g id="line2d_1">
      <defs>
       <path d="M 0 0
L 0 -3
" id="m3de542c9f5" style="stroke:#000000;stroke-width:0.5;"/>
      </defs>
      <g>
       <use style="stroke:#000000;stroke-width:0.5;" x="44.861099" xlink:href="#m3de542c9f5" y="260.730236"/>
      </g>
     </g>
     <g id="text_1">
      <!-- I -->
      <g transform="translate(44.074005 266.478492)scale(0.06246 -0.06246)">
       <defs>
        <path d="M 1075 81
Q 1075 56 1062 37
Q 1050 19 1019 8
Q 988 -3 936 -11
Q 884 -19 806 -19
Q 731 -19 678 -11
Q 625 -3 594 8
Q 563 19 550 37
Q 538 56 538 81
L 538 3963
Q 538 3988 552 4006
Q 566 4025 598 4036
Q 631 4047 682 4055
Q 734 4063 806 4063
Q 884 4063 936 4055
Q 988 4047 1019 4036
Q 1050 4025 1062 4006
Q 1075 3988 1075 3963
L 1075 81
z
" id="Calibri-49" transform="scale(0.015625)"/>
       </defs>
       <use xlink:href="#Calibri-49"/>
      </g>
     </g>
    </g>
    <g id="xtick_2">
     <g id="line2d_2">
      <g>
       <use style="stroke:#000000;stroke-width:0.5;" x="72.563072" xlink:href="#m3de542c9f5" y="260.730236"/>
      </g>
     </g>
     <g id="text_2">
      <!-- IIa -->
      <g transform="translate(69.492772 266.478492)scale(0.06246 -0.06246)">
       <defs>
        <path d="M 2597 75
Q 2597 38 2572 19
Q 2547 0 2503 -9
Q 2459 -19 2375 -19
Q 2294 -19 2245 -9
Q 2197 0 2175 19
Q 2153 38 2153 75
L 2153 356
Q 1969 159 1742 50
Q 1516 -59 1263 -59
Q 1041 -59 861 -1
Q 681 56 554 165
Q 428 275 358 434
Q 288 594 288 797
Q 288 1034 384 1209
Q 481 1384 662 1500
Q 844 1616 1106 1673
Q 1369 1731 1697 1731
L 2084 1731
L 2084 1950
Q 2084 2113 2050 2238
Q 2016 2363 1939 2445
Q 1863 2528 1741 2570
Q 1619 2613 1441 2613
Q 1250 2613 1098 2567
Q 947 2522 833 2467
Q 719 2413 642 2367
Q 566 2322 528 2322
Q 503 2322 484 2334
Q 466 2347 452 2372
Q 438 2397 431 2436
Q 425 2475 425 2522
Q 425 2600 436 2645
Q 447 2691 489 2731
Q 531 2772 634 2826
Q 738 2881 872 2926
Q 1006 2972 1165 3001
Q 1325 3031 1488 3031
Q 1791 3031 2003 2962
Q 2216 2894 2347 2761
Q 2478 2628 2537 2431
Q 2597 2234 2597 1972
L 2597 75
z
M 2084 1359
L 1644 1359
Q 1431 1359 1275 1323
Q 1119 1288 1016 1217
Q 913 1147 864 1048
Q 816 950 816 822
Q 816 603 955 473
Q 1094 344 1344 344
Q 1547 344 1720 447
Q 1894 550 2084 763
L 2084 1359
z
" id="Calibri-61" transform="scale(0.015625)"/>
       </defs>
       <use xlink:href="#Calibri-49"/>
       <use x="25.195312" xlink:href="#Calibri-49"/>
       <use x="50.390625" xlink:href="#Calibri-61"/>
      </g>
     </g>
    </g>
    <g id="xtick_3">
     <g id="line2d_3">
      <g>
       <use style="stroke:#000000;stroke-width:0.5;" x="89.313102" xlink:href="#m3de542c9f5" y="260.730236"/>
      </g>
     </g>
     <g id="text_3">
      <!-- IIb -->
      <g transform="translate(86.097876 266.478492)scale(0.06246 -0.06246)">
       <defs>
        <path d="M 3066 1522
Q 3066 1156 2986 864
Q 2906 572 2751 365
Q 2597 159 2372 50
Q 2147 -59 1856 -59
Q 1722 -59 1608 -32
Q 1494 -6 1384 53
Q 1275 113 1165 203
Q 1056 294 934 422
L 934 78
Q 934 53 921 34
Q 909 16 881 5
Q 853 -6 811 -12
Q 769 -19 703 -19
Q 641 -19 597 -12
Q 553 -6 525 5
Q 497 16 487 34
Q 478 53 478 78
L 478 4253
Q 478 4278 489 4297
Q 500 4316 529 4328
Q 559 4341 609 4347
Q 659 4353 734 4353
Q 813 4353 863 4347
Q 913 4341 941 4328
Q 969 4316 981 4297
Q 994 4278 994 4253
L 994 2569
Q 1119 2697 1236 2784
Q 1353 2872 1465 2926
Q 1578 2981 1690 3006
Q 1803 3031 1928 3031
Q 2234 3031 2451 2909
Q 2669 2788 2805 2583
Q 2941 2378 3003 2103
Q 3066 1828 3066 1522
z
M 2522 1463
Q 2522 1678 2489 1881
Q 2456 2084 2375 2240
Q 2294 2397 2159 2492
Q 2025 2588 1825 2588
Q 1725 2588 1628 2559
Q 1531 2531 1431 2465
Q 1331 2400 1223 2297
Q 1116 2194 994 2038
L 994 916
Q 1206 656 1400 520
Q 1594 384 1803 384
Q 1997 384 2134 478
Q 2272 572 2358 726
Q 2444 881 2483 1073
Q 2522 1266 2522 1463
z
" id="Calibri-62" transform="scale(0.015625)"/>
       </defs>
       <use xlink:href="#Calibri-49"/>
       <use x="25.195312" xlink:href="#Calibri-49"/>
       <use x="50.390625" xlink:href="#Calibri-62"/>
      </g>
     </g>
    </g>
    <g id="xtick_4">
     <g id="line2d_4">
      <g>
       <use style="stroke:#000000;stroke-width:0.5;" x="117.015075" xlink:href="#m3de542c9f5" y="260.730236"/>
      </g>
     </g>
     <g id="text_4">
      <!-- III -->
      <g transform="translate(114.653794 266.478492)scale(0.06246 -0.06246)">
       <use xlink:href="#Calibri-49"/>
       <use x="25.195312" xlink:href="#Calibri-49"/>
       <use x="50.390625" xlink:href="#Calibri-49"/>
      </g>
     </g>
    </g>
    <g id="xtick_5">
     <g id="line2d_5">
      <g>
       <use style="stroke:#000000;stroke-width:0.5;" x="147.938207" xlink:href="#m3de542c9f5" y="260.730236"/>
      </g>
     </g>
     <g id="text_5">
      <!-- IV -->
      <g transform="translate(145.379299 266.478492)scale(0.06246 -0.06246)">
       <defs>
        <path d="M 2172 94
Q 2159 59 2137 37
Q 2116 16 2077 3
Q 2038 -9 1977 -14
Q 1916 -19 1825 -19
Q 1756 -19 1704 -17
Q 1653 -16 1615 -9
Q 1578 -3 1551 5
Q 1525 13 1506 25
Q 1488 38 1477 55
Q 1466 72 1456 97
L 134 3853
Q 109 3922 107 3964
Q 106 4006 134 4028
Q 163 4050 225 4056
Q 288 4063 394 4063
Q 481 4063 532 4058
Q 584 4053 612 4040
Q 641 4028 655 4008
Q 669 3988 681 3956
L 1841 553
L 1844 553
L 2972 3950
Q 2981 3984 2993 4006
Q 3006 4028 3037 4040
Q 3069 4053 3125 4058
Q 3181 4063 3275 4063
Q 3372 4063 3428 4055
Q 3484 4047 3504 4025
Q 3525 4003 3520 3961
Q 3516 3919 3491 3850
L 2172 94
z
" id="Calibri-56" transform="scale(0.015625)"/>
       </defs>
       <use xlink:href="#Calibri-49"/>
       <use x="25.195312" xlink:href="#Calibri-56"/>
      </g>
     </g>
    </g>
    <g id="xtick_6">
     <g id="line2d_6">
      <g>
       <use style="stroke:#000000;stroke-width:0.5;" x="178.86134" xlink:href="#m3de542c9f5" y="260.730236"/>
      </g>
     </g>
     <g id="text_6">
      <!-- V -->
      <g transform="translate(177.089525 266.478492)scale(0.06246 -0.06246)">
       <use xlink:href="#Calibri-56"/>
      </g>
     </g>
    </g>
    <g id="xtick_7">
     <g id="line2d_7">
      <g>
       <use style="stroke:#000000;stroke-width:0.5;" x="209.784472" xlink:href="#m3de542c9f5" y="260.730236"/>
      </g>
     </g>
     <g id="text_7">
      <!-- VII -->
      <g transform="translate(206.438471 266.478492)scale(0.06246 -0.06246)">
       <use xlink:href="#Calibri-56"/>
       <use x="56.738281" xlink:href="#Calibri-49"/>
       <use x="81.933594" xlink:href="#Calibri-49"/>
      </g>
     </g>
    </g>
    <g id="text_8">
     <!-- LNLs -->
     <g transform="translate(121.450963 275.710515)scale(0.09 -0.09)">
      <defs>
       <path d="M 2634 234
Q 2634 172 2628 130
Q 2622 88 2608 58
Q 2594 28 2573 14
Q 2553 0 2525 0
L 738 0
Q 666 0 602 48
Q 538 97 538 219
L 538 3963
Q 538 3988 550 4006
Q 563 4025 594 4036
Q 625 4047 678 4055
Q 731 4063 806 4063
Q 884 4063 936 4055
Q 988 4047 1019 4036
Q 1050 4025 1062 4006
Q 1075 3988 1075 3963
L 1075 466
L 2525 466
Q 2553 466 2573 452
Q 2594 438 2608 411
Q 2622 384 2628 340
Q 2634 297 2634 234
z
" id="Calibri-4c" transform="scale(0.015625)"/>
       <path d="M 3594 222
Q 3594 159 3573 115
Q 3553 72 3520 44
Q 3488 16 3447 3
Q 3406 -9 3366 -9
L 3194 -9
Q 3113 -9 3052 8
Q 2991 25 2936 70
Q 2881 116 2826 194
Q 2772 272 2706 394
L 1431 2694
Q 1331 2872 1229 3067
Q 1128 3263 1041 3447
L 1034 3447
Q 1041 3222 1044 2987
Q 1047 2753 1047 2522
L 1047 81
Q 1047 59 1034 39
Q 1022 19 992 8
Q 963 -3 914 -11
Q 866 -19 791 -19
Q 716 -19 667 -11
Q 619 -3 591 8
Q 563 19 550 39
Q 538 59 538 81
L 538 3813
Q 538 3938 606 3991
Q 675 4044 756 4044
L 1013 4044
Q 1103 4044 1164 4028
Q 1225 4013 1273 3977
Q 1322 3941 1367 3877
Q 1413 3813 1466 3716
L 2447 1941
Q 2538 1778 2622 1623
Q 2706 1469 2784 1319
Q 2863 1169 2939 1023
Q 3016 878 3091 731
L 3094 731
Q 3088 978 3086 1245
Q 3084 1513 3084 1759
L 3084 3953
Q 3084 3975 3096 3994
Q 3109 4013 3139 4027
Q 3169 4041 3217 4047
Q 3266 4053 3344 4053
Q 3413 4053 3463 4047
Q 3513 4041 3541 4027
Q 3569 4013 3581 3994
Q 3594 3975 3594 3953
L 3594 222
z
" id="Calibri-4e" transform="scale(0.015625)"/>
       <path d="M 2244 844
Q 2244 628 2164 459
Q 2084 291 1937 175
Q 1791 59 1587 0
Q 1384 -59 1141 -59
Q 991 -59 855 -36
Q 719 -13 611 23
Q 503 59 428 98
Q 353 138 318 169
Q 284 200 268 256
Q 253 313 253 409
Q 253 469 259 509
Q 266 550 275 575
Q 284 600 301 611
Q 319 622 341 622
Q 375 622 442 580
Q 509 538 607 488
Q 706 438 840 395
Q 975 353 1150 353
Q 1281 353 1387 381
Q 1494 409 1572 464
Q 1650 519 1692 603
Q 1734 688 1734 803
Q 1734 922 1673 1003
Q 1613 1084 1513 1146
Q 1413 1209 1288 1257
Q 1163 1306 1030 1359
Q 897 1413 770 1480
Q 644 1547 544 1644
Q 444 1741 383 1875
Q 322 2009 322 2197
Q 322 2363 386 2514
Q 450 2666 578 2780
Q 706 2894 898 2962
Q 1091 3031 1347 3031
Q 1459 3031 1571 3012
Q 1684 2994 1775 2966
Q 1866 2938 1930 2905
Q 1994 2872 2026 2847
Q 2059 2822 2070 2803
Q 2081 2784 2086 2761
Q 2091 2738 2095 2703
Q 2100 2669 2100 2619
Q 2100 2566 2095 2527
Q 2091 2488 2080 2463
Q 2069 2438 2053 2427
Q 2038 2416 2019 2416
Q 1991 2416 1937 2450
Q 1884 2484 1800 2523
Q 1716 2563 1602 2597
Q 1488 2631 1341 2631
Q 1209 2631 1109 2601
Q 1009 2572 945 2517
Q 881 2463 848 2388
Q 816 2313 816 2225
Q 816 2103 878 2020
Q 941 1938 1041 1875
Q 1141 1813 1269 1763
Q 1397 1713 1530 1659
Q 1663 1606 1792 1540
Q 1922 1475 2022 1381
Q 2122 1288 2183 1156
Q 2244 1025 2244 844
z
" id="Calibri-73" transform="scale(0.015625)"/>
      </defs>
      <use xlink:href="#Calibri-4c"/>
      <use x="42.041016" xlink:href="#Calibri-4e"/>
      <use x="106.591797" xlink:href="#Calibri-4c"/>
      <use x="148.632812" xlink:href="#Calibri-73"/>
     </g>
    </g>
   </g>
   <g id="matplotlib.axis_2">
    <g id="ytick_1">
     <g id="line2d_8">
      <path clip-path="url(#p276e6b163e)" d="M 25.018755 260.730236
L 234.780671 260.730236
" style="fill:none;stroke:#000000;stroke-linecap:square;stroke-opacity:0.1;stroke-width:0.5;"/>
     </g>
     <g id="line2d_9">
      <defs>
       <path d="M 0 0
L 3 0
" id="maba4238535" style="stroke:#000000;stroke-width:0.5;"/>
      </defs>
      <g>
       <use style="stroke:#000000;stroke-width:0.5;" x="25.018755" xlink:href="#maba4238535" y="260.730236"/>
      </g>
     </g>
     <g id="text_9">
      <!-- 0% -->
      <g transform="translate(15.8879 262.854364)scale(0.06246 -0.06246)">
       <defs>
        <path d="M 3022 2031
Q 3022 1566 2948 1181
Q 2875 797 2704 520
Q 2534 244 2259 92
Q 1984 -59 1581 -59
Q 1200 -59 939 77
Q 678 213 518 477
Q 359 741 292 1127
Q 225 1513 225 2013
Q 225 2475 300 2861
Q 375 3247 544 3523
Q 713 3800 988 3951
Q 1263 4103 1663 4103
Q 2047 4103 2308 3967
Q 2569 3831 2728 3567
Q 2888 3303 2955 2917
Q 3022 2531 3022 2031
z
M 2472 1994
Q 2472 2297 2450 2537
Q 2428 2778 2386 2962
Q 2344 3147 2276 3280
Q 2209 3413 2115 3498
Q 2022 3584 1901 3623
Q 1781 3663 1631 3663
Q 1366 3663 1200 3538
Q 1034 3413 939 3194
Q 844 2975 809 2681
Q 775 2388 775 2050
Q 775 1597 822 1280
Q 869 963 970 763
Q 1072 563 1230 472
Q 1388 381 1613 381
Q 1788 381 1920 437
Q 2053 494 2148 598
Q 2244 703 2306 850
Q 2369 997 2406 1175
Q 2444 1353 2458 1561
Q 2472 1769 2472 1994
z
" id="Calibri-30" transform="scale(0.015625)"/>
        <path d="M 1964 3070
Q 1964 2829 1910 2632
Q 1857 2436 1748 2296
Q 1639 2157 1471 2079
Q 1304 2001 1079 2001
Q 851 2001 688 2073
Q 526 2145 423 2281
Q 320 2417 271 2612
Q 223 2807 223 3057
Q 223 3286 274 3479
Q 326 3673 432 3813
Q 539 3954 706 4035
Q 873 4117 1101 4117
Q 1348 4117 1515 4032
Q 1682 3948 1782 3806
Q 1882 3664 1923 3473
Q 1964 3282 1964 3070
z
M 1526 3054
Q 1526 3229 1501 3365
Q 1476 3501 1424 3591
Q 1373 3682 1288 3727
Q 1204 3773 1089 3773
Q 979 3773 898 3729
Q 817 3686 765 3598
Q 714 3511 689 3381
Q 664 3251 664 3076
Q 664 2864 693 2721
Q 723 2579 777 2496
Q 832 2414 915 2381
Q 998 2348 1104 2348
Q 1229 2348 1309 2395
Q 1389 2442 1437 2534
Q 1486 2626 1506 2756
Q 1526 2886 1526 3054
z
M 4348 1022
Q 4348 781 4294 584
Q 4241 388 4132 248
Q 4023 109 3855 31
Q 3688 -47 3463 -47
Q 3235 -47 3072 25
Q 2910 97 2807 233
Q 2704 369 2655 564
Q 2607 759 2607 1009
Q 2607 1238 2658 1431
Q 2710 1625 2816 1765
Q 2923 1906 3090 1987
Q 3257 2069 3485 2069
Q 3732 2069 3899 1984
Q 4066 1900 4166 1758
Q 4266 1616 4307 1425
Q 4348 1234 4348 1022
z
M 3910 1006
Q 3910 1181 3885 1317
Q 3860 1453 3808 1543
Q 3757 1634 3672 1679
Q 3588 1725 3473 1725
Q 3363 1725 3282 1681
Q 3201 1638 3149 1550
Q 3098 1463 3073 1333
Q 3048 1203 3048 1028
Q 3048 816 3077 673
Q 3107 531 3161 448
Q 3216 366 3299 333
Q 3382 300 3488 300
Q 3613 300 3693 347
Q 3773 394 3821 486
Q 3870 578 3890 708
Q 3910 838 3910 1006
z
M 1078 -25
Q 1062 -53 1040 -67
Q 1018 -81 987 -92
Q 956 -103 912 -108
Q 868 -113 806 -113
Q 737 -113 695 -100
Q 653 -88 635 -67
Q 618 -47 623 -17
Q 628 13 653 50
L 3465 4078
Q 3481 4103 3503 4120
Q 3525 4138 3557 4147
Q 3590 4156 3632 4161
Q 3675 4166 3740 4166
Q 3806 4166 3848 4155
Q 3890 4144 3909 4122
Q 3928 4100 3923 4069
Q 3918 4038 3893 4003
L 1078 -25
z
" id="Calibri-25" transform="scale(0.015625)"/>
       </defs>
       <use xlink:href="#Calibri-30"/>
       <use x="50.683594" xlink:href="#Calibri-25"/>
      </g>
     </g>
    </g>
    <g id="ytick_2">
     <g id="line2d_10">
      <path clip-path="url(#p276e6b163e)" d="M 25.018755 233.437772
L 234.780671 233.437772
" style="fill:none;stroke:#000000;stroke-linecap:square;stroke-opacity:0.1;stroke-width:0.5;"/>
     </g>
     <g id="line2d_11">
      <g>
       <use style="stroke:#000000;stroke-width:0.5;" x="25.018755" xlink:href="#maba4238535" y="233.437772"/>
      </g>
     </g>
     <g id="text_10">
      <!-- 10% -->
      <g transform="translate(12.721959 235.5619)scale(0.06246 -0.06246)">
       <defs>
        <path d="M 2897 213
Q 2897 153 2887 112
Q 2878 72 2862 47
Q 2847 22 2826 11
Q 2806 0 2784 0
L 672 0
Q 650 0 631 11
Q 613 22 595 47
Q 578 72 568 112
Q 559 153 559 213
Q 559 269 568 309
Q 578 350 592 376
Q 606 403 626 417
Q 647 431 672 431
L 1516 431
L 1516 3506
L 734 3041
Q 675 3009 639 3003
Q 603 2997 581 3017
Q 559 3038 551 3084
Q 544 3131 544 3203
Q 544 3256 548 3293
Q 553 3331 562 3356
Q 572 3381 589 3400
Q 606 3419 634 3438
L 1566 4034
Q 1578 4044 1597 4050
Q 1616 4056 1644 4062
Q 1672 4069 1709 4070
Q 1747 4072 1803 4072
Q 1878 4072 1928 4065
Q 1978 4059 2006 4048
Q 2034 4038 2043 4020
Q 2053 4003 2053 3984
L 2053 431
L 2784 431
Q 2809 431 2831 417
Q 2853 403 2867 376
Q 2881 350 2889 309
Q 2897 269 2897 213
z
" id="Calibri-31" transform="scale(0.015625)"/>
       </defs>
       <use xlink:href="#Calibri-31"/>
       <use x="50.683594" xlink:href="#Calibri-30"/>
       <use x="101.367188" xlink:href="#Calibri-25"/>
      </g>
     </g>
    </g>
    <g id="ytick_3">
     <g id="line2d_12">
      <path clip-path="url(#p276e6b163e)" d="M 25.018755 206.145307
L 234.780671 206.145307
" style="fill:none;stroke:#000000;stroke-linecap:square;stroke-opacity:0.1;stroke-width:0.5;"/>
     </g>
     <g id="line2d_13">
      <g>
       <use style="stroke:#000000;stroke-width:0.5;" x="25.018755" xlink:href="#maba4238535" y="206.145307"/>
      </g>
     </g>
     <g id="text_11">
      <!-- 20% -->
      <g transform="translate(12.721959 208.269435)scale(0.06246 -0.06246)">
       <defs>
        <path d="M 2888 231
Q 2888 175 2880 131
Q 2872 88 2858 58
Q 2844 28 2820 14
Q 2797 0 2769 0
L 534 0
Q 491 0 458 11
Q 425 22 401 47
Q 378 72 367 119
Q 356 166 356 234
Q 356 297 361 344
Q 366 391 381 427
Q 397 463 420 498
Q 444 534 481 575
L 1266 1406
Q 1538 1694 1702 1922
Q 1866 2150 1955 2337
Q 2044 2525 2072 2678
Q 2100 2831 2100 2966
Q 2100 3100 2056 3220
Q 2013 3341 1930 3431
Q 1847 3522 1722 3575
Q 1597 3628 1434 3628
Q 1244 3628 1092 3575
Q 941 3522 827 3459
Q 713 3397 636 3344
Q 559 3291 522 3291
Q 500 3291 483 3303
Q 466 3316 455 3344
Q 444 3372 437 3419
Q 431 3466 431 3531
Q 431 3578 434 3612
Q 438 3647 445 3672
Q 453 3697 465 3719
Q 478 3741 515 3773
Q 553 3806 645 3862
Q 738 3919 877 3973
Q 1016 4028 1183 4065
Q 1350 4103 1534 4103
Q 1828 4103 2048 4020
Q 2269 3938 2414 3794
Q 2559 3650 2631 3459
Q 2703 3269 2703 3053
Q 2703 2859 2668 2667
Q 2634 2475 2523 2251
Q 2413 2028 2203 1754
Q 1994 1481 1647 1125
L 1006 456
L 2766 456
Q 2791 456 2814 442
Q 2838 428 2855 400
Q 2872 372 2880 330
Q 2888 288 2888 231
z
" id="Calibri-32" transform="scale(0.015625)"/>
       </defs>
       <use xlink:href="#Calibri-32"/>
       <use x="50.683594" xlink:href="#Calibri-30"/>
       <use x="101.367188" xlink:href="#Calibri-25"/>
      </g>
     </g>
    </g>
    <g id="ytick_4">
     <g id="line2d_14">
      <path clip-path="url(#p276e6b163e)" d="M 25.018755 178.852843
L 234.780671 178.852843
" style="fill:none;stroke:#000000;stroke-linecap:square;stroke-opacity:0.1;stroke-width:0.5;"/>
     </g>
     <g id="line2d_15">
      <g>
       <use style="stroke:#000000;stroke-width:0.5;" x="25.018755" xlink:href="#maba4238535" y="178.852843"/>
      </g>
     </g>
     <g id="text_12">
      <!-- 30% -->
      <g transform="translate(12.721959 180.976971)scale(0.06246 -0.06246)">
       <defs>
        <path d="M 2856 1156
Q 2856 878 2759 654
Q 2663 431 2481 272
Q 2300 113 2034 27
Q 1769 -59 1434 -59
Q 1231 -59 1054 -26
Q 878 6 740 51
Q 603 97 512 145
Q 422 194 398 216
Q 375 238 362 259
Q 350 281 340 312
Q 331 344 326 389
Q 322 434 322 500
Q 322 613 344 656
Q 366 700 406 700
Q 434 700 517 650
Q 600 600 729 542
Q 859 484 1032 434
Q 1206 384 1419 384
Q 1625 384 1781 437
Q 1938 491 2044 587
Q 2150 684 2203 817
Q 2256 950 2256 1106
Q 2256 1278 2189 1415
Q 2122 1553 1992 1653
Q 1863 1753 1673 1806
Q 1484 1859 1244 1859
L 859 1859
Q 834 1859 811 1870
Q 788 1881 770 1906
Q 753 1931 742 1972
Q 731 2013 731 2078
Q 731 2138 740 2177
Q 750 2216 767 2239
Q 784 2263 806 2273
Q 828 2284 856 2284
L 1209 2284
Q 1416 2284 1580 2337
Q 1744 2391 1858 2491
Q 1972 2591 2033 2730
Q 2094 2869 2094 3041
Q 2094 3166 2053 3280
Q 2013 3394 1931 3478
Q 1850 3563 1723 3611
Q 1597 3659 1431 3659
Q 1250 3659 1098 3604
Q 947 3550 828 3487
Q 709 3425 631 3370
Q 553 3316 522 3316
Q 500 3316 483 3323
Q 466 3331 455 3354
Q 444 3378 439 3420
Q 434 3463 434 3531
Q 434 3578 437 3614
Q 441 3650 450 3676
Q 459 3703 471 3725
Q 484 3747 514 3776
Q 544 3806 634 3862
Q 725 3919 858 3973
Q 991 4028 1164 4065
Q 1338 4103 1538 4103
Q 1819 4103 2031 4031
Q 2244 3959 2386 3828
Q 2528 3697 2598 3514
Q 2669 3331 2669 3109
Q 2669 2919 2619 2755
Q 2569 2591 2472 2464
Q 2375 2338 2234 2248
Q 2094 2159 1909 2125
L 1909 2119
Q 2119 2097 2292 2014
Q 2466 1931 2591 1806
Q 2716 1681 2786 1514
Q 2856 1347 2856 1156
z
" id="Calibri-33" transform="scale(0.015625)"/>
       </defs>
       <use xlink:href="#Calibri-33"/>
       <use x="50.683594" xlink:href="#Calibri-30"/>
       <use x="101.367188" xlink:href="#Calibri-25"/>
      </g>
     </g>
    </g>
    <g id="ytick_5">
     <g id="line2d_16">
      <path clip-path="url(#p276e6b163e)" d="M 25.018755 151.560379
L 234.780671 151.560379
" style="fill:none;stroke:#000000;stroke-linecap:square;stroke-opacity:0.1;stroke-width:0.5;"/>
     </g>
     <g id="line2d_17">
      <g>
       <use style="stroke:#000000;stroke-width:0.5;" x="25.018755" xlink:href="#maba4238535" y="151.560379"/>
      </g>
     </g>
     <g id="text_13">
      <!-- 40% -->
      <g transform="translate(12.721959 153.684507)scale(0.06246 -0.06246)">
       <defs>
        <path d="M 3059 1150
Q 3059 1047 3028 987
Q 2997 928 2941 928
L 2484 928
L 2484 78
Q 2484 53 2471 36
Q 2459 19 2428 6
Q 2397 -6 2347 -12
Q 2297 -19 2219 -19
Q 2144 -19 2094 -12
Q 2044 -6 2014 6
Q 1984 19 1973 36
Q 1963 53 1963 78
L 1963 928
L 294 928
Q 256 928 231 937
Q 206 947 186 972
Q 166 997 158 1044
Q 150 1091 150 1166
Q 150 1225 153 1272
Q 156 1319 165 1358
Q 175 1397 190 1433
Q 206 1469 228 1509
L 1684 3966
Q 1700 3991 1729 4009
Q 1759 4028 1806 4040
Q 1853 4053 1922 4058
Q 1991 4063 2084 4063
Q 2188 4063 2264 4055
Q 2341 4047 2387 4034
Q 2434 4022 2459 4001
Q 2484 3981 2484 3953
L 2484 1372
L 2941 1372
Q 2994 1372 3026 1317
Q 3059 1263 3059 1150
z
M 1963 3591
L 1956 3591
L 641 1372
L 1963 1372
L 1963 3591
z
" id="Calibri-34" transform="scale(0.015625)"/>
       </defs>
       <use xlink:href="#Calibri-34"/>
       <use x="50.683594" xlink:href="#Calibri-30"/>
       <use x="101.367188" xlink:href="#Calibri-25"/>
      </g>
     </g>
    </g>
    <g id="ytick_6">
     <g id="line2d_18">
      <path clip-path="url(#p276e6b163e)" d="M 25.018755 124.267914
L 234.780671 124.267914
" style="fill:none;stroke:#000000;stroke-linecap:square;stroke-opacity:0.1;stroke-width:0.5;"/>
     </g>
     <g id="line2d_19">
      <g>
       <use style="stroke:#000000;stroke-width:0.5;" x="25.018755" xlink:href="#maba4238535" y="124.267914"/>
      </g>
     </g>
     <g id="text_14">
      <!-- 50% -->
      <g transform="translate(12.721959 126.392042)scale(0.06246 -0.06246)">
       <defs>
        <path d="M 2869 1300
Q 2869 975 2759 722
Q 2650 469 2450 295
Q 2250 122 1973 31
Q 1697 -59 1359 -59
Q 1172 -59 1003 -32
Q 834 -6 703 33
Q 572 72 487 109
Q 403 147 379 169
Q 356 191 347 209
Q 338 228 330 254
Q 322 281 319 322
Q 316 363 316 419
Q 316 472 320 514
Q 325 556 337 582
Q 350 609 367 621
Q 384 634 406 634
Q 438 634 503 595
Q 569 556 680 511
Q 791 466 955 425
Q 1119 384 1344 384
Q 1553 384 1728 434
Q 1903 484 2029 590
Q 2156 697 2228 858
Q 2300 1019 2300 1250
Q 2300 1444 2239 1592
Q 2178 1741 2051 1839
Q 1925 1938 1731 1986
Q 1538 2034 1269 2034
Q 1078 2034 940 2015
Q 803 1997 684 1997
Q 597 1997 559 2037
Q 522 2078 522 2194
L 522 3841
Q 522 3944 570 3994
Q 619 4044 709 4044
L 2500 4044
Q 2525 4044 2548 4030
Q 2572 4016 2587 3987
Q 2603 3959 2611 3915
Q 2619 3872 2619 3813
Q 2619 3700 2587 3637
Q 2556 3575 2500 3575
L 991 3575
L 991 2441
Q 1100 2456 1214 2459
Q 1328 2463 1478 2463
Q 1825 2463 2084 2380
Q 2344 2297 2517 2145
Q 2691 1994 2780 1778
Q 2869 1563 2869 1300
z
" id="Calibri-35" transform="scale(0.015625)"/>
       </defs>
       <use xlink:href="#Calibri-35"/>
       <use x="50.683594" xlink:href="#Calibri-30"/>
       <use x="101.367188" xlink:href="#Calibri-25"/>
      </g>
     </g>
    </g>
    <g id="ytick_7">
     <g id="line2d_20">
      <path clip-path="url(#p276e6b163e)" d="M 25.018755 96.97545
L 234.780671 96.97545
" style="fill:none;stroke:#000000;stroke-linecap:square;stroke-opacity:0.1;stroke-width:0.5;"/>
     </g>
     <g id="line2d_21">
      <g>
       <use style="stroke:#000000;stroke-width:0.5;" x="25.018755" xlink:href="#maba4238535" y="96.97545"/>
      </g>
     </g>
     <g id="text_15">
      <!-- 60% -->
      <g transform="translate(12.721959 99.099578)scale(0.06246 -0.06246)">
       <defs>
        <path d="M 2991 1309
Q 2991 1044 2909 795
Q 2828 547 2659 358
Q 2491 169 2231 55
Q 1972 -59 1619 -59
Q 1366 -59 1172 3
Q 978 66 834 181
Q 691 297 595 465
Q 500 634 442 850
Q 384 1066 359 1322
Q 334 1578 334 1872
Q 334 2131 362 2397
Q 391 2663 462 2909
Q 534 3156 657 3373
Q 781 3591 967 3752
Q 1153 3913 1412 4006
Q 1672 4100 2016 4100
Q 2131 4100 2250 4086
Q 2369 4072 2469 4048
Q 2569 4025 2637 3997
Q 2706 3969 2728 3951
Q 2750 3934 2761 3914
Q 2772 3894 2778 3870
Q 2784 3847 2787 3817
Q 2791 3788 2791 3744
Q 2791 3688 2789 3647
Q 2788 3606 2777 3581
Q 2766 3556 2748 3543
Q 2731 3531 2703 3531
Q 2669 3531 2609 3553
Q 2550 3575 2465 3601
Q 2381 3628 2261 3650
Q 2141 3672 1981 3672
Q 1691 3672 1481 3553
Q 1272 3434 1139 3234
Q 1006 3034 942 2770
Q 878 2506 869 2219
Q 950 2266 1051 2312
Q 1153 2359 1273 2396
Q 1394 2434 1528 2457
Q 1663 2481 1816 2481
Q 2144 2481 2369 2392
Q 2594 2303 2733 2145
Q 2872 1988 2931 1773
Q 2991 1559 2991 1309
z
M 2447 1259
Q 2447 1441 2411 1589
Q 2375 1738 2290 1841
Q 2206 1944 2065 2000
Q 1925 2056 1719 2056
Q 1603 2056 1487 2036
Q 1372 2016 1264 1980
Q 1156 1944 1057 1895
Q 959 1847 878 1791
Q 878 1388 929 1116
Q 981 844 1079 680
Q 1178 516 1325 445
Q 1472 375 1669 375
Q 1869 375 2016 450
Q 2163 525 2259 651
Q 2356 778 2401 936
Q 2447 1094 2447 1259
z
" id="Calibri-36" transform="scale(0.015625)"/>
       </defs>
       <use xlink:href="#Calibri-36"/>
       <use x="50.683594" xlink:href="#Calibri-30"/>
       <use x="101.367188" xlink:href="#Calibri-25"/>
      </g>
     </g>
    </g>
    <g id="ytick_8">
     <g id="line2d_22">
      <path clip-path="url(#p276e6b163e)" d="M 25.018755 69.682986
L 234.780671 69.682986
" style="fill:none;stroke:#000000;stroke-linecap:square;stroke-opacity:0.1;stroke-width:0.5;"/>
     </g>
     <g id="line2d_23">
      <g>
       <use style="stroke:#000000;stroke-width:0.5;" x="25.018755" xlink:href="#maba4238535" y="69.682986"/>
      </g>
     </g>
     <g id="text_16">
      <!-- 70% -->
      <g transform="translate(12.721959 71.807114)scale(0.06246 -0.06246)">
       <defs>
        <path d="M 2947 3813
Q 2947 3756 2942 3711
Q 2938 3666 2930 3623
Q 2922 3581 2908 3542
Q 2894 3503 2875 3459
L 1419 103
Q 1403 66 1379 42
Q 1356 19 1320 5
Q 1284 -9 1228 -14
Q 1172 -19 1091 -19
Q 984 -19 925 -9
Q 866 0 839 20
Q 813 41 816 70
Q 819 100 838 141
L 2369 3572
L 428 3572
Q 369 3572 339 3634
Q 309 3697 309 3809
Q 309 3869 317 3912
Q 325 3956 340 3986
Q 356 4016 378 4030
Q 400 4044 428 4044
L 2784 4044
Q 2828 4044 2861 4034
Q 2894 4025 2911 3997
Q 2928 3969 2937 3925
Q 2947 3881 2947 3813
z
" id="Calibri-37" transform="scale(0.015625)"/>
       </defs>
       <use xlink:href="#Calibri-37"/>
       <use x="50.683594" xlink:href="#Calibri-30"/>
       <use x="101.367188" xlink:href="#Calibri-25"/>
      </g>
     </g>
    </g>
    <g id="ytick_9">
     <g id="line2d_24">
      <path clip-path="url(#p276e6b163e)" d="M 25.018755 42.390521
L 234.780671 42.390521
" style="fill:none;stroke:#000000;stroke-linecap:square;stroke-opacity:0.1;stroke-width:0.5;"/>
     </g>
     <g id="line2d_25">
      <g>
       <use style="stroke:#000000;stroke-width:0.5;" x="25.018755" xlink:href="#maba4238535" y="42.390521"/>
      </g>
     </g>
     <g id="text_17">
      <!-- 80% -->
      <g transform="translate(12.721959 44.514649)scale(0.06246 -0.06246)">
       <defs>
        <path d="M 2981 1038
Q 2981 775 2887 570
Q 2794 366 2617 225
Q 2441 84 2181 12
Q 1922 -59 1588 -59
Q 1275 -59 1028 6
Q 781 72 609 200
Q 438 328 347 515
Q 256 703 256 944
Q 256 1134 318 1293
Q 381 1453 498 1587
Q 616 1722 787 1839
Q 959 1956 1175 2063
Q 988 2159 844 2267
Q 700 2375 600 2501
Q 500 2628 448 2772
Q 397 2916 397 3084
Q 397 3297 473 3483
Q 550 3669 704 3806
Q 859 3944 1098 4023
Q 1338 4103 1656 4103
Q 1963 4103 2186 4029
Q 2409 3956 2554 3829
Q 2700 3703 2769 3531
Q 2838 3359 2838 3163
Q 2838 3003 2786 2856
Q 2734 2709 2634 2578
Q 2534 2447 2389 2333
Q 2244 2219 2056 2119
Q 2278 2009 2451 1893
Q 2625 1778 2742 1645
Q 2859 1513 2920 1364
Q 2981 1216 2981 1038
z
M 2306 3113
Q 2306 3244 2261 3350
Q 2216 3456 2128 3531
Q 2041 3606 1911 3645
Q 1781 3684 1616 3684
Q 1278 3684 1104 3531
Q 931 3378 931 3113
Q 931 2991 973 2886
Q 1016 2781 1105 2687
Q 1194 2594 1330 2505
Q 1466 2416 1653 2319
Q 1969 2481 2137 2678
Q 2306 2875 2306 3113
z
M 2438 981
Q 2438 1125 2384 1242
Q 2331 1359 2223 1461
Q 2116 1563 1955 1658
Q 1794 1753 1581 1856
Q 1384 1759 1236 1662
Q 1088 1566 992 1462
Q 897 1359 848 1245
Q 800 1131 800 994
Q 800 691 1008 525
Q 1216 359 1628 359
Q 2028 359 2233 526
Q 2438 694 2438 981
z
" id="Calibri-38" transform="scale(0.015625)"/>
       </defs>
       <use xlink:href="#Calibri-38"/>
       <use x="50.683594" xlink:href="#Calibri-30"/>
       <use x="101.367188" xlink:href="#Calibri-25"/>
      </g>
     </g>
    </g>
    <g id="text_18">
     <!-- ipsilateral involvement -->
     <g transform="translate(9.121646 181.333519)rotate(-90)scale(0.09 -0.09)">
      <defs>
       <path d="M 994 78
Q 994 53 981 36
Q 969 19 941 6
Q 913 -6 863 -12
Q 813 -19 734 -19
Q 659 -19 609 -12
Q 559 -6 529 6
Q 500 19 489 36
Q 478 53 478 78
L 478 2891
Q 478 2913 489 2931
Q 500 2950 529 2962
Q 559 2975 609 2981
Q 659 2988 734 2988
Q 813 2988 863 2981
Q 913 2975 941 2962
Q 969 2950 981 2931
Q 994 2913 994 2891
L 994 78
z
M 1053 3841
Q 1053 3659 984 3593
Q 916 3528 731 3528
Q 550 3528 483 3592
Q 416 3656 416 3834
Q 416 4016 484 4081
Q 553 4147 738 4147
Q 919 4147 986 4083
Q 1053 4019 1053 3841
z
" id="Calibri-69" transform="scale(0.015625)"/>
       <path d="M 3066 1528
Q 3066 1159 2986 865
Q 2906 572 2751 367
Q 2597 163 2369 52
Q 2141 -59 1847 -59
Q 1722 -59 1615 -34
Q 1509 -9 1407 44
Q 1306 97 1206 178
Q 1106 259 994 369
L 994 -1038
Q 994 -1063 981 -1081
Q 969 -1100 941 -1112
Q 913 -1125 863 -1131
Q 813 -1138 734 -1138
Q 659 -1138 609 -1131
Q 559 -1125 529 -1112
Q 500 -1100 489 -1081
Q 478 -1063 478 -1038
L 478 2891
Q 478 2919 487 2936
Q 497 2953 525 2965
Q 553 2978 597 2983
Q 641 2988 703 2988
Q 769 2988 811 2983
Q 853 2978 881 2965
Q 909 2953 920 2936
Q 931 2919 931 2891
L 931 2513
Q 1059 2644 1178 2741
Q 1297 2838 1417 2902
Q 1538 2966 1664 2998
Q 1791 3031 1931 3031
Q 2238 3031 2453 2912
Q 2669 2794 2805 2587
Q 2941 2381 3003 2107
Q 3066 1834 3066 1528
z
M 2522 1469
Q 2522 1684 2489 1886
Q 2456 2088 2376 2244
Q 2297 2400 2162 2494
Q 2028 2588 1828 2588
Q 1728 2588 1631 2558
Q 1534 2528 1434 2464
Q 1334 2400 1225 2295
Q 1116 2191 994 2038
L 994 919
Q 1206 659 1397 521
Q 1588 384 1797 384
Q 1991 384 2130 478
Q 2269 572 2355 728
Q 2441 884 2481 1078
Q 2522 1272 2522 1469
z
" id="Calibri-70" transform="scale(0.015625)"/>
       <path d="M 994 78
Q 994 53 981 36
Q 969 19 941 6
Q 913 -6 863 -12
Q 813 -19 734 -19
Q 659 -19 609 -12
Q 559 -6 529 6
Q 500 19 489 36
Q 478 53 478 78
L 478 4253
Q 478 4278 489 4297
Q 500 4316 529 4328
Q 559 4341 609 4347
Q 659 4353 734 4353
Q 813 4353 863 4347
Q 913 4341 941 4328
Q 969 4316 981 4297
Q 994 4278 994 4253
L 994 78
z
" id="Calibri-6c" transform="scale(0.015625)"/>
       <path d="M 1941 284
Q 1941 194 1928 141
Q 1916 88 1891 63
Q 1866 38 1816 16
Q 1766 -6 1702 -20
Q 1638 -34 1566 -43
Q 1494 -53 1422 -53
Q 1203 -53 1047 5
Q 891 63 791 180
Q 691 297 645 476
Q 600 656 600 900
L 600 2544
L 206 2544
Q 159 2544 131 2594
Q 103 2644 103 2756
Q 103 2816 111 2856
Q 119 2897 131 2923
Q 144 2950 164 2961
Q 184 2972 209 2972
L 600 2972
L 600 3641
Q 600 3663 611 3681
Q 622 3700 651 3714
Q 681 3728 731 3734
Q 781 3741 856 3741
Q 934 3741 984 3734
Q 1034 3728 1062 3714
Q 1091 3700 1103 3681
Q 1116 3663 1116 3641
L 1116 2972
L 1838 2972
Q 1863 2972 1881 2961
Q 1900 2950 1914 2923
Q 1928 2897 1934 2856
Q 1941 2816 1941 2756
Q 1941 2644 1912 2594
Q 1884 2544 1838 2544
L 1116 2544
L 1116 975
Q 1116 684 1202 536
Q 1288 388 1509 388
Q 1581 388 1637 402
Q 1694 416 1737 431
Q 1781 447 1812 461
Q 1844 475 1869 475
Q 1884 475 1898 467
Q 1913 459 1920 437
Q 1928 416 1934 378
Q 1941 341 1941 284
z
" id="Calibri-74" transform="scale(0.015625)"/>
       <path d="M 2878 1606
Q 2878 1484 2817 1432
Q 2756 1381 2678 1381
L 834 1381
Q 834 1147 881 959
Q 928 772 1037 637
Q 1147 503 1322 431
Q 1497 359 1750 359
Q 1950 359 2106 392
Q 2263 425 2377 465
Q 2491 506 2564 539
Q 2638 572 2675 572
Q 2697 572 2714 561
Q 2731 550 2740 528
Q 2750 506 2754 467
Q 2759 428 2759 372
Q 2759 331 2756 301
Q 2753 272 2748 248
Q 2744 225 2733 206
Q 2722 188 2705 170
Q 2688 153 2603 114
Q 2519 75 2384 37
Q 2250 0 2073 -29
Q 1897 -59 1697 -59
Q 1350 -59 1089 37
Q 828 134 650 325
Q 472 516 381 803
Q 291 1091 291 1472
Q 291 1834 384 2123
Q 478 2413 654 2614
Q 831 2816 1081 2923
Q 1331 3031 1641 3031
Q 1972 3031 2205 2925
Q 2438 2819 2588 2639
Q 2738 2459 2808 2217
Q 2878 1975 2878 1700
L 2878 1606
z
M 2359 1759
Q 2369 2166 2180 2397
Q 1991 2628 1619 2628
Q 1428 2628 1284 2556
Q 1141 2484 1044 2365
Q 947 2247 894 2089
Q 841 1931 834 1759
L 2359 1759
z
" id="Calibri-65" transform="scale(0.015625)"/>
       <path d="M 2122 2706
Q 2122 2638 2119 2591
Q 2116 2544 2106 2517
Q 2097 2491 2083 2477
Q 2069 2463 2044 2463
Q 2019 2463 1983 2477
Q 1947 2491 1901 2505
Q 1856 2519 1800 2531
Q 1744 2544 1678 2544
Q 1600 2544 1525 2512
Q 1450 2481 1367 2409
Q 1284 2338 1193 2219
Q 1103 2100 994 1928
L 994 78
Q 994 53 981 36
Q 969 19 941 6
Q 913 -6 863 -12
Q 813 -19 734 -19
Q 659 -19 609 -12
Q 559 -6 529 6
Q 500 19 489 36
Q 478 53 478 78
L 478 2891
Q 478 2916 487 2933
Q 497 2950 525 2964
Q 553 2978 597 2983
Q 641 2988 713 2988
Q 781 2988 826 2983
Q 872 2978 897 2964
Q 922 2950 933 2933
Q 944 2916 944 2891
L 944 2481
Q 1059 2650 1161 2756
Q 1263 2863 1353 2923
Q 1444 2984 1533 3007
Q 1622 3031 1713 3031
Q 1753 3031 1804 3026
Q 1856 3022 1912 3009
Q 1969 2997 2014 2981
Q 2059 2966 2078 2950
Q 2097 2934 2103 2920
Q 2109 2906 2114 2884
Q 2119 2863 2120 2820
Q 2122 2778 2122 2706
z
" id="Calibri-72" transform="scale(0.015625)"/>
       <path id="Calibri-20" transform="scale(0.015625)"/>
       <path d="M 2900 78
Q 2900 53 2887 36
Q 2875 19 2847 6
Q 2819 -6 2769 -12
Q 2719 -19 2644 -19
Q 2566 -19 2516 -12
Q 2466 -6 2437 6
Q 2409 19 2396 36
Q 2384 53 2384 78
L 2384 1725
Q 2384 1966 2346 2112
Q 2309 2259 2237 2365
Q 2166 2472 2052 2528
Q 1938 2584 1788 2584
Q 1594 2584 1400 2446
Q 1206 2309 994 2044
L 994 78
Q 994 53 981 36
Q 969 19 941 6
Q 913 -6 863 -12
Q 813 -19 734 -19
Q 659 -19 609 -12
Q 559 -6 529 6
Q 500 19 489 36
Q 478 53 478 78
L 478 2891
Q 478 2916 487 2933
Q 497 2950 525 2964
Q 553 2978 597 2983
Q 641 2988 713 2988
Q 781 2988 826 2983
Q 872 2978 897 2964
Q 922 2950 933 2933
Q 944 2916 944 2891
L 944 2519
Q 1181 2784 1417 2907
Q 1653 3031 1894 3031
Q 2175 3031 2367 2936
Q 2559 2841 2678 2681
Q 2797 2522 2848 2308
Q 2900 2094 2900 1794
L 2900 78
z
" id="Calibri-6e" transform="scale(0.015625)"/>
       <path d="M 2784 2897
Q 2784 2884 2782 2870
Q 2781 2856 2778 2840
Q 2775 2825 2770 2806
Q 2766 2788 2759 2766
L 1800 94
Q 1788 59 1767 37
Q 1747 16 1706 3
Q 1666 -9 1603 -14
Q 1541 -19 1447 -19
Q 1353 -19 1290 -12
Q 1228 -6 1189 6
Q 1150 19 1128 41
Q 1106 63 1094 94
L 138 2766
Q 125 2803 117 2831
Q 109 2859 107 2873
Q 106 2888 106 2897
Q 106 2922 118 2940
Q 131 2959 161 2970
Q 191 2981 239 2984
Q 288 2988 359 2988
Q 450 2988 504 2983
Q 559 2978 589 2965
Q 619 2953 633 2934
Q 647 2916 659 2888
L 1453 569
L 1466 531
L 1475 569
L 2259 2888
Q 2266 2916 2281 2934
Q 2297 2953 2326 2965
Q 2356 2978 2407 2983
Q 2459 2988 2544 2988
Q 2616 2988 2662 2984
Q 2709 2981 2736 2968
Q 2763 2956 2773 2939
Q 2784 2922 2784 2897
z
" id="Calibri-76" transform="scale(0.015625)"/>
       <path d="M 3094 1516
Q 3094 1172 3003 883
Q 2913 594 2733 384
Q 2553 175 2283 58
Q 2013 -59 1656 -59
Q 1309 -59 1051 44
Q 794 147 622 344
Q 450 541 365 822
Q 281 1103 281 1459
Q 281 1803 370 2092
Q 459 2381 639 2590
Q 819 2800 1087 2915
Q 1356 3031 1716 3031
Q 2063 3031 2320 2928
Q 2578 2825 2750 2628
Q 2922 2431 3008 2150
Q 3094 1869 3094 1516
z
M 2550 1481
Q 2550 1709 2508 1912
Q 2466 2116 2369 2269
Q 2272 2422 2106 2511
Q 1941 2600 1694 2600
Q 1466 2600 1302 2519
Q 1138 2438 1031 2289
Q 925 2141 873 1937
Q 822 1734 822 1494
Q 822 1263 864 1059
Q 906 856 1004 704
Q 1103 553 1268 464
Q 1434 375 1681 375
Q 1906 375 2072 456
Q 2238 538 2344 684
Q 2450 831 2500 1034
Q 2550 1238 2550 1481
z
" id="Calibri-6f" transform="scale(0.015625)"/>
       <path d="M 4650 78
Q 4650 53 4637 36
Q 4625 19 4597 6
Q 4569 -6 4519 -12
Q 4469 -19 4394 -19
Q 4316 -19 4266 -12
Q 4216 -6 4186 6
Q 4156 19 4143 36
Q 4131 53 4131 78
L 4131 1788
Q 4131 1966 4100 2112
Q 4069 2259 4000 2365
Q 3931 2472 3825 2528
Q 3719 2584 3575 2584
Q 3397 2584 3217 2446
Q 3038 2309 2822 2044
L 2822 78
Q 2822 53 2809 36
Q 2797 19 2767 6
Q 2738 -6 2688 -12
Q 2638 -19 2563 -19
Q 2491 -19 2439 -12
Q 2388 -6 2358 6
Q 2328 19 2317 36
Q 2306 53 2306 78
L 2306 1788
Q 2306 1966 2272 2112
Q 2238 2259 2169 2365
Q 2100 2472 1995 2528
Q 1891 2584 1747 2584
Q 1569 2584 1387 2446
Q 1206 2309 994 2044
L 994 78
Q 994 53 981 36
Q 969 19 941 6
Q 913 -6 863 -12
Q 813 -19 734 -19
Q 659 -19 609 -12
Q 559 -6 529 6
Q 500 19 489 36
Q 478 53 478 78
L 478 2891
Q 478 2916 487 2933
Q 497 2950 525 2964
Q 553 2978 597 2983
Q 641 2988 713 2988
Q 781 2988 826 2983
Q 872 2978 897 2964
Q 922 2950 933 2933
Q 944 2916 944 2891
L 944 2519
Q 1181 2784 1404 2907
Q 1628 3031 1856 3031
Q 2031 3031 2170 2990
Q 2309 2950 2415 2876
Q 2522 2803 2597 2701
Q 2672 2600 2722 2475
Q 2863 2628 2989 2734
Q 3116 2841 3233 2906
Q 3350 2972 3461 3001
Q 3572 3031 3684 3031
Q 3956 3031 4140 2936
Q 4325 2841 4439 2681
Q 4553 2522 4601 2308
Q 4650 2094 4650 1856
L 4650 78
z
" id="Calibri-6d" transform="scale(0.015625)"/>
      </defs>
      <use xlink:href="#Calibri-69"/>
      <use x="22.949219" xlink:href="#Calibri-70"/>
      <use x="75.488281" xlink:href="#Calibri-73"/>
      <use x="114.599609" xlink:href="#Calibri-69"/>
      <use x="137.548828" xlink:href="#Calibri-6c"/>
      <use x="160.498047" xlink:href="#Calibri-61"/>
      <use x="208.398438" xlink:href="#Calibri-74"/>
      <use x="241.894531" xlink:href="#Calibri-65"/>
      <use x="291.650391" xlink:href="#Calibri-72"/>
      <use x="326.513672" xlink:href="#Calibri-61"/>
      <use x="374.414062" xlink:href="#Calibri-6c"/>
      <use x="397.363281" xlink:href="#Calibri-20"/>
      <use x="419.970703" xlink:href="#Calibri-69"/>
      <use x="442.919922" xlink:href="#Calibri-6e"/>
      <use x="495.458984" xlink:href="#Calibri-76"/>
      <use x="540.625" xlink:href="#Calibri-6f"/>
      <use x="593.359375" xlink:href="#Calibri-6c"/>
      <use x="616.308594" xlink:href="#Calibri-76"/>
      <use x="661.474609" xlink:href="#Calibri-65"/>
      <use x="711.230469" xlink:href="#Calibri-6d"/>
      <use x="791.113281" xlink:href="#Calibri-65"/>
      <use x="840.869141" xlink:href="#Calibri-6e"/>
      <use x="893.408203" xlink:href="#Calibri-74"/>
     </g>
    </g>
   </g>
   <g id="patch_17">
    <path d="M 25.018755 260.730236
L 25.018755 18.509615
" style="fill:none;stroke:#000000;stroke-linecap:square;stroke-linejoin:miter;stroke-width:0.5;"/>
   </g>
   <g id="patch_18">
    <path d="M 234.780671 260.730236
L 234.780671 18.509615
" style="fill:none;stroke:#000000;stroke-linecap:square;stroke-linejoin:miter;stroke-width:0.5;"/>
   </g>
   <g id="patch_19">
    <path d="M 25.018755 260.730236
L 234.780671 260.730236
" style="fill:none;stroke:#000000;stroke-linecap:square;stroke-linejoin:miter;stroke-width:0.5;"/>
   </g>
   <g id="patch_20">
    <path d="M 25.018755 18.509615
L 234.780671 18.509615
" style="fill:none;stroke:#000000;stroke-linecap:square;stroke-linejoin:miter;stroke-width:0.5;"/>
   </g>
   <g id="text_19">
    <!-- early (T1 &amp; T2) -->
    <g transform="translate(97.058432 10.509615)scale(0.108 -0.108)">
     <defs>
      <path d="M 2969 1581
Q 2969 1438 2905 1369
Q 2841 1300 2728 1300
L 1031 1300
Q 1031 1122 1073 976
Q 1116 831 1208 729
Q 1300 628 1445 575
Q 1591 522 1794 522
Q 2000 522 2156 551
Q 2313 581 2427 617
Q 2541 653 2616 683
Q 2691 713 2738 713
Q 2766 713 2784 702
Q 2803 691 2815 662
Q 2828 634 2833 582
Q 2838 531 2838 453
Q 2838 384 2834 336
Q 2831 288 2825 253
Q 2819 219 2806 195
Q 2794 172 2773 150
Q 2753 128 2662 90
Q 2572 53 2431 17
Q 2291 -19 2109 -45
Q 1928 -72 1722 -72
Q 1350 -72 1070 22
Q 791 116 603 306
Q 416 497 323 787
Q 231 1078 231 1469
Q 231 1841 328 2139
Q 425 2438 609 2645
Q 794 2853 1058 2962
Q 1322 3072 1653 3072
Q 2003 3072 2251 2969
Q 2500 2866 2659 2683
Q 2819 2500 2894 2250
Q 2969 2000 2969 1706
L 2969 1581
z
M 2206 1806
Q 2216 2138 2073 2327
Q 1931 2516 1634 2516
Q 1484 2516 1373 2459
Q 1263 2403 1189 2308
Q 1116 2213 1077 2083
Q 1038 1953 1031 1806
L 2206 1806
z
" id="Calibri-Bold-65" transform="scale(0.015625)"/>
      <path d="M 2769 97
Q 2769 53 2737 28
Q 2706 3 2639 -8
Q 2572 -19 2441 -19
Q 2300 -19 2236 -8
Q 2172 3 2145 28
Q 2119 53 2119 97
L 2119 319
Q 1947 134 1726 31
Q 1506 -72 1238 -72
Q 1016 -72 830 -14
Q 644 44 508 158
Q 372 272 297 440
Q 222 609 222 834
Q 222 1078 317 1258
Q 413 1438 602 1555
Q 791 1672 1072 1728
Q 1353 1784 1725 1784
L 1997 1784
L 1997 1953
Q 1997 2084 1970 2182
Q 1944 2281 1883 2347
Q 1822 2413 1720 2444
Q 1619 2475 1469 2475
Q 1272 2475 1117 2431
Q 963 2388 844 2334
Q 725 2281 645 2237
Q 566 2194 516 2194
Q 481 2194 454 2216
Q 428 2238 411 2278
Q 394 2319 384 2378
Q 375 2438 375 2509
Q 375 2606 390 2662
Q 406 2719 450 2764
Q 494 2809 603 2864
Q 713 2919 859 2966
Q 1006 3013 1179 3042
Q 1353 3072 1538 3072
Q 1866 3072 2098 3008
Q 2331 2944 2481 2811
Q 2631 2678 2700 2468
Q 2769 2259 2769 1972
L 2769 97
z
M 1997 1291
L 1697 1291
Q 1506 1291 1372 1262
Q 1238 1234 1153 1178
Q 1069 1122 1030 1042
Q 991 963 991 859
Q 991 684 1102 584
Q 1213 484 1409 484
Q 1575 484 1714 568
Q 1853 653 1997 816
L 1997 1291
z
" id="Calibri-Bold-61" transform="scale(0.015625)"/>
      <path d="M 2184 2634
Q 2184 2522 2178 2450
Q 2172 2378 2159 2337
Q 2147 2297 2126 2281
Q 2106 2266 2075 2266
Q 2050 2266 2019 2277
Q 1988 2288 1948 2300
Q 1909 2313 1862 2323
Q 1816 2334 1759 2334
Q 1694 2334 1628 2307
Q 1563 2281 1492 2225
Q 1422 2169 1345 2075
Q 1269 1981 1181 1844
L 1181 106
Q 1181 75 1162 51
Q 1144 28 1098 12
Q 1053 -3 978 -11
Q 903 -19 788 -19
Q 672 -19 597 -11
Q 522 -3 476 12
Q 431 28 412 51
Q 394 75 394 106
L 394 2894
Q 394 2925 409 2948
Q 425 2972 465 2987
Q 506 3003 570 3011
Q 634 3019 731 3019
Q 831 3019 897 3011
Q 963 3003 998 2987
Q 1034 2972 1050 2948
Q 1066 2925 1066 2894
L 1066 2547
Q 1175 2703 1272 2804
Q 1369 2906 1456 2965
Q 1544 3025 1631 3048
Q 1719 3072 1806 3072
Q 1847 3072 1894 3067
Q 1941 3063 1991 3052
Q 2041 3041 2078 3027
Q 2116 3013 2133 2997
Q 2150 2981 2158 2962
Q 2166 2944 2172 2911
Q 2178 2878 2181 2812
Q 2184 2747 2184 2634
z
" id="Calibri-Bold-72" transform="scale(0.015625)"/>
      <path d="M 1181 106
Q 1181 75 1162 51
Q 1144 28 1098 12
Q 1053 -3 978 -11
Q 903 -19 788 -19
Q 672 -19 597 -11
Q 522 -3 476 12
Q 431 28 412 51
Q 394 75 394 106
L 394 4216
Q 394 4247 412 4272
Q 431 4297 476 4314
Q 522 4331 597 4340
Q 672 4350 788 4350
Q 903 4350 978 4340
Q 1053 4331 1098 4314
Q 1144 4297 1162 4272
Q 1181 4247 1181 4216
L 1181 106
z
" id="Calibri-Bold-6c" transform="scale(0.015625)"/>
      <path d="M 2009 0
L 1672 -988
Q 1644 -1066 1519 -1100
Q 1394 -1134 1153 -1134
Q 1028 -1134 953 -1123
Q 878 -1113 840 -1088
Q 803 -1063 800 -1025
Q 797 -988 819 -934
L 1191 0
Q 1150 19 1117 58
Q 1084 97 1069 141
L 109 2703
Q 69 2813 69 2870
Q 69 2928 106 2961
Q 144 2994 233 3006
Q 322 3019 469 3019
Q 603 3019 681 3014
Q 759 3009 803 2990
Q 847 2972 869 2933
Q 891 2894 913 2822
L 1569 956
L 1578 956
L 2178 2859
Q 2197 2941 2226 2967
Q 2256 2994 2325 3006
Q 2394 3019 2566 3019
Q 2700 3019 2789 3006
Q 2878 2994 2920 2959
Q 2963 2925 2963 2867
Q 2963 2809 2938 2731
L 2009 0
z
" id="Calibri-Bold-79" transform="scale(0.015625)"/>
      <path id="Calibri-Bold-20" transform="scale(0.015625)"/>
      <path d="M 1672 4275
Q 1409 3666 1275 3017
Q 1141 2369 1141 1688
Q 1141 1003 1277 357
Q 1413 -288 1669 -906
Q 1688 -956 1688 -992
Q 1688 -1028 1653 -1053
Q 1619 -1078 1548 -1090
Q 1478 -1103 1353 -1103
Q 1266 -1103 1203 -1097
Q 1141 -1091 1098 -1080
Q 1056 -1069 1032 -1051
Q 1009 -1034 1000 -1013
Q 831 -688 706 -358
Q 581 -28 498 308
Q 416 644 375 986
Q 334 1328 334 1681
Q 334 2031 376 2373
Q 419 2716 503 3052
Q 588 3388 711 3719
Q 834 4050 1000 4378
Q 1006 4394 1025 4406
Q 1044 4419 1081 4430
Q 1119 4441 1183 4445
Q 1247 4450 1347 4450
Q 1459 4450 1531 4439
Q 1603 4428 1640 4406
Q 1678 4384 1683 4350
Q 1688 4316 1672 4275
z
" id="Calibri-Bold-28" transform="scale(0.015625)"/>
      <path d="M 3131 3706
Q 3131 3616 3123 3552
Q 3116 3488 3100 3448
Q 3084 3409 3061 3390
Q 3038 3372 3009 3372
L 1997 3372
L 1997 113
Q 1997 81 1976 56
Q 1956 31 1909 15
Q 1863 0 1783 -9
Q 1703 -19 1584 -19
Q 1466 -19 1386 -9
Q 1306 0 1259 15
Q 1213 31 1192 56
Q 1172 81 1172 113
L 1172 3372
L 159 3372
Q 128 3372 106 3390
Q 84 3409 68 3448
Q 53 3488 45 3552
Q 38 3616 38 3706
Q 38 3800 45 3865
Q 53 3931 68 3970
Q 84 4009 106 4026
Q 128 4044 159 4044
L 3009 4044
Q 3038 4044 3061 4026
Q 3084 4009 3100 3970
Q 3116 3931 3123 3865
Q 3131 3800 3131 3706
z
" id="Calibri-Bold-54" transform="scale(0.015625)"/>
      <path d="M 2950 313
Q 2950 225 2940 164
Q 2931 103 2914 67
Q 2897 31 2875 15
Q 2853 0 2825 0
L 594 0
Q 569 0 547 15
Q 525 31 508 67
Q 491 103 481 164
Q 472 225 472 313
Q 472 403 480 464
Q 488 525 505 562
Q 522 600 544 617
Q 566 634 594 634
L 1347 634
L 1347 3266
L 697 2906
Q 625 2872 579 2864
Q 534 2856 507 2882
Q 481 2909 472 2975
Q 463 3041 463 3159
Q 463 3234 466 3282
Q 469 3331 481 3365
Q 494 3400 516 3422
Q 538 3444 575 3469
L 1444 4031
Q 1459 4044 1482 4051
Q 1506 4059 1543 4064
Q 1581 4069 1642 4070
Q 1703 4072 1800 4072
Q 1919 4072 1992 4067
Q 2066 4063 2103 4052
Q 2141 4041 2153 4022
Q 2166 4003 2166 3975
L 2166 634
L 2825 634
Q 2853 634 2876 617
Q 2900 600 2917 562
Q 2934 525 2942 464
Q 2950 403 2950 313
z
" id="Calibri-Bold-31" transform="scale(0.015625)"/>
      <path d="M 256 1128
Q 256 1303 307 1458
Q 359 1613 462 1750
Q 566 1888 717 2013
Q 869 2138 1069 2256
Q 956 2400 873 2526
Q 791 2653 736 2768
Q 681 2884 654 2989
Q 628 3094 628 3197
Q 628 3416 706 3608
Q 784 3800 950 3940
Q 1116 4081 1372 4164
Q 1628 4247 1988 4247
Q 2316 4247 2553 4184
Q 2791 4122 2944 4008
Q 3097 3894 3172 3726
Q 3247 3559 3247 3350
Q 3247 3163 3183 3003
Q 3119 2844 2989 2700
Q 2859 2556 2665 2423
Q 2472 2291 2213 2156
Q 2297 2059 2401 1951
Q 2506 1844 2617 1736
Q 2728 1628 2840 1522
Q 2953 1416 3059 1325
Q 3100 1388 3133 1469
Q 3166 1550 3189 1640
Q 3213 1731 3227 1825
Q 3241 1919 3241 2009
L 3241 2106
Q 3241 2141 3253 2166
Q 3266 2191 3305 2206
Q 3344 2222 3417 2230
Q 3491 2238 3606 2238
Q 3716 2238 3787 2233
Q 3859 2228 3901 2212
Q 3944 2197 3961 2170
Q 3978 2144 3978 2103
L 3978 2003
Q 3978 1853 3956 1700
Q 3934 1547 3892 1401
Q 3850 1256 3787 1123
Q 3725 991 3650 875
Q 3759 791 3839 734
Q 3919 678 3975 645
Q 4031 613 4068 600
Q 4106 588 4131 588
Q 4166 588 4195 588
Q 4225 588 4244 566
Q 4263 544 4272 487
Q 4281 431 4281 322
Q 4281 206 4276 140
Q 4272 75 4261 44
Q 4250 13 4223 -7
Q 4197 -28 4134 -45
Q 4072 -63 3984 -63
Q 3916 -63 3842 -45
Q 3769 -28 3672 20
Q 3575 69 3447 148
Q 3319 228 3150 353
Q 3003 253 2847 173
Q 2691 94 2520 40
Q 2350 -13 2169 -41
Q 1988 -69 1781 -69
Q 1578 -69 1384 -37
Q 1191 -6 1020 58
Q 850 122 709 219
Q 569 316 469 448
Q 369 581 312 751
Q 256 922 256 1128
z
M 1456 3238
Q 1456 3172 1478 3101
Q 1500 3031 1539 2954
Q 1578 2878 1637 2792
Q 1697 2706 1772 2606
Q 1956 2706 2079 2790
Q 2203 2875 2278 2954
Q 2353 3034 2384 3114
Q 2416 3194 2416 3278
Q 2416 3353 2387 3418
Q 2359 3484 2300 3532
Q 2241 3581 2153 3609
Q 2066 3638 1947 3638
Q 1816 3638 1723 3608
Q 1631 3578 1572 3523
Q 1513 3469 1484 3395
Q 1456 3322 1456 3238
z
M 1106 1172
Q 1106 1038 1156 925
Q 1206 813 1300 731
Q 1394 650 1533 604
Q 1672 559 1853 559
Q 1947 559 2039 576
Q 2131 594 2220 623
Q 2309 653 2389 695
Q 2469 738 2538 788
Q 2397 900 2255 1026
Q 2113 1153 1978 1281
Q 1844 1409 1720 1536
Q 1597 1663 1500 1775
Q 1391 1706 1317 1632
Q 1244 1559 1197 1484
Q 1150 1409 1128 1331
Q 1106 1253 1106 1172
z
M 0 4044
L 0 4044
z
" id="Calibri-Bold-26" transform="scale(0.015625)"/>
      <path d="M 2988 334
Q 2988 244 2980 180
Q 2972 116 2956 75
Q 2941 34 2916 17
Q 2891 0 2859 0
L 534 0
Q 466 0 416 12
Q 366 25 334 61
Q 303 97 289 165
Q 275 234 275 344
Q 275 447 284 520
Q 294 594 319 651
Q 344 709 383 764
Q 422 819 484 884
L 1184 1634
Q 1394 1853 1522 2033
Q 1650 2213 1722 2361
Q 1794 2509 1820 2634
Q 1847 2759 1847 2872
Q 1847 2975 1814 3067
Q 1781 3159 1717 3228
Q 1653 3297 1556 3336
Q 1459 3375 1328 3375
Q 1144 3375 1001 3328
Q 859 3281 751 3223
Q 644 3166 572 3117
Q 500 3069 459 3069
Q 431 3069 411 3087
Q 391 3106 378 3150
Q 366 3194 358 3267
Q 350 3341 350 3447
Q 350 3519 354 3567
Q 359 3616 368 3652
Q 378 3688 393 3714
Q 409 3741 448 3778
Q 488 3816 592 3873
Q 697 3931 850 3986
Q 1003 4041 1187 4078
Q 1372 4116 1572 4116
Q 1888 4116 2123 4036
Q 2359 3956 2515 3814
Q 2672 3672 2748 3476
Q 2825 3281 2825 3056
Q 2825 2859 2787 2668
Q 2750 2478 2631 2258
Q 2513 2038 2297 1770
Q 2081 1503 1725 1150
L 1253 666
L 2847 666
Q 2878 666 2904 647
Q 2931 628 2950 589
Q 2969 550 2978 486
Q 2988 422 2988 334
z
" id="Calibri-Bold-32" transform="scale(0.015625)"/>
      <path d="M 1656 1681
Q 1656 1328 1615 986
Q 1575 644 1492 308
Q 1409 -28 1286 -358
Q 1163 -688 994 -1013
Q 984 -1034 961 -1051
Q 938 -1069 895 -1080
Q 853 -1091 790 -1097
Q 728 -1103 641 -1103
Q 513 -1103 442 -1090
Q 372 -1078 337 -1053
Q 303 -1028 303 -992
Q 303 -956 322 -906
Q 581 -294 717 354
Q 853 1003 853 1688
Q 853 2369 718 3017
Q 584 3666 319 4275
Q 303 4316 308 4350
Q 313 4384 352 4406
Q 391 4428 461 4439
Q 531 4450 647 4450
Q 744 4450 806 4445
Q 869 4441 909 4430
Q 950 4419 967 4406
Q 984 4394 994 4378
Q 1319 3722 1487 3051
Q 1656 2381 1656 1681
z
" id="Calibri-Bold-29" transform="scale(0.015625)"/>
     </defs>
     <use xlink:href="#Calibri-Bold-65"/>
     <use x="50.341797" xlink:href="#Calibri-Bold-61"/>
     <use x="99.707031" xlink:href="#Calibri-Bold-72"/>
     <use x="135.253906" xlink:href="#Calibri-Bold-6c"/>
     <use x="159.814453" xlink:href="#Calibri-Bold-79"/>
     <use x="207.177734" xlink:href="#Calibri-Bold-20"/>
     <use x="229.785156" xlink:href="#Calibri-Bold-28"/>
     <use x="260.9375" xlink:href="#Calibri-Bold-54"/>
     <use x="310.449219" xlink:href="#Calibri-Bold-31"/>
     <use x="361.132812" xlink:href="#Calibri-Bold-20"/>
     <use x="383.740234" xlink:href="#Calibri-Bold-26"/>
     <use x="454.199219" xlink:href="#Calibri-Bold-20"/>
     <use x="476.806641" xlink:href="#Calibri-Bold-54"/>
     <use x="526.318359" xlink:href="#Calibri-Bold-32"/>
     <use x="577.001953" xlink:href="#Calibri-Bold-29"/>
    </g>
   </g>
   <g id="legend_1">
    <g id="patch_21">
     <path d="M 184.447671 35.721249
L 230.408471 35.721249
Q 231.657671 35.721249 231.657671 34.472049
L 231.657671 22.881815
Q 231.657671 21.632615 230.408471 21.632615
L 184.447671 21.632615
Q 183.198471 21.632615 183.198471 22.881815
L 183.198471 34.472049
Q 183.198471 35.721249 184.447671 35.721249
z
" style="fill:#ffffff;opacity:0.8;stroke:#cccccc;stroke-linejoin:miter;"/>
    </g>
    <g id="patch_22">
     <path d="M 184.447671 27.254015
L 196.939671 27.254015
L 196.939671 22.881815
L 184.447671 22.881815
z
" style="fill:#ae0060;"/>
    </g>
    <g id="text_20">
     <!-- HPV+ (107) -->
     <g transform="translate(201.936471 27.254015)scale(0.06246 -0.06246)">
      <defs>
       <path d="M 3450 81
Q 3450 56 3437 37
Q 3425 19 3394 8
Q 3363 -3 3311 -11
Q 3259 -19 3184 -19
Q 3103 -19 3053 -11
Q 3003 -3 2972 8
Q 2941 19 2928 37
Q 2916 56 2916 81
L 2916 1875
L 1075 1875
L 1075 81
Q 1075 56 1062 37
Q 1050 19 1019 8
Q 988 -3 936 -11
Q 884 -19 806 -19
Q 731 -19 678 -11
Q 625 -3 594 8
Q 563 19 550 37
Q 538 56 538 81
L 538 3963
Q 538 3988 550 4006
Q 563 4025 594 4036
Q 625 4047 678 4055
Q 731 4063 806 4063
Q 884 4063 936 4055
Q 988 4047 1019 4036
Q 1050 4025 1062 4006
Q 1075 3988 1075 3963
L 1075 2344
L 2916 2344
L 2916 3963
Q 2916 3988 2928 4006
Q 2941 4025 2972 4036
Q 3003 4047 3053 4055
Q 3103 4063 3184 4063
Q 3259 4063 3311 4055
Q 3363 4047 3394 4036
Q 3425 4025 3437 4006
Q 3450 3988 3450 3963
L 3450 81
z
" id="Calibri-48" transform="scale(0.015625)"/>
       <path d="M 3022 2859
Q 3022 2556 2922 2312
Q 2822 2069 2636 1897
Q 2450 1725 2179 1631
Q 1909 1538 1534 1538
L 1075 1538
L 1075 81
Q 1075 56 1061 37
Q 1047 19 1017 8
Q 988 -3 936 -11
Q 884 -19 806 -19
Q 728 -19 676 -11
Q 625 -3 594 8
Q 563 19 550 37
Q 538 56 538 81
L 538 3813
Q 538 3938 603 3991
Q 669 4044 750 4044
L 1616 4044
Q 1747 4044 1867 4033
Q 1988 4022 2152 3986
Q 2316 3950 2486 3851
Q 2656 3753 2775 3609
Q 2894 3466 2958 3277
Q 3022 3088 3022 2859
z
M 2456 2816
Q 2456 3063 2364 3228
Q 2272 3394 2136 3475
Q 2000 3556 1854 3578
Q 1709 3600 1572 3600
L 1075 3600
L 1075 1978
L 1559 1978
Q 1803 1978 1964 2040
Q 2125 2103 2234 2214
Q 2344 2325 2400 2479
Q 2456 2634 2456 2816
z
" id="Calibri-50" transform="scale(0.015625)"/>
       <path d="M 2969 1800
Q 2969 1741 2959 1698
Q 2950 1656 2934 1628
Q 2919 1600 2897 1587
Q 2875 1575 2850 1575
L 1825 1575
L 1825 438
Q 1825 413 1812 395
Q 1800 378 1773 365
Q 1747 353 1703 345
Q 1659 338 1594 338
Q 1531 338 1486 345
Q 1441 353 1414 365
Q 1388 378 1375 395
Q 1363 413 1363 438
L 1363 1575
L 338 1575
Q 309 1575 289 1587
Q 269 1600 253 1628
Q 238 1656 228 1698
Q 219 1741 219 1800
Q 219 1856 228 1898
Q 238 1941 253 1969
Q 269 1997 289 2009
Q 309 2022 334 2022
L 1363 2022
L 1363 3159
Q 1363 3184 1375 3204
Q 1388 3225 1414 3239
Q 1441 3253 1486 3261
Q 1531 3269 1594 3269
Q 1659 3269 1703 3261
Q 1747 3253 1773 3239
Q 1800 3225 1812 3204
Q 1825 3184 1825 3159
L 1825 2022
L 2853 2022
Q 2878 2022 2898 2009
Q 2919 1997 2936 1969
Q 2953 1941 2961 1898
Q 2969 1856 2969 1800
z
" id="Calibri-2b" transform="scale(0.015625)"/>
       <path d="M 1547 4306
Q 1250 3678 1104 3017
Q 959 2356 959 1688
Q 959 1016 1107 356
Q 1256 -303 1541 -938
Q 1556 -975 1557 -1001
Q 1559 -1028 1537 -1045
Q 1516 -1063 1470 -1070
Q 1425 -1078 1347 -1078
Q 1291 -1078 1250 -1075
Q 1209 -1072 1179 -1062
Q 1150 -1053 1131 -1040
Q 1113 -1028 1103 -1013
Q 934 -694 806 -367
Q 678 -41 590 296
Q 503 634 459 979
Q 416 1325 416 1678
Q 416 2031 464 2375
Q 513 2719 602 3058
Q 691 3397 819 3725
Q 947 4053 1106 4375
Q 1109 4388 1123 4397
Q 1138 4406 1163 4415
Q 1188 4425 1231 4429
Q 1275 4434 1344 4434
Q 1416 4434 1459 4425
Q 1503 4416 1528 4400
Q 1553 4384 1556 4359
Q 1559 4334 1547 4306
z
" id="Calibri-28" transform="scale(0.015625)"/>
       <path d="M 1522 1678
Q 1522 1325 1478 979
Q 1434 634 1346 296
Q 1259 -41 1132 -367
Q 1006 -694 838 -1013
Q 828 -1028 809 -1040
Q 791 -1053 761 -1062
Q 731 -1072 690 -1075
Q 650 -1078 594 -1078
Q 513 -1078 467 -1070
Q 422 -1063 401 -1045
Q 381 -1028 382 -1001
Q 384 -975 400 -938
Q 688 -306 834 355
Q 981 1016 981 1688
Q 981 2356 834 3017
Q 688 3678 394 4306
Q 381 4334 384 4359
Q 388 4384 413 4400
Q 438 4416 481 4425
Q 525 4434 597 4434
Q 663 4434 706 4429
Q 750 4425 776 4415
Q 803 4406 815 4397
Q 828 4388 834 4375
Q 1156 3734 1339 3057
Q 1522 2381 1522 1678
z
" id="Calibri-29" transform="scale(0.015625)"/>
      </defs>
      <use xlink:href="#Calibri-48"/>
      <use x="62.304688" xlink:href="#Calibri-50"/>
      <use x="113.964844" xlink:href="#Calibri-56"/>
      <use x="170.703125" xlink:href="#Calibri-2b"/>
      <use x="220.507812" xlink:href="#Calibri-20"/>
      <use x="243.115234" xlink:href="#Calibri-28"/>
      <use x="273.4375" xlink:href="#Calibri-31"/>
      <use x="324.121094" xlink:href="#Calibri-30"/>
      <use x="374.804688" xlink:href="#Calibri-37"/>
      <use x="425.488281" xlink:href="#Calibri-29"/>
     </g>
    </g>
    <g id="patch_23">
     <path d="M 184.447671 33.361432
L 196.939671 33.361432
L 196.939671 28.989232
L 184.447671 28.989232
z
" style="fill:#00afa5;"/>
    </g>
    <g id="text_21">
     <!-- HPV- (43) -->
     <g transform="translate(201.936471 33.361432)scale(0.06246 -0.06246)">
      <defs>
       <path d="M 1744 1578
Q 1744 1456 1716 1409
Q 1688 1363 1634 1363
L 328 1363
Q 272 1363 244 1411
Q 216 1459 216 1578
Q 216 1697 244 1744
Q 272 1791 328 1791
L 1634 1791
Q 1659 1791 1679 1781
Q 1700 1772 1714 1745
Q 1728 1719 1736 1678
Q 1744 1638 1744 1578
z
" id="Calibri-2d" transform="scale(0.015625)"/>
      </defs>
      <use xlink:href="#Calibri-48"/>
      <use x="62.304688" xlink:href="#Calibri-50"/>
      <use x="113.964844" xlink:href="#Calibri-56"/>
      <use x="170.703125" xlink:href="#Calibri-2d"/>
      <use x="201.318359" xlink:href="#Calibri-20"/>
      <use x="223.925781" xlink:href="#Calibri-28"/>
      <use x="254.248047" xlink:href="#Calibri-34"/>
      <use x="304.931641" xlink:href="#Calibri-33"/>
      <use x="355.615234" xlink:href="#Calibri-29"/>
     </g>
    </g>
   </g>
  </g>
  <g id="axes_2">
   <g id="patch_24">
    <path d="M 240.781151 260.730236
L 450.543067 260.730236
L 450.543067 18.509615
L 240.781151 18.509615
z
" style="fill:#ffffff;"/>
   </g>
   <g id="patch_25">
    <path clip-path="url(#p93443b2a49)" d="M 255.469639 260.730236
L 276.085061 260.730236
L 276.085061 215.242795
L 255.469639 215.242795
z
" style="fill:#ae0060;"/>
   </g>
   <g id="patch_26">
    <path clip-path="url(#p93443b2a49)" d="M 288.325468 260.730236
L 298.633178 260.730236
L 298.633178 30.04393
L 288.325468 30.04393
z
" style="fill:#ae0060;"/>
   </g>
   <g id="patch_27">
    <path clip-path="url(#p93443b2a49)" d="M 305.075498 260.730236
L 315.383209 260.730236
L 315.383209 134.015223
L 305.075498 134.015223
z
" style="fill:#ae0060;"/>
   </g>
   <g id="patch_28">
    <path clip-path="url(#p93443b2a49)" d="M 327.623615 260.730236
L 348.239037 260.730236
L 348.239037 134.015223
L 327.623615 134.015223
z
" style="fill:#ae0060;"/>
   </g>
   <g id="patch_29">
    <path clip-path="url(#p93443b2a49)" d="M 358.546748 260.730236
L 379.162169 260.730236
L 379.162169 221.741001
L 358.546748 221.741001
z
" style="fill:#ae0060;"/>
   </g>
   <g id="patch_30">
    <path clip-path="url(#p93443b2a49)" d="M 389.46988 260.730236
L 410.085302 260.730236
L 410.085302 231.48831
L 389.46988 231.48831
z
" style="fill:#ae0060;"/>
   </g>
   <g id="patch_31">
    <path clip-path="url(#p93443b2a49)" d="M 420.393013 260.730236
L 441.008435 260.730236
L 441.008435 234.737413
L 420.393013 234.737413
z
" style="fill:#ae0060;"/>
   </g>
   <g id="patch_32">
    <path clip-path="url(#p93443b2a49)" d="M 250.315784 260.730236
L 270.931205 260.730236
L 270.931205 229.833106
L 250.315784 229.833106
z
" style="fill:#00afa5;"/>
   </g>
   <g id="patch_33">
    <path clip-path="url(#p93443b2a49)" d="M 283.171612 260.730236
L 293.479323 260.730236
L 293.479323 39.300808
L 283.171612 39.300808
z
" style="fill:#00afa5;"/>
   </g>
   <g id="patch_34">
    <path clip-path="url(#p93443b2a49)" d="M 299.921642 260.730236
L 310.229353 260.730236
L 310.229353 126.842675
L 299.921642 126.842675
z
" style="fill:#00afa5;"/>
   </g>
   <g id="patch_35">
    <path clip-path="url(#p93443b2a49)" d="M 322.46976 260.730236
L 343.085181 260.730236
L 343.085181 126.842675
L 322.46976 126.842675
z
" style="fill:#00afa5;"/>
   </g>
   <g id="patch_36">
    <path clip-path="url(#p93443b2a49)" d="M 353.392892 260.730236
L 374.008314 260.730236
L 374.008314 214.384542
L 353.392892 214.384542
z
" style="fill:#00afa5;"/>
   </g>
   <g id="patch_37">
    <path clip-path="url(#p93443b2a49)" d="M 384.316025 260.730236
L 404.931447 260.730236
L 404.931447 245.281671
L 384.316025 245.281671
z
" style="fill:#00afa5;"/>
   </g>
   <g id="patch_38">
    <path clip-path="url(#p93443b2a49)" d="M 415.239157 260.730236
L 435.854579 260.730236
L 435.854579 209.23502
L 415.239157 209.23502
z
" style="fill:#00afa5;"/>
   </g>
   <g id="matplotlib.axis_3">
    <g id="xtick_8">
     <g id="line2d_26">
      <g>
       <use style="stroke:#000000;stroke-width:0.5;" x="260.623495" xlink:href="#m3de542c9f5" y="260.730236"/>
      </g>
     </g>
     <g id="text_22">
      <!-- I -->
      <g transform="translate(259.836401 266.478492)scale(0.06246 -0.06246)">
       <use xlink:href="#Calibri-49"/>
      </g>
     </g>
    </g>
    <g id="xtick_9">
     <g id="line2d_27">
      <g>
       <use style="stroke:#000000;stroke-width:0.5;" x="288.325468" xlink:href="#m3de542c9f5" y="260.730236"/>
      </g>
     </g>
     <g id="text_23">
      <!-- IIa -->
      <g transform="translate(285.255168 266.478492)scale(0.06246 -0.06246)">
       <use xlink:href="#Calibri-49"/>
       <use x="25.195312" xlink:href="#Calibri-49"/>
       <use x="50.390625" xlink:href="#Calibri-61"/>
      </g>
     </g>
    </g>
    <g id="xtick_10">
     <g id="line2d_28">
      <g>
       <use style="stroke:#000000;stroke-width:0.5;" x="305.075498" xlink:href="#m3de542c9f5" y="260.730236"/>
      </g>
     </g>
     <g id="text_24">
      <!-- IIb -->
      <g transform="translate(301.860272 266.478492)scale(0.06246 -0.06246)">
       <use xlink:href="#Calibri-49"/>
       <use x="25.195312" xlink:href="#Calibri-49"/>
       <use x="50.390625" xlink:href="#Calibri-62"/>
      </g>
     </g>
    </g>
    <g id="xtick_11">
     <g id="line2d_29">
      <g>
       <use style="stroke:#000000;stroke-width:0.5;" x="332.777471" xlink:href="#m3de542c9f5" y="260.730236"/>
      </g>
     </g>
     <g id="text_25">
      <!-- III -->
      <g transform="translate(330.41619 266.478492)scale(0.06246 -0.06246)">
       <use xlink:href="#Calibri-49"/>
       <use x="25.195312" xlink:href="#Calibri-49"/>
       <use x="50.390625" xlink:href="#Calibri-49"/>
      </g>
     </g>
    </g>
    <g id="xtick_12">
     <g id="line2d_30">
      <g>
       <use style="stroke:#000000;stroke-width:0.5;" x="363.700603" xlink:href="#m3de542c9f5" y="260.730236"/>
      </g>
     </g>
     <g id="text_26">
      <!-- IV -->
      <g transform="translate(361.141695 266.478492)scale(0.06246 -0.06246)">
       <use xlink:href="#Calibri-49"/>
       <use x="25.195312" xlink:href="#Calibri-56"/>
      </g>
     </g>
    </g>
    <g id="xtick_13">
     <g id="line2d_31">
      <g>
       <use style="stroke:#000000;stroke-width:0.5;" x="394.623736" xlink:href="#m3de542c9f5" y="260.730236"/>
      </g>
     </g>
     <g id="text_27">
      <!-- V -->
      <g transform="translate(392.851921 266.478492)scale(0.06246 -0.06246)">
       <use xlink:href="#Calibri-56"/>
      </g>
     </g>
    </g>
    <g id="xtick_14">
     <g id="line2d_32">
      <g>
       <use style="stroke:#000000;stroke-width:0.5;" x="425.546868" xlink:href="#m3de542c9f5" y="260.730236"/>
      </g>
     </g>
     <g id="text_28">
      <!-- VII -->
      <g transform="translate(422.200867 266.478492)scale(0.06246 -0.06246)">
       <use xlink:href="#Calibri-56"/>
       <use x="56.738281" xlink:href="#Calibri-49"/>
       <use x="81.933594" xlink:href="#Calibri-49"/>
      </g>
     </g>
    </g>
    <g id="text_29">
     <!-- LNLs -->
     <g transform="translate(337.213359 275.710515)scale(0.09 -0.09)">
      <use xlink:href="#Calibri-4c"/>
      <use x="42.041016" xlink:href="#Calibri-4e"/>
      <use x="106.591797" xlink:href="#Calibri-4c"/>
      <use x="148.632812" xlink:href="#Calibri-73"/>
     </g>
    </g>
   </g>
   <g id="matplotlib.axis_4">
    <g id="ytick_10">
     <g id="line2d_33">
      <path clip-path="url(#p93443b2a49)" d="M 240.781151 260.730236
L 450.543067 260.730236
" style="fill:none;stroke:#000000;stroke-linecap:square;stroke-opacity:0.1;stroke-width:0.5;"/>
     </g>
     <g id="line2d_34">
      <g>
       <use style="stroke:#000000;stroke-width:0.5;" x="240.781151" xlink:href="#maba4238535" y="260.730236"/>
      </g>
     </g>
    </g>
    <g id="ytick_11">
     <g id="line2d_35">
      <path clip-path="url(#p93443b2a49)" d="M 240.781151 233.437772
L 450.543067 233.437772
" style="fill:none;stroke:#000000;stroke-linecap:square;stroke-opacity:0.1;stroke-width:0.5;"/>
     </g>
     <g id="line2d_36">
      <g>
       <use style="stroke:#000000;stroke-width:0.5;" x="240.781151" xlink:href="#maba4238535" y="233.437772"/>
      </g>
     </g>
    </g>
    <g id="ytick_12">
     <g id="line2d_37">
      <path clip-path="url(#p93443b2a49)" d="M 240.781151 206.145307
L 450.543067 206.145307
" style="fill:none;stroke:#000000;stroke-linecap:square;stroke-opacity:0.1;stroke-width:0.5;"/>
     </g>
     <g id="line2d_38">
      <g>
       <use style="stroke:#000000;stroke-width:0.5;" x="240.781151" xlink:href="#maba4238535" y="206.145307"/>
      </g>
     </g>
    </g>
    <g id="ytick_13">
     <g id="line2d_39">
      <path clip-path="url(#p93443b2a49)" d="M 240.781151 178.852843
L 450.543067 178.852843
" style="fill:none;stroke:#000000;stroke-linecap:square;stroke-opacity:0.1;stroke-width:0.5;"/>
     </g>
     <g id="line2d_40">
      <g>
       <use style="stroke:#000000;stroke-width:0.5;" x="240.781151" xlink:href="#maba4238535" y="178.852843"/>
      </g>
     </g>
    </g>
    <g id="ytick_14">
     <g id="line2d_41">
      <path clip-path="url(#p93443b2a49)" d="M 240.781151 151.560379
L 450.543067 151.560379
" style="fill:none;stroke:#000000;stroke-linecap:square;stroke-opacity:0.1;stroke-width:0.5;"/>
     </g>
     <g id="line2d_42">
      <g>
       <use style="stroke:#000000;stroke-width:0.5;" x="240.781151" xlink:href="#maba4238535" y="151.560379"/>
      </g>
     </g>
    </g>
    <g id="ytick_15">
     <g id="line2d_43">
      <path clip-path="url(#p93443b2a49)" d="M 240.781151 124.267914
L 450.543067 124.267914
" style="fill:none;stroke:#000000;stroke-linecap:square;stroke-opacity:0.1;stroke-width:0.5;"/>
     </g>
     <g id="line2d_44">
      <g>
       <use style="stroke:#000000;stroke-width:0.5;" x="240.781151" xlink:href="#maba4238535" y="124.267914"/>
      </g>
     </g>
    </g>
    <g id="ytick_16">
     <g id="line2d_45">
      <path clip-path="url(#p93443b2a49)" d="M 240.781151 96.97545
L 450.543067 96.97545
" style="fill:none;stroke:#000000;stroke-linecap:square;stroke-opacity:0.1;stroke-width:0.5;"/>
     </g>
     <g id="line2d_46">
      <g>
       <use style="stroke:#000000;stroke-width:0.5;" x="240.781151" xlink:href="#maba4238535" y="96.97545"/>
      </g>
     </g>
    </g>
    <g id="ytick_17">
     <g id="line2d_47">
      <path clip-path="url(#p93443b2a49)" d="M 240.781151 69.682986
L 450.543067 69.682986
" style="fill:none;stroke:#000000;stroke-linecap:square;stroke-opacity:0.1;stroke-width:0.5;"/>
     </g>
     <g id="line2d_48">
      <g>
       <use style="stroke:#000000;stroke-width:0.5;" x="240.781151" xlink:href="#maba4238535" y="69.682986"/>
      </g>
     </g>
    </g>
    <g id="ytick_18">
     <g id="line2d_49">
      <path clip-path="url(#p93443b2a49)" d="M 240.781151 42.390521
L 450.543067 42.390521
" style="fill:none;stroke:#000000;stroke-linecap:square;stroke-opacity:0.1;stroke-width:0.5;"/>
     </g>
     <g id="line2d_50">
      <g>
       <use style="stroke:#000000;stroke-width:0.5;" x="240.781151" xlink:href="#maba4238535" y="42.390521"/>
      </g>
     </g>
    </g>
   </g>
   <g id="patch_39">
    <path d="M 240.781151 260.730236
L 240.781151 18.509615
" style="fill:none;stroke:#000000;stroke-linecap:square;stroke-linejoin:miter;stroke-width:0.5;"/>
   </g>
   <g id="patch_40">
    <path d="M 450.543067 260.730236
L 450.543067 18.509615
" style="fill:none;stroke:#000000;stroke-linecap:square;stroke-linejoin:miter;stroke-width:0.5;"/>
   </g>
   <g id="patch_41">
    <path d="M 240.781151 260.730236
L 450.543067 260.730236
" style="fill:none;stroke:#000000;stroke-linecap:square;stroke-linejoin:miter;stroke-width:0.5;"/>
   </g>
   <g id="patch_42">
    <path d="M 240.781151 18.509615
L 450.543067 18.509615
" style="fill:none;stroke:#000000;stroke-linecap:square;stroke-linejoin:miter;stroke-width:0.5;"/>
   </g>
   <g id="text_30">
    <!-- late (T3 &amp; T4) -->
    <g transform="translate(315.425484 10.509615)scale(0.108 -0.108)">
     <defs>
      <path d="M 2044 381
Q 2044 244 2026 170
Q 2009 97 1981 67
Q 1953 38 1898 14
Q 1844 -9 1770 -26
Q 1697 -44 1611 -53
Q 1525 -63 1438 -63
Q 1203 -63 1031 -3
Q 859 56 746 179
Q 634 303 581 490
Q 528 678 528 934
L 528 2363
L 194 2363
Q 134 2363 103 2436
Q 72 2509 72 2681
Q 72 2772 80 2834
Q 88 2897 103 2933
Q 119 2969 142 2984
Q 166 3000 197 3000
L 528 3000
L 528 3622
Q 528 3653 545 3678
Q 563 3703 608 3720
Q 653 3738 729 3745
Q 806 3753 919 3753
Q 1034 3753 1111 3745
Q 1188 3738 1231 3720
Q 1275 3703 1294 3678
Q 1313 3653 1313 3622
L 1313 3000
L 1919 3000
Q 1950 3000 1973 2984
Q 1997 2969 2012 2933
Q 2028 2897 2036 2834
Q 2044 2772 2044 2681
Q 2044 2509 2012 2436
Q 1981 2363 1922 2363
L 1313 2363
L 1313 1053
Q 1313 825 1384 711
Q 1456 597 1641 597
Q 1703 597 1753 608
Q 1803 619 1842 633
Q 1881 647 1907 658
Q 1934 669 1956 669
Q 1975 669 1992 658
Q 2009 647 2018 614
Q 2028 581 2036 525
Q 2044 469 2044 381
z
" id="Calibri-Bold-74" transform="scale(0.015625)"/>
      <path d="M 2969 1184
Q 2969 881 2853 647
Q 2738 413 2531 253
Q 2325 94 2037 11
Q 1750 -72 1409 -72
Q 1203 -72 1022 -42
Q 841 -13 702 31
Q 563 75 472 122
Q 381 169 353 194
Q 325 219 311 250
Q 297 281 286 323
Q 275 366 270 430
Q 266 494 266 584
Q 266 734 291 792
Q 316 850 366 850
Q 397 850 473 808
Q 550 766 669 717
Q 788 669 947 626
Q 1106 584 1309 584
Q 1481 584 1612 625
Q 1744 666 1836 739
Q 1928 813 1973 917
Q 2019 1022 2019 1150
Q 2019 1291 1964 1403
Q 1909 1516 1801 1595
Q 1694 1675 1530 1719
Q 1366 1763 1144 1763
L 794 1763
Q 753 1763 725 1773
Q 697 1784 678 1818
Q 659 1853 651 1914
Q 644 1975 644 2072
Q 644 2163 651 2220
Q 659 2278 676 2309
Q 694 2341 720 2353
Q 747 2366 784 2366
L 1138 2366
Q 1319 2366 1459 2408
Q 1600 2450 1695 2528
Q 1791 2606 1841 2717
Q 1891 2828 1891 2963
Q 1891 3066 1856 3158
Q 1822 3250 1755 3317
Q 1688 3384 1581 3423
Q 1475 3463 1331 3463
Q 1169 3463 1025 3414
Q 881 3366 767 3308
Q 653 3250 573 3200
Q 494 3150 456 3150
Q 431 3150 412 3161
Q 394 3172 381 3203
Q 369 3234 362 3293
Q 356 3353 356 3447
Q 356 3525 359 3576
Q 363 3628 372 3662
Q 381 3697 395 3722
Q 409 3747 440 3776
Q 472 3806 569 3865
Q 666 3925 812 3981
Q 959 4038 1151 4077
Q 1344 4116 1569 4116
Q 1863 4116 2089 4047
Q 2316 3978 2470 3848
Q 2625 3719 2704 3530
Q 2784 3341 2784 3103
Q 2784 2919 2737 2759
Q 2691 2600 2600 2475
Q 2509 2350 2373 2262
Q 2238 2175 2059 2131
L 2059 2122
Q 2272 2097 2440 2014
Q 2609 1931 2726 1806
Q 2844 1681 2906 1523
Q 2969 1366 2969 1184
z
" id="Calibri-Bold-33" transform="scale(0.015625)"/>
      <path d="M 3113 1163
Q 3113 1003 3080 920
Q 3047 838 2991 838
L 2631 838
L 2631 106
Q 2631 75 2612 51
Q 2594 28 2547 12
Q 2500 -3 2425 -11
Q 2350 -19 2231 -19
Q 2119 -19 2042 -11
Q 1966 -3 1920 12
Q 1875 28 1858 51
Q 1841 75 1841 106
L 1841 838
L 294 838
Q 250 838 215 848
Q 181 859 157 898
Q 134 938 123 1011
Q 113 1084 113 1206
Q 113 1306 117 1379
Q 122 1453 133 1512
Q 144 1572 164 1625
Q 184 1678 216 1738
L 1472 3953
Q 1488 3981 1525 4001
Q 1563 4022 1630 4036
Q 1697 4050 1800 4056
Q 1903 4063 2050 4063
Q 2209 4063 2321 4055
Q 2434 4047 2501 4030
Q 2569 4013 2600 3988
Q 2631 3963 2631 3928
L 2631 1494
L 2991 1494
Q 3041 1494 3077 1417
Q 3113 1341 3113 1163
z
M 1841 3353
L 1834 3353
L 769 1494
L 1841 1494
L 1841 3353
z
" id="Calibri-Bold-34" transform="scale(0.015625)"/>
     </defs>
     <use xlink:href="#Calibri-Bold-6c"/>
     <use x="24.560547" xlink:href="#Calibri-Bold-61"/>
     <use x="73.925781" xlink:href="#Calibri-Bold-74"/>
     <use x="108.59375" xlink:href="#Calibri-Bold-65"/>
     <use x="158.935547" xlink:href="#Calibri-Bold-20"/>
     <use x="181.542969" xlink:href="#Calibri-Bold-28"/>
     <use x="212.695312" xlink:href="#Calibri-Bold-54"/>
     <use x="262.207031" xlink:href="#Calibri-Bold-33"/>
     <use x="312.890625" xlink:href="#Calibri-Bold-20"/>
     <use x="335.498047" xlink:href="#Calibri-Bold-26"/>
     <use x="405.957031" xlink:href="#Calibri-Bold-20"/>
     <use x="428.564453" xlink:href="#Calibri-Bold-54"/>
     <use x="478.076172" xlink:href="#Calibri-Bold-34"/>
     <use x="528.759766" xlink:href="#Calibri-Bold-29"/>
    </g>
   </g>
   <g id="legend_2">
    <g id="patch_43">
     <path d="M 403.376008 35.721249
L 446.170867 35.721249
Q 447.420067 35.721249 447.420067 34.472049
L 447.420067 22.881815
Q 447.420067 21.632615 446.170867 21.632615
L 403.376008 21.632615
Q 402.126808 21.632615 402.126808 22.881815
L 402.126808 34.472049
Q 402.126808 35.721249 403.376008 35.721249
z
" style="fill:#ffffff;opacity:0.8;stroke:#cccccc;stroke-linejoin:miter;"/>
    </g>
    <g id="patch_44">
     <path d="M 403.376008 27.254015
L 415.868008 27.254015
L 415.868008 22.881815
L 403.376008 22.881815
z
" style="fill:#ae0060;"/>
    </g>
    <g id="text_31">
     <!-- HPV+ (84) -->
     <g transform="translate(420.864808 27.254015)scale(0.06246 -0.06246)">
      <use xlink:href="#Calibri-48"/>
      <use x="62.304688" xlink:href="#Calibri-50"/>
      <use x="113.964844" xlink:href="#Calibri-56"/>
      <use x="170.703125" xlink:href="#Calibri-2b"/>
      <use x="220.507812" xlink:href="#Calibri-20"/>
      <use x="243.115234" xlink:href="#Calibri-28"/>
      <use x="273.4375" xlink:href="#Calibri-38"/>
      <use x="324.121094" xlink:href="#Calibri-34"/>
      <use x="374.804688" xlink:href="#Calibri-29"/>
     </g>
    </g>
    <g id="patch_45">
     <path d="M 403.376008 33.361432
L 415.868008 33.361432
L 415.868008 28.989232
L 403.376008 28.989232
z
" style="fill:#00afa5;"/>
    </g>
    <g id="text_32">
     <!-- HPV- (53) -->
     <g transform="translate(420.864808 33.361432)scale(0.06246 -0.06246)">
      <use xlink:href="#Calibri-48"/>
      <use x="62.304688" xlink:href="#Calibri-50"/>
      <use x="113.964844" xlink:href="#Calibri-56"/>
      <use x="170.703125" xlink:href="#Calibri-2d"/>
      <use x="201.318359" xlink:href="#Calibri-20"/>
      <use x="223.925781" xlink:href="#Calibri-28"/>
      <use x="254.248047" xlink:href="#Calibri-35"/>
      <use x="304.931641" xlink:href="#Calibri-33"/>
      <use x="355.615234" xlink:href="#Calibri-29"/>
     </g>
    </g>
   </g>
  </g>
 </g>
 <defs>
  <clipPath id="p276e6b163e">
   <rect height="242.220621" width="209.761916" x="25.018755" y="18.509615"/>
  </clipPath>
  <clipPath id="p93443b2a49">
   <rect height="242.220621" width="209.761916" x="240.781151" y="18.509615"/>
  </clipPath>
 </defs>
</svg>
