<?xml version="1.0" encoding="utf-8" standalone="no"?>
<!DOCTYPE svg PUBLIC "-//W3C//DTD SVG 1.1//EN"
  "http://www.w3.org/Graphics/SVG/1.1/DTD/svg11.dtd">
<svg height="175.194417pt" version="1.1" viewBox="0 0 283.464567 175.194417" width="283.464567pt" xmlns="http://www.w3.org/2000/svg" xmlns:xlink="http://www.w3.org/1999/xlink">
 <metadata>
  <rdf:RDF xmlns:cc="http://creativecommons.org/ns#" xmlns:dc="http://purl.org/dc/elements/1.1/" xmlns:rdf="http://www.w3.org/1999/02/22-rdf-syntax-ns#">
   <cc:Work>
    <dc:type rdf:resource="http://purl.org/dc/dcmitype/StillImage"/>
    <dc:date>2021-11-22T11:15:28.822623</dc:date>
    <dc:format>image/svg+xml</dc:format>
    <dc:creator>
     <cc:Agent>
      <dc:title>Matplotlib v3.4.3, https://matplotlib.org/</dc:title>
     </cc:Agent>
    </dc:creator>
   </cc:Work>
  </rdf:RDF>
 </metadata>
 <defs>
  <style type="text/css">*{stroke-linecap:butt;stroke-linejoin:round;}</style>
 </defs>
 <g id="figure_1">
  <g id="patch_1">
   <path d="M 0 175.194417
L 283.464567 175.194417
L 283.464567 0
L 0 0
z
" style="fill:none;"/>
  </g>
  <g id="axes_1">
   <g id="patch_2">
    <path d="M 25.018755 168.959432
L 280.464327 168.959432
L 280.464327 5.124368
L 25.018755 5.124368
z
" style="fill:#ffffff;"/>
   </g>
   <g id="patch_3">
    <path clip-path="url(#p543a5d6ed3)" d="M 46.726581 168.959432
L 87.113232 168.959432
L 87.113232 121.124377
L 46.726581 121.124377
z
" style="fill:#f17900;"/>
   </g>
   <g id="patch_4">
    <path clip-path="url(#p543a5d6ed3)" d="M 107.306558 168.959432
L 147.69321 168.959432
L 147.69321 66.114063
L 107.306558 66.114063
z
" style="fill:#f17900;"/>
   </g>
   <g id="patch_5">
    <path clip-path="url(#p543a5d6ed3)" d="M 167.886535 168.959432
L 208.273187 168.959432
L 208.273187 46.980041
L 167.886535 46.980041
z
" style="fill:#f17900;"/>
   </g>
   <g id="patch_6">
    <path clip-path="url(#p543a5d6ed3)" d="M 228.466513 168.959432
L 268.853165 168.959432
L 268.853165 125.907883
L 228.466513 125.907883
z
" style="fill:#f17900;"/>
   </g>
   <g id="matplotlib.axis_1"/>
   <g id="matplotlib.axis_2">
    <g id="ytick_1">
     <g id="line2d_1">
      <path clip-path="url(#p543a5d6ed3)" d="M 25.018755 168.959432
L 280.464327 168.959432
" style="fill:none;stroke:#000000;stroke-linecap:square;stroke-opacity:0.1;stroke-width:0.5;"/>
     </g>
     <g id="line2d_2">
      <defs>
       <path d="M 0 0
L 3 0
" id="m17c7c7de12" style="stroke:#000000;stroke-width:0.5;"/>
      </defs>
      <g>
       <use style="stroke:#000000;stroke-width:0.5;" x="25.018755" xlink:href="#m17c7c7de12" y="168.959432"/>
      </g>
     </g>
     <g id="text_1">
      <!-- 0% -->
      <g transform="translate(15.8879 171.08356)scale(0.06246 -0.06246)">
       <defs>
        <path d="M 3022 2031
Q 3022 1566 2948 1181
Q 2875 797 2704 520
Q 2534 244 2259 92
Q 1984 -59 1581 -59
Q 1200 -59 939 77
Q 678 213 518 477
Q 359 741 292 1127
Q 225 1513 225 2013
Q 225 2475 300 2861
Q 375 3247 544 3523
Q 713 3800 988 3951
Q 1263 4103 1663 4103
Q 2047 4103 2308 3967
Q 2569 3831 2728 3567
Q 2888 3303 2955 2917
Q 3022 2531 3022 2031
z
M 2472 1994
Q 2472 2297 2450 2537
Q 2428 2778 2386 2962
Q 2344 3147 2276 3280
Q 2209 3413 2115 3498
Q 2022 3584 1901 3623
Q 1781 3663 1631 3663
Q 1366 3663 1200 3538
Q 1034 3413 939 3194
Q 844 2975 809 2681
Q 775 2388 775 2050
Q 775 1597 822 1280
Q 869 963 970 763
Q 1072 563 1230 472
Q 1388 381 1613 381
Q 1788 381 1920 437
Q 2053 494 2148 598
Q 2244 703 2306 850
Q 2369 997 2406 1175
Q 2444 1353 2458 1561
Q 2472 1769 2472 1994
z
" id="Calibri-30" transform="scale(0.015625)"/>
        <path d="M 1964 3070
Q 1964 2829 1910 2632
Q 1857 2436 1748 2296
Q 1639 2157 1471 2079
Q 1304 2001 1079 2001
Q 851 2001 688 2073
Q 526 2145 423 2281
Q 320 2417 271 2612
Q 223 2807 223 3057
Q 223 3286 274 3479
Q 326 3673 432 3813
Q 539 3954 706 4035
Q 873 4117 1101 4117
Q 1348 4117 1515 4032
Q 1682 3948 1782 3806
Q 1882 3664 1923 3473
Q 1964 3282 1964 3070
z
M 1526 3054
Q 1526 3229 1501 3365
Q 1476 3501 1424 3591
Q 1373 3682 1288 3727
Q 1204 3773 1089 3773
Q 979 3773 898 3729
Q 817 3686 765 3598
Q 714 3511 689 3381
Q 664 3251 664 3076
Q 664 2864 693 2721
Q 723 2579 777 2496
Q 832 2414 915 2381
Q 998 2348 1104 2348
Q 1229 2348 1309 2395
Q 1389 2442 1437 2534
Q 1486 2626 1506 2756
Q 1526 2886 1526 3054
z
M 4348 1022
Q 4348 781 4294 584
Q 4241 388 4132 248
Q 4023 109 3855 31
Q 3688 -47 3463 -47
Q 3235 -47 3072 25
Q 2910 97 2807 233
Q 2704 369 2655 564
Q 2607 759 2607 1009
Q 2607 1238 2658 1431
Q 2710 1625 2816 1765
Q 2923 1906 3090 1987
Q 3257 2069 3485 2069
Q 3732 2069 3899 1984
Q 4066 1900 4166 1758
Q 4266 1616 4307 1425
Q 4348 1234 4348 1022
z
M 3910 1006
Q 3910 1181 3885 1317
Q 3860 1453 3808 1543
Q 3757 1634 3672 1679
Q 3588 1725 3473 1725
Q 3363 1725 3282 1681
Q 3201 1638 3149 1550
Q 3098 1463 3073 1333
Q 3048 1203 3048 1028
Q 3048 816 3077 673
Q 3107 531 3161 448
Q 3216 366 3299 333
Q 3382 300 3488 300
Q 3613 300 3693 347
Q 3773 394 3821 486
Q 3870 578 3890 708
Q 3910 838 3910 1006
z
M 1078 -25
Q 1062 -53 1040 -67
Q 1018 -81 987 -92
Q 956 -103 912 -108
Q 868 -113 806 -113
Q 737 -113 695 -100
Q 653 -88 635 -67
Q 618 -47 623 -17
Q 628 13 653 50
L 3465 4078
Q 3481 4103 3503 4120
Q 3525 4138 3557 4147
Q 3590 4156 3632 4161
Q 3675 4166 3740 4166
Q 3806 4166 3848 4155
Q 3890 4144 3909 4122
Q 3928 4100 3923 4069
Q 3918 4038 3893 4003
L 1078 -25
z
" id="Calibri-25" transform="scale(0.015625)"/>
       </defs>
       <use xlink:href="#Calibri-30"/>
       <use x="50.683594" xlink:href="#Calibri-25"/>
      </g>
     </g>
    </g>
    <g id="ytick_2">
     <g id="line2d_3">
      <path clip-path="url(#p543a5d6ed3)" d="M 25.018755 136.192419
L 280.464327 136.192419
" style="fill:none;stroke:#000000;stroke-linecap:square;stroke-opacity:0.1;stroke-width:0.5;"/>
     </g>
     <g id="line2d_4">
      <g>
       <use style="stroke:#000000;stroke-width:0.5;" x="25.018755" xlink:href="#m17c7c7de12" y="136.192419"/>
      </g>
     </g>
     <g id="text_2">
      <!-- 10% -->
      <g transform="translate(12.721959 138.316547)scale(0.06246 -0.06246)">
       <defs>
        <path d="M 2897 213
Q 2897 153 2887 112
Q 2878 72 2862 47
Q 2847 22 2826 11
Q 2806 0 2784 0
L 672 0
Q 650 0 631 11
Q 613 22 595 47
Q 578 72 568 112
Q 559 153 559 213
Q 559 269 568 309
Q 578 350 592 376
Q 606 403 626 417
Q 647 431 672 431
L 1516 431
L 1516 3506
L 734 3041
Q 675 3009 639 3003
Q 603 2997 581 3017
Q 559 3038 551 3084
Q 544 3131 544 3203
Q 544 3256 548 3293
Q 553 3331 562 3356
Q 572 3381 589 3400
Q 606 3419 634 3438
L 1566 4034
Q 1578 4044 1597 4050
Q 1616 4056 1644 4062
Q 1672 4069 1709 4070
Q 1747 4072 1803 4072
Q 1878 4072 1928 4065
Q 1978 4059 2006 4048
Q 2034 4038 2043 4020
Q 2053 4003 2053 3984
L 2053 431
L 2784 431
Q 2809 431 2831 417
Q 2853 403 2867 376
Q 2881 350 2889 309
Q 2897 269 2897 213
z
" id="Calibri-31" transform="scale(0.015625)"/>
       </defs>
       <use xlink:href="#Calibri-31"/>
       <use x="50.683594" xlink:href="#Calibri-30"/>
       <use x="101.367188" xlink:href="#Calibri-25"/>
      </g>
     </g>
    </g>
    <g id="ytick_3">
     <g id="line2d_5">
      <path clip-path="url(#p543a5d6ed3)" d="M 25.018755 103.425407
L 280.464327 103.425407
" style="fill:none;stroke:#000000;stroke-linecap:square;stroke-opacity:0.1;stroke-width:0.5;"/>
     </g>
     <g id="line2d_6">
      <g>
       <use style="stroke:#000000;stroke-width:0.5;" x="25.018755" xlink:href="#m17c7c7de12" y="103.425407"/>
      </g>
     </g>
     <g id="text_3">
      <!-- 20% -->
      <g transform="translate(12.721959 105.549535)scale(0.06246 -0.06246)">
       <defs>
        <path d="M 2888 231
Q 2888 175 2880 131
Q 2872 88 2858 58
Q 2844 28 2820 14
Q 2797 0 2769 0
L 534 0
Q 491 0 458 11
Q 425 22 401 47
Q 378 72 367 119
Q 356 166 356 234
Q 356 297 361 344
Q 366 391 381 427
Q 397 463 420 498
Q 444 534 481 575
L 1266 1406
Q 1538 1694 1702 1922
Q 1866 2150 1955 2337
Q 2044 2525 2072 2678
Q 2100 2831 2100 2966
Q 2100 3100 2056 3220
Q 2013 3341 1930 3431
Q 1847 3522 1722 3575
Q 1597 3628 1434 3628
Q 1244 3628 1092 3575
Q 941 3522 827 3459
Q 713 3397 636 3344
Q 559 3291 522 3291
Q 500 3291 483 3303
Q 466 3316 455 3344
Q 444 3372 437 3419
Q 431 3466 431 3531
Q 431 3578 434 3612
Q 438 3647 445 3672
Q 453 3697 465 3719
Q 478 3741 515 3773
Q 553 3806 645 3862
Q 738 3919 877 3973
Q 1016 4028 1183 4065
Q 1350 4103 1534 4103
Q 1828 4103 2048 4020
Q 2269 3938 2414 3794
Q 2559 3650 2631 3459
Q 2703 3269 2703 3053
Q 2703 2859 2668 2667
Q 2634 2475 2523 2251
Q 2413 2028 2203 1754
Q 1994 1481 1647 1125
L 1006 456
L 2766 456
Q 2791 456 2814 442
Q 2838 428 2855 400
Q 2872 372 2880 330
Q 2888 288 2888 231
z
" id="Calibri-32" transform="scale(0.015625)"/>
       </defs>
       <use xlink:href="#Calibri-32"/>
       <use x="50.683594" xlink:href="#Calibri-30"/>
       <use x="101.367188" xlink:href="#Calibri-25"/>
      </g>
     </g>
    </g>
    <g id="ytick_4">
     <g id="line2d_7">
      <path clip-path="url(#p543a5d6ed3)" d="M 25.018755 70.658394
L 280.464327 70.658394
" style="fill:none;stroke:#000000;stroke-linecap:square;stroke-opacity:0.1;stroke-width:0.5;"/>
     </g>
     <g id="line2d_8">
      <g>
       <use style="stroke:#000000;stroke-width:0.5;" x="25.018755" xlink:href="#m17c7c7de12" y="70.658394"/>
      </g>
     </g>
     <g id="text_4">
      <!-- 30% -->
      <g transform="translate(12.721959 72.782522)scale(0.06246 -0.06246)">
       <defs>
        <path d="M 2856 1156
Q 2856 878 2759 654
Q 2663 431 2481 272
Q 2300 113 2034 27
Q 1769 -59 1434 -59
Q 1231 -59 1054 -26
Q 878 6 740 51
Q 603 97 512 145
Q 422 194 398 216
Q 375 238 362 259
Q 350 281 340 312
Q 331 344 326 389
Q 322 434 322 500
Q 322 613 344 656
Q 366 700 406 700
Q 434 700 517 650
Q 600 600 729 542
Q 859 484 1032 434
Q 1206 384 1419 384
Q 1625 384 1781 437
Q 1938 491 2044 587
Q 2150 684 2203 817
Q 2256 950 2256 1106
Q 2256 1278 2189 1415
Q 2122 1553 1992 1653
Q 1863 1753 1673 1806
Q 1484 1859 1244 1859
L 859 1859
Q 834 1859 811 1870
Q 788 1881 770 1906
Q 753 1931 742 1972
Q 731 2013 731 2078
Q 731 2138 740 2177
Q 750 2216 767 2239
Q 784 2263 806 2273
Q 828 2284 856 2284
L 1209 2284
Q 1416 2284 1580 2337
Q 1744 2391 1858 2491
Q 1972 2591 2033 2730
Q 2094 2869 2094 3041
Q 2094 3166 2053 3280
Q 2013 3394 1931 3478
Q 1850 3563 1723 3611
Q 1597 3659 1431 3659
Q 1250 3659 1098 3604
Q 947 3550 828 3487
Q 709 3425 631 3370
Q 553 3316 522 3316
Q 500 3316 483 3323
Q 466 3331 455 3354
Q 444 3378 439 3420
Q 434 3463 434 3531
Q 434 3578 437 3614
Q 441 3650 450 3676
Q 459 3703 471 3725
Q 484 3747 514 3776
Q 544 3806 634 3862
Q 725 3919 858 3973
Q 991 4028 1164 4065
Q 1338 4103 1538 4103
Q 1819 4103 2031 4031
Q 2244 3959 2386 3828
Q 2528 3697 2598 3514
Q 2669 3331 2669 3109
Q 2669 2919 2619 2755
Q 2569 2591 2472 2464
Q 2375 2338 2234 2248
Q 2094 2159 1909 2125
L 1909 2119
Q 2119 2097 2292 2014
Q 2466 1931 2591 1806
Q 2716 1681 2786 1514
Q 2856 1347 2856 1156
z
" id="Calibri-33" transform="scale(0.015625)"/>
       </defs>
       <use xlink:href="#Calibri-33"/>
       <use x="50.683594" xlink:href="#Calibri-30"/>
       <use x="101.367188" xlink:href="#Calibri-25"/>
      </g>
     </g>
    </g>
    <g id="ytick_5">
     <g id="line2d_9">
      <path clip-path="url(#p543a5d6ed3)" d="M 25.018755 37.891381
L 280.464327 37.891381
" style="fill:none;stroke:#000000;stroke-linecap:square;stroke-opacity:0.1;stroke-width:0.5;"/>
     </g>
     <g id="line2d_10">
      <g>
       <use style="stroke:#000000;stroke-width:0.5;" x="25.018755" xlink:href="#m17c7c7de12" y="37.891381"/>
      </g>
     </g>
     <g id="text_5">
      <!-- 40% -->
      <g transform="translate(12.721959 40.015509)scale(0.06246 -0.06246)">
       <defs>
        <path d="M 3059 1150
Q 3059 1047 3028 987
Q 2997 928 2941 928
L 2484 928
L 2484 78
Q 2484 53 2471 36
Q 2459 19 2428 6
Q 2397 -6 2347 -12
Q 2297 -19 2219 -19
Q 2144 -19 2094 -12
Q 2044 -6 2014 6
Q 1984 19 1973 36
Q 1963 53 1963 78
L 1963 928
L 294 928
Q 256 928 231 937
Q 206 947 186 972
Q 166 997 158 1044
Q 150 1091 150 1166
Q 150 1225 153 1272
Q 156 1319 165 1358
Q 175 1397 190 1433
Q 206 1469 228 1509
L 1684 3966
Q 1700 3991 1729 4009
Q 1759 4028 1806 4040
Q 1853 4053 1922 4058
Q 1991 4063 2084 4063
Q 2188 4063 2264 4055
Q 2341 4047 2387 4034
Q 2434 4022 2459 4001
Q 2484 3981 2484 3953
L 2484 1372
L 2941 1372
Q 2994 1372 3026 1317
Q 3059 1263 3059 1150
z
M 1963 3591
L 1956 3591
L 641 1372
L 1963 1372
L 1963 3591
z
" id="Calibri-34" transform="scale(0.015625)"/>
       </defs>
       <use xlink:href="#Calibri-34"/>
       <use x="50.683594" xlink:href="#Calibri-30"/>
       <use x="101.367188" xlink:href="#Calibri-25"/>
      </g>
     </g>
    </g>
    <g id="ytick_6">
     <g id="line2d_11">
      <path clip-path="url(#p543a5d6ed3)" d="M 25.018755 5.124368
L 280.464327 5.124368
" style="fill:none;stroke:#000000;stroke-linecap:square;stroke-opacity:0.1;stroke-width:0.5;"/>
     </g>
     <g id="line2d_12">
      <g>
       <use style="stroke:#000000;stroke-width:0.5;" x="25.018755" xlink:href="#m17c7c7de12" y="5.124368"/>
      </g>
     </g>
     <g id="text_6">
      <!-- 50% -->
      <g transform="translate(12.721959 7.248496)scale(0.06246 -0.06246)">
       <defs>
        <path d="M 2869 1300
Q 2869 975 2759 722
Q 2650 469 2450 295
Q 2250 122 1973 31
Q 1697 -59 1359 -59
Q 1172 -59 1003 -32
Q 834 -6 703 33
Q 572 72 487 109
Q 403 147 379 169
Q 356 191 347 209
Q 338 228 330 254
Q 322 281 319 322
Q 316 363 316 419
Q 316 472 320 514
Q 325 556 337 582
Q 350 609 367 621
Q 384 634 406 634
Q 438 634 503 595
Q 569 556 680 511
Q 791 466 955 425
Q 1119 384 1344 384
Q 1553 384 1728 434
Q 1903 484 2029 590
Q 2156 697 2228 858
Q 2300 1019 2300 1250
Q 2300 1444 2239 1592
Q 2178 1741 2051 1839
Q 1925 1938 1731 1986
Q 1538 2034 1269 2034
Q 1078 2034 940 2015
Q 803 1997 684 1997
Q 597 1997 559 2037
Q 522 2078 522 2194
L 522 3841
Q 522 3944 570 3994
Q 619 4044 709 4044
L 2500 4044
Q 2525 4044 2548 4030
Q 2572 4016 2587 3987
Q 2603 3959 2611 3915
Q 2619 3872 2619 3813
Q 2619 3700 2587 3637
Q 2556 3575 2500 3575
L 991 3575
L 991 2441
Q 1100 2456 1214 2459
Q 1328 2463 1478 2463
Q 1825 2463 2084 2380
Q 2344 2297 2517 2145
Q 2691 1994 2780 1778
Q 2869 1563 2869 1300
z
" id="Calibri-35" transform="scale(0.015625)"/>
       </defs>
       <use xlink:href="#Calibri-35"/>
       <use x="50.683594" xlink:href="#Calibri-30"/>
       <use x="101.367188" xlink:href="#Calibri-25"/>
      </g>
     </g>
    </g>
    <g id="text_7">
     <!-- occurence -->
     <g transform="translate(9.121646 105.898306)rotate(-90)scale(0.09 -0.09)">
      <defs>
       <path d="M 3094 1516
Q 3094 1172 3003 883
Q 2913 594 2733 384
Q 2553 175 2283 58
Q 2013 -59 1656 -59
Q 1309 -59 1051 44
Q 794 147 622 344
Q 450 541 365 822
Q 281 1103 281 1459
Q 281 1803 370 2092
Q 459 2381 639 2590
Q 819 2800 1087 2915
Q 1356 3031 1716 3031
Q 2063 3031 2320 2928
Q 2578 2825 2750 2628
Q 2922 2431 3008 2150
Q 3094 1869 3094 1516
z
M 2550 1481
Q 2550 1709 2508 1912
Q 2466 2116 2369 2269
Q 2272 2422 2106 2511
Q 1941 2600 1694 2600
Q 1466 2600 1302 2519
Q 1138 2438 1031 2289
Q 925 2141 873 1937
Q 822 1734 822 1494
Q 822 1263 864 1059
Q 906 856 1004 704
Q 1103 553 1268 464
Q 1434 375 1681 375
Q 1906 375 2072 456
Q 2238 538 2344 684
Q 2450 831 2500 1034
Q 2550 1238 2550 1481
z
" id="Calibri-6f" transform="scale(0.015625)"/>
       <path d="M 2500 506
Q 2500 453 2497 414
Q 2494 375 2486 348
Q 2478 322 2467 301
Q 2456 281 2417 242
Q 2378 203 2284 145
Q 2191 88 2073 42
Q 1956 -3 1818 -31
Q 1681 -59 1534 -59
Q 1231 -59 997 41
Q 763 141 605 333
Q 447 525 364 804
Q 281 1084 281 1450
Q 281 1866 382 2164
Q 484 2463 661 2653
Q 838 2844 1077 2936
Q 1316 3028 1594 3028
Q 1728 3028 1854 3003
Q 1981 2978 2087 2937
Q 2194 2897 2276 2844
Q 2359 2791 2396 2753
Q 2434 2716 2448 2694
Q 2463 2672 2472 2642
Q 2481 2613 2484 2575
Q 2488 2538 2488 2481
Q 2488 2359 2459 2311
Q 2431 2263 2391 2263
Q 2344 2263 2283 2314
Q 2222 2366 2128 2428
Q 2034 2491 1901 2542
Q 1769 2594 1588 2594
Q 1216 2594 1017 2308
Q 819 2022 819 1478
Q 819 1206 870 1001
Q 922 797 1022 659
Q 1122 522 1267 455
Q 1413 388 1600 388
Q 1778 388 1912 444
Q 2047 500 2145 567
Q 2244 634 2311 689
Q 2378 744 2416 744
Q 2438 744 2453 731
Q 2469 719 2480 689
Q 2491 659 2495 614
Q 2500 569 2500 506
z
" id="Calibri-63" transform="scale(0.015625)"/>
       <path d="M 2888 78
Q 2888 53 2877 36
Q 2866 19 2837 6
Q 2809 -6 2764 -12
Q 2719 -19 2653 -19
Q 2581 -19 2536 -12
Q 2491 -6 2464 6
Q 2438 19 2428 36
Q 2419 53 2419 78
L 2419 450
Q 2178 184 1943 62
Q 1709 -59 1469 -59
Q 1188 -59 995 34
Q 803 128 684 289
Q 566 450 514 664
Q 463 878 463 1184
L 463 2891
Q 463 2916 473 2933
Q 484 2950 515 2964
Q 547 2978 597 2983
Q 647 2988 722 2988
Q 797 2988 847 2983
Q 897 2978 926 2964
Q 956 2950 968 2933
Q 981 2916 981 2891
L 981 1253
Q 981 1006 1017 857
Q 1053 709 1126 604
Q 1200 500 1312 442
Q 1425 384 1575 384
Q 1769 384 1961 521
Q 2153 659 2369 925
L 2369 2891
Q 2369 2916 2380 2933
Q 2391 2950 2422 2964
Q 2453 2978 2501 2983
Q 2550 2988 2628 2988
Q 2703 2988 2753 2983
Q 2803 2978 2831 2964
Q 2859 2950 2873 2933
Q 2888 2916 2888 2891
L 2888 78
z
" id="Calibri-75" transform="scale(0.015625)"/>
       <path d="M 2122 2706
Q 2122 2638 2119 2591
Q 2116 2544 2106 2517
Q 2097 2491 2083 2477
Q 2069 2463 2044 2463
Q 2019 2463 1983 2477
Q 1947 2491 1901 2505
Q 1856 2519 1800 2531
Q 1744 2544 1678 2544
Q 1600 2544 1525 2512
Q 1450 2481 1367 2409
Q 1284 2338 1193 2219
Q 1103 2100 994 1928
L 994 78
Q 994 53 981 36
Q 969 19 941 6
Q 913 -6 863 -12
Q 813 -19 734 -19
Q 659 -19 609 -12
Q 559 -6 529 6
Q 500 19 489 36
Q 478 53 478 78
L 478 2891
Q 478 2916 487 2933
Q 497 2950 525 2964
Q 553 2978 597 2983
Q 641 2988 713 2988
Q 781 2988 826 2983
Q 872 2978 897 2964
Q 922 2950 933 2933
Q 944 2916 944 2891
L 944 2481
Q 1059 2650 1161 2756
Q 1263 2863 1353 2923
Q 1444 2984 1533 3007
Q 1622 3031 1713 3031
Q 1753 3031 1804 3026
Q 1856 3022 1912 3009
Q 1969 2997 2014 2981
Q 2059 2966 2078 2950
Q 2097 2934 2103 2920
Q 2109 2906 2114 2884
Q 2119 2863 2120 2820
Q 2122 2778 2122 2706
z
" id="Calibri-72" transform="scale(0.015625)"/>
       <path d="M 2878 1606
Q 2878 1484 2817 1432
Q 2756 1381 2678 1381
L 834 1381
Q 834 1147 881 959
Q 928 772 1037 637
Q 1147 503 1322 431
Q 1497 359 1750 359
Q 1950 359 2106 392
Q 2263 425 2377 465
Q 2491 506 2564 539
Q 2638 572 2675 572
Q 2697 572 2714 561
Q 2731 550 2740 528
Q 2750 506 2754 467
Q 2759 428 2759 372
Q 2759 331 2756 301
Q 2753 272 2748 248
Q 2744 225 2733 206
Q 2722 188 2705 170
Q 2688 153 2603 114
Q 2519 75 2384 37
Q 2250 0 2073 -29
Q 1897 -59 1697 -59
Q 1350 -59 1089 37
Q 828 134 650 325
Q 472 516 381 803
Q 291 1091 291 1472
Q 291 1834 384 2123
Q 478 2413 654 2614
Q 831 2816 1081 2923
Q 1331 3031 1641 3031
Q 1972 3031 2205 2925
Q 2438 2819 2588 2639
Q 2738 2459 2808 2217
Q 2878 1975 2878 1700
L 2878 1606
z
M 2359 1759
Q 2369 2166 2180 2397
Q 1991 2628 1619 2628
Q 1428 2628 1284 2556
Q 1141 2484 1044 2365
Q 947 2247 894 2089
Q 841 1931 834 1759
L 2359 1759
z
" id="Calibri-65" transform="scale(0.015625)"/>
       <path d="M 2900 78
Q 2900 53 2887 36
Q 2875 19 2847 6
Q 2819 -6 2769 -12
Q 2719 -19 2644 -19
Q 2566 -19 2516 -12
Q 2466 -6 2437 6
Q 2409 19 2396 36
Q 2384 53 2384 78
L 2384 1725
Q 2384 1966 2346 2112
Q 2309 2259 2237 2365
Q 2166 2472 2052 2528
Q 1938 2584 1788 2584
Q 1594 2584 1400 2446
Q 1206 2309 994 2044
L 994 78
Q 994 53 981 36
Q 969 19 941 6
Q 913 -6 863 -12
Q 813 -19 734 -19
Q 659 -19 609 -12
Q 559 -6 529 6
Q 500 19 489 36
Q 478 53 478 78
L 478 2891
Q 478 2916 487 2933
Q 497 2950 525 2964
Q 553 2978 597 2983
Q 641 2988 713 2988
Q 781 2988 826 2983
Q 872 2978 897 2964
Q 922 2950 933 2933
Q 944 2916 944 2891
L 944 2519
Q 1181 2784 1417 2907
Q 1653 3031 1894 3031
Q 2175 3031 2367 2936
Q 2559 2841 2678 2681
Q 2797 2522 2848 2308
Q 2900 2094 2900 1794
L 2900 78
z
" id="Calibri-6e" transform="scale(0.015625)"/>
      </defs>
      <use xlink:href="#Calibri-6f"/>
      <use x="52.734375" xlink:href="#Calibri-63"/>
      <use x="95.019531" xlink:href="#Calibri-63"/>
      <use x="137.304688" xlink:href="#Calibri-75"/>
      <use x="189.84375" xlink:href="#Calibri-72"/>
      <use x="224.707031" xlink:href="#Calibri-65"/>
      <use x="274.462891" xlink:href="#Calibri-6e"/>
      <use x="327.001953" xlink:href="#Calibri-63"/>
      <use x="369.287109" xlink:href="#Calibri-65"/>
     </g>
    </g>
   </g>
   <g id="patch_7">
    <path d="M 25.018755 168.959432
L 25.018755 5.124368
" style="fill:none;stroke:#000000;stroke-linecap:square;stroke-linejoin:miter;stroke-width:0.5;"/>
   </g>
   <g id="patch_8">
    <path d="M 280.464327 168.959432
L 280.464327 5.124368
" style="fill:none;stroke:#000000;stroke-linecap:square;stroke-linejoin:miter;stroke-width:0.5;"/>
   </g>
   <g id="patch_9">
    <path d="M 25.018755 168.959432
L 280.464327 168.959432
" style="fill:none;stroke:#000000;stroke-linecap:square;stroke-linejoin:miter;stroke-width:0.5;"/>
   </g>
   <g id="patch_10">
    <path d="M 25.018755 5.124368
L 280.464327 5.124368
" style="fill:none;stroke:#000000;stroke-linecap:square;stroke-linejoin:miter;stroke-width:0.5;"/>
   </g>
   <g id="patch_11">
    <path clip-path="url(#p543a5d6ed3)" d="M 36.629918 168.959432
L 77.016569 168.959432
L 77.016569 151.483692
L 36.629918 151.483692
z
" style="fill:#005ea8;"/>
   </g>
   <g id="patch_12">
    <path clip-path="url(#p543a5d6ed3)" d="M 97.209895 168.959432
L 137.596547 168.959432
L 137.596547 88.134134
L 97.209895 88.134134
z
" style="fill:#005ea8;"/>
   </g>
   <g id="patch_13">
    <path clip-path="url(#p543a5d6ed3)" d="M 157.789873 168.959432
L 198.176524 168.959432
L 198.176524 13.862238
L 157.789873 13.862238
z
" style="fill:#005ea8;"/>
   </g>
   <g id="patch_14">
    <path clip-path="url(#p543a5d6ed3)" d="M 218.36985 168.959432
L 258.756502 168.959432
L 258.756502 109.978809
L 218.36985 109.978809
z
" style="fill:#005ea8;"/>
   </g>
   <g id="legend_1">
    <g id="patch_15">
     <path d="M 239.09824 22.336002
L 276.092127 22.336002
Q 277.341327 22.336002 277.341327 21.086802
L 277.341327 9.496568
Q 277.341327 8.247368 276.092127 8.247368
L 239.09824 8.247368
Q 237.84904 8.247368 237.84904 9.496568
L 237.84904 21.086802
Q 237.84904 22.336002 239.09824 22.336002
z
" style="fill:#ffffff;opacity:0.8;stroke:#cccccc;stroke-linejoin:miter;"/>
    </g>
    <g id="patch_16">
     <path d="M 239.09824 13.868768
L 251.59024 13.868768
L 251.59024 9.496568
L 239.09824 9.496568
z
" style="fill:#005ea8;"/>
    </g>
    <g id="text_8">
     <!-- T1 &amp; T2 -->
     <g transform="translate(256.58704 13.868768)scale(0.06246 -0.06246)">
      <defs>
       <path d="M 3072 3813
Q 3072 3753 3065 3709
Q 3059 3666 3045 3639
Q 3031 3613 3011 3600
Q 2991 3588 2966 3588
L 1828 3588
L 1828 81
Q 1828 56 1815 37
Q 1803 19 1772 8
Q 1741 -3 1689 -11
Q 1638 -19 1559 -19
Q 1484 -19 1431 -11
Q 1378 -3 1347 8
Q 1316 19 1303 37
Q 1291 56 1291 81
L 1291 3588
L 153 3588
Q 128 3588 108 3600
Q 88 3613 75 3639
Q 63 3666 55 3709
Q 47 3753 47 3813
Q 47 3872 55 3917
Q 63 3963 75 3991
Q 88 4019 108 4031
Q 128 4044 153 4044
L 2966 4044
Q 2991 4044 3011 4031
Q 3031 4019 3045 3991
Q 3059 3963 3065 3917
Q 3072 3872 3072 3813
z
" id="Calibri-54" transform="scale(0.015625)"/>
       <path id="Calibri-20" transform="scale(0.015625)"/>
       <path d="M 338 1066
Q 338 1238 384 1392
Q 431 1547 531 1692
Q 631 1838 792 1973
Q 953 2109 1181 2247
Q 1056 2416 967 2553
Q 878 2691 820 2809
Q 763 2928 738 3036
Q 713 3144 713 3253
Q 713 3447 778 3623
Q 844 3800 989 3936
Q 1134 4072 1362 4151
Q 1591 4231 1916 4231
Q 2191 4231 2392 4172
Q 2594 4113 2726 4003
Q 2859 3894 2926 3739
Q 2994 3584 2994 3394
Q 2994 3209 2934 3056
Q 2875 2903 2744 2759
Q 2613 2616 2408 2473
Q 2203 2331 1913 2175
Q 2019 2047 2144 1908
Q 2269 1769 2405 1628
Q 2541 1488 2683 1352
Q 2825 1216 2963 1091
Q 3025 1175 3075 1283
Q 3125 1391 3162 1511
Q 3200 1631 3219 1756
Q 3238 1881 3238 2009
L 3238 2122
Q 3238 2153 3248 2173
Q 3259 2194 3284 2208
Q 3309 2222 3357 2228
Q 3406 2234 3484 2234
Q 3553 2234 3601 2231
Q 3650 2228 3681 2217
Q 3713 2206 3727 2182
Q 3741 2159 3741 2119
L 3741 2041
Q 3741 1866 3711 1697
Q 3681 1528 3629 1367
Q 3578 1206 3501 1059
Q 3425 913 3331 788
Q 3472 675 3576 600
Q 3681 525 3754 478
Q 3828 431 3876 412
Q 3925 394 3956 394
Q 3988 394 4016 397
Q 4044 400 4061 387
Q 4078 375 4087 337
Q 4097 300 4097 222
Q 4097 144 4094 97
Q 4091 50 4083 26
Q 4075 3 4056 -12
Q 4038 -28 3988 -40
Q 3938 -53 3856 -53
Q 3794 -53 3719 -31
Q 3644 -9 3544 45
Q 3444 100 3311 194
Q 3178 288 3000 431
Q 2869 325 2723 234
Q 2578 144 2414 80
Q 2250 16 2070 -20
Q 1891 -56 1681 -56
Q 1484 -56 1307 -21
Q 1131 13 981 77
Q 831 141 712 237
Q 594 334 511 457
Q 428 581 383 734
Q 338 888 338 1066
z
M 1259 3294
Q 1259 3209 1282 3121
Q 1306 3034 1354 2939
Q 1403 2844 1473 2734
Q 1544 2625 1641 2491
Q 1869 2619 2023 2726
Q 2178 2834 2272 2934
Q 2366 3034 2408 3134
Q 2450 3234 2450 3347
Q 2450 3438 2417 3520
Q 2384 3603 2312 3667
Q 2241 3731 2131 3768
Q 2022 3806 1869 3806
Q 1703 3806 1589 3764
Q 1475 3722 1401 3651
Q 1328 3581 1293 3487
Q 1259 3394 1259 3294
z
M 897 1119
Q 897 956 951 822
Q 1006 688 1112 589
Q 1219 491 1378 436
Q 1538 381 1747 381
Q 1875 381 1997 407
Q 2119 434 2230 479
Q 2341 525 2441 589
Q 2541 653 2625 725
Q 2463 866 2302 1017
Q 2141 1169 1991 1322
Q 1841 1475 1702 1626
Q 1563 1778 1447 1922
Q 1291 1822 1186 1723
Q 1081 1625 1017 1526
Q 953 1428 925 1328
Q 897 1228 897 1119
z
M 0 4044
L 0 4044
z
" id="Calibri-26" transform="scale(0.015625)"/>
      </defs>
      <use xlink:href="#Calibri-54"/>
      <use x="48.730469" xlink:href="#Calibri-31"/>
      <use x="99.414062" xlink:href="#Calibri-20"/>
      <use x="122.021484" xlink:href="#Calibri-26"/>
      <use x="190.234375" xlink:href="#Calibri-20"/>
      <use x="212.841797" xlink:href="#Calibri-54"/>
      <use x="261.572266" xlink:href="#Calibri-32"/>
     </g>
    </g>
    <g id="patch_17">
     <path d="M 239.09824 19.976185
L 251.59024 19.976185
L 251.59024 15.603985
L 239.09824 15.603985
z
" style="fill:#f17900;"/>
    </g>
    <g id="text_9">
     <!-- T3 &amp; T4 -->
     <g transform="translate(256.58704 19.976185)scale(0.06246 -0.06246)">
      <use xlink:href="#Calibri-54"/>
      <use x="48.730469" xlink:href="#Calibri-33"/>
      <use x="99.414062" xlink:href="#Calibri-20"/>
      <use x="122.021484" xlink:href="#Calibri-26"/>
      <use x="190.234375" xlink:href="#Calibri-20"/>
      <use x="212.841797" xlink:href="#Calibri-54"/>
      <use x="261.572266" xlink:href="#Calibri-34"/>
     </g>
    </g>
   </g>
  </g>
 </g>
 <defs>
  <clipPath id="p543a5d6ed3">
   <rect height="163.835064" width="255.445572" x="25.018755" y="5.124368"/>
  </clipPath>
 </defs>
</svg>
