<?xml version="1.0" encoding="utf-8" standalone="no"?>
<!DOCTYPE svg PUBLIC "-//W3C//DTD SVG 1.1//EN"
  "http://www.w3.org/Graphics/SVG/1.1/DTD/svg11.dtd">
<svg height="175.194417pt" version="1.1" viewBox="0 0 283.464567 175.194417" width="283.464567pt" xmlns="http://www.w3.org/2000/svg" xmlns:xlink="http://www.w3.org/1999/xlink">
 <metadata>
  <rdf:RDF xmlns:cc="http://creativecommons.org/ns#" xmlns:dc="http://purl.org/dc/elements/1.1/" xmlns:rdf="http://www.w3.org/1999/02/22-rdf-syntax-ns#">
   <cc:Work>
    <dc:type rdf:resource="http://purl.org/dc/dcmitype/StillImage"/>
    <dc:date>2021-11-22T11:14:51.795470</dc:date>
    <dc:format>image/svg+xml</dc:format>
    <dc:creator>
     <cc:Agent>
      <dc:title>Matplotlib v3.4.3, https://matplotlib.org/</dc:title>
     </cc:Agent>
    </dc:creator>
   </cc:Work>
  </rdf:RDF>
 </metadata>
 <defs>
  <style type="text/css">*{stroke-linecap:butt;stroke-linejoin:round;}</style>
 </defs>
 <g id="figure_1">
  <g id="patch_1">
   <path d="M 0 175.194417
L 283.464567 175.194417
L 283.464567 0
L 0 0
z
" style="fill:none;"/>
  </g>
  <g id="axes_1">
   <g id="patch_2">
    <path d="M 35.433071 153.295115
L 141.305379 153.295115
L 141.305379 21.02333
L 35.433071 21.02333
z
" style="fill:#ffffff;"/>
   </g>
   <g id="patch_3">
    <path clip-path="url(#pd9b49b1dc9)" d="M 141.305379 21.02333
L 139.966917 21.02333
L 139.966917 40.864098
L 141.305379 40.864098
z
" style="fill:#005ea8;"/>
   </g>
   <g id="patch_4">
    <path clip-path="url(#pd9b49b1dc9)" d="M 141.305379 43.068628
L 119.44384 43.068628
L 119.44384 52.989011
L 141.305379 52.989011
z
" style="fill:#005ea8;"/>
   </g>
   <g id="patch_5">
    <path clip-path="url(#pd9b49b1dc9)" d="M 141.305379 55.193541
L 130.597687 55.193541
L 130.597687 65.113925
L 141.305379 65.113925
z
" style="fill:#005ea8;"/>
   </g>
   <g id="patch_6">
    <path clip-path="url(#pd9b49b1dc9)" d="M 141.305379 67.318455
L 131.936148 67.318455
L 131.936148 87.159223
L 141.305379 87.159223
z
" style="fill:#005ea8;"/>
   </g>
   <g id="patch_7">
    <path clip-path="url(#pd9b49b1dc9)" d="M 141.305379 89.363752
L 138.182302 89.363752
L 138.182302 109.20452
L 141.305379 109.20452
z
" style="fill:#005ea8;"/>
   </g>
   <g id="patch_8">
    <path clip-path="url(#pd9b49b1dc9)" d="M 141.305379 111.40905
L 140.413071 111.40905
L 140.413071 131.249818
L 141.305379 131.249818
z
" style="fill:#005ea8;"/>
   </g>
   <g id="patch_9">
    <path clip-path="url(#pd9b49b1dc9)" d="M 141.305379 133.454347
L 138.628456 133.454347
L 138.628456 153.295115
L 141.305379 153.295115
z
" style="fill:#005ea8;"/>
   </g>
   <g id="matplotlib.axis_1">
    <g id="xtick_1">
     <g id="line2d_1">
      <path clip-path="url(#pd9b49b1dc9)" d="M 141.305379 153.295115
L 141.305379 21.02333
" style="fill:none;stroke:#000000;stroke-linecap:square;stroke-opacity:0.1;stroke-width:0.5;"/>
     </g>
     <g id="line2d_2">
      <defs>
       <path d="M 0 0
L 0 -3
" id="mafb86b7c56" style="stroke:#000000;stroke-width:0.5;"/>
      </defs>
      <g>
       <use style="stroke:#000000;stroke-width:0.5;" x="141.305379" xlink:href="#mafb86b7c56" y="153.295115"/>
      </g>
     </g>
     <g id="text_1">
      <!-- 0 -->
      <g transform="translate(139.722408 159.043371)scale(0.06246 -0.06246)">
       <defs>
        <path d="M 3022 2031
Q 3022 1566 2948 1181
Q 2875 797 2704 520
Q 2534 244 2259 92
Q 1984 -59 1581 -59
Q 1200 -59 939 77
Q 678 213 518 477
Q 359 741 292 1127
Q 225 1513 225 2013
Q 225 2475 300 2861
Q 375 3247 544 3523
Q 713 3800 988 3951
Q 1263 4103 1663 4103
Q 2047 4103 2308 3967
Q 2569 3831 2728 3567
Q 2888 3303 2955 2917
Q 3022 2531 3022 2031
z
M 2472 1994
Q 2472 2297 2450 2537
Q 2428 2778 2386 2962
Q 2344 3147 2276 3280
Q 2209 3413 2115 3498
Q 2022 3584 1901 3623
Q 1781 3663 1631 3663
Q 1366 3663 1200 3538
Q 1034 3413 939 3194
Q 844 2975 809 2681
Q 775 2388 775 2050
Q 775 1597 822 1280
Q 869 963 970 763
Q 1072 563 1230 472
Q 1388 381 1613 381
Q 1788 381 1920 437
Q 2053 494 2148 598
Q 2244 703 2306 850
Q 2369 997 2406 1175
Q 2444 1353 2458 1561
Q 2472 1769 2472 1994
z
" id="Calibri-30" transform="scale(0.015625)"/>
       </defs>
       <use xlink:href="#Calibri-30"/>
      </g>
     </g>
    </g>
    <g id="xtick_2">
     <g id="line2d_3">
      <path clip-path="url(#pd9b49b1dc9)" d="M 118.997687 153.295115
L 118.997687 21.02333
" style="fill:none;stroke:#000000;stroke-linecap:square;stroke-opacity:0.1;stroke-width:0.5;"/>
     </g>
     <g id="line2d_4">
      <g>
       <use style="stroke:#000000;stroke-width:0.5;" x="118.997687" xlink:href="#mafb86b7c56" y="153.295115"/>
      </g>
     </g>
     <g id="text_2">
      <!-- 50 -->
      <g transform="translate(115.831745 159.043371)scale(0.06246 -0.06246)">
       <defs>
        <path d="M 2869 1300
Q 2869 975 2759 722
Q 2650 469 2450 295
Q 2250 122 1973 31
Q 1697 -59 1359 -59
Q 1172 -59 1003 -32
Q 834 -6 703 33
Q 572 72 487 109
Q 403 147 379 169
Q 356 191 347 209
Q 338 228 330 254
Q 322 281 319 322
Q 316 363 316 419
Q 316 472 320 514
Q 325 556 337 582
Q 350 609 367 621
Q 384 634 406 634
Q 438 634 503 595
Q 569 556 680 511
Q 791 466 955 425
Q 1119 384 1344 384
Q 1553 384 1728 434
Q 1903 484 2029 590
Q 2156 697 2228 858
Q 2300 1019 2300 1250
Q 2300 1444 2239 1592
Q 2178 1741 2051 1839
Q 1925 1938 1731 1986
Q 1538 2034 1269 2034
Q 1078 2034 940 2015
Q 803 1997 684 1997
Q 597 1997 559 2037
Q 522 2078 522 2194
L 522 3841
Q 522 3944 570 3994
Q 619 4044 709 4044
L 2500 4044
Q 2525 4044 2548 4030
Q 2572 4016 2587 3987
Q 2603 3959 2611 3915
Q 2619 3872 2619 3813
Q 2619 3700 2587 3637
Q 2556 3575 2500 3575
L 991 3575
L 991 2441
Q 1100 2456 1214 2459
Q 1328 2463 1478 2463
Q 1825 2463 2084 2380
Q 2344 2297 2517 2145
Q 2691 1994 2780 1778
Q 2869 1563 2869 1300
z
" id="Calibri-35" transform="scale(0.015625)"/>
       </defs>
       <use xlink:href="#Calibri-35"/>
       <use x="50.683594" xlink:href="#Calibri-30"/>
      </g>
     </g>
    </g>
    <g id="xtick_3">
     <g id="line2d_5">
      <path clip-path="url(#pd9b49b1dc9)" d="M 96.689994 153.295115
L 96.689994 21.02333
" style="fill:none;stroke:#000000;stroke-linecap:square;stroke-opacity:0.1;stroke-width:0.5;"/>
     </g>
     <g id="line2d_6">
      <g>
       <use style="stroke:#000000;stroke-width:0.5;" x="96.689994" xlink:href="#mafb86b7c56" y="153.295115"/>
      </g>
     </g>
     <g id="text_3">
      <!-- 100 -->
      <g transform="translate(91.941082 159.043371)scale(0.06246 -0.06246)">
       <defs>
        <path d="M 2897 213
Q 2897 153 2887 112
Q 2878 72 2862 47
Q 2847 22 2826 11
Q 2806 0 2784 0
L 672 0
Q 650 0 631 11
Q 613 22 595 47
Q 578 72 568 112
Q 559 153 559 213
Q 559 269 568 309
Q 578 350 592 376
Q 606 403 626 417
Q 647 431 672 431
L 1516 431
L 1516 3506
L 734 3041
Q 675 3009 639 3003
Q 603 2997 581 3017
Q 559 3038 551 3084
Q 544 3131 544 3203
Q 544 3256 548 3293
Q 553 3331 562 3356
Q 572 3381 589 3400
Q 606 3419 634 3438
L 1566 4034
Q 1578 4044 1597 4050
Q 1616 4056 1644 4062
Q 1672 4069 1709 4070
Q 1747 4072 1803 4072
Q 1878 4072 1928 4065
Q 1978 4059 2006 4048
Q 2034 4038 2043 4020
Q 2053 4003 2053 3984
L 2053 431
L 2784 431
Q 2809 431 2831 417
Q 2853 403 2867 376
Q 2881 350 2889 309
Q 2897 269 2897 213
z
" id="Calibri-31" transform="scale(0.015625)"/>
       </defs>
       <use xlink:href="#Calibri-31"/>
       <use x="50.683594" xlink:href="#Calibri-30"/>
       <use x="101.367188" xlink:href="#Calibri-30"/>
      </g>
     </g>
    </g>
    <g id="xtick_4">
     <g id="line2d_7">
      <path clip-path="url(#pd9b49b1dc9)" d="M 74.382302 153.295115
L 74.382302 21.02333
" style="fill:none;stroke:#000000;stroke-linecap:square;stroke-opacity:0.1;stroke-width:0.5;"/>
     </g>
     <g id="line2d_8">
      <g>
       <use style="stroke:#000000;stroke-width:0.5;" x="74.382302" xlink:href="#mafb86b7c56" y="153.295115"/>
      </g>
     </g>
     <g id="text_4">
      <!-- 150 -->
      <g transform="translate(69.63339 159.043371)scale(0.06246 -0.06246)">
       <use xlink:href="#Calibri-31"/>
       <use x="50.683594" xlink:href="#Calibri-35"/>
       <use x="101.367188" xlink:href="#Calibri-30"/>
      </g>
     </g>
    </g>
    <g id="xtick_5">
     <g id="line2d_9">
      <path clip-path="url(#pd9b49b1dc9)" d="M 52.074609 153.295115
L 52.074609 21.02333
" style="fill:none;stroke:#000000;stroke-linecap:square;stroke-opacity:0.1;stroke-width:0.5;"/>
     </g>
     <g id="line2d_10">
      <g>
       <use style="stroke:#000000;stroke-width:0.5;" x="52.074609" xlink:href="#mafb86b7c56" y="153.295115"/>
      </g>
     </g>
     <g id="text_5">
      <!-- 200 -->
      <g transform="translate(47.325698 159.043371)scale(0.06246 -0.06246)">
       <defs>
        <path d="M 2888 231
Q 2888 175 2880 131
Q 2872 88 2858 58
Q 2844 28 2820 14
Q 2797 0 2769 0
L 534 0
Q 491 0 458 11
Q 425 22 401 47
Q 378 72 367 119
Q 356 166 356 234
Q 356 297 361 344
Q 366 391 381 427
Q 397 463 420 498
Q 444 534 481 575
L 1266 1406
Q 1538 1694 1702 1922
Q 1866 2150 1955 2337
Q 2044 2525 2072 2678
Q 2100 2831 2100 2966
Q 2100 3100 2056 3220
Q 2013 3341 1930 3431
Q 1847 3522 1722 3575
Q 1597 3628 1434 3628
Q 1244 3628 1092 3575
Q 941 3522 827 3459
Q 713 3397 636 3344
Q 559 3291 522 3291
Q 500 3291 483 3303
Q 466 3316 455 3344
Q 444 3372 437 3419
Q 431 3466 431 3531
Q 431 3578 434 3612
Q 438 3647 445 3672
Q 453 3697 465 3719
Q 478 3741 515 3773
Q 553 3806 645 3862
Q 738 3919 877 3973
Q 1016 4028 1183 4065
Q 1350 4103 1534 4103
Q 1828 4103 2048 4020
Q 2269 3938 2414 3794
Q 2559 3650 2631 3459
Q 2703 3269 2703 3053
Q 2703 2859 2668 2667
Q 2634 2475 2523 2251
Q 2413 2028 2203 1754
Q 1994 1481 1647 1125
L 1006 456
L 2766 456
Q 2791 456 2814 442
Q 2838 428 2855 400
Q 2872 372 2880 330
Q 2888 288 2888 231
z
" id="Calibri-32" transform="scale(0.015625)"/>
       </defs>
       <use xlink:href="#Calibri-32"/>
       <use x="50.683594" xlink:href="#Calibri-30"/>
       <use x="101.367188" xlink:href="#Calibri-30"/>
      </g>
     </g>
    </g>
   </g>
   <g id="matplotlib.axis_2">
    <g id="ytick_1">
     <g id="line2d_11">
      <defs>
       <path d="M 0 0
L -3 0
" id="m9bcbf4385f" style="stroke:#000000;stroke-width:0.5;"/>
      </defs>
      <g>
       <use style="stroke:#000000;stroke-width:0.5;" x="141.305379" xlink:href="#m9bcbf4385f" y="30.943714"/>
      </g>
     </g>
     <g id="text_6">
      <!-- I -->
      <g transform="translate(147.053635 30.393773)rotate(-90)scale(0.06246 -0.06246)">
       <defs>
        <path d="M 1075 81
Q 1075 56 1062 37
Q 1050 19 1019 8
Q 988 -3 936 -11
Q 884 -19 806 -19
Q 731 -19 678 -11
Q 625 -3 594 8
Q 563 19 550 37
Q 538 56 538 81
L 538 3963
Q 538 3988 552 4006
Q 566 4025 598 4036
Q 631 4047 682 4055
Q 734 4063 806 4063
Q 884 4063 936 4055
Q 988 4047 1019 4036
Q 1050 4025 1062 4006
Q 1075 3988 1075 3963
L 1075 81
z
" id="Calibri-49" transform="scale(0.015625)"/>
       </defs>
       <use xlink:href="#Calibri-49"/>
      </g>
     </g>
    </g>
    <g id="ytick_2">
     <g id="line2d_12">
      <g>
       <use style="stroke:#000000;stroke-width:0.5;" x="141.305379" xlink:href="#m9bcbf4385f" y="48.028819"/>
      </g>
     </g>
     <g id="text_7">
      <!-- IIa -->
      <g transform="translate(147.053635 52.04529)rotate(-90)scale(0.06246 -0.06246)">
       <defs>
        <path d="M 2597 75
Q 2597 38 2572 19
Q 2547 0 2503 -9
Q 2459 -19 2375 -19
Q 2294 -19 2245 -9
Q 2197 0 2175 19
Q 2153 38 2153 75
L 2153 356
Q 1969 159 1742 50
Q 1516 -59 1263 -59
Q 1041 -59 861 -1
Q 681 56 554 165
Q 428 275 358 434
Q 288 594 288 797
Q 288 1034 384 1209
Q 481 1384 662 1500
Q 844 1616 1106 1673
Q 1369 1731 1697 1731
L 2084 1731
L 2084 1950
Q 2084 2113 2050 2238
Q 2016 2363 1939 2445
Q 1863 2528 1741 2570
Q 1619 2613 1441 2613
Q 1250 2613 1098 2567
Q 947 2522 833 2467
Q 719 2413 642 2367
Q 566 2322 528 2322
Q 503 2322 484 2334
Q 466 2347 452 2372
Q 438 2397 431 2436
Q 425 2475 425 2522
Q 425 2600 436 2645
Q 447 2691 489 2731
Q 531 2772 634 2826
Q 738 2881 872 2926
Q 1006 2972 1165 3001
Q 1325 3031 1488 3031
Q 1791 3031 2003 2962
Q 2216 2894 2347 2761
Q 2478 2628 2537 2431
Q 2597 2234 2597 1972
L 2597 75
z
M 2084 1359
L 1644 1359
Q 1431 1359 1275 1323
Q 1119 1288 1016 1217
Q 913 1147 864 1048
Q 816 950 816 822
Q 816 603 955 473
Q 1094 344 1344 344
Q 1547 344 1720 447
Q 1894 550 2084 763
L 2084 1359
z
" id="Calibri-61" transform="scale(0.015625)"/>
       </defs>
       <use xlink:href="#Calibri-49"/>
       <use x="25.195312" xlink:href="#Calibri-49"/>
       <use x="50.390625" xlink:href="#Calibri-61"/>
      </g>
     </g>
    </g>
    <g id="ytick_3">
     <g id="line2d_13">
      <g>
       <use style="stroke:#000000;stroke-width:0.5;" x="141.305379" xlink:href="#m9bcbf4385f" y="60.153733"/>
      </g>
     </g>
     <g id="text_8">
      <!-- IIb -->
      <g transform="translate(147.053635 64.460057)rotate(-90)scale(0.06246 -0.06246)">
       <defs>
        <path d="M 3066 1522
Q 3066 1156 2986 864
Q 2906 572 2751 365
Q 2597 159 2372 50
Q 2147 -59 1856 -59
Q 1722 -59 1608 -32
Q 1494 -6 1384 53
Q 1275 113 1165 203
Q 1056 294 934 422
L 934 78
Q 934 53 921 34
Q 909 16 881 5
Q 853 -6 811 -12
Q 769 -19 703 -19
Q 641 -19 597 -12
Q 553 -6 525 5
Q 497 16 487 34
Q 478 53 478 78
L 478 4253
Q 478 4278 489 4297
Q 500 4316 529 4328
Q 559 4341 609 4347
Q 659 4353 734 4353
Q 813 4353 863 4347
Q 913 4341 941 4328
Q 969 4316 981 4297
Q 994 4278 994 4253
L 994 2569
Q 1119 2697 1236 2784
Q 1353 2872 1465 2926
Q 1578 2981 1690 3006
Q 1803 3031 1928 3031
Q 2234 3031 2451 2909
Q 2669 2788 2805 2583
Q 2941 2378 3003 2103
Q 3066 1828 3066 1522
z
M 2522 1463
Q 2522 1678 2489 1881
Q 2456 2084 2375 2240
Q 2294 2397 2159 2492
Q 2025 2588 1825 2588
Q 1725 2588 1628 2559
Q 1531 2531 1431 2465
Q 1331 2400 1223 2297
Q 1116 2194 994 2038
L 994 916
Q 1206 656 1400 520
Q 1594 384 1803 384
Q 1997 384 2134 478
Q 2272 572 2358 726
Q 2444 881 2483 1073
Q 2522 1266 2522 1463
z
" id="Calibri-62" transform="scale(0.015625)"/>
       </defs>
       <use xlink:href="#Calibri-49"/>
       <use x="25.195312" xlink:href="#Calibri-49"/>
       <use x="50.390625" xlink:href="#Calibri-62"/>
      </g>
     </g>
    </g>
    <g id="ytick_4">
     <g id="line2d_14">
      <g>
       <use style="stroke:#000000;stroke-width:0.5;" x="141.305379" xlink:href="#m9bcbf4385f" y="77.238839"/>
      </g>
     </g>
     <g id="text_9">
      <!-- III -->
      <g transform="translate(147.053635 79.837272)rotate(-90)scale(0.06246 -0.06246)">
       <use xlink:href="#Calibri-49"/>
       <use x="25.195312" xlink:href="#Calibri-49"/>
       <use x="50.390625" xlink:href="#Calibri-49"/>
      </g>
     </g>
    </g>
    <g id="ytick_5">
     <g id="line2d_15">
      <g>
       <use style="stroke:#000000;stroke-width:0.5;" x="141.305379" xlink:href="#m9bcbf4385f" y="99.284136"/>
      </g>
     </g>
     <g id="text_10">
      <!-- IV -->
      <g transform="translate(147.053635 102.277824)rotate(-90)scale(0.06246 -0.06246)">
       <defs>
        <path d="M 2172 94
Q 2159 59 2137 37
Q 2116 16 2077 3
Q 2038 -9 1977 -14
Q 1916 -19 1825 -19
Q 1756 -19 1704 -17
Q 1653 -16 1615 -9
Q 1578 -3 1551 5
Q 1525 13 1506 25
Q 1488 38 1477 55
Q 1466 72 1456 97
L 134 3853
Q 109 3922 107 3964
Q 106 4006 134 4028
Q 163 4050 225 4056
Q 288 4063 394 4063
Q 481 4063 532 4058
Q 584 4053 612 4040
Q 641 4028 655 4008
Q 669 3988 681 3956
L 1841 553
L 1844 553
L 2972 3950
Q 2981 3984 2993 4006
Q 3006 4028 3037 4040
Q 3069 4053 3125 4058
Q 3181 4063 3275 4063
Q 3372 4063 3428 4055
Q 3484 4047 3504 4025
Q 3525 4003 3520 3961
Q 3516 3919 3491 3850
L 2172 94
z
" id="Calibri-56" transform="scale(0.015625)"/>
       </defs>
       <use xlink:href="#Calibri-49"/>
       <use x="25.195312" xlink:href="#Calibri-56"/>
      </g>
     </g>
    </g>
    <g id="ytick_6">
     <g id="line2d_16">
      <g>
       <use style="stroke:#000000;stroke-width:0.5;" x="141.305379" xlink:href="#m9bcbf4385f" y="121.329434"/>
      </g>
     </g>
     <g id="text_11">
      <!-- V -->
      <g transform="translate(147.053635 122.748935)rotate(-90)scale(0.06246 -0.06246)">
       <use xlink:href="#Calibri-56"/>
      </g>
     </g>
    </g>
    <g id="ytick_7">
     <g id="line2d_17">
      <g>
       <use style="stroke:#000000;stroke-width:0.5;" x="141.305379" xlink:href="#m9bcbf4385f" y="143.374731"/>
      </g>
     </g>
     <g id="text_12">
      <!-- VII -->
      <g transform="translate(147.053635 147.942607)rotate(-90)scale(0.06246 -0.06246)">
       <use xlink:href="#Calibri-56"/>
       <use x="56.738281" xlink:href="#Calibri-49"/>
       <use x="81.933594" xlink:href="#Calibri-49"/>
      </g>
     </g>
    </g>
   </g>
   <g id="patch_10">
    <path d="M 35.433071 153.295115
L 35.433071 21.02333
" style="fill:none;stroke:#000000;stroke-linecap:square;stroke-linejoin:miter;stroke-width:0.5;"/>
   </g>
   <g id="patch_11">
    <path d="M 141.305379 153.295115
L 141.305379 21.02333
" style="fill:none;stroke:#000000;stroke-linecap:square;stroke-linejoin:miter;stroke-width:0.5;"/>
   </g>
   <g id="patch_12">
    <path d="M 35.433071 153.295115
L 141.305379 153.295115
" style="fill:none;stroke:#000000;stroke-linecap:square;stroke-linejoin:miter;stroke-width:0.5;"/>
   </g>
   <g id="patch_13">
    <path d="M 35.433071 21.02333
L 141.305379 21.02333
" style="fill:none;stroke:#000000;stroke-linecap:square;stroke-linejoin:miter;stroke-width:0.5;"/>
   </g>
   <g id="text_13">
    <!-- contralateral -->
    <g transform="translate(64.192975 13.02333)scale(0.09 -0.09)">
     <defs>
      <path d="M 2503 550
Q 2503 469 2498 414
Q 2494 359 2486 321
Q 2478 284 2467 261
Q 2456 238 2418 202
Q 2381 166 2290 114
Q 2200 63 2084 22
Q 1969 -19 1833 -44
Q 1697 -69 1553 -69
Q 1231 -69 982 31
Q 734 131 565 326
Q 397 522 311 803
Q 225 1084 225 1447
Q 225 1866 329 2170
Q 434 2475 621 2675
Q 809 2875 1065 2972
Q 1322 3069 1628 3069
Q 1753 3069 1873 3047
Q 1994 3025 2098 2987
Q 2203 2950 2286 2903
Q 2369 2856 2403 2822
Q 2438 2788 2452 2764
Q 2466 2741 2473 2703
Q 2481 2666 2486 2611
Q 2491 2556 2491 2478
Q 2491 2297 2459 2223
Q 2428 2150 2378 2150
Q 2325 2150 2265 2194
Q 2206 2238 2125 2291
Q 2044 2344 1931 2387
Q 1819 2431 1663 2431
Q 1356 2431 1193 2195
Q 1031 1959 1031 1503
Q 1031 1278 1072 1106
Q 1113 934 1192 818
Q 1272 703 1392 645
Q 1513 588 1672 588
Q 1834 588 1951 636
Q 2069 684 2156 743
Q 2244 803 2303 851
Q 2363 900 2403 900
Q 2431 900 2450 884
Q 2469 869 2480 826
Q 2491 784 2497 718
Q 2503 653 2503 550
z
" id="Calibri-Bold-63" transform="scale(0.015625)"/>
      <path d="M 3213 1528
Q 3213 1172 3119 878
Q 3025 584 2834 371
Q 2644 159 2356 43
Q 2069 -72 1684 -72
Q 1313 -72 1038 31
Q 763 134 581 331
Q 400 528 312 815
Q 225 1103 225 1472
Q 225 1828 320 2123
Q 416 2419 606 2630
Q 797 2841 1083 2956
Q 1369 3072 1753 3072
Q 2128 3072 2403 2970
Q 2678 2869 2858 2672
Q 3038 2475 3125 2187
Q 3213 1900 3213 1528
z
M 2403 1497
Q 2403 1703 2370 1876
Q 2338 2050 2259 2178
Q 2181 2306 2051 2378
Q 1922 2450 1725 2450
Q 1550 2450 1419 2386
Q 1288 2322 1203 2198
Q 1119 2075 1076 1901
Q 1034 1728 1034 1506
Q 1034 1300 1068 1126
Q 1103 953 1179 825
Q 1256 697 1387 626
Q 1519 556 1713 556
Q 1891 556 2022 620
Q 2153 684 2237 806
Q 2322 928 2362 1101
Q 2403 1275 2403 1497
z
" id="Calibri-Bold-6f" transform="scale(0.015625)"/>
      <path d="M 3056 106
Q 3056 75 3037 51
Q 3019 28 2975 12
Q 2931 -3 2854 -11
Q 2778 -19 2666 -19
Q 2550 -19 2473 -11
Q 2397 -3 2353 12
Q 2309 28 2290 51
Q 2272 75 2272 106
L 2272 1697
Q 2272 1900 2242 2015
Q 2213 2131 2156 2214
Q 2100 2297 2011 2342
Q 1922 2388 1803 2388
Q 1653 2388 1500 2278
Q 1347 2169 1181 1959
L 1181 106
Q 1181 75 1162 51
Q 1144 28 1098 12
Q 1053 -3 978 -11
Q 903 -19 788 -19
Q 672 -19 597 -11
Q 522 -3 476 12
Q 431 28 412 51
Q 394 75 394 106
L 394 2894
Q 394 2925 409 2948
Q 425 2972 465 2987
Q 506 3003 570 3011
Q 634 3019 731 3019
Q 831 3019 897 3011
Q 963 3003 998 2987
Q 1034 2972 1050 2948
Q 1066 2925 1066 2894
L 1066 2572
Q 1297 2822 1536 2947
Q 1775 3072 2034 3072
Q 2319 3072 2514 2978
Q 2709 2884 2829 2723
Q 2950 2563 3003 2347
Q 3056 2131 3056 1828
L 3056 106
z
" id="Calibri-Bold-6e" transform="scale(0.015625)"/>
      <path d="M 2044 381
Q 2044 244 2026 170
Q 2009 97 1981 67
Q 1953 38 1898 14
Q 1844 -9 1770 -26
Q 1697 -44 1611 -53
Q 1525 -63 1438 -63
Q 1203 -63 1031 -3
Q 859 56 746 179
Q 634 303 581 490
Q 528 678 528 934
L 528 2363
L 194 2363
Q 134 2363 103 2436
Q 72 2509 72 2681
Q 72 2772 80 2834
Q 88 2897 103 2933
Q 119 2969 142 2984
Q 166 3000 197 3000
L 528 3000
L 528 3622
Q 528 3653 545 3678
Q 563 3703 608 3720
Q 653 3738 729 3745
Q 806 3753 919 3753
Q 1034 3753 1111 3745
Q 1188 3738 1231 3720
Q 1275 3703 1294 3678
Q 1313 3653 1313 3622
L 1313 3000
L 1919 3000
Q 1950 3000 1973 2984
Q 1997 2969 2012 2933
Q 2028 2897 2036 2834
Q 2044 2772 2044 2681
Q 2044 2509 2012 2436
Q 1981 2363 1922 2363
L 1313 2363
L 1313 1053
Q 1313 825 1384 711
Q 1456 597 1641 597
Q 1703 597 1753 608
Q 1803 619 1842 633
Q 1881 647 1907 658
Q 1934 669 1956 669
Q 1975 669 1992 658
Q 2009 647 2018 614
Q 2028 581 2036 525
Q 2044 469 2044 381
z
" id="Calibri-Bold-74" transform="scale(0.015625)"/>
      <path d="M 2184 2634
Q 2184 2522 2178 2450
Q 2172 2378 2159 2337
Q 2147 2297 2126 2281
Q 2106 2266 2075 2266
Q 2050 2266 2019 2277
Q 1988 2288 1948 2300
Q 1909 2313 1862 2323
Q 1816 2334 1759 2334
Q 1694 2334 1628 2307
Q 1563 2281 1492 2225
Q 1422 2169 1345 2075
Q 1269 1981 1181 1844
L 1181 106
Q 1181 75 1162 51
Q 1144 28 1098 12
Q 1053 -3 978 -11
Q 903 -19 788 -19
Q 672 -19 597 -11
Q 522 -3 476 12
Q 431 28 412 51
Q 394 75 394 106
L 394 2894
Q 394 2925 409 2948
Q 425 2972 465 2987
Q 506 3003 570 3011
Q 634 3019 731 3019
Q 831 3019 897 3011
Q 963 3003 998 2987
Q 1034 2972 1050 2948
Q 1066 2925 1066 2894
L 1066 2547
Q 1175 2703 1272 2804
Q 1369 2906 1456 2965
Q 1544 3025 1631 3048
Q 1719 3072 1806 3072
Q 1847 3072 1894 3067
Q 1941 3063 1991 3052
Q 2041 3041 2078 3027
Q 2116 3013 2133 2997
Q 2150 2981 2158 2962
Q 2166 2944 2172 2911
Q 2178 2878 2181 2812
Q 2184 2747 2184 2634
z
" id="Calibri-Bold-72" transform="scale(0.015625)"/>
      <path d="M 2769 97
Q 2769 53 2737 28
Q 2706 3 2639 -8
Q 2572 -19 2441 -19
Q 2300 -19 2236 -8
Q 2172 3 2145 28
Q 2119 53 2119 97
L 2119 319
Q 1947 134 1726 31
Q 1506 -72 1238 -72
Q 1016 -72 830 -14
Q 644 44 508 158
Q 372 272 297 440
Q 222 609 222 834
Q 222 1078 317 1258
Q 413 1438 602 1555
Q 791 1672 1072 1728
Q 1353 1784 1725 1784
L 1997 1784
L 1997 1953
Q 1997 2084 1970 2182
Q 1944 2281 1883 2347
Q 1822 2413 1720 2444
Q 1619 2475 1469 2475
Q 1272 2475 1117 2431
Q 963 2388 844 2334
Q 725 2281 645 2237
Q 566 2194 516 2194
Q 481 2194 454 2216
Q 428 2238 411 2278
Q 394 2319 384 2378
Q 375 2438 375 2509
Q 375 2606 390 2662
Q 406 2719 450 2764
Q 494 2809 603 2864
Q 713 2919 859 2966
Q 1006 3013 1179 3042
Q 1353 3072 1538 3072
Q 1866 3072 2098 3008
Q 2331 2944 2481 2811
Q 2631 2678 2700 2468
Q 2769 2259 2769 1972
L 2769 97
z
M 1997 1291
L 1697 1291
Q 1506 1291 1372 1262
Q 1238 1234 1153 1178
Q 1069 1122 1030 1042
Q 991 963 991 859
Q 991 684 1102 584
Q 1213 484 1409 484
Q 1575 484 1714 568
Q 1853 653 1997 816
L 1997 1291
z
" id="Calibri-Bold-61" transform="scale(0.015625)"/>
      <path d="M 1181 106
Q 1181 75 1162 51
Q 1144 28 1098 12
Q 1053 -3 978 -11
Q 903 -19 788 -19
Q 672 -19 597 -11
Q 522 -3 476 12
Q 431 28 412 51
Q 394 75 394 106
L 394 4216
Q 394 4247 412 4272
Q 431 4297 476 4314
Q 522 4331 597 4340
Q 672 4350 788 4350
Q 903 4350 978 4340
Q 1053 4331 1098 4314
Q 1144 4297 1162 4272
Q 1181 4247 1181 4216
L 1181 106
z
" id="Calibri-Bold-6c" transform="scale(0.015625)"/>
      <path d="M 2969 1581
Q 2969 1438 2905 1369
Q 2841 1300 2728 1300
L 1031 1300
Q 1031 1122 1073 976
Q 1116 831 1208 729
Q 1300 628 1445 575
Q 1591 522 1794 522
Q 2000 522 2156 551
Q 2313 581 2427 617
Q 2541 653 2616 683
Q 2691 713 2738 713
Q 2766 713 2784 702
Q 2803 691 2815 662
Q 2828 634 2833 582
Q 2838 531 2838 453
Q 2838 384 2834 336
Q 2831 288 2825 253
Q 2819 219 2806 195
Q 2794 172 2773 150
Q 2753 128 2662 90
Q 2572 53 2431 17
Q 2291 -19 2109 -45
Q 1928 -72 1722 -72
Q 1350 -72 1070 22
Q 791 116 603 306
Q 416 497 323 787
Q 231 1078 231 1469
Q 231 1841 328 2139
Q 425 2438 609 2645
Q 794 2853 1058 2962
Q 1322 3072 1653 3072
Q 2003 3072 2251 2969
Q 2500 2866 2659 2683
Q 2819 2500 2894 2250
Q 2969 2000 2969 1706
L 2969 1581
z
M 2206 1806
Q 2216 2138 2073 2327
Q 1931 2516 1634 2516
Q 1484 2516 1373 2459
Q 1263 2403 1189 2308
Q 1116 2213 1077 2083
Q 1038 1953 1031 1806
L 2206 1806
z
" id="Calibri-Bold-65" transform="scale(0.015625)"/>
     </defs>
     <use xlink:href="#Calibri-Bold-63"/>
     <use x="41.845703" xlink:href="#Calibri-Bold-6f"/>
     <use x="95.605469" xlink:href="#Calibri-Bold-6e"/>
     <use x="149.267578" xlink:href="#Calibri-Bold-74"/>
     <use x="183.935547" xlink:href="#Calibri-Bold-72"/>
     <use x="219.482422" xlink:href="#Calibri-Bold-61"/>
     <use x="268.847656" xlink:href="#Calibri-Bold-6c"/>
     <use x="293.408203" xlink:href="#Calibri-Bold-61"/>
     <use x="342.773438" xlink:href="#Calibri-Bold-74"/>
     <use x="377.441406" xlink:href="#Calibri-Bold-65"/>
     <use x="427.783203" xlink:href="#Calibri-Bold-72"/>
     <use x="463.330078" xlink:href="#Calibri-Bold-61"/>
     <use x="512.695312" xlink:href="#Calibri-Bold-6c"/>
    </g>
   </g>
  </g>
  <g id="axes_2">
   <g id="patch_14">
    <path d="M 149.245802 153.295115
L 255.11811 153.295115
L 255.11811 21.02333
L 149.245802 21.02333
z
" style="fill:#ffffff;"/>
   </g>
   <g id="patch_15">
    <path clip-path="url(#pc78c1e5a30)" d="M 149.245802 21.02333
L 162.630418 21.02333
L 162.630418 40.864098
L 149.245802 40.864098
z
" style="fill:#005ea8;"/>
   </g>
   <g id="patch_16">
    <path clip-path="url(#pc78c1e5a30)" d="M 149.245802 43.068628
L 250.076572 43.068628
L 250.076572 52.989011
L 149.245802 52.989011
z
" style="fill:#005ea8;"/>
   </g>
   <g id="patch_17">
    <path clip-path="url(#pc78c1e5a30)" d="M 149.245802 55.193541
L 202.784264 55.193541
L 202.784264 65.113925
L 149.245802 65.113925
z
" style="fill:#005ea8;"/>
   </g>
   <g id="patch_18">
    <path clip-path="url(#pc78c1e5a30)" d="M 149.245802 67.318455
L 199.661187 67.318455
L 199.661187 87.159223
L 149.245802 87.159223
z
" style="fill:#005ea8;"/>
   </g>
   <g id="patch_19">
    <path clip-path="url(#pc78c1e5a30)" d="M 149.245802 89.363752
L 163.076571 89.363752
L 163.076571 109.20452
L 149.245802 109.20452
z
" style="fill:#005ea8;"/>
   </g>
   <g id="patch_20">
    <path clip-path="url(#pc78c1e5a30)" d="M 149.245802 111.40905
L 156.384264 111.40905
L 156.384264 131.249818
L 149.245802 131.249818
z
" style="fill:#005ea8;"/>
   </g>
   <g id="patch_21">
    <path clip-path="url(#pc78c1e5a30)" d="M 149.245802 133.454347
L 162.630418 133.454347
L 162.630418 153.295115
L 149.245802 153.295115
z
" style="fill:#005ea8;"/>
   </g>
   <g id="matplotlib.axis_3">
    <g id="xtick_6">
     <g id="line2d_18">
      <path clip-path="url(#pc78c1e5a30)" d="M 149.245802 153.295115
L 149.245802 21.02333
" style="fill:none;stroke:#000000;stroke-linecap:square;stroke-opacity:0.1;stroke-width:0.5;"/>
     </g>
     <g id="line2d_19">
      <g>
       <use style="stroke:#000000;stroke-width:0.5;" x="149.245802" xlink:href="#mafb86b7c56" y="153.295115"/>
      </g>
     </g>
     <g id="text_14">
      <!-- 0 -->
      <g transform="translate(147.662831 159.043371)scale(0.06246 -0.06246)">
       <use xlink:href="#Calibri-30"/>
      </g>
     </g>
    </g>
    <g id="xtick_7">
     <g id="line2d_20">
      <path clip-path="url(#pc78c1e5a30)" d="M 171.553495 153.295115
L 171.553495 21.02333
" style="fill:none;stroke:#000000;stroke-linecap:square;stroke-opacity:0.1;stroke-width:0.5;"/>
     </g>
     <g id="line2d_21">
      <g>
       <use style="stroke:#000000;stroke-width:0.5;" x="171.553495" xlink:href="#mafb86b7c56" y="153.295115"/>
      </g>
     </g>
     <g id="text_15">
      <!-- 50 -->
      <g transform="translate(168.387553 159.043371)scale(0.06246 -0.06246)">
       <use xlink:href="#Calibri-35"/>
       <use x="50.683594" xlink:href="#Calibri-30"/>
      </g>
     </g>
    </g>
    <g id="xtick_8">
     <g id="line2d_22">
      <path clip-path="url(#pc78c1e5a30)" d="M 193.861187 153.295115
L 193.861187 21.02333
" style="fill:none;stroke:#000000;stroke-linecap:square;stroke-opacity:0.1;stroke-width:0.5;"/>
     </g>
     <g id="line2d_23">
      <g>
       <use style="stroke:#000000;stroke-width:0.5;" x="193.861187" xlink:href="#mafb86b7c56" y="153.295115"/>
      </g>
     </g>
     <g id="text_16">
      <!-- 100 -->
      <g transform="translate(189.112275 159.043371)scale(0.06246 -0.06246)">
       <use xlink:href="#Calibri-31"/>
       <use x="50.683594" xlink:href="#Calibri-30"/>
       <use x="101.367188" xlink:href="#Calibri-30"/>
      </g>
     </g>
    </g>
    <g id="xtick_9">
     <g id="line2d_24">
      <path clip-path="url(#pc78c1e5a30)" d="M 216.168879 153.295115
L 216.168879 21.02333
" style="fill:none;stroke:#000000;stroke-linecap:square;stroke-opacity:0.1;stroke-width:0.5;"/>
     </g>
     <g id="line2d_25">
      <g>
       <use style="stroke:#000000;stroke-width:0.5;" x="216.168879" xlink:href="#mafb86b7c56" y="153.295115"/>
      </g>
     </g>
     <g id="text_17">
      <!-- 150 -->
      <g transform="translate(211.419967 159.043371)scale(0.06246 -0.06246)">
       <use xlink:href="#Calibri-31"/>
       <use x="50.683594" xlink:href="#Calibri-35"/>
       <use x="101.367188" xlink:href="#Calibri-30"/>
      </g>
     </g>
    </g>
    <g id="xtick_10">
     <g id="line2d_26">
      <path clip-path="url(#pc78c1e5a30)" d="M 238.476572 153.295115
L 238.476572 21.02333
" style="fill:none;stroke:#000000;stroke-linecap:square;stroke-opacity:0.1;stroke-width:0.5;"/>
     </g>
     <g id="line2d_27">
      <g>
       <use style="stroke:#000000;stroke-width:0.5;" x="238.476572" xlink:href="#mafb86b7c56" y="153.295115"/>
      </g>
     </g>
     <g id="text_18">
      <!-- 200 -->
      <g transform="translate(233.72766 159.043371)scale(0.06246 -0.06246)">
       <use xlink:href="#Calibri-32"/>
       <use x="50.683594" xlink:href="#Calibri-30"/>
       <use x="101.367188" xlink:href="#Calibri-30"/>
      </g>
     </g>
    </g>
   </g>
   <g id="matplotlib.axis_4">
    <g id="ytick_8">
     <g id="line2d_28">
      <defs>
       <path d="M 0 0
L 3 0
" id="m3e89bfb933" style="stroke:#000000;stroke-width:0.5;"/>
      </defs>
      <g>
       <use style="stroke:#000000;stroke-width:0.5;" x="149.245802" xlink:href="#m3e89bfb933" y="30.943714"/>
      </g>
     </g>
    </g>
    <g id="ytick_9">
     <g id="line2d_29">
      <g>
       <use style="stroke:#000000;stroke-width:0.5;" x="149.245802" xlink:href="#m3e89bfb933" y="48.028819"/>
      </g>
     </g>
    </g>
    <g id="ytick_10">
     <g id="line2d_30">
      <g>
       <use style="stroke:#000000;stroke-width:0.5;" x="149.245802" xlink:href="#m3e89bfb933" y="60.153733"/>
      </g>
     </g>
    </g>
    <g id="ytick_11">
     <g id="line2d_31">
      <g>
       <use style="stroke:#000000;stroke-width:0.5;" x="149.245802" xlink:href="#m3e89bfb933" y="77.238839"/>
      </g>
     </g>
    </g>
    <g id="ytick_12">
     <g id="line2d_32">
      <g>
       <use style="stroke:#000000;stroke-width:0.5;" x="149.245802" xlink:href="#m3e89bfb933" y="99.284136"/>
      </g>
     </g>
    </g>
    <g id="ytick_13">
     <g id="line2d_33">
      <g>
       <use style="stroke:#000000;stroke-width:0.5;" x="149.245802" xlink:href="#m3e89bfb933" y="121.329434"/>
      </g>
     </g>
    </g>
    <g id="ytick_14">
     <g id="line2d_34">
      <g>
       <use style="stroke:#000000;stroke-width:0.5;" x="149.245802" xlink:href="#m3e89bfb933" y="143.374731"/>
      </g>
     </g>
    </g>
   </g>
   <g id="patch_22">
    <path d="M 149.245802 153.295115
L 149.245802 21.02333
" style="fill:none;stroke:#000000;stroke-linecap:square;stroke-linejoin:miter;stroke-width:0.5;"/>
   </g>
   <g id="patch_23">
    <path d="M 255.11811 153.295115
L 255.11811 21.02333
" style="fill:none;stroke:#000000;stroke-linecap:square;stroke-linejoin:miter;stroke-width:0.5;"/>
   </g>
   <g id="patch_24">
    <path d="M 149.245802 153.295115
L 255.11811 153.295115
" style="fill:none;stroke:#000000;stroke-linecap:square;stroke-linejoin:miter;stroke-width:0.5;"/>
   </g>
   <g id="patch_25">
    <path d="M 149.245802 21.02333
L 255.11811 21.02333
" style="fill:none;stroke:#000000;stroke-linecap:square;stroke-linejoin:miter;stroke-width:0.5;"/>
   </g>
   <g id="text_19">
    <!-- ipsilateral -->
    <g transform="translate(183.683441 13.02333)scale(0.09 -0.09)">
     <defs>
      <path d="M 1181 106
Q 1181 75 1162 51
Q 1144 28 1098 12
Q 1053 -3 978 -11
Q 903 -19 788 -19
Q 672 -19 597 -11
Q 522 -3 476 12
Q 431 28 412 51
Q 394 75 394 106
L 394 2888
Q 394 2919 412 2942
Q 431 2966 476 2983
Q 522 3000 597 3009
Q 672 3019 788 3019
Q 903 3019 978 3009
Q 1053 3000 1098 2983
Q 1144 2966 1162 2942
Q 1181 2919 1181 2888
L 1181 106
z
M 1241 3838
Q 1241 3600 1144 3509
Q 1047 3419 784 3419
Q 519 3419 426 3506
Q 334 3594 334 3822
Q 334 4059 429 4151
Q 525 4244 791 4244
Q 1053 4244 1147 4155
Q 1241 4066 1241 3838
z
" id="Calibri-Bold-69" transform="scale(0.015625)"/>
      <path d="M 3200 1541
Q 3200 1169 3120 870
Q 3041 572 2887 362
Q 2734 153 2506 40
Q 2278 -72 1984 -72
Q 1863 -72 1761 -48
Q 1659 -25 1564 23
Q 1469 72 1375 144
Q 1281 216 1181 313
L 1181 -1000
Q 1181 -1031 1162 -1056
Q 1144 -1081 1098 -1098
Q 1053 -1116 978 -1125
Q 903 -1134 788 -1134
Q 672 -1134 597 -1125
Q 522 -1116 476 -1098
Q 431 -1081 412 -1056
Q 394 -1031 394 -1000
L 394 2894
Q 394 2925 409 2948
Q 425 2972 464 2987
Q 503 3003 567 3011
Q 631 3019 728 3019
Q 822 3019 886 3011
Q 950 3003 989 2987
Q 1028 2972 1043 2948
Q 1059 2925 1059 2894
L 1059 2566
Q 1181 2691 1298 2786
Q 1416 2881 1537 2945
Q 1659 3009 1789 3040
Q 1919 3072 2066 3072
Q 2372 3072 2587 2951
Q 2803 2831 2939 2622
Q 3075 2413 3137 2134
Q 3200 1856 3200 1541
z
M 2381 1484
Q 2381 1663 2354 1827
Q 2328 1991 2264 2119
Q 2200 2247 2095 2323
Q 1991 2400 1834 2400
Q 1756 2400 1679 2376
Q 1603 2353 1523 2300
Q 1444 2247 1359 2162
Q 1275 2078 1181 1953
L 1181 1034
Q 1347 825 1497 711
Q 1647 597 1809 597
Q 1963 597 2070 675
Q 2178 753 2247 879
Q 2316 1006 2348 1165
Q 2381 1325 2381 1484
z
" id="Calibri-Bold-70" transform="scale(0.015625)"/>
      <path d="M 2356 894
Q 2356 656 2267 475
Q 2178 294 2015 172
Q 1853 50 1631 -11
Q 1409 -72 1150 -72
Q 994 -72 851 -48
Q 709 -25 596 11
Q 484 47 409 84
Q 334 122 300 155
Q 266 188 247 258
Q 228 328 228 466
Q 228 556 234 611
Q 241 666 253 698
Q 266 731 284 742
Q 303 753 331 753
Q 366 753 433 714
Q 500 675 600 628
Q 700 581 833 540
Q 966 500 1134 500
Q 1241 500 1323 522
Q 1406 544 1467 584
Q 1528 625 1559 687
Q 1591 750 1591 831
Q 1591 925 1533 992
Q 1475 1059 1379 1109
Q 1284 1159 1164 1203
Q 1044 1247 917 1300
Q 791 1353 670 1422
Q 550 1491 454 1591
Q 359 1691 301 1831
Q 244 1972 244 2169
Q 244 2369 322 2536
Q 400 2703 547 2822
Q 694 2941 905 3006
Q 1116 3072 1378 3072
Q 1509 3072 1632 3053
Q 1756 3034 1856 3006
Q 1956 2978 2025 2945
Q 2094 2913 2123 2889
Q 2153 2866 2165 2842
Q 2178 2819 2184 2786
Q 2191 2753 2195 2704
Q 2200 2656 2200 2584
Q 2200 2500 2195 2447
Q 2191 2394 2180 2362
Q 2169 2331 2150 2320
Q 2131 2309 2106 2309
Q 2078 2309 2018 2342
Q 1959 2375 1870 2412
Q 1781 2450 1664 2483
Q 1547 2516 1397 2516
Q 1291 2516 1212 2494
Q 1134 2472 1084 2431
Q 1034 2391 1009 2336
Q 984 2281 984 2219
Q 984 2122 1043 2056
Q 1103 1991 1200 1941
Q 1297 1891 1420 1847
Q 1544 1803 1670 1751
Q 1797 1700 1920 1631
Q 2044 1563 2141 1463
Q 2238 1363 2297 1223
Q 2356 1084 2356 894
z
" id="Calibri-Bold-73" transform="scale(0.015625)"/>
     </defs>
     <use xlink:href="#Calibri-Bold-69"/>
     <use x="24.560547" xlink:href="#Calibri-Bold-70"/>
     <use x="78.222656" xlink:href="#Calibri-Bold-73"/>
     <use x="118.115234" xlink:href="#Calibri-Bold-69"/>
     <use x="142.675781" xlink:href="#Calibri-Bold-6c"/>
     <use x="167.236328" xlink:href="#Calibri-Bold-61"/>
     <use x="216.601562" xlink:href="#Calibri-Bold-74"/>
     <use x="251.269531" xlink:href="#Calibri-Bold-65"/>
     <use x="301.611328" xlink:href="#Calibri-Bold-72"/>
     <use x="337.158203" xlink:href="#Calibri-Bold-61"/>
     <use x="386.523438" xlink:href="#Calibri-Bold-6c"/>
    </g>
   </g>
  </g>
  <g id="text_20">
   <!-- number of involved LNLs -->
   <g transform="translate(96.516424 171.84216)scale(0.09 -0.09)">
    <defs>
     <path d="M 2900 78
Q 2900 53 2887 36
Q 2875 19 2847 6
Q 2819 -6 2769 -12
Q 2719 -19 2644 -19
Q 2566 -19 2516 -12
Q 2466 -6 2437 6
Q 2409 19 2396 36
Q 2384 53 2384 78
L 2384 1725
Q 2384 1966 2346 2112
Q 2309 2259 2237 2365
Q 2166 2472 2052 2528
Q 1938 2584 1788 2584
Q 1594 2584 1400 2446
Q 1206 2309 994 2044
L 994 78
Q 994 53 981 36
Q 969 19 941 6
Q 913 -6 863 -12
Q 813 -19 734 -19
Q 659 -19 609 -12
Q 559 -6 529 6
Q 500 19 489 36
Q 478 53 478 78
L 478 2891
Q 478 2916 487 2933
Q 497 2950 525 2964
Q 553 2978 597 2983
Q 641 2988 713 2988
Q 781 2988 826 2983
Q 872 2978 897 2964
Q 922 2950 933 2933
Q 944 2916 944 2891
L 944 2519
Q 1181 2784 1417 2907
Q 1653 3031 1894 3031
Q 2175 3031 2367 2936
Q 2559 2841 2678 2681
Q 2797 2522 2848 2308
Q 2900 2094 2900 1794
L 2900 78
z
" id="Calibri-6e" transform="scale(0.015625)"/>
     <path d="M 2888 78
Q 2888 53 2877 36
Q 2866 19 2837 6
Q 2809 -6 2764 -12
Q 2719 -19 2653 -19
Q 2581 -19 2536 -12
Q 2491 -6 2464 6
Q 2438 19 2428 36
Q 2419 53 2419 78
L 2419 450
Q 2178 184 1943 62
Q 1709 -59 1469 -59
Q 1188 -59 995 34
Q 803 128 684 289
Q 566 450 514 664
Q 463 878 463 1184
L 463 2891
Q 463 2916 473 2933
Q 484 2950 515 2964
Q 547 2978 597 2983
Q 647 2988 722 2988
Q 797 2988 847 2983
Q 897 2978 926 2964
Q 956 2950 968 2933
Q 981 2916 981 2891
L 981 1253
Q 981 1006 1017 857
Q 1053 709 1126 604
Q 1200 500 1312 442
Q 1425 384 1575 384
Q 1769 384 1961 521
Q 2153 659 2369 925
L 2369 2891
Q 2369 2916 2380 2933
Q 2391 2950 2422 2964
Q 2453 2978 2501 2983
Q 2550 2988 2628 2988
Q 2703 2988 2753 2983
Q 2803 2978 2831 2964
Q 2859 2950 2873 2933
Q 2888 2916 2888 2891
L 2888 78
z
" id="Calibri-75" transform="scale(0.015625)"/>
     <path d="M 4650 78
Q 4650 53 4637 36
Q 4625 19 4597 6
Q 4569 -6 4519 -12
Q 4469 -19 4394 -19
Q 4316 -19 4266 -12
Q 4216 -6 4186 6
Q 4156 19 4143 36
Q 4131 53 4131 78
L 4131 1788
Q 4131 1966 4100 2112
Q 4069 2259 4000 2365
Q 3931 2472 3825 2528
Q 3719 2584 3575 2584
Q 3397 2584 3217 2446
Q 3038 2309 2822 2044
L 2822 78
Q 2822 53 2809 36
Q 2797 19 2767 6
Q 2738 -6 2688 -12
Q 2638 -19 2563 -19
Q 2491 -19 2439 -12
Q 2388 -6 2358 6
Q 2328 19 2317 36
Q 2306 53 2306 78
L 2306 1788
Q 2306 1966 2272 2112
Q 2238 2259 2169 2365
Q 2100 2472 1995 2528
Q 1891 2584 1747 2584
Q 1569 2584 1387 2446
Q 1206 2309 994 2044
L 994 78
Q 994 53 981 36
Q 969 19 941 6
Q 913 -6 863 -12
Q 813 -19 734 -19
Q 659 -19 609 -12
Q 559 -6 529 6
Q 500 19 489 36
Q 478 53 478 78
L 478 2891
Q 478 2916 487 2933
Q 497 2950 525 2964
Q 553 2978 597 2983
Q 641 2988 713 2988
Q 781 2988 826 2983
Q 872 2978 897 2964
Q 922 2950 933 2933
Q 944 2916 944 2891
L 944 2519
Q 1181 2784 1404 2907
Q 1628 3031 1856 3031
Q 2031 3031 2170 2990
Q 2309 2950 2415 2876
Q 2522 2803 2597 2701
Q 2672 2600 2722 2475
Q 2863 2628 2989 2734
Q 3116 2841 3233 2906
Q 3350 2972 3461 3001
Q 3572 3031 3684 3031
Q 3956 3031 4140 2936
Q 4325 2841 4439 2681
Q 4553 2522 4601 2308
Q 4650 2094 4650 1856
L 4650 78
z
" id="Calibri-6d" transform="scale(0.015625)"/>
     <path d="M 2878 1606
Q 2878 1484 2817 1432
Q 2756 1381 2678 1381
L 834 1381
Q 834 1147 881 959
Q 928 772 1037 637
Q 1147 503 1322 431
Q 1497 359 1750 359
Q 1950 359 2106 392
Q 2263 425 2377 465
Q 2491 506 2564 539
Q 2638 572 2675 572
Q 2697 572 2714 561
Q 2731 550 2740 528
Q 2750 506 2754 467
Q 2759 428 2759 372
Q 2759 331 2756 301
Q 2753 272 2748 248
Q 2744 225 2733 206
Q 2722 188 2705 170
Q 2688 153 2603 114
Q 2519 75 2384 37
Q 2250 0 2073 -29
Q 1897 -59 1697 -59
Q 1350 -59 1089 37
Q 828 134 650 325
Q 472 516 381 803
Q 291 1091 291 1472
Q 291 1834 384 2123
Q 478 2413 654 2614
Q 831 2816 1081 2923
Q 1331 3031 1641 3031
Q 1972 3031 2205 2925
Q 2438 2819 2588 2639
Q 2738 2459 2808 2217
Q 2878 1975 2878 1700
L 2878 1606
z
M 2359 1759
Q 2369 2166 2180 2397
Q 1991 2628 1619 2628
Q 1428 2628 1284 2556
Q 1141 2484 1044 2365
Q 947 2247 894 2089
Q 841 1931 834 1759
L 2359 1759
z
" id="Calibri-65" transform="scale(0.015625)"/>
     <path d="M 2122 2706
Q 2122 2638 2119 2591
Q 2116 2544 2106 2517
Q 2097 2491 2083 2477
Q 2069 2463 2044 2463
Q 2019 2463 1983 2477
Q 1947 2491 1901 2505
Q 1856 2519 1800 2531
Q 1744 2544 1678 2544
Q 1600 2544 1525 2512
Q 1450 2481 1367 2409
Q 1284 2338 1193 2219
Q 1103 2100 994 1928
L 994 78
Q 994 53 981 36
Q 969 19 941 6
Q 913 -6 863 -12
Q 813 -19 734 -19
Q 659 -19 609 -12
Q 559 -6 529 6
Q 500 19 489 36
Q 478 53 478 78
L 478 2891
Q 478 2916 487 2933
Q 497 2950 525 2964
Q 553 2978 597 2983
Q 641 2988 713 2988
Q 781 2988 826 2983
Q 872 2978 897 2964
Q 922 2950 933 2933
Q 944 2916 944 2891
L 944 2481
Q 1059 2650 1161 2756
Q 1263 2863 1353 2923
Q 1444 2984 1533 3007
Q 1622 3031 1713 3031
Q 1753 3031 1804 3026
Q 1856 3022 1912 3009
Q 1969 2997 2014 2981
Q 2059 2966 2078 2950
Q 2097 2934 2103 2920
Q 2109 2906 2114 2884
Q 2119 2863 2120 2820
Q 2122 2778 2122 2706
z
" id="Calibri-72" transform="scale(0.015625)"/>
     <path id="Calibri-20" transform="scale(0.015625)"/>
     <path d="M 3094 1516
Q 3094 1172 3003 883
Q 2913 594 2733 384
Q 2553 175 2283 58
Q 2013 -59 1656 -59
Q 1309 -59 1051 44
Q 794 147 622 344
Q 450 541 365 822
Q 281 1103 281 1459
Q 281 1803 370 2092
Q 459 2381 639 2590
Q 819 2800 1087 2915
Q 1356 3031 1716 3031
Q 2063 3031 2320 2928
Q 2578 2825 2750 2628
Q 2922 2431 3008 2150
Q 3094 1869 3094 1516
z
M 2550 1481
Q 2550 1709 2508 1912
Q 2466 2116 2369 2269
Q 2272 2422 2106 2511
Q 1941 2600 1694 2600
Q 1466 2600 1302 2519
Q 1138 2438 1031 2289
Q 925 2141 873 1937
Q 822 1734 822 1494
Q 822 1263 864 1059
Q 906 856 1004 704
Q 1103 553 1268 464
Q 1434 375 1681 375
Q 1906 375 2072 456
Q 2238 538 2344 684
Q 2450 831 2500 1034
Q 2550 1238 2550 1481
z
" id="Calibri-6f" transform="scale(0.015625)"/>
     <path d="M 2019 4047
Q 2019 3988 2012 3952
Q 2006 3916 1998 3894
Q 1991 3872 1978 3864
Q 1966 3856 1947 3856
Q 1925 3856 1892 3870
Q 1859 3884 1812 3901
Q 1766 3919 1702 3933
Q 1638 3947 1553 3947
Q 1438 3947 1356 3909
Q 1275 3872 1225 3792
Q 1175 3713 1153 3586
Q 1131 3459 1131 3278
L 1131 2972
L 1759 2972
Q 1784 2972 1801 2961
Q 1819 2950 1833 2923
Q 1847 2897 1855 2856
Q 1863 2816 1863 2756
Q 1863 2644 1834 2594
Q 1806 2544 1759 2544
L 1131 2544
L 1131 78
Q 1131 53 1118 36
Q 1106 19 1076 6
Q 1047 -6 997 -12
Q 947 -19 872 -19
Q 797 -19 747 -12
Q 697 -6 667 6
Q 638 19 625 36
Q 613 53 613 78
L 613 2544
L 216 2544
Q 166 2544 141 2594
Q 116 2644 116 2756
Q 116 2816 122 2856
Q 128 2897 140 2923
Q 153 2950 172 2961
Q 191 2972 216 2972
L 613 2972
L 613 3263
Q 613 3556 667 3767
Q 722 3978 834 4112
Q 947 4247 1117 4311
Q 1288 4375 1519 4375
Q 1628 4375 1731 4354
Q 1834 4334 1890 4311
Q 1947 4288 1965 4269
Q 1984 4250 1996 4220
Q 2009 4191 2014 4148
Q 2019 4106 2019 4047
z
" id="Calibri-66" transform="scale(0.015625)"/>
     <path d="M 994 78
Q 994 53 981 36
Q 969 19 941 6
Q 913 -6 863 -12
Q 813 -19 734 -19
Q 659 -19 609 -12
Q 559 -6 529 6
Q 500 19 489 36
Q 478 53 478 78
L 478 2891
Q 478 2913 489 2931
Q 500 2950 529 2962
Q 559 2975 609 2981
Q 659 2988 734 2988
Q 813 2988 863 2981
Q 913 2975 941 2962
Q 969 2950 981 2931
Q 994 2913 994 2891
L 994 78
z
M 1053 3841
Q 1053 3659 984 3593
Q 916 3528 731 3528
Q 550 3528 483 3592
Q 416 3656 416 3834
Q 416 4016 484 4081
Q 553 4147 738 4147
Q 919 4147 986 4083
Q 1053 4019 1053 3841
z
" id="Calibri-69" transform="scale(0.015625)"/>
     <path d="M 2784 2897
Q 2784 2884 2782 2870
Q 2781 2856 2778 2840
Q 2775 2825 2770 2806
Q 2766 2788 2759 2766
L 1800 94
Q 1788 59 1767 37
Q 1747 16 1706 3
Q 1666 -9 1603 -14
Q 1541 -19 1447 -19
Q 1353 -19 1290 -12
Q 1228 -6 1189 6
Q 1150 19 1128 41
Q 1106 63 1094 94
L 138 2766
Q 125 2803 117 2831
Q 109 2859 107 2873
Q 106 2888 106 2897
Q 106 2922 118 2940
Q 131 2959 161 2970
Q 191 2981 239 2984
Q 288 2988 359 2988
Q 450 2988 504 2983
Q 559 2978 589 2965
Q 619 2953 633 2934
Q 647 2916 659 2888
L 1453 569
L 1466 531
L 1475 569
L 2259 2888
Q 2266 2916 2281 2934
Q 2297 2953 2326 2965
Q 2356 2978 2407 2983
Q 2459 2988 2544 2988
Q 2616 2988 2662 2984
Q 2709 2981 2736 2968
Q 2763 2956 2773 2939
Q 2784 2922 2784 2897
z
" id="Calibri-76" transform="scale(0.015625)"/>
     <path d="M 994 78
Q 994 53 981 36
Q 969 19 941 6
Q 913 -6 863 -12
Q 813 -19 734 -19
Q 659 -19 609 -12
Q 559 -6 529 6
Q 500 19 489 36
Q 478 53 478 78
L 478 4253
Q 478 4278 489 4297
Q 500 4316 529 4328
Q 559 4341 609 4347
Q 659 4353 734 4353
Q 813 4353 863 4347
Q 913 4341 941 4328
Q 969 4316 981 4297
Q 994 4278 994 4253
L 994 78
z
" id="Calibri-6c" transform="scale(0.015625)"/>
     <path d="M 2888 78
Q 2888 53 2877 34
Q 2866 16 2839 5
Q 2813 -6 2769 -12
Q 2725 -19 2663 -19
Q 2597 -19 2553 -12
Q 2509 -6 2481 5
Q 2453 16 2440 34
Q 2428 53 2428 78
L 2428 450
Q 2206 209 1967 75
Q 1728 -59 1444 -59
Q 1134 -59 915 61
Q 697 181 561 386
Q 425 591 362 867
Q 300 1144 300 1450
Q 300 1813 378 2105
Q 456 2397 609 2603
Q 763 2809 989 2920
Q 1216 3031 1513 3031
Q 1759 3031 1964 2923
Q 2169 2816 2369 2606
L 2369 4241
Q 2369 4263 2380 4283
Q 2391 4303 2422 4314
Q 2453 4325 2501 4333
Q 2550 4341 2625 4341
Q 2703 4341 2753 4333
Q 2803 4325 2831 4314
Q 2859 4303 2873 4283
Q 2888 4263 2888 4241
L 2888 78
z
M 2369 2056
Q 2159 2316 1964 2452
Q 1769 2588 1556 2588
Q 1359 2588 1221 2494
Q 1084 2400 998 2247
Q 913 2094 873 1900
Q 834 1706 834 1506
Q 834 1294 867 1091
Q 900 888 981 730
Q 1063 572 1197 476
Q 1331 381 1534 381
Q 1638 381 1733 409
Q 1828 438 1928 503
Q 2028 569 2137 673
Q 2247 778 2369 931
L 2369 2056
z
" id="Calibri-64" transform="scale(0.015625)"/>
     <path d="M 2634 234
Q 2634 172 2628 130
Q 2622 88 2608 58
Q 2594 28 2573 14
Q 2553 0 2525 0
L 738 0
Q 666 0 602 48
Q 538 97 538 219
L 538 3963
Q 538 3988 550 4006
Q 563 4025 594 4036
Q 625 4047 678 4055
Q 731 4063 806 4063
Q 884 4063 936 4055
Q 988 4047 1019 4036
Q 1050 4025 1062 4006
Q 1075 3988 1075 3963
L 1075 466
L 2525 466
Q 2553 466 2573 452
Q 2594 438 2608 411
Q 2622 384 2628 340
Q 2634 297 2634 234
z
" id="Calibri-4c" transform="scale(0.015625)"/>
     <path d="M 3594 222
Q 3594 159 3573 115
Q 3553 72 3520 44
Q 3488 16 3447 3
Q 3406 -9 3366 -9
L 3194 -9
Q 3113 -9 3052 8
Q 2991 25 2936 70
Q 2881 116 2826 194
Q 2772 272 2706 394
L 1431 2694
Q 1331 2872 1229 3067
Q 1128 3263 1041 3447
L 1034 3447
Q 1041 3222 1044 2987
Q 1047 2753 1047 2522
L 1047 81
Q 1047 59 1034 39
Q 1022 19 992 8
Q 963 -3 914 -11
Q 866 -19 791 -19
Q 716 -19 667 -11
Q 619 -3 591 8
Q 563 19 550 39
Q 538 59 538 81
L 538 3813
Q 538 3938 606 3991
Q 675 4044 756 4044
L 1013 4044
Q 1103 4044 1164 4028
Q 1225 4013 1273 3977
Q 1322 3941 1367 3877
Q 1413 3813 1466 3716
L 2447 1941
Q 2538 1778 2622 1623
Q 2706 1469 2784 1319
Q 2863 1169 2939 1023
Q 3016 878 3091 731
L 3094 731
Q 3088 978 3086 1245
Q 3084 1513 3084 1759
L 3084 3953
Q 3084 3975 3096 3994
Q 3109 4013 3139 4027
Q 3169 4041 3217 4047
Q 3266 4053 3344 4053
Q 3413 4053 3463 4047
Q 3513 4041 3541 4027
Q 3569 4013 3581 3994
Q 3594 3975 3594 3953
L 3594 222
z
" id="Calibri-4e" transform="scale(0.015625)"/>
     <path d="M 2244 844
Q 2244 628 2164 459
Q 2084 291 1937 175
Q 1791 59 1587 0
Q 1384 -59 1141 -59
Q 991 -59 855 -36
Q 719 -13 611 23
Q 503 59 428 98
Q 353 138 318 169
Q 284 200 268 256
Q 253 313 253 409
Q 253 469 259 509
Q 266 550 275 575
Q 284 600 301 611
Q 319 622 341 622
Q 375 622 442 580
Q 509 538 607 488
Q 706 438 840 395
Q 975 353 1150 353
Q 1281 353 1387 381
Q 1494 409 1572 464
Q 1650 519 1692 603
Q 1734 688 1734 803
Q 1734 922 1673 1003
Q 1613 1084 1513 1146
Q 1413 1209 1288 1257
Q 1163 1306 1030 1359
Q 897 1413 770 1480
Q 644 1547 544 1644
Q 444 1741 383 1875
Q 322 2009 322 2197
Q 322 2363 386 2514
Q 450 2666 578 2780
Q 706 2894 898 2962
Q 1091 3031 1347 3031
Q 1459 3031 1571 3012
Q 1684 2994 1775 2966
Q 1866 2938 1930 2905
Q 1994 2872 2026 2847
Q 2059 2822 2070 2803
Q 2081 2784 2086 2761
Q 2091 2738 2095 2703
Q 2100 2669 2100 2619
Q 2100 2566 2095 2527
Q 2091 2488 2080 2463
Q 2069 2438 2053 2427
Q 2038 2416 2019 2416
Q 1991 2416 1937 2450
Q 1884 2484 1800 2523
Q 1716 2563 1602 2597
Q 1488 2631 1341 2631
Q 1209 2631 1109 2601
Q 1009 2572 945 2517
Q 881 2463 848 2388
Q 816 2313 816 2225
Q 816 2103 878 2020
Q 941 1938 1041 1875
Q 1141 1813 1269 1763
Q 1397 1713 1530 1659
Q 1663 1606 1792 1540
Q 1922 1475 2022 1381
Q 2122 1288 2183 1156
Q 2244 1025 2244 844
z
" id="Calibri-73" transform="scale(0.015625)"/>
    </defs>
    <use xlink:href="#Calibri-6e"/>
    <use x="52.539062" xlink:href="#Calibri-75"/>
    <use x="105.078125" xlink:href="#Calibri-6d"/>
    <use x="184.960938" xlink:href="#Calibri-62"/>
    <use x="237.5" xlink:href="#Calibri-65"/>
    <use x="287.255859" xlink:href="#Calibri-72"/>
    <use x="322.119141" xlink:href="#Calibri-20"/>
    <use x="344.726562" xlink:href="#Calibri-6f"/>
    <use x="397.460938" xlink:href="#Calibri-66"/>
    <use x="427.978516" xlink:href="#Calibri-20"/>
    <use x="450.585938" xlink:href="#Calibri-69"/>
    <use x="473.535156" xlink:href="#Calibri-6e"/>
    <use x="526.074219" xlink:href="#Calibri-76"/>
    <use x="571.240234" xlink:href="#Calibri-6f"/>
    <use x="623.974609" xlink:href="#Calibri-6c"/>
    <use x="646.923828" xlink:href="#Calibri-76"/>
    <use x="692.089844" xlink:href="#Calibri-65"/>
    <use x="741.845703" xlink:href="#Calibri-64"/>
    <use x="794.384766" xlink:href="#Calibri-20"/>
    <use x="816.992188" xlink:href="#Calibri-4c"/>
    <use x="859.033203" xlink:href="#Calibri-4e"/>
    <use x="923.583984" xlink:href="#Calibri-4c"/>
    <use x="965.625" xlink:href="#Calibri-73"/>
   </g>
  </g>
 </g>
 <defs>
  <clipPath id="pd9b49b1dc9">
   <rect height="132.271785" width="105.872308" x="35.433071" y="21.02333"/>
  </clipPath>
  <clipPath id="pc78c1e5a30">
   <rect height="132.271785" width="105.872308" x="149.245802" y="21.02333"/>
  </clipPath>
 </defs>
</svg>
