<?xml version="1.0" encoding="utf-8" standalone="no"?>
<!DOCTYPE svg PUBLIC "-//W3C//DTD SVG 1.1//EN"
  "http://www.w3.org/Graphics/SVG/1.1/DTD/svg11.dtd">
<svg height="280.311067pt" version="1.1" viewBox="0 0 453.543307 280.311067" width="453.543307pt" xmlns="http://www.w3.org/2000/svg" xmlns:xlink="http://www.w3.org/1999/xlink">
 <metadata>
  <rdf:RDF xmlns:cc="http://creativecommons.org/ns#" xmlns:dc="http://purl.org/dc/elements/1.1/" xmlns:rdf="http://www.w3.org/1999/02/22-rdf-syntax-ns#">
   <cc:Work>
    <dc:type rdf:resource="http://purl.org/dc/dcmitype/StillImage"/>
    <dc:date>2021-11-22T11:15:18.227617</dc:date>
    <dc:format>image/svg+xml</dc:format>
    <dc:creator>
     <cc:Agent>
      <dc:title>Matplotlib v3.4.3, https://matplotlib.org/</dc:title>
     </cc:Agent>
    </dc:creator>
   </cc:Work>
  </rdf:RDF>
 </metadata>
 <defs>
  <style type="text/css">*{stroke-linecap:butt;stroke-linejoin:round;}</style>
 </defs>
 <g id="figure_1">
  <g id="patch_1">
   <path d="M 0 280.311067
L 453.543307 280.311067
L 453.543307 0
L 0 0
z
" style="fill:none;"/>
  </g>
  <g id="axes_1">
   <g id="patch_2">
    <path d="M 25.018755 260.730236
L 228.632273 260.730236
L 228.632273 5.124368
L 25.018755 5.124368
z
" style="fill:#ffffff;"/>
   </g>
   <g id="patch_3">
    <path clip-path="url(#p20ede64f9d)" d="M 39.276704 260.730236
L 59.287861 260.730236
L 59.287861 246.52991
L 39.276704 246.52991
z
" style="fill:#ae0060;"/>
   </g>
   <g id="patch_4">
    <path clip-path="url(#p20ede64f9d)" d="M 71.169485 260.730236
L 81.175063 260.730236
L 81.175063 40.625183
L 71.169485 40.625183
z
" style="fill:#ae0060;"/>
   </g>
   <g id="patch_5">
    <path clip-path="url(#p20ede64f9d)" d="M 87.42855 260.730236
L 97.434128 260.730236
L 97.434128 140.027465
L 87.42855 140.027465
z
" style="fill:#ae0060;"/>
   </g>
   <g id="patch_6">
    <path clip-path="url(#p20ede64f9d)" d="M 109.315752 260.730236
L 129.326909 260.730236
L 129.326909 147.127628
L 109.315752 147.127628
z
" style="fill:#ae0060;"/>
   </g>
   <g id="patch_7">
    <path clip-path="url(#p20ede64f9d)" d="M 139.332487 260.730236
L 159.343643 260.730236
L 159.343643 232.329584
L 139.332487 232.329584
z
" style="fill:#ae0060;"/>
   </g>
   <g id="patch_8">
    <path clip-path="url(#p20ede64f9d)" d="M 169.349222 260.730236
L 189.360378 260.730236
L 189.360378 260.730236
L 169.349222 260.730236
z
" style="fill:#ae0060;"/>
   </g>
   <g id="patch_9">
    <path clip-path="url(#p20ede64f9d)" d="M 199.365957 260.730236
L 219.377113 260.730236
L 219.377113 239.429747
L 199.365957 239.429747
z
" style="fill:#ae0060;"/>
   </g>
   <g id="patch_10">
    <path clip-path="url(#p20ede64f9d)" d="M 34.273915 260.730236
L 54.285072 260.730236
L 54.285072 257.486507
L 34.273915 257.486507
z
" style="fill:#00afa5;"/>
   </g>
   <g id="patch_11">
    <path clip-path="url(#p20ede64f9d)" d="M 66.166696 260.730236
L 76.172274 260.730236
L 76.172274 202.343109
L 66.166696 202.343109
z
" style="fill:#00afa5;"/>
   </g>
   <g id="patch_12">
    <path clip-path="url(#p20ede64f9d)" d="M 82.425761 260.730236
L 92.431339 260.730236
L 92.431339 238.024131
L 82.425761 238.024131
z
" style="fill:#00afa5;"/>
   </g>
   <g id="patch_13">
    <path clip-path="url(#p20ede64f9d)" d="M 104.312963 260.730236
L 124.32412 260.730236
L 124.32412 244.511589
L 104.312963 244.511589
z
" style="fill:#00afa5;"/>
   </g>
   <g id="patch_14">
    <path clip-path="url(#p20ede64f9d)" d="M 134.329698 260.730236
L 154.340854 260.730236
L 154.340854 250.999048
L 134.329698 250.999048
z
" style="fill:#00afa5;"/>
   </g>
   <g id="patch_15">
    <path clip-path="url(#p20ede64f9d)" d="M 164.346433 260.730236
L 184.357589 260.730236
L 184.357589 254.242777
L 164.346433 254.242777
z
" style="fill:#00afa5;"/>
   </g>
   <g id="patch_16">
    <path clip-path="url(#p20ede64f9d)" d="M 194.363167 260.730236
L 214.374324 260.730236
L 214.374324 250.999048
L 194.363167 250.999048
z
" style="fill:#00afa5;"/>
   </g>
   <g id="matplotlib.axis_1">
    <g id="xtick_1">
     <g id="line2d_1">
      <defs>
       <path d="M 0 0
L 0 -3
" id="maefee09c90" style="stroke:#000000;stroke-width:0.5;"/>
      </defs>
      <g>
       <use style="stroke:#000000;stroke-width:0.5;" x="44.279493" xlink:href="#maefee09c90" y="260.730236"/>
      </g>
     </g>
     <g id="text_1">
      <!-- I -->
      <g transform="translate(43.4924 266.478492)scale(0.06246 -0.06246)">
       <defs>
        <path d="M 1075 81
Q 1075 56 1062 37
Q 1050 19 1019 8
Q 988 -3 936 -11
Q 884 -19 806 -19
Q 731 -19 678 -11
Q 625 -3 594 8
Q 563 19 550 37
Q 538 56 538 81
L 538 3963
Q 538 3988 552 4006
Q 566 4025 598 4036
Q 631 4047 682 4055
Q 734 4063 806 4063
Q 884 4063 936 4055
Q 988 4047 1019 4036
Q 1050 4025 1062 4006
Q 1075 3988 1075 3963
L 1075 81
z
" id="Calibri-49" transform="scale(0.015625)"/>
       </defs>
       <use xlink:href="#Calibri-49"/>
      </g>
     </g>
    </g>
    <g id="xtick_2">
     <g id="line2d_2">
      <g>
       <use style="stroke:#000000;stroke-width:0.5;" x="71.169485" xlink:href="#maefee09c90" y="260.730236"/>
      </g>
     </g>
     <g id="text_2">
      <!-- IIa -->
      <g transform="translate(68.099186 266.478492)scale(0.06246 -0.06246)">
       <defs>
        <path d="M 2597 75
Q 2597 38 2572 19
Q 2547 0 2503 -9
Q 2459 -19 2375 -19
Q 2294 -19 2245 -9
Q 2197 0 2175 19
Q 2153 38 2153 75
L 2153 356
Q 1969 159 1742 50
Q 1516 -59 1263 -59
Q 1041 -59 861 -1
Q 681 56 554 165
Q 428 275 358 434
Q 288 594 288 797
Q 288 1034 384 1209
Q 481 1384 662 1500
Q 844 1616 1106 1673
Q 1369 1731 1697 1731
L 2084 1731
L 2084 1950
Q 2084 2113 2050 2238
Q 2016 2363 1939 2445
Q 1863 2528 1741 2570
Q 1619 2613 1441 2613
Q 1250 2613 1098 2567
Q 947 2522 833 2467
Q 719 2413 642 2367
Q 566 2322 528 2322
Q 503 2322 484 2334
Q 466 2347 452 2372
Q 438 2397 431 2436
Q 425 2475 425 2522
Q 425 2600 436 2645
Q 447 2691 489 2731
Q 531 2772 634 2826
Q 738 2881 872 2926
Q 1006 2972 1165 3001
Q 1325 3031 1488 3031
Q 1791 3031 2003 2962
Q 2216 2894 2347 2761
Q 2478 2628 2537 2431
Q 2597 2234 2597 1972
L 2597 75
z
M 2084 1359
L 1644 1359
Q 1431 1359 1275 1323
Q 1119 1288 1016 1217
Q 913 1147 864 1048
Q 816 950 816 822
Q 816 603 955 473
Q 1094 344 1344 344
Q 1547 344 1720 447
Q 1894 550 2084 763
L 2084 1359
z
" id="Calibri-61" transform="scale(0.015625)"/>
       </defs>
       <use xlink:href="#Calibri-49"/>
       <use x="25.195312" xlink:href="#Calibri-49"/>
       <use x="50.390625" xlink:href="#Calibri-61"/>
      </g>
     </g>
    </g>
    <g id="xtick_3">
     <g id="line2d_3">
      <g>
       <use style="stroke:#000000;stroke-width:0.5;" x="87.42855" xlink:href="#maefee09c90" y="260.730236"/>
      </g>
     </g>
     <g id="text_3">
      <!-- IIb -->
      <g transform="translate(84.213324 266.478492)scale(0.06246 -0.06246)">
       <defs>
        <path d="M 3066 1522
Q 3066 1156 2986 864
Q 2906 572 2751 365
Q 2597 159 2372 50
Q 2147 -59 1856 -59
Q 1722 -59 1608 -32
Q 1494 -6 1384 53
Q 1275 113 1165 203
Q 1056 294 934 422
L 934 78
Q 934 53 921 34
Q 909 16 881 5
Q 853 -6 811 -12
Q 769 -19 703 -19
Q 641 -19 597 -12
Q 553 -6 525 5
Q 497 16 487 34
Q 478 53 478 78
L 478 4253
Q 478 4278 489 4297
Q 500 4316 529 4328
Q 559 4341 609 4347
Q 659 4353 734 4353
Q 813 4353 863 4347
Q 913 4341 941 4328
Q 969 4316 981 4297
Q 994 4278 994 4253
L 994 2569
Q 1119 2697 1236 2784
Q 1353 2872 1465 2926
Q 1578 2981 1690 3006
Q 1803 3031 1928 3031
Q 2234 3031 2451 2909
Q 2669 2788 2805 2583
Q 2941 2378 3003 2103
Q 3066 1828 3066 1522
z
M 2522 1463
Q 2522 1678 2489 1881
Q 2456 2084 2375 2240
Q 2294 2397 2159 2492
Q 2025 2588 1825 2588
Q 1725 2588 1628 2559
Q 1531 2531 1431 2465
Q 1331 2400 1223 2297
Q 1116 2194 994 2038
L 994 916
Q 1206 656 1400 520
Q 1594 384 1803 384
Q 1997 384 2134 478
Q 2272 572 2358 726
Q 2444 881 2483 1073
Q 2522 1266 2522 1463
z
" id="Calibri-62" transform="scale(0.015625)"/>
       </defs>
       <use xlink:href="#Calibri-49"/>
       <use x="25.195312" xlink:href="#Calibri-49"/>
       <use x="50.390625" xlink:href="#Calibri-62"/>
      </g>
     </g>
    </g>
    <g id="xtick_4">
     <g id="line2d_4">
      <g>
       <use style="stroke:#000000;stroke-width:0.5;" x="114.318541" xlink:href="#maefee09c90" y="260.730236"/>
      </g>
     </g>
     <g id="text_4">
      <!-- III -->
      <g transform="translate(111.957261 266.478492)scale(0.06246 -0.06246)">
       <use xlink:href="#Calibri-49"/>
       <use x="25.195312" xlink:href="#Calibri-49"/>
       <use x="50.390625" xlink:href="#Calibri-49"/>
      </g>
     </g>
    </g>
    <g id="xtick_5">
     <g id="line2d_5">
      <g>
       <use style="stroke:#000000;stroke-width:0.5;" x="144.335276" xlink:href="#maefee09c90" y="260.730236"/>
      </g>
     </g>
     <g id="text_5">
      <!-- IV -->
      <g transform="translate(141.776368 266.478492)scale(0.06246 -0.06246)">
       <defs>
        <path d="M 2172 94
Q 2159 59 2137 37
Q 2116 16 2077 3
Q 2038 -9 1977 -14
Q 1916 -19 1825 -19
Q 1756 -19 1704 -17
Q 1653 -16 1615 -9
Q 1578 -3 1551 5
Q 1525 13 1506 25
Q 1488 38 1477 55
Q 1466 72 1456 97
L 134 3853
Q 109 3922 107 3964
Q 106 4006 134 4028
Q 163 4050 225 4056
Q 288 4063 394 4063
Q 481 4063 532 4058
Q 584 4053 612 4040
Q 641 4028 655 4008
Q 669 3988 681 3956
L 1841 553
L 1844 553
L 2972 3950
Q 2981 3984 2993 4006
Q 3006 4028 3037 4040
Q 3069 4053 3125 4058
Q 3181 4063 3275 4063
Q 3372 4063 3428 4055
Q 3484 4047 3504 4025
Q 3525 4003 3520 3961
Q 3516 3919 3491 3850
L 2172 94
z
" id="Calibri-56" transform="scale(0.015625)"/>
       </defs>
       <use xlink:href="#Calibri-49"/>
       <use x="25.195312" xlink:href="#Calibri-56"/>
      </g>
     </g>
    </g>
    <g id="xtick_6">
     <g id="line2d_6">
      <g>
       <use style="stroke:#000000;stroke-width:0.5;" x="174.352011" xlink:href="#maefee09c90" y="260.730236"/>
      </g>
     </g>
     <g id="text_6">
      <!-- V -->
      <g transform="translate(172.580196 266.478492)scale(0.06246 -0.06246)">
       <use xlink:href="#Calibri-56"/>
      </g>
     </g>
    </g>
    <g id="xtick_7">
     <g id="line2d_7">
      <g>
       <use style="stroke:#000000;stroke-width:0.5;" x="204.368746" xlink:href="#maefee09c90" y="260.730236"/>
      </g>
     </g>
     <g id="text_7">
      <!-- VII -->
      <g transform="translate(201.022744 266.478492)scale(0.06246 -0.06246)">
       <use xlink:href="#Calibri-56"/>
       <use x="56.738281" xlink:href="#Calibri-49"/>
       <use x="81.933594" xlink:href="#Calibri-49"/>
      </g>
     </g>
    </g>
    <g id="text_8">
     <!-- LNLs -->
     <g transform="translate(118.376764 275.710515)scale(0.09 -0.09)">
      <defs>
       <path d="M 2634 234
Q 2634 172 2628 130
Q 2622 88 2608 58
Q 2594 28 2573 14
Q 2553 0 2525 0
L 738 0
Q 666 0 602 48
Q 538 97 538 219
L 538 3963
Q 538 3988 550 4006
Q 563 4025 594 4036
Q 625 4047 678 4055
Q 731 4063 806 4063
Q 884 4063 936 4055
Q 988 4047 1019 4036
Q 1050 4025 1062 4006
Q 1075 3988 1075 3963
L 1075 466
L 2525 466
Q 2553 466 2573 452
Q 2594 438 2608 411
Q 2622 384 2628 340
Q 2634 297 2634 234
z
" id="Calibri-4c" transform="scale(0.015625)"/>
       <path d="M 3594 222
Q 3594 159 3573 115
Q 3553 72 3520 44
Q 3488 16 3447 3
Q 3406 -9 3366 -9
L 3194 -9
Q 3113 -9 3052 8
Q 2991 25 2936 70
Q 2881 116 2826 194
Q 2772 272 2706 394
L 1431 2694
Q 1331 2872 1229 3067
Q 1128 3263 1041 3447
L 1034 3447
Q 1041 3222 1044 2987
Q 1047 2753 1047 2522
L 1047 81
Q 1047 59 1034 39
Q 1022 19 992 8
Q 963 -3 914 -11
Q 866 -19 791 -19
Q 716 -19 667 -11
Q 619 -3 591 8
Q 563 19 550 39
Q 538 59 538 81
L 538 3813
Q 538 3938 606 3991
Q 675 4044 756 4044
L 1013 4044
Q 1103 4044 1164 4028
Q 1225 4013 1273 3977
Q 1322 3941 1367 3877
Q 1413 3813 1466 3716
L 2447 1941
Q 2538 1778 2622 1623
Q 2706 1469 2784 1319
Q 2863 1169 2939 1023
Q 3016 878 3091 731
L 3094 731
Q 3088 978 3086 1245
Q 3084 1513 3084 1759
L 3084 3953
Q 3084 3975 3096 3994
Q 3109 4013 3139 4027
Q 3169 4041 3217 4047
Q 3266 4053 3344 4053
Q 3413 4053 3463 4047
Q 3513 4041 3541 4027
Q 3569 4013 3581 3994
Q 3594 3975 3594 3953
L 3594 222
z
" id="Calibri-4e" transform="scale(0.015625)"/>
       <path d="M 2244 844
Q 2244 628 2164 459
Q 2084 291 1937 175
Q 1791 59 1587 0
Q 1384 -59 1141 -59
Q 991 -59 855 -36
Q 719 -13 611 23
Q 503 59 428 98
Q 353 138 318 169
Q 284 200 268 256
Q 253 313 253 409
Q 253 469 259 509
Q 266 550 275 575
Q 284 600 301 611
Q 319 622 341 622
Q 375 622 442 580
Q 509 538 607 488
Q 706 438 840 395
Q 975 353 1150 353
Q 1281 353 1387 381
Q 1494 409 1572 464
Q 1650 519 1692 603
Q 1734 688 1734 803
Q 1734 922 1673 1003
Q 1613 1084 1513 1146
Q 1413 1209 1288 1257
Q 1163 1306 1030 1359
Q 897 1413 770 1480
Q 644 1547 544 1644
Q 444 1741 383 1875
Q 322 2009 322 2197
Q 322 2363 386 2514
Q 450 2666 578 2780
Q 706 2894 898 2962
Q 1091 3031 1347 3031
Q 1459 3031 1571 3012
Q 1684 2994 1775 2966
Q 1866 2938 1930 2905
Q 1994 2872 2026 2847
Q 2059 2822 2070 2803
Q 2081 2784 2086 2761
Q 2091 2738 2095 2703
Q 2100 2669 2100 2619
Q 2100 2566 2095 2527
Q 2091 2488 2080 2463
Q 2069 2438 2053 2427
Q 2038 2416 2019 2416
Q 1991 2416 1937 2450
Q 1884 2484 1800 2523
Q 1716 2563 1602 2597
Q 1488 2631 1341 2631
Q 1209 2631 1109 2601
Q 1009 2572 945 2517
Q 881 2463 848 2388
Q 816 2313 816 2225
Q 816 2103 878 2020
Q 941 1938 1041 1875
Q 1141 1813 1269 1763
Q 1397 1713 1530 1659
Q 1663 1606 1792 1540
Q 1922 1475 2022 1381
Q 2122 1288 2183 1156
Q 2244 1025 2244 844
z
" id="Calibri-73" transform="scale(0.015625)"/>
      </defs>
      <use xlink:href="#Calibri-4c"/>
      <use x="42.041016" xlink:href="#Calibri-4e"/>
      <use x="106.591797" xlink:href="#Calibri-4c"/>
      <use x="148.632812" xlink:href="#Calibri-73"/>
     </g>
    </g>
   </g>
   <g id="matplotlib.axis_2">
    <g id="ytick_1">
     <g id="line2d_8">
      <path clip-path="url(#p20ede64f9d)" d="M 25.018755 260.730236
L 228.632273 260.730236
" style="fill:none;stroke:#000000;stroke-linecap:square;stroke-opacity:0.1;stroke-width:0.5;"/>
     </g>
     <g id="line2d_9">
      <defs>
       <path d="M 0 0
L 3 0
" id="m9b1f9487d1" style="stroke:#000000;stroke-width:0.5;"/>
      </defs>
      <g>
       <use style="stroke:#000000;stroke-width:0.5;" x="25.018755" xlink:href="#m9b1f9487d1" y="260.730236"/>
      </g>
     </g>
     <g id="text_9">
      <!-- 0% -->
      <g transform="translate(15.8879 262.854364)scale(0.06246 -0.06246)">
       <defs>
        <path d="M 3022 2031
Q 3022 1566 2948 1181
Q 2875 797 2704 520
Q 2534 244 2259 92
Q 1984 -59 1581 -59
Q 1200 -59 939 77
Q 678 213 518 477
Q 359 741 292 1127
Q 225 1513 225 2013
Q 225 2475 300 2861
Q 375 3247 544 3523
Q 713 3800 988 3951
Q 1263 4103 1663 4103
Q 2047 4103 2308 3967
Q 2569 3831 2728 3567
Q 2888 3303 2955 2917
Q 3022 2531 3022 2031
z
M 2472 1994
Q 2472 2297 2450 2537
Q 2428 2778 2386 2962
Q 2344 3147 2276 3280
Q 2209 3413 2115 3498
Q 2022 3584 1901 3623
Q 1781 3663 1631 3663
Q 1366 3663 1200 3538
Q 1034 3413 939 3194
Q 844 2975 809 2681
Q 775 2388 775 2050
Q 775 1597 822 1280
Q 869 963 970 763
Q 1072 563 1230 472
Q 1388 381 1613 381
Q 1788 381 1920 437
Q 2053 494 2148 598
Q 2244 703 2306 850
Q 2369 997 2406 1175
Q 2444 1353 2458 1561
Q 2472 1769 2472 1994
z
" id="Calibri-30" transform="scale(0.015625)"/>
        <path d="M 1964 3070
Q 1964 2829 1910 2632
Q 1857 2436 1748 2296
Q 1639 2157 1471 2079
Q 1304 2001 1079 2001
Q 851 2001 688 2073
Q 526 2145 423 2281
Q 320 2417 271 2612
Q 223 2807 223 3057
Q 223 3286 274 3479
Q 326 3673 432 3813
Q 539 3954 706 4035
Q 873 4117 1101 4117
Q 1348 4117 1515 4032
Q 1682 3948 1782 3806
Q 1882 3664 1923 3473
Q 1964 3282 1964 3070
z
M 1526 3054
Q 1526 3229 1501 3365
Q 1476 3501 1424 3591
Q 1373 3682 1288 3727
Q 1204 3773 1089 3773
Q 979 3773 898 3729
Q 817 3686 765 3598
Q 714 3511 689 3381
Q 664 3251 664 3076
Q 664 2864 693 2721
Q 723 2579 777 2496
Q 832 2414 915 2381
Q 998 2348 1104 2348
Q 1229 2348 1309 2395
Q 1389 2442 1437 2534
Q 1486 2626 1506 2756
Q 1526 2886 1526 3054
z
M 4348 1022
Q 4348 781 4294 584
Q 4241 388 4132 248
Q 4023 109 3855 31
Q 3688 -47 3463 -47
Q 3235 -47 3072 25
Q 2910 97 2807 233
Q 2704 369 2655 564
Q 2607 759 2607 1009
Q 2607 1238 2658 1431
Q 2710 1625 2816 1765
Q 2923 1906 3090 1987
Q 3257 2069 3485 2069
Q 3732 2069 3899 1984
Q 4066 1900 4166 1758
Q 4266 1616 4307 1425
Q 4348 1234 4348 1022
z
M 3910 1006
Q 3910 1181 3885 1317
Q 3860 1453 3808 1543
Q 3757 1634 3672 1679
Q 3588 1725 3473 1725
Q 3363 1725 3282 1681
Q 3201 1638 3149 1550
Q 3098 1463 3073 1333
Q 3048 1203 3048 1028
Q 3048 816 3077 673
Q 3107 531 3161 448
Q 3216 366 3299 333
Q 3382 300 3488 300
Q 3613 300 3693 347
Q 3773 394 3821 486
Q 3870 578 3890 708
Q 3910 838 3910 1006
z
M 1078 -25
Q 1062 -53 1040 -67
Q 1018 -81 987 -92
Q 956 -103 912 -108
Q 868 -113 806 -113
Q 737 -113 695 -100
Q 653 -88 635 -67
Q 618 -47 623 -17
Q 628 13 653 50
L 3465 4078
Q 3481 4103 3503 4120
Q 3525 4138 3557 4147
Q 3590 4156 3632 4161
Q 3675 4166 3740 4166
Q 3806 4166 3848 4155
Q 3890 4144 3909 4122
Q 3928 4100 3923 4069
Q 3918 4038 3893 4003
L 1078 -25
z
" id="Calibri-25" transform="scale(0.015625)"/>
       </defs>
       <use xlink:href="#Calibri-30"/>
       <use x="50.683594" xlink:href="#Calibri-25"/>
      </g>
     </g>
    </g>
    <g id="ytick_2">
     <g id="line2d_10">
      <path clip-path="url(#p20ede64f9d)" d="M 25.018755 228.779502
L 228.632273 228.779502
" style="fill:none;stroke:#000000;stroke-linecap:square;stroke-opacity:0.1;stroke-width:0.5;"/>
     </g>
     <g id="line2d_11">
      <g>
       <use style="stroke:#000000;stroke-width:0.5;" x="25.018755" xlink:href="#m9b1f9487d1" y="228.779502"/>
      </g>
     </g>
     <g id="text_10">
      <!-- 5% -->
      <g transform="translate(15.8879 230.90363)scale(0.06246 -0.06246)">
       <defs>
        <path d="M 2869 1300
Q 2869 975 2759 722
Q 2650 469 2450 295
Q 2250 122 1973 31
Q 1697 -59 1359 -59
Q 1172 -59 1003 -32
Q 834 -6 703 33
Q 572 72 487 109
Q 403 147 379 169
Q 356 191 347 209
Q 338 228 330 254
Q 322 281 319 322
Q 316 363 316 419
Q 316 472 320 514
Q 325 556 337 582
Q 350 609 367 621
Q 384 634 406 634
Q 438 634 503 595
Q 569 556 680 511
Q 791 466 955 425
Q 1119 384 1344 384
Q 1553 384 1728 434
Q 1903 484 2029 590
Q 2156 697 2228 858
Q 2300 1019 2300 1250
Q 2300 1444 2239 1592
Q 2178 1741 2051 1839
Q 1925 1938 1731 1986
Q 1538 2034 1269 2034
Q 1078 2034 940 2015
Q 803 1997 684 1997
Q 597 1997 559 2037
Q 522 2078 522 2194
L 522 3841
Q 522 3944 570 3994
Q 619 4044 709 4044
L 2500 4044
Q 2525 4044 2548 4030
Q 2572 4016 2587 3987
Q 2603 3959 2611 3915
Q 2619 3872 2619 3813
Q 2619 3700 2587 3637
Q 2556 3575 2500 3575
L 991 3575
L 991 2441
Q 1100 2456 1214 2459
Q 1328 2463 1478 2463
Q 1825 2463 2084 2380
Q 2344 2297 2517 2145
Q 2691 1994 2780 1778
Q 2869 1563 2869 1300
z
" id="Calibri-35" transform="scale(0.015625)"/>
       </defs>
       <use xlink:href="#Calibri-35"/>
       <use x="50.683594" xlink:href="#Calibri-25"/>
      </g>
     </g>
    </g>
    <g id="ytick_3">
     <g id="line2d_12">
      <path clip-path="url(#p20ede64f9d)" d="M 25.018755 196.828769
L 228.632273 196.828769
" style="fill:none;stroke:#000000;stroke-linecap:square;stroke-opacity:0.1;stroke-width:0.5;"/>
     </g>
     <g id="line2d_13">
      <g>
       <use style="stroke:#000000;stroke-width:0.5;" x="25.018755" xlink:href="#m9b1f9487d1" y="196.828769"/>
      </g>
     </g>
     <g id="text_11">
      <!-- 10% -->
      <g transform="translate(12.721959 198.952897)scale(0.06246 -0.06246)">
       <defs>
        <path d="M 2897 213
Q 2897 153 2887 112
Q 2878 72 2862 47
Q 2847 22 2826 11
Q 2806 0 2784 0
L 672 0
Q 650 0 631 11
Q 613 22 595 47
Q 578 72 568 112
Q 559 153 559 213
Q 559 269 568 309
Q 578 350 592 376
Q 606 403 626 417
Q 647 431 672 431
L 1516 431
L 1516 3506
L 734 3041
Q 675 3009 639 3003
Q 603 2997 581 3017
Q 559 3038 551 3084
Q 544 3131 544 3203
Q 544 3256 548 3293
Q 553 3331 562 3356
Q 572 3381 589 3400
Q 606 3419 634 3438
L 1566 4034
Q 1578 4044 1597 4050
Q 1616 4056 1644 4062
Q 1672 4069 1709 4070
Q 1747 4072 1803 4072
Q 1878 4072 1928 4065
Q 1978 4059 2006 4048
Q 2034 4038 2043 4020
Q 2053 4003 2053 3984
L 2053 431
L 2784 431
Q 2809 431 2831 417
Q 2853 403 2867 376
Q 2881 350 2889 309
Q 2897 269 2897 213
z
" id="Calibri-31" transform="scale(0.015625)"/>
       </defs>
       <use xlink:href="#Calibri-31"/>
       <use x="50.683594" xlink:href="#Calibri-30"/>
       <use x="101.367188" xlink:href="#Calibri-25"/>
      </g>
     </g>
    </g>
    <g id="ytick_4">
     <g id="line2d_14">
      <path clip-path="url(#p20ede64f9d)" d="M 25.018755 164.878035
L 228.632273 164.878035
" style="fill:none;stroke:#000000;stroke-linecap:square;stroke-opacity:0.1;stroke-width:0.5;"/>
     </g>
     <g id="line2d_15">
      <g>
       <use style="stroke:#000000;stroke-width:0.5;" x="25.018755" xlink:href="#m9b1f9487d1" y="164.878035"/>
      </g>
     </g>
     <g id="text_12">
      <!-- 15% -->
      <g transform="translate(12.721959 167.002163)scale(0.06246 -0.06246)">
       <use xlink:href="#Calibri-31"/>
       <use x="50.683594" xlink:href="#Calibri-35"/>
       <use x="101.367188" xlink:href="#Calibri-25"/>
      </g>
     </g>
    </g>
    <g id="ytick_5">
     <g id="line2d_16">
      <path clip-path="url(#p20ede64f9d)" d="M 25.018755 132.927302
L 228.632273 132.927302
" style="fill:none;stroke:#000000;stroke-linecap:square;stroke-opacity:0.1;stroke-width:0.5;"/>
     </g>
     <g id="line2d_17">
      <g>
       <use style="stroke:#000000;stroke-width:0.5;" x="25.018755" xlink:href="#m9b1f9487d1" y="132.927302"/>
      </g>
     </g>
     <g id="text_13">
      <!-- 20% -->
      <g transform="translate(12.721959 135.05143)scale(0.06246 -0.06246)">
       <defs>
        <path d="M 2888 231
Q 2888 175 2880 131
Q 2872 88 2858 58
Q 2844 28 2820 14
Q 2797 0 2769 0
L 534 0
Q 491 0 458 11
Q 425 22 401 47
Q 378 72 367 119
Q 356 166 356 234
Q 356 297 361 344
Q 366 391 381 427
Q 397 463 420 498
Q 444 534 481 575
L 1266 1406
Q 1538 1694 1702 1922
Q 1866 2150 1955 2337
Q 2044 2525 2072 2678
Q 2100 2831 2100 2966
Q 2100 3100 2056 3220
Q 2013 3341 1930 3431
Q 1847 3522 1722 3575
Q 1597 3628 1434 3628
Q 1244 3628 1092 3575
Q 941 3522 827 3459
Q 713 3397 636 3344
Q 559 3291 522 3291
Q 500 3291 483 3303
Q 466 3316 455 3344
Q 444 3372 437 3419
Q 431 3466 431 3531
Q 431 3578 434 3612
Q 438 3647 445 3672
Q 453 3697 465 3719
Q 478 3741 515 3773
Q 553 3806 645 3862
Q 738 3919 877 3973
Q 1016 4028 1183 4065
Q 1350 4103 1534 4103
Q 1828 4103 2048 4020
Q 2269 3938 2414 3794
Q 2559 3650 2631 3459
Q 2703 3269 2703 3053
Q 2703 2859 2668 2667
Q 2634 2475 2523 2251
Q 2413 2028 2203 1754
Q 1994 1481 1647 1125
L 1006 456
L 2766 456
Q 2791 456 2814 442
Q 2838 428 2855 400
Q 2872 372 2880 330
Q 2888 288 2888 231
z
" id="Calibri-32" transform="scale(0.015625)"/>
       </defs>
       <use xlink:href="#Calibri-32"/>
       <use x="50.683594" xlink:href="#Calibri-30"/>
       <use x="101.367188" xlink:href="#Calibri-25"/>
      </g>
     </g>
    </g>
    <g id="ytick_6">
     <g id="line2d_18">
      <path clip-path="url(#p20ede64f9d)" d="M 25.018755 100.976568
L 228.632273 100.976568
" style="fill:none;stroke:#000000;stroke-linecap:square;stroke-opacity:0.1;stroke-width:0.5;"/>
     </g>
     <g id="line2d_19">
      <g>
       <use style="stroke:#000000;stroke-width:0.5;" x="25.018755" xlink:href="#m9b1f9487d1" y="100.976568"/>
      </g>
     </g>
     <g id="text_14">
      <!-- 25% -->
      <g transform="translate(12.721959 103.100696)scale(0.06246 -0.06246)">
       <use xlink:href="#Calibri-32"/>
       <use x="50.683594" xlink:href="#Calibri-35"/>
       <use x="101.367188" xlink:href="#Calibri-25"/>
      </g>
     </g>
    </g>
    <g id="ytick_7">
     <g id="line2d_20">
      <path clip-path="url(#p20ede64f9d)" d="M 25.018755 69.025835
L 228.632273 69.025835
" style="fill:none;stroke:#000000;stroke-linecap:square;stroke-opacity:0.1;stroke-width:0.5;"/>
     </g>
     <g id="line2d_21">
      <g>
       <use style="stroke:#000000;stroke-width:0.5;" x="25.018755" xlink:href="#m9b1f9487d1" y="69.025835"/>
      </g>
     </g>
     <g id="text_15">
      <!-- 30% -->
      <g transform="translate(12.721959 71.149963)scale(0.06246 -0.06246)">
       <defs>
        <path d="M 2856 1156
Q 2856 878 2759 654
Q 2663 431 2481 272
Q 2300 113 2034 27
Q 1769 -59 1434 -59
Q 1231 -59 1054 -26
Q 878 6 740 51
Q 603 97 512 145
Q 422 194 398 216
Q 375 238 362 259
Q 350 281 340 312
Q 331 344 326 389
Q 322 434 322 500
Q 322 613 344 656
Q 366 700 406 700
Q 434 700 517 650
Q 600 600 729 542
Q 859 484 1032 434
Q 1206 384 1419 384
Q 1625 384 1781 437
Q 1938 491 2044 587
Q 2150 684 2203 817
Q 2256 950 2256 1106
Q 2256 1278 2189 1415
Q 2122 1553 1992 1653
Q 1863 1753 1673 1806
Q 1484 1859 1244 1859
L 859 1859
Q 834 1859 811 1870
Q 788 1881 770 1906
Q 753 1931 742 1972
Q 731 2013 731 2078
Q 731 2138 740 2177
Q 750 2216 767 2239
Q 784 2263 806 2273
Q 828 2284 856 2284
L 1209 2284
Q 1416 2284 1580 2337
Q 1744 2391 1858 2491
Q 1972 2591 2033 2730
Q 2094 2869 2094 3041
Q 2094 3166 2053 3280
Q 2013 3394 1931 3478
Q 1850 3563 1723 3611
Q 1597 3659 1431 3659
Q 1250 3659 1098 3604
Q 947 3550 828 3487
Q 709 3425 631 3370
Q 553 3316 522 3316
Q 500 3316 483 3323
Q 466 3331 455 3354
Q 444 3378 439 3420
Q 434 3463 434 3531
Q 434 3578 437 3614
Q 441 3650 450 3676
Q 459 3703 471 3725
Q 484 3747 514 3776
Q 544 3806 634 3862
Q 725 3919 858 3973
Q 991 4028 1164 4065
Q 1338 4103 1538 4103
Q 1819 4103 2031 4031
Q 2244 3959 2386 3828
Q 2528 3697 2598 3514
Q 2669 3331 2669 3109
Q 2669 2919 2619 2755
Q 2569 2591 2472 2464
Q 2375 2338 2234 2248
Q 2094 2159 1909 2125
L 1909 2119
Q 2119 2097 2292 2014
Q 2466 1931 2591 1806
Q 2716 1681 2786 1514
Q 2856 1347 2856 1156
z
" id="Calibri-33" transform="scale(0.015625)"/>
       </defs>
       <use xlink:href="#Calibri-33"/>
       <use x="50.683594" xlink:href="#Calibri-30"/>
       <use x="101.367188" xlink:href="#Calibri-25"/>
      </g>
     </g>
    </g>
    <g id="ytick_8">
     <g id="line2d_22">
      <path clip-path="url(#p20ede64f9d)" d="M 25.018755 37.075101
L 228.632273 37.075101
" style="fill:none;stroke:#000000;stroke-linecap:square;stroke-opacity:0.1;stroke-width:0.5;"/>
     </g>
     <g id="line2d_23">
      <g>
       <use style="stroke:#000000;stroke-width:0.5;" x="25.018755" xlink:href="#m9b1f9487d1" y="37.075101"/>
      </g>
     </g>
     <g id="text_16">
      <!-- 35% -->
      <g transform="translate(12.721959 39.199229)scale(0.06246 -0.06246)">
       <use xlink:href="#Calibri-33"/>
       <use x="50.683594" xlink:href="#Calibri-35"/>
       <use x="101.367188" xlink:href="#Calibri-25"/>
      </g>
     </g>
    </g>
    <g id="ytick_9">
     <g id="line2d_24">
      <path clip-path="url(#p20ede64f9d)" d="M 25.018755 5.124368
L 228.632273 5.124368
" style="fill:none;stroke:#000000;stroke-linecap:square;stroke-opacity:0.1;stroke-width:0.5;"/>
     </g>
     <g id="line2d_25">
      <g>
       <use style="stroke:#000000;stroke-width:0.5;" x="25.018755" xlink:href="#m9b1f9487d1" y="5.124368"/>
      </g>
     </g>
     <g id="text_17">
      <!-- 40% -->
      <g transform="translate(12.721959 7.248496)scale(0.06246 -0.06246)">
       <defs>
        <path d="M 3059 1150
Q 3059 1047 3028 987
Q 2997 928 2941 928
L 2484 928
L 2484 78
Q 2484 53 2471 36
Q 2459 19 2428 6
Q 2397 -6 2347 -12
Q 2297 -19 2219 -19
Q 2144 -19 2094 -12
Q 2044 -6 2014 6
Q 1984 19 1973 36
Q 1963 53 1963 78
L 1963 928
L 294 928
Q 256 928 231 937
Q 206 947 186 972
Q 166 997 158 1044
Q 150 1091 150 1166
Q 150 1225 153 1272
Q 156 1319 165 1358
Q 175 1397 190 1433
Q 206 1469 228 1509
L 1684 3966
Q 1700 3991 1729 4009
Q 1759 4028 1806 4040
Q 1853 4053 1922 4058
Q 1991 4063 2084 4063
Q 2188 4063 2264 4055
Q 2341 4047 2387 4034
Q 2434 4022 2459 4001
Q 2484 3981 2484 3953
L 2484 1372
L 2941 1372
Q 2994 1372 3026 1317
Q 3059 1263 3059 1150
z
M 1963 3591
L 1956 3591
L 641 1372
L 1963 1372
L 1963 3591
z
" id="Calibri-34" transform="scale(0.015625)"/>
       </defs>
       <use xlink:href="#Calibri-34"/>
       <use x="50.683594" xlink:href="#Calibri-30"/>
       <use x="101.367188" xlink:href="#Calibri-25"/>
      </g>
     </g>
    </g>
    <g id="text_18">
     <!-- contralateral involvement -->
     <g transform="translate(9.121646 180.322849)rotate(-90)scale(0.09 -0.09)">
      <defs>
       <path d="M 2500 506
Q 2500 453 2497 414
Q 2494 375 2486 348
Q 2478 322 2467 301
Q 2456 281 2417 242
Q 2378 203 2284 145
Q 2191 88 2073 42
Q 1956 -3 1818 -31
Q 1681 -59 1534 -59
Q 1231 -59 997 41
Q 763 141 605 333
Q 447 525 364 804
Q 281 1084 281 1450
Q 281 1866 382 2164
Q 484 2463 661 2653
Q 838 2844 1077 2936
Q 1316 3028 1594 3028
Q 1728 3028 1854 3003
Q 1981 2978 2087 2937
Q 2194 2897 2276 2844
Q 2359 2791 2396 2753
Q 2434 2716 2448 2694
Q 2463 2672 2472 2642
Q 2481 2613 2484 2575
Q 2488 2538 2488 2481
Q 2488 2359 2459 2311
Q 2431 2263 2391 2263
Q 2344 2263 2283 2314
Q 2222 2366 2128 2428
Q 2034 2491 1901 2542
Q 1769 2594 1588 2594
Q 1216 2594 1017 2308
Q 819 2022 819 1478
Q 819 1206 870 1001
Q 922 797 1022 659
Q 1122 522 1267 455
Q 1413 388 1600 388
Q 1778 388 1912 444
Q 2047 500 2145 567
Q 2244 634 2311 689
Q 2378 744 2416 744
Q 2438 744 2453 731
Q 2469 719 2480 689
Q 2491 659 2495 614
Q 2500 569 2500 506
z
" id="Calibri-63" transform="scale(0.015625)"/>
       <path d="M 3094 1516
Q 3094 1172 3003 883
Q 2913 594 2733 384
Q 2553 175 2283 58
Q 2013 -59 1656 -59
Q 1309 -59 1051 44
Q 794 147 622 344
Q 450 541 365 822
Q 281 1103 281 1459
Q 281 1803 370 2092
Q 459 2381 639 2590
Q 819 2800 1087 2915
Q 1356 3031 1716 3031
Q 2063 3031 2320 2928
Q 2578 2825 2750 2628
Q 2922 2431 3008 2150
Q 3094 1869 3094 1516
z
M 2550 1481
Q 2550 1709 2508 1912
Q 2466 2116 2369 2269
Q 2272 2422 2106 2511
Q 1941 2600 1694 2600
Q 1466 2600 1302 2519
Q 1138 2438 1031 2289
Q 925 2141 873 1937
Q 822 1734 822 1494
Q 822 1263 864 1059
Q 906 856 1004 704
Q 1103 553 1268 464
Q 1434 375 1681 375
Q 1906 375 2072 456
Q 2238 538 2344 684
Q 2450 831 2500 1034
Q 2550 1238 2550 1481
z
" id="Calibri-6f" transform="scale(0.015625)"/>
       <path d="M 2900 78
Q 2900 53 2887 36
Q 2875 19 2847 6
Q 2819 -6 2769 -12
Q 2719 -19 2644 -19
Q 2566 -19 2516 -12
Q 2466 -6 2437 6
Q 2409 19 2396 36
Q 2384 53 2384 78
L 2384 1725
Q 2384 1966 2346 2112
Q 2309 2259 2237 2365
Q 2166 2472 2052 2528
Q 1938 2584 1788 2584
Q 1594 2584 1400 2446
Q 1206 2309 994 2044
L 994 78
Q 994 53 981 36
Q 969 19 941 6
Q 913 -6 863 -12
Q 813 -19 734 -19
Q 659 -19 609 -12
Q 559 -6 529 6
Q 500 19 489 36
Q 478 53 478 78
L 478 2891
Q 478 2916 487 2933
Q 497 2950 525 2964
Q 553 2978 597 2983
Q 641 2988 713 2988
Q 781 2988 826 2983
Q 872 2978 897 2964
Q 922 2950 933 2933
Q 944 2916 944 2891
L 944 2519
Q 1181 2784 1417 2907
Q 1653 3031 1894 3031
Q 2175 3031 2367 2936
Q 2559 2841 2678 2681
Q 2797 2522 2848 2308
Q 2900 2094 2900 1794
L 2900 78
z
" id="Calibri-6e" transform="scale(0.015625)"/>
       <path d="M 1941 284
Q 1941 194 1928 141
Q 1916 88 1891 63
Q 1866 38 1816 16
Q 1766 -6 1702 -20
Q 1638 -34 1566 -43
Q 1494 -53 1422 -53
Q 1203 -53 1047 5
Q 891 63 791 180
Q 691 297 645 476
Q 600 656 600 900
L 600 2544
L 206 2544
Q 159 2544 131 2594
Q 103 2644 103 2756
Q 103 2816 111 2856
Q 119 2897 131 2923
Q 144 2950 164 2961
Q 184 2972 209 2972
L 600 2972
L 600 3641
Q 600 3663 611 3681
Q 622 3700 651 3714
Q 681 3728 731 3734
Q 781 3741 856 3741
Q 934 3741 984 3734
Q 1034 3728 1062 3714
Q 1091 3700 1103 3681
Q 1116 3663 1116 3641
L 1116 2972
L 1838 2972
Q 1863 2972 1881 2961
Q 1900 2950 1914 2923
Q 1928 2897 1934 2856
Q 1941 2816 1941 2756
Q 1941 2644 1912 2594
Q 1884 2544 1838 2544
L 1116 2544
L 1116 975
Q 1116 684 1202 536
Q 1288 388 1509 388
Q 1581 388 1637 402
Q 1694 416 1737 431
Q 1781 447 1812 461
Q 1844 475 1869 475
Q 1884 475 1898 467
Q 1913 459 1920 437
Q 1928 416 1934 378
Q 1941 341 1941 284
z
" id="Calibri-74" transform="scale(0.015625)"/>
       <path d="M 2122 2706
Q 2122 2638 2119 2591
Q 2116 2544 2106 2517
Q 2097 2491 2083 2477
Q 2069 2463 2044 2463
Q 2019 2463 1983 2477
Q 1947 2491 1901 2505
Q 1856 2519 1800 2531
Q 1744 2544 1678 2544
Q 1600 2544 1525 2512
Q 1450 2481 1367 2409
Q 1284 2338 1193 2219
Q 1103 2100 994 1928
L 994 78
Q 994 53 981 36
Q 969 19 941 6
Q 913 -6 863 -12
Q 813 -19 734 -19
Q 659 -19 609 -12
Q 559 -6 529 6
Q 500 19 489 36
Q 478 53 478 78
L 478 2891
Q 478 2916 487 2933
Q 497 2950 525 2964
Q 553 2978 597 2983
Q 641 2988 713 2988
Q 781 2988 826 2983
Q 872 2978 897 2964
Q 922 2950 933 2933
Q 944 2916 944 2891
L 944 2481
Q 1059 2650 1161 2756
Q 1263 2863 1353 2923
Q 1444 2984 1533 3007
Q 1622 3031 1713 3031
Q 1753 3031 1804 3026
Q 1856 3022 1912 3009
Q 1969 2997 2014 2981
Q 2059 2966 2078 2950
Q 2097 2934 2103 2920
Q 2109 2906 2114 2884
Q 2119 2863 2120 2820
Q 2122 2778 2122 2706
z
" id="Calibri-72" transform="scale(0.015625)"/>
       <path d="M 994 78
Q 994 53 981 36
Q 969 19 941 6
Q 913 -6 863 -12
Q 813 -19 734 -19
Q 659 -19 609 -12
Q 559 -6 529 6
Q 500 19 489 36
Q 478 53 478 78
L 478 4253
Q 478 4278 489 4297
Q 500 4316 529 4328
Q 559 4341 609 4347
Q 659 4353 734 4353
Q 813 4353 863 4347
Q 913 4341 941 4328
Q 969 4316 981 4297
Q 994 4278 994 4253
L 994 78
z
" id="Calibri-6c" transform="scale(0.015625)"/>
       <path d="M 2878 1606
Q 2878 1484 2817 1432
Q 2756 1381 2678 1381
L 834 1381
Q 834 1147 881 959
Q 928 772 1037 637
Q 1147 503 1322 431
Q 1497 359 1750 359
Q 1950 359 2106 392
Q 2263 425 2377 465
Q 2491 506 2564 539
Q 2638 572 2675 572
Q 2697 572 2714 561
Q 2731 550 2740 528
Q 2750 506 2754 467
Q 2759 428 2759 372
Q 2759 331 2756 301
Q 2753 272 2748 248
Q 2744 225 2733 206
Q 2722 188 2705 170
Q 2688 153 2603 114
Q 2519 75 2384 37
Q 2250 0 2073 -29
Q 1897 -59 1697 -59
Q 1350 -59 1089 37
Q 828 134 650 325
Q 472 516 381 803
Q 291 1091 291 1472
Q 291 1834 384 2123
Q 478 2413 654 2614
Q 831 2816 1081 2923
Q 1331 3031 1641 3031
Q 1972 3031 2205 2925
Q 2438 2819 2588 2639
Q 2738 2459 2808 2217
Q 2878 1975 2878 1700
L 2878 1606
z
M 2359 1759
Q 2369 2166 2180 2397
Q 1991 2628 1619 2628
Q 1428 2628 1284 2556
Q 1141 2484 1044 2365
Q 947 2247 894 2089
Q 841 1931 834 1759
L 2359 1759
z
" id="Calibri-65" transform="scale(0.015625)"/>
       <path id="Calibri-20" transform="scale(0.015625)"/>
       <path d="M 994 78
Q 994 53 981 36
Q 969 19 941 6
Q 913 -6 863 -12
Q 813 -19 734 -19
Q 659 -19 609 -12
Q 559 -6 529 6
Q 500 19 489 36
Q 478 53 478 78
L 478 2891
Q 478 2913 489 2931
Q 500 2950 529 2962
Q 559 2975 609 2981
Q 659 2988 734 2988
Q 813 2988 863 2981
Q 913 2975 941 2962
Q 969 2950 981 2931
Q 994 2913 994 2891
L 994 78
z
M 1053 3841
Q 1053 3659 984 3593
Q 916 3528 731 3528
Q 550 3528 483 3592
Q 416 3656 416 3834
Q 416 4016 484 4081
Q 553 4147 738 4147
Q 919 4147 986 4083
Q 1053 4019 1053 3841
z
" id="Calibri-69" transform="scale(0.015625)"/>
       <path d="M 2784 2897
Q 2784 2884 2782 2870
Q 2781 2856 2778 2840
Q 2775 2825 2770 2806
Q 2766 2788 2759 2766
L 1800 94
Q 1788 59 1767 37
Q 1747 16 1706 3
Q 1666 -9 1603 -14
Q 1541 -19 1447 -19
Q 1353 -19 1290 -12
Q 1228 -6 1189 6
Q 1150 19 1128 41
Q 1106 63 1094 94
L 138 2766
Q 125 2803 117 2831
Q 109 2859 107 2873
Q 106 2888 106 2897
Q 106 2922 118 2940
Q 131 2959 161 2970
Q 191 2981 239 2984
Q 288 2988 359 2988
Q 450 2988 504 2983
Q 559 2978 589 2965
Q 619 2953 633 2934
Q 647 2916 659 2888
L 1453 569
L 1466 531
L 1475 569
L 2259 2888
Q 2266 2916 2281 2934
Q 2297 2953 2326 2965
Q 2356 2978 2407 2983
Q 2459 2988 2544 2988
Q 2616 2988 2662 2984
Q 2709 2981 2736 2968
Q 2763 2956 2773 2939
Q 2784 2922 2784 2897
z
" id="Calibri-76" transform="scale(0.015625)"/>
       <path d="M 4650 78
Q 4650 53 4637 36
Q 4625 19 4597 6
Q 4569 -6 4519 -12
Q 4469 -19 4394 -19
Q 4316 -19 4266 -12
Q 4216 -6 4186 6
Q 4156 19 4143 36
Q 4131 53 4131 78
L 4131 1788
Q 4131 1966 4100 2112
Q 4069 2259 4000 2365
Q 3931 2472 3825 2528
Q 3719 2584 3575 2584
Q 3397 2584 3217 2446
Q 3038 2309 2822 2044
L 2822 78
Q 2822 53 2809 36
Q 2797 19 2767 6
Q 2738 -6 2688 -12
Q 2638 -19 2563 -19
Q 2491 -19 2439 -12
Q 2388 -6 2358 6
Q 2328 19 2317 36
Q 2306 53 2306 78
L 2306 1788
Q 2306 1966 2272 2112
Q 2238 2259 2169 2365
Q 2100 2472 1995 2528
Q 1891 2584 1747 2584
Q 1569 2584 1387 2446
Q 1206 2309 994 2044
L 994 78
Q 994 53 981 36
Q 969 19 941 6
Q 913 -6 863 -12
Q 813 -19 734 -19
Q 659 -19 609 -12
Q 559 -6 529 6
Q 500 19 489 36
Q 478 53 478 78
L 478 2891
Q 478 2916 487 2933
Q 497 2950 525 2964
Q 553 2978 597 2983
Q 641 2988 713 2988
Q 781 2988 826 2983
Q 872 2978 897 2964
Q 922 2950 933 2933
Q 944 2916 944 2891
L 944 2519
Q 1181 2784 1404 2907
Q 1628 3031 1856 3031
Q 2031 3031 2170 2990
Q 2309 2950 2415 2876
Q 2522 2803 2597 2701
Q 2672 2600 2722 2475
Q 2863 2628 2989 2734
Q 3116 2841 3233 2906
Q 3350 2972 3461 3001
Q 3572 3031 3684 3031
Q 3956 3031 4140 2936
Q 4325 2841 4439 2681
Q 4553 2522 4601 2308
Q 4650 2094 4650 1856
L 4650 78
z
" id="Calibri-6d" transform="scale(0.015625)"/>
      </defs>
      <use xlink:href="#Calibri-63"/>
      <use x="42.285156" xlink:href="#Calibri-6f"/>
      <use x="95.019531" xlink:href="#Calibri-6e"/>
      <use x="147.558594" xlink:href="#Calibri-74"/>
      <use x="181.054688" xlink:href="#Calibri-72"/>
      <use x="215.917969" xlink:href="#Calibri-61"/>
      <use x="263.818359" xlink:href="#Calibri-6c"/>
      <use x="286.767578" xlink:href="#Calibri-61"/>
      <use x="334.667969" xlink:href="#Calibri-74"/>
      <use x="368.164062" xlink:href="#Calibri-65"/>
      <use x="417.919922" xlink:href="#Calibri-72"/>
      <use x="452.783203" xlink:href="#Calibri-61"/>
      <use x="500.683594" xlink:href="#Calibri-6c"/>
      <use x="523.632812" xlink:href="#Calibri-20"/>
      <use x="546.240234" xlink:href="#Calibri-69"/>
      <use x="569.189453" xlink:href="#Calibri-6e"/>
      <use x="621.728516" xlink:href="#Calibri-76"/>
      <use x="666.894531" xlink:href="#Calibri-6f"/>
      <use x="719.628906" xlink:href="#Calibri-6c"/>
      <use x="742.578125" xlink:href="#Calibri-76"/>
      <use x="787.744141" xlink:href="#Calibri-65"/>
      <use x="837.5" xlink:href="#Calibri-6d"/>
      <use x="917.382812" xlink:href="#Calibri-65"/>
      <use x="967.138672" xlink:href="#Calibri-6e"/>
      <use x="1019.677734" xlink:href="#Calibri-74"/>
     </g>
    </g>
   </g>
   <g id="patch_17">
    <path d="M 25.018755 260.730236
L 25.018755 5.124368
" style="fill:none;stroke:#000000;stroke-linecap:square;stroke-linejoin:miter;stroke-width:0.5;"/>
   </g>
   <g id="patch_18">
    <path d="M 228.632273 260.730236
L 228.632273 5.124368
" style="fill:none;stroke:#000000;stroke-linecap:square;stroke-linejoin:miter;stroke-width:0.5;"/>
   </g>
   <g id="patch_19">
    <path d="M 25.018755 260.730236
L 228.632273 260.730236
" style="fill:none;stroke:#000000;stroke-linecap:square;stroke-linejoin:miter;stroke-width:0.5;"/>
   </g>
   <g id="patch_20">
    <path d="M 25.018755 5.124368
L 228.632273 5.124368
" style="fill:none;stroke:#000000;stroke-linecap:square;stroke-linejoin:miter;stroke-width:0.5;"/>
   </g>
   <g id="legend_1">
    <g id="patch_21">
     <path d="M 138.963135 22.336002
L 224.260073 22.336002
Q 225.509273 22.336002 225.509273 21.086802
L 225.509273 9.496568
Q 225.509273 8.247368 224.260073 8.247368
L 138.963135 8.247368
Q 137.713935 8.247368 137.713935 9.496568
L 137.713935 21.086802
Q 137.713935 22.336002 138.963135 22.336002
z
" style="fill:#ffffff;opacity:0.8;stroke:#cccccc;stroke-linejoin:miter;"/>
    </g>
    <g id="patch_22">
     <path d="M 138.963135 13.868768
L 151.455135 13.868768
L 151.455135 9.496568
L 138.963135 9.496568
z
" style="fill:#ae0060;"/>
    </g>
    <g id="text_19">
     <!-- midline extension (90) -->
     <g transform="translate(156.451935 13.868768)scale(0.06246 -0.06246)">
      <defs>
       <path d="M 2888 78
Q 2888 53 2877 34
Q 2866 16 2839 5
Q 2813 -6 2769 -12
Q 2725 -19 2663 -19
Q 2597 -19 2553 -12
Q 2509 -6 2481 5
Q 2453 16 2440 34
Q 2428 53 2428 78
L 2428 450
Q 2206 209 1967 75
Q 1728 -59 1444 -59
Q 1134 -59 915 61
Q 697 181 561 386
Q 425 591 362 867
Q 300 1144 300 1450
Q 300 1813 378 2105
Q 456 2397 609 2603
Q 763 2809 989 2920
Q 1216 3031 1513 3031
Q 1759 3031 1964 2923
Q 2169 2816 2369 2606
L 2369 4241
Q 2369 4263 2380 4283
Q 2391 4303 2422 4314
Q 2453 4325 2501 4333
Q 2550 4341 2625 4341
Q 2703 4341 2753 4333
Q 2803 4325 2831 4314
Q 2859 4303 2873 4283
Q 2888 4263 2888 4241
L 2888 78
z
M 2369 2056
Q 2159 2316 1964 2452
Q 1769 2588 1556 2588
Q 1359 2588 1221 2494
Q 1084 2400 998 2247
Q 913 2094 873 1900
Q 834 1706 834 1506
Q 834 1294 867 1091
Q 900 888 981 730
Q 1063 572 1197 476
Q 1331 381 1534 381
Q 1638 381 1733 409
Q 1828 438 1928 503
Q 2028 569 2137 673
Q 2247 778 2369 931
L 2369 2056
z
" id="Calibri-64" transform="scale(0.015625)"/>
       <path d="M 2609 138
Q 2634 94 2634 64
Q 2634 34 2604 15
Q 2575 -3 2514 -11
Q 2453 -19 2356 -19
Q 2263 -19 2208 -14
Q 2153 -9 2120 2
Q 2088 13 2070 30
Q 2053 47 2041 69
L 1366 1184
L 694 69
Q 681 47 664 30
Q 647 13 614 2
Q 581 -9 528 -14
Q 475 -19 388 -19
Q 297 -19 239 -11
Q 181 -3 154 15
Q 128 34 129 64
Q 131 94 159 138
L 1034 1509
L 206 2831
Q 181 2875 179 2904
Q 178 2934 208 2954
Q 238 2975 298 2981
Q 359 2988 459 2988
Q 550 2988 604 2983
Q 659 2978 690 2968
Q 722 2959 737 2943
Q 753 2928 766 2906
L 1406 1859
L 2056 2906
Q 2069 2925 2084 2940
Q 2100 2956 2126 2967
Q 2153 2978 2201 2983
Q 2250 2988 2334 2988
Q 2425 2988 2483 2981
Q 2541 2975 2569 2958
Q 2597 2941 2594 2909
Q 2591 2878 2563 2831
L 1741 1525
L 2609 138
z
" id="Calibri-78" transform="scale(0.015625)"/>
       <path d="M 1547 4306
Q 1250 3678 1104 3017
Q 959 2356 959 1688
Q 959 1016 1107 356
Q 1256 -303 1541 -938
Q 1556 -975 1557 -1001
Q 1559 -1028 1537 -1045
Q 1516 -1063 1470 -1070
Q 1425 -1078 1347 -1078
Q 1291 -1078 1250 -1075
Q 1209 -1072 1179 -1062
Q 1150 -1053 1131 -1040
Q 1113 -1028 1103 -1013
Q 934 -694 806 -367
Q 678 -41 590 296
Q 503 634 459 979
Q 416 1325 416 1678
Q 416 2031 464 2375
Q 513 2719 602 3058
Q 691 3397 819 3725
Q 947 4053 1106 4375
Q 1109 4388 1123 4397
Q 1138 4406 1163 4415
Q 1188 4425 1231 4429
Q 1275 4434 1344 4434
Q 1416 4434 1459 4425
Q 1503 4416 1528 4400
Q 1553 4384 1556 4359
Q 1559 4334 1547 4306
z
" id="Calibri-28" transform="scale(0.015625)"/>
       <path d="M 2919 2181
Q 2919 1919 2887 1650
Q 2856 1381 2781 1132
Q 2706 884 2579 667
Q 2453 450 2261 287
Q 2069 125 1805 33
Q 1541 -59 1191 -59
Q 1056 -59 929 -42
Q 803 -25 701 0
Q 600 25 531 53
Q 463 81 431 109
Q 400 138 386 186
Q 372 234 372 316
Q 372 384 376 425
Q 381 466 390 487
Q 400 509 417 517
Q 434 525 459 525
Q 494 525 556 501
Q 619 478 714 450
Q 809 422 937 398
Q 1066 375 1225 375
Q 1528 375 1745 492
Q 1963 609 2100 806
Q 2238 1003 2306 1262
Q 2375 1522 2381 1809
Q 2216 1713 1984 1638
Q 1753 1563 1453 1563
Q 1116 1563 886 1655
Q 656 1747 517 1906
Q 378 2066 317 2284
Q 256 2503 256 2763
Q 256 3031 334 3273
Q 413 3516 578 3700
Q 744 3884 1000 3993
Q 1256 4103 1613 4103
Q 1866 4103 2061 4039
Q 2256 3975 2400 3854
Q 2544 3734 2644 3564
Q 2744 3394 2805 3178
Q 2866 2963 2892 2711
Q 2919 2459 2919 2181
z
M 2372 2241
Q 2372 2641 2319 2914
Q 2266 3188 2162 3356
Q 2059 3525 1909 3600
Q 1759 3675 1563 3675
Q 1359 3675 1215 3601
Q 1072 3528 980 3404
Q 888 3281 844 3125
Q 800 2969 800 2803
Q 800 2619 839 2466
Q 878 2313 965 2206
Q 1053 2100 1193 2042
Q 1334 1984 1541 1984
Q 1775 1984 1994 2054
Q 2213 2125 2372 2241
z
" id="Calibri-39" transform="scale(0.015625)"/>
       <path d="M 1522 1678
Q 1522 1325 1478 979
Q 1434 634 1346 296
Q 1259 -41 1132 -367
Q 1006 -694 838 -1013
Q 828 -1028 809 -1040
Q 791 -1053 761 -1062
Q 731 -1072 690 -1075
Q 650 -1078 594 -1078
Q 513 -1078 467 -1070
Q 422 -1063 401 -1045
Q 381 -1028 382 -1001
Q 384 -975 400 -938
Q 688 -306 834 355
Q 981 1016 981 1688
Q 981 2356 834 3017
Q 688 3678 394 4306
Q 381 4334 384 4359
Q 388 4384 413 4400
Q 438 4416 481 4425
Q 525 4434 597 4434
Q 663 4434 706 4429
Q 750 4425 776 4415
Q 803 4406 815 4397
Q 828 4388 834 4375
Q 1156 3734 1339 3057
Q 1522 2381 1522 1678
z
" id="Calibri-29" transform="scale(0.015625)"/>
      </defs>
      <use xlink:href="#Calibri-6d"/>
      <use x="79.882812" xlink:href="#Calibri-69"/>
      <use x="102.832031" xlink:href="#Calibri-64"/>
      <use x="155.371094" xlink:href="#Calibri-6c"/>
      <use x="178.320312" xlink:href="#Calibri-69"/>
      <use x="201.269531" xlink:href="#Calibri-6e"/>
      <use x="253.808594" xlink:href="#Calibri-65"/>
      <use x="303.564453" xlink:href="#Calibri-20"/>
      <use x="326.171875" xlink:href="#Calibri-65"/>
      <use x="375.927734" xlink:href="#Calibri-78"/>
      <use x="419.238281" xlink:href="#Calibri-74"/>
      <use x="452.734375" xlink:href="#Calibri-65"/>
      <use x="502.490234" xlink:href="#Calibri-6e"/>
      <use x="555.029297" xlink:href="#Calibri-73"/>
      <use x="594.140625" xlink:href="#Calibri-69"/>
      <use x="617.089844" xlink:href="#Calibri-6f"/>
      <use x="669.824219" xlink:href="#Calibri-6e"/>
      <use x="722.363281" xlink:href="#Calibri-20"/>
      <use x="744.970703" xlink:href="#Calibri-28"/>
      <use x="775.292969" xlink:href="#Calibri-39"/>
      <use x="825.976562" xlink:href="#Calibri-30"/>
      <use x="876.660156" xlink:href="#Calibri-29"/>
     </g>
    </g>
    <g id="patch_23">
     <path d="M 138.963135 19.976185
L 151.455135 19.976185
L 151.455135 15.603985
L 138.963135 15.603985
z
" style="fill:#00afa5;"/>
    </g>
    <g id="text_20">
     <!-- no midline extension (197) -->
     <g transform="translate(156.451935 19.976185)scale(0.06246 -0.06246)">
      <defs>
       <path d="M 2947 3813
Q 2947 3756 2942 3711
Q 2938 3666 2930 3623
Q 2922 3581 2908 3542
Q 2894 3503 2875 3459
L 1419 103
Q 1403 66 1379 42
Q 1356 19 1320 5
Q 1284 -9 1228 -14
Q 1172 -19 1091 -19
Q 984 -19 925 -9
Q 866 0 839 20
Q 813 41 816 70
Q 819 100 838 141
L 2369 3572
L 428 3572
Q 369 3572 339 3634
Q 309 3697 309 3809
Q 309 3869 317 3912
Q 325 3956 340 3986
Q 356 4016 378 4030
Q 400 4044 428 4044
L 2784 4044
Q 2828 4044 2861 4034
Q 2894 4025 2911 3997
Q 2928 3969 2937 3925
Q 2947 3881 2947 3813
z
" id="Calibri-37" transform="scale(0.015625)"/>
      </defs>
      <use xlink:href="#Calibri-6e"/>
      <use x="52.539062" xlink:href="#Calibri-6f"/>
      <use x="105.273438" xlink:href="#Calibri-20"/>
      <use x="127.880859" xlink:href="#Calibri-6d"/>
      <use x="207.763672" xlink:href="#Calibri-69"/>
      <use x="230.712891" xlink:href="#Calibri-64"/>
      <use x="283.251953" xlink:href="#Calibri-6c"/>
      <use x="306.201172" xlink:href="#Calibri-69"/>
      <use x="329.150391" xlink:href="#Calibri-6e"/>
      <use x="381.689453" xlink:href="#Calibri-65"/>
      <use x="431.445312" xlink:href="#Calibri-20"/>
      <use x="454.052734" xlink:href="#Calibri-65"/>
      <use x="503.808594" xlink:href="#Calibri-78"/>
      <use x="547.119141" xlink:href="#Calibri-74"/>
      <use x="580.615234" xlink:href="#Calibri-65"/>
      <use x="630.371094" xlink:href="#Calibri-6e"/>
      <use x="682.910156" xlink:href="#Calibri-73"/>
      <use x="722.021484" xlink:href="#Calibri-69"/>
      <use x="744.970703" xlink:href="#Calibri-6f"/>
      <use x="797.705078" xlink:href="#Calibri-6e"/>
      <use x="850.244141" xlink:href="#Calibri-20"/>
      <use x="872.851562" xlink:href="#Calibri-28"/>
      <use x="903.173828" xlink:href="#Calibri-31"/>
      <use x="953.857422" xlink:href="#Calibri-39"/>
      <use x="1004.541016" xlink:href="#Calibri-37"/>
      <use x="1055.224609" xlink:href="#Calibri-29"/>
     </g>
    </g>
   </g>
  </g>
  <g id="axes_2">
   <g id="patch_24">
    <path d="M 246.929549 260.730236
L 450.543067 260.730236
L 450.543067 5.124368
L 246.929549 5.124368
z
" style="fill:#ffffff;"/>
   </g>
   <g id="patch_25">
    <path clip-path="url(#p4481ae186d)" d="M 261.187499 260.730236
L 281.198655 260.730236
L 281.198655 239.250751
L 261.187499 239.250751
z
" style="fill:#ae0060;"/>
   </g>
   <g id="patch_26">
    <path clip-path="url(#p4481ae186d)" d="M 293.080279 260.730236
L 303.085857 260.730236
L 303.085857 17.296076
L 293.080279 17.296076
z
" style="fill:#ae0060;"/>
   </g>
   <g id="patch_27">
    <path clip-path="url(#p4481ae186d)" d="M 309.339344 260.730236
L 319.344922 260.730236
L 319.344922 124.693499
L 309.339344 124.693499
z
" style="fill:#ae0060;"/>
   </g>
   <g id="patch_28">
    <path clip-path="url(#p4481ae186d)" d="M 331.226546 260.730236
L 351.237703 260.730236
L 351.237703 153.332812
L 331.226546 153.332812
z
" style="fill:#ae0060;"/>
   </g>
   <g id="patch_29">
    <path clip-path="url(#p4481ae186d)" d="M 361.243281 260.730236
L 381.254438 260.730236
L 381.254438 232.090923
L 361.243281 232.090923
z
" style="fill:#ae0060;"/>
   </g>
   <g id="patch_30">
    <path clip-path="url(#p4481ae186d)" d="M 391.260016 260.730236
L 411.271172 260.730236
L 411.271172 253.570408
L 391.260016 253.570408
z
" style="fill:#ae0060;"/>
   </g>
   <g id="patch_31">
    <path clip-path="url(#p4481ae186d)" d="M 421.276751 260.730236
L 441.287907 260.730236
L 441.287907 246.410579
L 421.276751 246.410579
z
" style="fill:#ae0060;"/>
   </g>
   <g id="patch_32">
    <path clip-path="url(#p4481ae186d)" d="M 256.184709 260.730236
L 276.195866 260.730236
L 276.195866 260.730236
L 256.184709 260.730236
z
" style="fill:#00afa5;"/>
   </g>
   <g id="patch_33">
    <path clip-path="url(#p4481ae186d)" d="M 288.07749 260.730236
L 298.083068 260.730236
L 298.083068 190.983633
L 288.07749 190.983633
z
" style="fill:#00afa5;"/>
   </g>
   <g id="patch_34">
    <path clip-path="url(#p4481ae186d)" d="M 304.336555 260.730236
L 314.342133 260.730236
L 314.342133 237.481368
L 304.336555 237.481368
z
" style="fill:#00afa5;"/>
   </g>
   <g id="patch_35">
    <path clip-path="url(#p4481ae186d)" d="M 326.223757 260.730236
L 346.234914 260.730236
L 346.234914 232.831595
L 326.223757 232.831595
z
" style="fill:#00afa5;"/>
   </g>
   <g id="patch_36">
    <path clip-path="url(#p4481ae186d)" d="M 356.240492 260.730236
L 376.251649 260.730236
L 376.251649 246.780915
L 356.240492 246.780915
z
" style="fill:#00afa5;"/>
   </g>
   <g id="patch_37">
    <path clip-path="url(#p4481ae186d)" d="M 386.257227 260.730236
L 406.268383 260.730236
L 406.268383 256.080462
L 386.257227 256.080462
z
" style="fill:#00afa5;"/>
   </g>
   <g id="patch_38">
    <path clip-path="url(#p4481ae186d)" d="M 416.273962 260.730236
L 436.285118 260.730236
L 436.285118 242.131142
L 416.273962 242.131142
z
" style="fill:#00afa5;"/>
   </g>
   <g id="matplotlib.axis_3">
    <g id="xtick_8">
     <g id="line2d_26">
      <g>
       <use style="stroke:#000000;stroke-width:0.5;" x="266.190288" xlink:href="#maefee09c90" y="260.730236"/>
      </g>
     </g>
     <g id="text_21">
      <!-- I -->
      <g transform="translate(265.403194 266.478492)scale(0.06246 -0.06246)">
       <use xlink:href="#Calibri-49"/>
      </g>
     </g>
    </g>
    <g id="xtick_9">
     <g id="line2d_27">
      <g>
       <use style="stroke:#000000;stroke-width:0.5;" x="293.080279" xlink:href="#maefee09c90" y="260.730236"/>
      </g>
     </g>
     <g id="text_22">
      <!-- IIa -->
      <g transform="translate(290.00998 266.478492)scale(0.06246 -0.06246)">
       <use xlink:href="#Calibri-49"/>
       <use x="25.195312" xlink:href="#Calibri-49"/>
       <use x="50.390625" xlink:href="#Calibri-61"/>
      </g>
     </g>
    </g>
    <g id="xtick_10">
     <g id="line2d_28">
      <g>
       <use style="stroke:#000000;stroke-width:0.5;" x="309.339344" xlink:href="#maefee09c90" y="260.730236"/>
      </g>
     </g>
     <g id="text_23">
      <!-- IIb -->
      <g transform="translate(306.124118 266.478492)scale(0.06246 -0.06246)">
       <use xlink:href="#Calibri-49"/>
       <use x="25.195312" xlink:href="#Calibri-49"/>
       <use x="50.390625" xlink:href="#Calibri-62"/>
      </g>
     </g>
    </g>
    <g id="xtick_11">
     <g id="line2d_29">
      <g>
       <use style="stroke:#000000;stroke-width:0.5;" x="336.229335" xlink:href="#maefee09c90" y="260.730236"/>
      </g>
     </g>
     <g id="text_24">
      <!-- III -->
      <g transform="translate(333.868055 266.478492)scale(0.06246 -0.06246)">
       <use xlink:href="#Calibri-49"/>
       <use x="25.195312" xlink:href="#Calibri-49"/>
       <use x="50.390625" xlink:href="#Calibri-49"/>
      </g>
     </g>
    </g>
    <g id="xtick_12">
     <g id="line2d_30">
      <g>
       <use style="stroke:#000000;stroke-width:0.5;" x="366.24607" xlink:href="#maefee09c90" y="260.730236"/>
      </g>
     </g>
     <g id="text_25">
      <!-- IV -->
      <g transform="translate(363.687162 266.478492)scale(0.06246 -0.06246)">
       <use xlink:href="#Calibri-49"/>
       <use x="25.195312" xlink:href="#Calibri-56"/>
      </g>
     </g>
    </g>
    <g id="xtick_13">
     <g id="line2d_31">
      <g>
       <use style="stroke:#000000;stroke-width:0.5;" x="396.262805" xlink:href="#maefee09c90" y="260.730236"/>
      </g>
     </g>
     <g id="text_26">
      <!-- V -->
      <g transform="translate(394.49099 266.478492)scale(0.06246 -0.06246)">
       <use xlink:href="#Calibri-56"/>
      </g>
     </g>
    </g>
    <g id="xtick_14">
     <g id="line2d_32">
      <g>
       <use style="stroke:#000000;stroke-width:0.5;" x="426.27954" xlink:href="#maefee09c90" y="260.730236"/>
      </g>
     </g>
     <g id="text_27">
      <!-- VII -->
      <g transform="translate(422.933538 266.478492)scale(0.06246 -0.06246)">
       <use xlink:href="#Calibri-56"/>
       <use x="56.738281" xlink:href="#Calibri-49"/>
       <use x="81.933594" xlink:href="#Calibri-49"/>
      </g>
     </g>
    </g>
    <g id="text_28">
     <!-- LNLs -->
     <g transform="translate(340.287558 275.710515)scale(0.09 -0.09)">
      <use xlink:href="#Calibri-4c"/>
      <use x="42.041016" xlink:href="#Calibri-4e"/>
      <use x="106.591797" xlink:href="#Calibri-4c"/>
      <use x="148.632812" xlink:href="#Calibri-73"/>
     </g>
    </g>
   </g>
   <g id="matplotlib.axis_4">
    <g id="ytick_10">
     <g id="line2d_33">
      <path clip-path="url(#p4481ae186d)" d="M 246.929549 260.730236
L 450.543067 260.730236
" style="fill:none;stroke:#000000;stroke-linecap:square;stroke-opacity:0.1;stroke-width:0.5;"/>
     </g>
     <g id="line2d_34">
      <g>
       <use style="stroke:#000000;stroke-width:0.5;" x="246.929549" xlink:href="#m9b1f9487d1" y="260.730236"/>
      </g>
     </g>
     <g id="text_29">
      <!-- 0% -->
      <g transform="translate(237.798694 262.854364)scale(0.06246 -0.06246)">
       <use xlink:href="#Calibri-30"/>
       <use x="50.683594" xlink:href="#Calibri-25"/>
      </g>
     </g>
    </g>
    <g id="ytick_11">
     <g id="line2d_35">
      <path clip-path="url(#p4481ae186d)" d="M 246.929549 220.277206
L 450.543067 220.277206
" style="fill:none;stroke:#000000;stroke-linecap:square;stroke-opacity:0.1;stroke-width:0.5;"/>
     </g>
     <g id="line2d_36">
      <g>
       <use style="stroke:#000000;stroke-width:0.5;" x="246.929549" xlink:href="#m9b1f9487d1" y="220.277206"/>
      </g>
     </g>
     <g id="text_30">
      <!-- 5% -->
      <g transform="translate(237.798694 222.401334)scale(0.06246 -0.06246)">
       <use xlink:href="#Calibri-35"/>
       <use x="50.683594" xlink:href="#Calibri-25"/>
      </g>
     </g>
    </g>
    <g id="ytick_12">
     <g id="line2d_37">
      <path clip-path="url(#p4481ae186d)" d="M 246.929549 179.824177
L 450.543067 179.824177
" style="fill:none;stroke:#000000;stroke-linecap:square;stroke-opacity:0.1;stroke-width:0.5;"/>
     </g>
     <g id="line2d_38">
      <g>
       <use style="stroke:#000000;stroke-width:0.5;" x="246.929549" xlink:href="#m9b1f9487d1" y="179.824177"/>
      </g>
     </g>
     <g id="text_31">
      <!-- 10% -->
      <g transform="translate(234.632753 181.948305)scale(0.06246 -0.06246)">
       <use xlink:href="#Calibri-31"/>
       <use x="50.683594" xlink:href="#Calibri-30"/>
       <use x="101.367188" xlink:href="#Calibri-25"/>
      </g>
     </g>
    </g>
    <g id="ytick_13">
     <g id="line2d_39">
      <path clip-path="url(#p4481ae186d)" d="M 246.929549 139.371147
L 450.543067 139.371147
" style="fill:none;stroke:#000000;stroke-linecap:square;stroke-opacity:0.1;stroke-width:0.5;"/>
     </g>
     <g id="line2d_40">
      <g>
       <use style="stroke:#000000;stroke-width:0.5;" x="246.929549" xlink:href="#m9b1f9487d1" y="139.371147"/>
      </g>
     </g>
     <g id="text_32">
      <!-- 15% -->
      <g transform="translate(234.632753 141.495275)scale(0.06246 -0.06246)">
       <use xlink:href="#Calibri-31"/>
       <use x="50.683594" xlink:href="#Calibri-35"/>
       <use x="101.367188" xlink:href="#Calibri-25"/>
      </g>
     </g>
    </g>
    <g id="ytick_14">
     <g id="line2d_41">
      <path clip-path="url(#p4481ae186d)" d="M 246.929549 98.918118
L 450.543067 98.918118
" style="fill:none;stroke:#000000;stroke-linecap:square;stroke-opacity:0.1;stroke-width:0.5;"/>
     </g>
     <g id="line2d_42">
      <g>
       <use style="stroke:#000000;stroke-width:0.5;" x="246.929549" xlink:href="#m9b1f9487d1" y="98.918118"/>
      </g>
     </g>
     <g id="text_33">
      <!-- 20% -->
      <g transform="translate(234.632753 101.042246)scale(0.06246 -0.06246)">
       <use xlink:href="#Calibri-32"/>
       <use x="50.683594" xlink:href="#Calibri-30"/>
       <use x="101.367188" xlink:href="#Calibri-25"/>
      </g>
     </g>
    </g>
    <g id="ytick_15">
     <g id="line2d_43">
      <path clip-path="url(#p4481ae186d)" d="M 246.929549 58.465088
L 450.543067 58.465088
" style="fill:none;stroke:#000000;stroke-linecap:square;stroke-opacity:0.1;stroke-width:0.5;"/>
     </g>
     <g id="line2d_44">
      <g>
       <use style="stroke:#000000;stroke-width:0.5;" x="246.929549" xlink:href="#m9b1f9487d1" y="58.465088"/>
      </g>
     </g>
     <g id="text_34">
      <!-- 25% -->
      <g transform="translate(234.632753 60.589216)scale(0.06246 -0.06246)">
       <use xlink:href="#Calibri-32"/>
       <use x="50.683594" xlink:href="#Calibri-35"/>
       <use x="101.367188" xlink:href="#Calibri-25"/>
      </g>
     </g>
    </g>
    <g id="ytick_16">
     <g id="line2d_45">
      <path clip-path="url(#p4481ae186d)" d="M 246.929549 18.012059
L 450.543067 18.012059
" style="fill:none;stroke:#000000;stroke-linecap:square;stroke-opacity:0.1;stroke-width:0.5;"/>
     </g>
     <g id="line2d_46">
      <g>
       <use style="stroke:#000000;stroke-width:0.5;" x="246.929549" xlink:href="#m9b1f9487d1" y="18.012059"/>
      </g>
     </g>
     <g id="text_35">
      <!-- 30% -->
      <g transform="translate(234.632753 20.136187)scale(0.06246 -0.06246)">
       <use xlink:href="#Calibri-33"/>
       <use x="50.683594" xlink:href="#Calibri-30"/>
       <use x="101.367188" xlink:href="#Calibri-25"/>
      </g>
     </g>
    </g>
   </g>
   <g id="patch_39">
    <path d="M 246.929549 260.730236
L 246.929549 5.124368
" style="fill:none;stroke:#000000;stroke-linecap:square;stroke-linejoin:miter;stroke-width:0.5;"/>
   </g>
   <g id="patch_40">
    <path d="M 450.543067 260.730236
L 450.543067 5.124368
" style="fill:none;stroke:#000000;stroke-linecap:square;stroke-linejoin:miter;stroke-width:0.5;"/>
   </g>
   <g id="patch_41">
    <path d="M 246.929549 260.730236
L 450.543067 260.730236
" style="fill:none;stroke:#000000;stroke-linecap:square;stroke-linejoin:miter;stroke-width:0.5;"/>
   </g>
   <g id="patch_42">
    <path d="M 246.929549 5.124368
L 450.543067 5.124368
" style="fill:none;stroke:#000000;stroke-linecap:square;stroke-linejoin:miter;stroke-width:0.5;"/>
   </g>
   <g id="legend_2">
    <g id="patch_43">
     <path d="M 336.743875 22.336002
L 446.170867 22.336002
Q 447.420067 22.336002 447.420067 21.086802
L 447.420067 9.496568
Q 447.420067 8.247368 446.170867 8.247368
L 336.743875 8.247368
Q 335.494675 8.247368 335.494675 9.496568
L 335.494675 21.086802
Q 335.494675 22.336002 336.743875 22.336002
z
" style="fill:#ffffff;opacity:0.8;stroke:#cccccc;stroke-linejoin:miter;"/>
    </g>
    <g id="patch_44">
     <path d="M 336.743875 13.868768
L 349.235875 13.868768
L 349.235875 9.496568
L 336.743875 9.496568
z
" style="fill:#ae0060;"/>
    </g>
    <g id="text_36">
     <!-- ipsilateral level III involved (113) -->
     <g transform="translate(354.232675 13.868768)scale(0.06246 -0.06246)">
      <defs>
       <path d="M 3066 1528
Q 3066 1159 2986 865
Q 2906 572 2751 367
Q 2597 163 2369 52
Q 2141 -59 1847 -59
Q 1722 -59 1615 -34
Q 1509 -9 1407 44
Q 1306 97 1206 178
Q 1106 259 994 369
L 994 -1038
Q 994 -1063 981 -1081
Q 969 -1100 941 -1112
Q 913 -1125 863 -1131
Q 813 -1138 734 -1138
Q 659 -1138 609 -1131
Q 559 -1125 529 -1112
Q 500 -1100 489 -1081
Q 478 -1063 478 -1038
L 478 2891
Q 478 2919 487 2936
Q 497 2953 525 2965
Q 553 2978 597 2983
Q 641 2988 703 2988
Q 769 2988 811 2983
Q 853 2978 881 2965
Q 909 2953 920 2936
Q 931 2919 931 2891
L 931 2513
Q 1059 2644 1178 2741
Q 1297 2838 1417 2902
Q 1538 2966 1664 2998
Q 1791 3031 1931 3031
Q 2238 3031 2453 2912
Q 2669 2794 2805 2587
Q 2941 2381 3003 2107
Q 3066 1834 3066 1528
z
M 2522 1469
Q 2522 1684 2489 1886
Q 2456 2088 2376 2244
Q 2297 2400 2162 2494
Q 2028 2588 1828 2588
Q 1728 2588 1631 2558
Q 1534 2528 1434 2464
Q 1334 2400 1225 2295
Q 1116 2191 994 2038
L 994 919
Q 1206 659 1397 521
Q 1588 384 1797 384
Q 1991 384 2130 478
Q 2269 572 2355 728
Q 2441 884 2481 1078
Q 2522 1272 2522 1469
z
" id="Calibri-70" transform="scale(0.015625)"/>
      </defs>
      <use xlink:href="#Calibri-69"/>
      <use x="22.949219" xlink:href="#Calibri-70"/>
      <use x="75.488281" xlink:href="#Calibri-73"/>
      <use x="114.599609" xlink:href="#Calibri-69"/>
      <use x="137.548828" xlink:href="#Calibri-6c"/>
      <use x="160.498047" xlink:href="#Calibri-61"/>
      <use x="208.398438" xlink:href="#Calibri-74"/>
      <use x="241.894531" xlink:href="#Calibri-65"/>
      <use x="291.650391" xlink:href="#Calibri-72"/>
      <use x="326.513672" xlink:href="#Calibri-61"/>
      <use x="374.414062" xlink:href="#Calibri-6c"/>
      <use x="397.363281" xlink:href="#Calibri-20"/>
      <use x="419.970703" xlink:href="#Calibri-6c"/>
      <use x="442.919922" xlink:href="#Calibri-65"/>
      <use x="492.675781" xlink:href="#Calibri-76"/>
      <use x="537.841797" xlink:href="#Calibri-65"/>
      <use x="587.597656" xlink:href="#Calibri-6c"/>
      <use x="610.546875" xlink:href="#Calibri-20"/>
      <use x="633.154297" xlink:href="#Calibri-49"/>
      <use x="658.349609" xlink:href="#Calibri-49"/>
      <use x="683.544922" xlink:href="#Calibri-49"/>
      <use x="708.740234" xlink:href="#Calibri-20"/>
      <use x="731.347656" xlink:href="#Calibri-69"/>
      <use x="754.296875" xlink:href="#Calibri-6e"/>
      <use x="806.835938" xlink:href="#Calibri-76"/>
      <use x="852.001953" xlink:href="#Calibri-6f"/>
      <use x="904.736328" xlink:href="#Calibri-6c"/>
      <use x="927.685547" xlink:href="#Calibri-76"/>
      <use x="972.851562" xlink:href="#Calibri-65"/>
      <use x="1022.607422" xlink:href="#Calibri-64"/>
      <use x="1075.146484" xlink:href="#Calibri-20"/>
      <use x="1097.753906" xlink:href="#Calibri-28"/>
      <use x="1128.076172" xlink:href="#Calibri-31"/>
      <use x="1178.759766" xlink:href="#Calibri-31"/>
      <use x="1229.443359" xlink:href="#Calibri-33"/>
      <use x="1280.126953" xlink:href="#Calibri-29"/>
     </g>
    </g>
    <g id="patch_45">
     <path d="M 336.743875 19.976185
L 349.235875 19.976185
L 349.235875 15.603985
L 336.743875 15.603985
z
" style="fill:#00afa5;"/>
    </g>
    <g id="text_37">
     <!-- ipsilateral level III not involved (174) -->
     <g transform="translate(354.232675 19.976185)scale(0.06246 -0.06246)">
      <use xlink:href="#Calibri-69"/>
      <use x="22.949219" xlink:href="#Calibri-70"/>
      <use x="75.488281" xlink:href="#Calibri-73"/>
      <use x="114.599609" xlink:href="#Calibri-69"/>
      <use x="137.548828" xlink:href="#Calibri-6c"/>
      <use x="160.498047" xlink:href="#Calibri-61"/>
      <use x="208.398438" xlink:href="#Calibri-74"/>
      <use x="241.894531" xlink:href="#Calibri-65"/>
      <use x="291.650391" xlink:href="#Calibri-72"/>
      <use x="326.513672" xlink:href="#Calibri-61"/>
      <use x="374.414062" xlink:href="#Calibri-6c"/>
      <use x="397.363281" xlink:href="#Calibri-20"/>
      <use x="419.970703" xlink:href="#Calibri-6c"/>
      <use x="442.919922" xlink:href="#Calibri-65"/>
      <use x="492.675781" xlink:href="#Calibri-76"/>
      <use x="537.841797" xlink:href="#Calibri-65"/>
      <use x="587.597656" xlink:href="#Calibri-6c"/>
      <use x="610.546875" xlink:href="#Calibri-20"/>
      <use x="633.154297" xlink:href="#Calibri-49"/>
      <use x="658.349609" xlink:href="#Calibri-49"/>
      <use x="683.544922" xlink:href="#Calibri-49"/>
      <use x="708.740234" xlink:href="#Calibri-20"/>
      <use x="731.347656" xlink:href="#Calibri-6e"/>
      <use x="783.886719" xlink:href="#Calibri-6f"/>
      <use x="836.621094" xlink:href="#Calibri-74"/>
      <use x="870.117188" xlink:href="#Calibri-20"/>
      <use x="892.724609" xlink:href="#Calibri-69"/>
      <use x="915.673828" xlink:href="#Calibri-6e"/>
      <use x="968.212891" xlink:href="#Calibri-76"/>
      <use x="1013.378906" xlink:href="#Calibri-6f"/>
      <use x="1066.113281" xlink:href="#Calibri-6c"/>
      <use x="1089.0625" xlink:href="#Calibri-76"/>
      <use x="1134.228516" xlink:href="#Calibri-65"/>
      <use x="1183.984375" xlink:href="#Calibri-64"/>
      <use x="1236.523438" xlink:href="#Calibri-20"/>
      <use x="1259.130859" xlink:href="#Calibri-28"/>
      <use x="1289.453125" xlink:href="#Calibri-31"/>
      <use x="1340.136719" xlink:href="#Calibri-37"/>
      <use x="1390.820312" xlink:href="#Calibri-34"/>
      <use x="1441.503906" xlink:href="#Calibri-29"/>
     </g>
    </g>
   </g>
  </g>
 </g>
 <defs>
  <clipPath id="p20ede64f9d">
   <rect height="255.605868" width="203.613518" x="25.018755" y="5.124368"/>
  </clipPath>
  <clipPath id="p4481ae186d">
   <rect height="255.605868" width="203.613518" x="246.929549" y="5.124368"/>
  </clipPath>
 </defs>
</svg>
